<?xml version="1.0" standalone="no"?>
<!DOCTYPE svg PUBLIC "-//W3C//DTD SVG 1.1//EN" "http://www.w3.org/Graphics/SVG/1.1/DTD/svg11.dtd" >
<svg xmlns="http://www.w3.org/2000/svg" xmlns:xlink="http://www.w3.org/1999/xlink" version="1.1">
<metadata>
Created by FontForge 20170731 at Sun Mar  1 19:24:10 2015
 By Aleksey,,,
Copyright (c) 2014 by Richard Miller. All rights reserved.
</metadata>
<defs>
<font id="Uniform-Condensed4" horiz-adv-x="515" >
  <font-face 
    font-family="Uniform Cond 3"
    font-weight="400"
    font-stretch="condensed"
    units-per-em="1000"
    panose-1="2 0 0 0 0 0 0 0 0 0"
    ascent="813"
    descent="-187"
    x-height="517"
    cap-height="700"
    bbox="-190 -218 1050 949"
    underline-thickness="50"
    underline-position="-150"
    unicode-range="U+0020-FB02"
  />
<missing-glyph horiz-adv-x="691" 
d="M20 0v700h651v-700h-651zM381 350l159 158l-36 36l-159 -158l-158 159l-36 -36l158 -159l-159 -159l36 -36l159 159l159 -159l36 36z" />
    <glyph glyph-name="ellipsis" unicode="&#x2e;&#x2e;&#x2e;" horiz-adv-x="821" 
d="M124 158q36 0 59.5 -24t23.5 -60t-23.5 -60t-59.5 -24q-37 0 -60.5 24t-23.5 60t23.5 60t60.5 24zM411 158q36 0 59.5 -24t23.5 -60t-23.5 -60t-59.5 -24q-37 0 -60.5 24t-23.5 60t23.5 60t60.5 24zM698 158q36 0 59.5 -24t23.5 -60t-23.5 -60t-59.5 -24q-37 0 -60.5 24
t-23.5 60t23.5 60t60.5 24z" />
    <glyph glyph-name="ff" unicode="ff" horiz-adv-x="665" 
d="M524 530v-33h121v-103h-121v-394h-134v545q0 81 41 123t119 42q32 0 58 -4t36 -8l11 -3l-14 -102q-23 6 -55 6t-47 -16t-15 -53zM219 536v-39h121v-103h-121v-394h-134v394h-75v103h75v58q0 75 41 115t115 40q33 0 60 -4t38 -8l11 -3l-14 -102q-23 6 -55 6t-47 -14.5
t-15 -48.5z" />
    <glyph glyph-name="ft" unicode="ft" horiz-adv-x="675" 
d="M524 640v-123h126v-103h-126v-249q0 -31 13.5 -44t42.5 -13q13 0 27 2t21 4l8 1l14 -110q-38 -15 -114 -15q-69 0 -107.5 37t-38.5 108v505h134zM219 536v-39h121v-103h-121v-394h-134v394h-75v103h75v58q0 75 41 115t115 40q33 0 60 -4t38 -8l11 -3l-14 -102
q-23 6 -55 6t-47 -14.5t-15 -48.5z" />
    <glyph glyph-name="rf" unicode="rf" horiz-adv-x="661" 
d="M520 530v-33h121v-103h-121v-394h-134v545q0 81 41 123t119 42q32 0 58 -4t36 -8l11 -3l-14 -102q-23 6 -55 6t-47 -16t-15 -53zM50 0v517h117l7 -81q48 91 162 91v-137h-55q-45 0 -71 -27.5t-26 -81.5v-281h-134z" />
    <glyph glyph-name="rt" unicode="rt" horiz-adv-x="671" 
d="M520 640v-123h126v-103h-126v-249q0 -31 13.5 -44t42.5 -13q13 0 27 2t21 4l8 1l14 -110q-38 -15 -114 -15q-69 0 -107.5 37t-38.5 108v505h134zM50 0v517h117l7 -81q48 91 162 91v-137h-55q-45 0 -71 -28t-26 -84v-278h-134z" />
    <glyph glyph-name="tf" unicode="tf" horiz-adv-x="670" 
d="M529 530v-33h121v-103h-121v-394h-134v545q0 81 41 123t119 42q32 0 58 -4t37 -8l10 -3l-14 -102q-23 6 -55 6t-47 -16t-15 -53zM219 640v-123h126v-103h-126v-249q0 -31 13.5 -44t42.5 -13q13 0 27 2t22 4l7 1l14 -110q-38 -15 -114 -15q-69 0 -107.5 37t-38.5 108v279
h-75v103h75v123h134z" />
    <glyph glyph-name="tt" unicode="tt" horiz-adv-x="680" 
d="M529 640v-123h126v-103h-126v-249q0 -31 13.5 -44t42.5 -13q13 0 27 2t22 4l7 1l14 -110q-38 -15 -114 -15q-69 0 -107.5 37t-38.5 108v505h134zM219 640v-123h126v-103h-126v-249q0 -31 13.5 -44t42.5 -13q13 0 27 2t22 4l7 1l14 -110q-38 -15 -114 -15q-69 0 -107.5 37
t-38.5 108v279h-75v103h75v123h134z" />
    <glyph glyph-name="rtf" unicode="rtf" horiz-adv-x="971" 
d="M520 640v-123h126v-103h-126v-249q0 -31 13.5 -44t42.5 -13q13 0 27 2t21 4l8 1l14 -110q-38 -15 -114 -15q-69 0 -107.5 37t-38.5 108v505h134zM50 0v517h117l7 -81q48 91 162 91v-137h-55q-45 0 -71 -28t-26 -84v-278h-134zM830 530v-33h121v-103h-121v-394h-134v545
q0 81 41 123t119 42q32 0 58 -4t36 -8l11 -3l-14 -102q-23 6 -55 6t-47 -16t-15 -53z" />
    <glyph glyph-name=".notdef" horiz-adv-x="691" 
d="M20 0v700h651v-700h-651zM381 350l159 158l-36 36l-159 -158l-158 159l-36 -36l158 -159l-159 -159l36 -36l159 159l159 -159l36 36z" />
    <glyph glyph-name=".null" horiz-adv-x="0" 
 />
    <glyph glyph-name="nonmarkingreturn" horiz-adv-x="333" 
 />
    <glyph glyph-name="space" unicode=" " horiz-adv-x="247" 
 />
    <glyph glyph-name="exclam" unicode="!" horiz-adv-x="277" 
d="M90 230l-29 470h155l-29 -470h-97zM139 158q36 0 59.5 -24t23.5 -60t-23.5 -60t-59.5 -24q-37 0 -60.5 24t-23.5 60t23.5 60t60.5 24z" />
    <glyph glyph-name="quotedbl" unicode="&#x22;" horiz-adv-x="395" 
d="M160 408h-110v292h110v-292zM345 408h-110v292h110v-292z" />
    <glyph glyph-name="numbersign" unicode="#" 
d="M216 368l-18 -136h100l19 136h-101zM268 0l20 153h-101l-20 -153h-86l20 153h-76v79h87l18 136h-75v79h85l21 153h86l-21 -153h101l21 153h86l-21 -153h77v-79h-87l-19 -136h76v-79h-86l-20 -153h-86z" />
    <glyph glyph-name="dollar" unicode="$" horiz-adv-x="496" 
d="M206 305q-160 79 -160 213q0 74 45 123.5t119 60.5v88h78v-86q75 -11 119 -63.5t44 -135.5v-18h-129v24q0 37 -20 59t-54 22q-31 0 -50 -19t-19 -51q0 -34 27 -61t91 -59q159 -80 159 -215q0 -77 -46.5 -127.5t-121.5 -61.5v-88h-78v86q-78 11 -124 64.5t-46 139.5v27
h129v-33q0 -39 21 -62.5t58 -23.5q34 0 54 20t20 54q0 35 -26.5 63t-89.5 60z" />
    <glyph glyph-name="percent" unicode="%" horiz-adv-x="660" 
d="M430 130q0 -25 16 -41.5t40 -16.5t40 16.5t16 41.5t-16 41t-40 16t-40 -16t-16 -41zM343 129q0 60 41.5 100.5t102.5 40.5t102 -39.5t41 -99.5q0 -61 -42 -101t-103 -40t-101.5 39t-40.5 100zM174 610q62 0 102.5 -39t40.5 -100t-41.5 -101.5t-103.5 -40.5
q-61 0 -101.5 39.5t-40.5 100.5t41.5 101t102.5 40zM92 0l391 600h85l-391 -600h-85zM173 528q-23 0 -39 -16.5t-16 -41.5t16 -41.5t39 -16.5q25 0 40.5 16.5t15.5 41.5t-15.5 41.5t-40.5 16.5z" />
    <glyph glyph-name="ampersand" unicode="&#x26;" horiz-adv-x="622" 
d="M435 555q0 -93 -118 -186l83 -104l87 135h125l-141 -223l141 -177h-140l-66 81q-39 -48 -82 -69.5t-100 -21.5q-83 0 -138.5 52.5t-55.5 132.5q0 60 30.5 111.5t96.5 104.5q-67 86 -67 162q0 68 49.5 112.5t125.5 44.5q77 0 123.5 -44.5t46.5 -110.5zM239 104q52 0 98 63
l-114 141q-67 -56 -67 -117q0 -39 23 -63t60 -24zM211 552q0 -48 44 -104q69 50 69 101q0 26 -15.5 42.5t-41.5 16.5q-25 0 -40.5 -16t-15.5 -40z" />
    <glyph glyph-name="quotesingle" unicode="'" horiz-adv-x="210" 
d="M160 408h-110v292h110v-292z" />
    <glyph glyph-name="parenleft" unicode="(" horiz-adv-x="368" 
d="M343 -18l-73 -82q-5 3 -13 8t-31.5 25t-44.5 43t-47 62t-44.5 82t-31.5 103t-13 125q0 89 23 168t56 128.5t66.5 86.5t56.5 53l23 16l73 -82q-7 -5 -18.5 -14.5t-40.5 -44t-51.5 -73.5t-41 -103t-18.5 -133t17.5 -132.5t42.5 -104.5t50 -72t43 -45z" />
    <glyph glyph-name="parenright" unicode=")" horiz-adv-x="368" 
d="M25 718l73 82q5 -3 13 -8t31.5 -25t44.5 -43t47 -62t44.5 -82t31.5 -103t13 -125q0 -89 -23 -168t-56 -128.5t-66.5 -86.5t-56.5 -53l-23 -16l-73 82q7 5 18.5 14.5t40.5 44t51.5 73.5t41 103t18.5 133t-17.5 132.5t-42.5 104.5t-50 72t-43 45z" />
    <glyph glyph-name="asterisk" unicode="*" horiz-adv-x="436" 
d="M267 700l-11 -130l120 50l30 -92l-126 -31l85 -99l-79 -57l-68 110l-67 -110l-79 57l84 99l-126 31l30 92l120 -50l-11 130h98z" />
    <glyph glyph-name="plus" unicode="+" 
d="M312 583v-175h163v-106h-163v-175h-109v175h-163v106h163v175h109z" />
    <glyph glyph-name="comma" unicode="," horiz-adv-x="245" 
d="M146 -130h-106l19 293h146z" />
    <glyph glyph-name="hyphen" unicode="-" horiz-adv-x="360" 
d="M320 294h-280v123h280v-123z" />
    <glyph glyph-name="period" unicode="." horiz-adv-x="247" 
d="M124 158q36 0 59.5 -24t23.5 -60t-23.5 -60t-59.5 -24q-37 0 -60.5 24t-23.5 60t23.5 60t60.5 24z" />
    <glyph glyph-name="slash" unicode="/" horiz-adv-x="456" 
d="M0 -80l345 860h111l-345 -860h-111z" />
    <glyph glyph-name="zero" unicode="0" 
d="M182 501v-302q0 -41 20.5 -64t55.5 -23t55.5 23t20.5 64v302q0 41 -20.5 64t-55.5 23t-55.5 -23t-20.5 -64zM48 201v295q0 97 59.5 155.5t151.5 58.5t150.5 -57.5t58.5 -154.5v-295q0 -97 -59.5 -155t-151.5 -58t-150.5 57t-58.5 154z" />
    <glyph glyph-name="one" unicode="1" horiz-adv-x="424" 
d="M15 532l221 168h113v-700h-134v542l-138 -99z" />
    <glyph glyph-name="two" unicode="2" horiz-adv-x="490" 
d="M361 312l-154 -194h243v-118h-410v93l236 306q40 51 40 103q0 40 -20.5 63t-53.5 23t-53 -23t-20 -63v-35h-129v31q0 96 58.5 154t147.5 58q87 0 145.5 -53t58.5 -137q0 -97 -89 -208z" />
    <glyph glyph-name="three" unicode="3" horiz-adv-x="482" 
d="M45 497v24q0 83 56 136t141 53q84 0 139.5 -50.5t55.5 -130.5v-17q0 -96 -78 -150q88 -51 88 -155v-27q0 -83 -60 -136.5t-147 -53.5q-88 0 -146.5 53.5t-58.5 139.5v34h126v-22q0 -41 20.5 -64t55.5 -23t55.5 23t20.5 64v27q0 40 -20.5 63.5t-59.5 23.5h-54v102h54
q33 0 51.5 20.5t18.5 55.5v29q0 35 -18 55.5t-48 20.5t-48 -20.5t-18 -56.5v-18h-126z" />
    <glyph glyph-name="four" unicode="4" 
d="M133 261h148v260zM27 265l250 435h130v-439h80v-102h-80v-159h-126v159h-254v106z" />
    <glyph glyph-name="five" unicode="5" horiz-adv-x="496" 
d="M431 582h-254v-147q40 40 101 40q76 0 124.5 -50t48.5 -133v-94q0 -95 -57.5 -151.5t-148.5 -56.5q-89 0 -144.5 55.5t-55.5 150.5v16h130v-18q0 -39 19 -60.5t52 -21.5t52 21.5t19 60.5v86q0 38 -19 59.5t-52 21.5q-17 0 -31 -6t-21 -14.5t-11.5 -17.5t-5.5 -15l-1 -6
h-121v398h376v-118z" />
    <glyph glyph-name="six" unicode="6" 
d="M339 204v52q0 43 -22 67.5t-59 24.5q-38 0 -59.5 -24.5t-21.5 -67.5v-52q0 -43 21.5 -67.5t59.5 -24.5q37 0 59 24.5t22 67.5zM298 455q77 0 126 -52.5t49 -141.5v-53q0 -99 -61 -158.5t-155 -59.5t-154 58.5t-60 157.5v28q0 88 39 163l157 303h147l-144 -257
q30 12 56 12z" />
    <glyph glyph-name="seven" unicode="7" horiz-adv-x="450" 
d="M71 0l206 579h-247v121h390v-96l-208 -604h-141z" />
    <glyph glyph-name="eight" unicode="8" 
d="M187 517v-19q0 -35 19.5 -56.5t51.5 -21.5t51.5 21.5t19.5 56.5v19q0 36 -19.5 57.5t-51.5 21.5t-51.5 -21.5t-19.5 -57.5zM53 514v10q0 81 59 133.5t147 52.5t146 -52t58 -132v-10q0 -91 -74 -144q89 -55 89 -165v-10q0 -91 -63.5 -149t-157.5 -58t-156.5 57t-62.5 148
v10q0 109 88 166q-73 52 -73 143zM172 225v-25q0 -45 23.5 -70.5t62.5 -25.5t62.5 25.5t23.5 70.5v25q0 45 -23.5 70.5t-62.5 25.5t-62.5 -25.5t-23.5 -70.5z" />
    <glyph glyph-name="nine" unicode="9" 
d="M176 496v-52q0 -43 22 -67.5t59 -24.5q38 0 59.5 24.5t21.5 67.5v52q0 43 -21.5 67.5t-59.5 24.5q-37 0 -59 -24.5t-22 -67.5zM217 245q-77 0 -126 52.5t-49 141.5v53q0 99 61 158.5t155 59.5t154 -58.5t60 -157.5v-28q0 -88 -39 -163l-157 -303h-147l144 257
q-30 -12 -56 -12z" />
    <glyph glyph-name="colon" unicode=":" horiz-adv-x="247" 
d="M124 158q36 0 59.5 -24t23.5 -60t-23.5 -60t-59.5 -24q-37 0 -60.5 24t-23.5 60t23.5 60t60.5 24zM124 527q36 0 59.5 -24t23.5 -60t-23.5 -60t-59.5 -24q-37 0 -60.5 24t-23.5 60t23.5 60t60.5 24z" />
    <glyph glyph-name="semicolon" unicode=";" horiz-adv-x="247" 
d="M146 -130h-106l19 293h146zM124 527q36 0 59.5 -24t23.5 -60t-23.5 -60t-59.5 -24q-37 0 -60.5 24t-23.5 60t23.5 60t60.5 24z" />
    <glyph glyph-name="less" unicode="&#x3c;" 
d="M475 491l-310 -135l310 -133v-130l-435 205v113l435 205v-125z" />
    <glyph glyph-name="equal" unicode="=" 
d="M475 393h-435v107h435v-107zM475 190h-435v106h435v-106z" />
    <glyph glyph-name="greater" unicode="&#x3e;" 
d="M40 219l310 135l-310 133v130l435 -205v-113l-435 -205v125z" />
    <glyph glyph-name="question" unicode="?" horiz-adv-x="485" 
d="M245 158q36 0 60 -24t24 -60t-24 -60t-60 -24t-60 24t-24 60t24 60t60 24zM306 239v-9h-122v20q0 34 13.5 64.5t33 53.5t39 44.5t33 47t13.5 52.5q0 36 -20 56.5t-54 20.5q-33 0 -53 -22.5t-20 -63.5v-25h-129v16q0 97 58.5 156.5t147.5 59.5q87 0 145.5 -53t58.5 -137
q0 -41 -15 -75.5t-36 -58.5t-42 -46.5t-36 -48t-15 -52.5z" />
    <glyph glyph-name="at" unicode="@" horiz-adv-x="941" 
d="M521 237l12 84q4 34 -11.5 54.5t-45.5 20.5q-60 0 -69 -65l-11 -84q-5 -34 10 -55t45 -21q61 0 70 66zM524 128q-39 -53 -110 -53q-72 0 -107.5 44t-25.5 117l15 111q10 71 51.5 108.5t110.5 37.5t99 -55l15 47h82l14 -16l-47 -333q-5 -34 9.5 -54t42.5 -20q53 0 95.5 59
t42.5 149q0 157 -96 254t-245 97q-143 0 -241.5 -100t-98.5 -245q0 -141 98 -238t242 -97q41 0 69 7l17 -80q-48 -12 -87 -12q-185 0 -309.5 121t-124.5 298q0 182 127 308.5t310 126.5t308.5 -125t125.5 -307q0 -127 -69 -217t-171 -90q-71 0 -110 43.5t-32 113.5z" />
    <glyph glyph-name="A" unicode="A" horiz-adv-x="563" 
d="M277 507l-70 -252h140zM349 700l214 -700h-148l-41 149h-193l-41 -149h-140l215 700h134z" />
    <glyph glyph-name="B" unicode="B" horiz-adv-x="565" 
d="M202 590v-179h76q41 0 66 25t25 65t-24 64.5t-65 24.5h-78zM60 0v700h251q91 0 145 -49.5t54 -128.5q0 -51 -24.5 -92t-69.5 -64q51 -23 80 -67.5t29 -102.5q0 -84 -60 -140t-156 -56h-249zM202 309v-199h82q45 0 72.5 28.5t27.5 72.5q0 43 -27 70.5t-72 27.5h-83z" />
    <glyph glyph-name="C" unicode="C" horiz-adv-x="556" 
d="M369 218v40h137v-36q0 -105 -63.5 -168.5t-163.5 -63.5q-103 0 -166 62t-63 167v260q0 105 65 168t167 63q100 0 162 -61.5t62 -166.5v-29h-137v30q0 48 -24 75t-65 27t-64.5 -27t-23.5 -75v-265q0 -48 23.5 -75t64.5 -27q42 0 65.5 27t23.5 75z" />
    <glyph glyph-name="D" unicode="D" horiz-adv-x="570" 
d="M202 575v-450h73q50 0 77 30t27 88v215q0 57 -27 87t-77 30h-73zM60 700h221q111 0 175 -63t64 -177v-215q0 -115 -65.5 -180t-177.5 -65h-217v700z" />
    <glyph glyph-name="E" unicode="E" horiz-adv-x="470" 
d="M445 0h-385v700h380v-125h-238v-156h198v-117h-198v-177h243v-125z" />
    <glyph glyph-name="F" unicode="F" horiz-adv-x="455" 
d="M395 267h-193v-267h-142v700h375v-125h-233v-187h193v-121z" />
    <glyph glyph-name="G" unicode="G" horiz-adv-x="570" 
d="M284 -10q-105 0 -169.5 63t-64.5 171v250q0 107 66.5 171.5t170.5 64.5q105 0 169 -62.5t64 -170.5v-15h-141v16q0 50 -25 78.5t-69 28.5q-43 0 -68 -28.5t-25 -78.5v-251q0 -56 25.5 -85.5t71.5 -29.5t72 30t26 85v50h-99v102h232v-152q0 -107 -66 -172t-170 -65z" />
    <glyph glyph-name="H" unicode="H" horiz-adv-x="580" 
d="M379 0v299h-177v-299h-142v700h142v-272h177v272h141v-700h-141z" />
    <glyph glyph-name="I" unicode="I" horiz-adv-x="276" 
d="M65 0v700h146v-700h-146z" />
    <glyph glyph-name="J" unicode="J" horiz-adv-x="370" 
d="M170 700h145v-488q0 -104 -60 -163t-161 -59q-28 0 -49 3t-28 7l-7 3l25 124q21 -7 53 -7q38 0 60 25t22 70v485z" />
    <glyph glyph-name="K" unicode="K" horiz-adv-x="539" 
d="M60 0v700h142v-320l168 320h159l-197 -332l207 -368h-159l-178 341v-341h-142z" />
    <glyph glyph-name="L" unicode="L" horiz-adv-x="440" 
d="M60 0v700h142v-571h223v-129h-365z" />
    <glyph glyph-name="M" unicode="M" horiz-adv-x="700" 
d="M317 105l-125 320v-425h-132v700h142l152 -392l153 392h133v-700h-131v425l-125 -320h-67z" />
    <glyph glyph-name="N" unicode="N" horiz-adv-x="590" 
d="M401 0l-211 445v-445h-130v700h138l203 -427v427h129v-700h-129z" />
    <glyph glyph-name="O" unicode="O" horiz-adv-x="570" 
d="M192 478v-255q0 -51 25 -79t68 -28q44 0 69 28t25 79v255q0 50 -25 78.5t-69 28.5q-43 0 -68 -28.5t-25 -78.5zM50 224v250q0 107 66.5 171.5t170.5 64.5q105 0 169 -62.5t64 -170.5v-250q0 -107 -66 -172t-170 -65q-105 0 -169.5 63t-64.5 171z" />
    <glyph glyph-name="P" unicode="P" horiz-adv-x="540" 
d="M261 579h-60v-225h59q51 0 82.5 31.5t31.5 80.5t-31 81t-82 32zM269 236h-68v-236h-141v700h212q108 0 175.5 -65.5t67.5 -165.5q0 -101 -68.5 -167t-177.5 -66z" />
    <glyph glyph-name="Q" unicode="Q" horiz-adv-x="570" 
d="M192 478v-255q0 -51 25 -79t68 -28q44 0 69 28t25 79v255q0 50 -25 78.5t-69 28.5q-43 0 -68 -28.5t-25 -78.5zM50 224v250q0 107 66.5 171.5t170.5 64.5q105 0 169 -62.5t64 -170.5v-250q0 -127 -89 -190l80 -157h-138l-56 113q-17 -3 -33 -3q-105 0 -169.5 63
t-64.5 171z" />
    <glyph glyph-name="R" unicode="R" horiz-adv-x="550" 
d="M201 579v-216h64q48 0 78 31t30 77q0 47 -29 77.5t-78 30.5h-65zM530 0h-159l-94 255q-4 -1 -24 -1h-52v-254h-141v700h221q104 0 169 -62.5t65 -159.5q0 -60 -29 -109t-79 -76z" />
    <glyph glyph-name="S" unicode="S" horiz-adv-x="492" 
d="M200 310q-152 93 -152 214q0 82 59.5 134t146.5 52q49 0 89 -15.5t62 -38t37 -45t20 -37.5l5 -16l-115 -46q-1 3 -3 8.5t-10 19.5t-18 24.5t-27 19t-37 8.5q-29 0 -48.5 -17t-19.5 -44q0 -34 25 -60t82 -60q76 -46 119.5 -99t43.5 -123q0 -92 -61 -145.5t-155 -53.5
q-51 0 -93 18t-66 43.5t-40.5 51t-22.5 43.5l-6 18l115 46q1 -4 4 -11t13.5 -24.5t22.5 -31t31.5 -24.5t40.5 -11q34 0 55 20t21 52q0 37 -27 64t-91 66z" />
    <glyph glyph-name="T" unicode="T" horiz-adv-x="465" 
d="M450 572h-146v-572h-142v572h-147v128h435v-128z" />
    <glyph glyph-name="U" unicode="U" horiz-adv-x="570" 
d="M375 218v482h140v-478q0 -105 -64.5 -168.5t-166.5 -63.5q-103 0 -166 62t-63 167v481h143v-482q0 -48 23.5 -75t64.5 -27q42 0 65.5 27t23.5 75z" />
    <glyph glyph-name="V" unicode="V" horiz-adv-x="555" 
d="M211 0l-211 700h154l127 -476l129 476h145l-210 -700h-134z" />
    <glyph glyph-name="W" unicode="W" horiz-adv-x="790" 
d="M186 0l-186 700h154l99 -450l97 450h98l97 -450l100 450h145l-185 -700h-119l-91 409l-91 -409h-118z" />
    <glyph glyph-name="X" unicode="X" horiz-adv-x="540" 
d="M530 700l-184 -337l194 -363h-156l-117 233l-118 -233h-149l194 355l-184 345h157l106 -215l109 215h148z" />
    <glyph glyph-name="Y" unicode="Y" horiz-adv-x="535" 
d="M197 0v260l-202 440h158l118 -298l119 298h150l-202 -440v-260h-141z" />
    <glyph glyph-name="Z" unicode="Z" horiz-adv-x="500" 
d="M465 0h-430v104l265 475h-245v121h410v-104l-265 -475h265v-121z" />
    <glyph glyph-name="bracketleft" unicode="[" horiz-adv-x="385" 
d="M350 -80h-280v860h280v-112h-152v-636h152v-112z" />
    <glyph glyph-name="backslash" unicode="\" horiz-adv-x="456" 
d="M111 780l345 -860h-111l-345 860h111z" />
    <glyph glyph-name="bracketright" unicode="]" horiz-adv-x="385" 
d="M315 -80h-280v112h152v636h-152v112h280v-860z" />
    <glyph glyph-name="asciicircum" unicode="^" horiz-adv-x="502" 
d="M340 340l-88 232l-88 -232h-129l162 360h108l162 -360h-127z" />
    <glyph glyph-name="underscore" unicode="_" horiz-adv-x="500" 
d="M500 -138h-500v88h500v-88z" />
    <glyph glyph-name="grave" unicode="`" horiz-adv-x="370" 
d="M227 740l56 -168h-100l-93 168h137z" />
    <glyph glyph-name="a" unicode="a" horiz-adv-x="500" 
d="M244 86q38 0 60 19t22 48t-23 48.5t-59 19.5q-35 0 -57.5 -19.5t-22.5 -48.5t22 -48t58 -19zM455 309v-309h-109l-8 42q-47 -52 -131 -52t-130.5 43.5t-46.5 114.5t48.5 116t132.5 45q67 0 110 -35v25q0 110 -105 110q-33 0 -64.5 -7.5t-45.5 -15.5l-15 -8l-34 105
q7 5 21.5 12.5t62.5 19.5t100 12q102 0 158 -55.5t56 -162.5z" />
    <glyph glyph-name="b" unicode="b" horiz-adv-x="520" 
d="M184 317v-117q0 -43 22 -67.5t59 -24.5t59 24.5t22 67.5v117q0 43 -22 67.5t-59 24.5t-59 -24.5t-22 -67.5zM50 0v700h134v-224q42 51 118 51q86 0 132 -49.5t46 -141.5v-152q0 -92 -48 -143t-133 -51q-86 0 -128 60l-4 -50h-117z" />
    <glyph glyph-name="c" unicode="c" horiz-adv-x="495" 
d="M325 207h130v-11q0 -94 -58.5 -150t-150.5 -56t-149 54t-57 148v129q0 94 58.5 150t150.5 56t149 -54t57 -148v-10h-130v7q0 41 -20 64t-55 23t-55.5 -23t-20.5 -64v-127q0 -41 20.5 -64t55.5 -23t55 23t20 64v12z" />
    <glyph glyph-name="d" unicode="d" horiz-adv-x="520" 
d="M336 200v117q0 43 -22 67.5t-59 24.5t-59 -24.5t-22 -67.5v-117q0 -43 22 -67.5t59 -24.5t59 24.5t22 67.5zM470 700v-700h-118l-4 53q-45 -63 -130 -63q-86 0 -132 49.5t-46 141.5v151q0 93 48 144t133 51q73 0 115 -47v220h134z" />
    <glyph glyph-name="e" unicode="e" horiz-adv-x="506" 
d="M174 332v-10h162v10q0 43 -22 67.5t-59 24.5t-59 -24.5t-22 -67.5zM336 189l126 -28q-1 -7 -3 -18.5t-15 -41t-33.5 -52t-62 -41t-95.5 -18.5q-96 0 -154.5 55t-58.5 152v119q0 97 60 154t157 57q94 0 151.5 -55.5t57.5 -151.5v-81h-292v-39q0 -43 22 -67.5t59 -24.5
q33 0 53 20t24 40z" />
    <glyph glyph-name="f" unicode="f" horiz-adv-x="360" 
d="M219 536v-39h121v-103h-121v-394h-134v394h-75v103h75v58q0 75 41 115t115 40q33 0 60 -4t38 -8l11 -3l-14 -102q-23 7 -55 7t-47 -15t-15 -49z" />
    <glyph glyph-name="g" unicode="g" horiz-adv-x="520" 
d="M336 240v77q0 43 -22 67.5t-59 24.5t-59 -24.5t-22 -67.5v-77q0 -43 22 -67.5t59 -24.5t59 24.5t22 67.5zM47 -125l42 106q63 -33 135 -33q112 0 112 107v32q-44 -49 -118 -49q-86 0 -132 49t-46 141v104q0 93 48 144t133 51q84 0 127 -60l4 50h118v-449
q0 -115 -63 -176.5t-173 -61.5q-52 0 -98.5 11t-67.5 23z" />
    <glyph glyph-name="h" unicode="h" 
d="M50 0v700h134v-236q44 63 125 63q74 0 117.5 -48.5t43.5 -135.5v-343h-134v312q0 97 -73 97q-79 0 -79 -92v-317h-134z" />
    <glyph glyph-name="i" unicode="i" horiz-adv-x="247" 
d="M55 0v517h137v-517h-137zM124 740q36 0 59.5 -23.5t23.5 -59.5q0 -35 -23.5 -58.5t-59.5 -23.5q-37 0 -60.5 23.5t-23.5 58.5q0 36 23.5 59.5t60.5 23.5z" />
    <glyph glyph-name="j" unicode="j" horiz-adv-x="247" 
d="M55 517h137v-502q0 -92 -45 -138.5t-127 -46.5q-17 0 -32 2t-22 4l-6 1l13 111q18 -4 35 -4q47 0 47 55v518zM124 740q36 0 59.5 -23.5t23.5 -59.5q0 -35 -23.5 -58.5t-59.5 -23.5q-37 0 -60.5 23.5t-23.5 58.5q0 36 23.5 59.5t60.5 23.5z" />
    <glyph glyph-name="k" unicode="k" horiz-adv-x="492" 
d="M50 0v700h134v-410l147 227h156l-172 -234l182 -283h-160l-153 258v-258h-134z" />
    <glyph glyph-name="l" unicode="l" horiz-adv-x="247" 
d="M55 0v700h137v-700h-137z" />
    <glyph glyph-name="m" unicode="m" horiz-adv-x="781" 
d="M184 318v-318h-134v517h117l5 -58q45 68 132 68q96 0 136 -83q42 83 140 83q72 0 114 -47.5t42 -132.5v-347h-134v316q0 93 -68 93q-74 0 -74 -93v-316h-134v316q0 93 -68 93q-74 0 -74 -91z" />
    <glyph glyph-name="n" unicode="n" 
d="M50 0v517h117l6 -60q45 70 136 70q74 0 117.5 -48.5t43.5 -135.5v-343h-134v312q0 97 -73 97q-37 0 -58 -23.5t-21 -71.5v-314h-134z" />
    <glyph glyph-name="o" unicode="o" horiz-adv-x="510" 
d="M174 317v-117q0 -43 22 -67.5t59 -24.5t59 24.5t22 67.5v117q0 43 -22 67.5t-59 24.5t-59 -24.5t-22 -67.5zM40 197v119q0 97 60 154t157 57q96 0 154.5 -55.5t58.5 -151.5v-119q0 -97 -60.5 -154t-156.5 -57t-154.5 55t-58.5 152z" />
    <glyph glyph-name="p" unicode="p" horiz-adv-x="520" 
d="M184 317v-117q0 -43 22 -67.5t59 -24.5t59 24.5t22 67.5v117q0 43 -22 67.5t-59 24.5t-59 -24.5t-22 -67.5zM50 -160v677h117l5 -54q45 64 130 64q86 0 132 -49.5t46 -141.5v-152q0 -92 -48 -143t-133 -51q-74 0 -115 46v-196h-134z" />
    <glyph glyph-name="q" unicode="q" horiz-adv-x="520" 
d="M336 200v117q0 43 -22 67.5t-59 24.5t-59 -24.5t-22 -67.5v-117q0 -43 22 -67.5t59 -24.5t59 24.5t22 67.5zM470 517v-677h-134v200q-44 -50 -118 -50q-86 0 -132 49.5t-46 141.5v151q0 93 48 144t133 51q84 0 127 -60l4 50h118z" />
    <glyph glyph-name="r" unicode="r" horiz-adv-x="346" 
d="M50 0v517h117l7 -80q47 90 162 90v-137h-55q-45 0 -71 -28t-26 -84v-278h-134z" />
    <glyph glyph-name="s" unicode="s" horiz-adv-x="417" 
d="M249 314q71 -29 107 -69t36 -98q0 -72 -51.5 -114.5t-133.5 -42.5q-35 0 -68 8t-55.5 20t-39.5 24t-26 20l-8 8l69 86q8 -7 20.5 -16.5t45.5 -26t59 -16.5t40.5 12t14.5 31q0 20 -20 37.5t-71 38.5q-131 54 -131 163q0 65 49.5 106.5t125.5 41.5q52 0 96.5 -17t62.5 -34
l18 -17l-70 -87q-5 5 -14 13t-35.5 21.5t-50.5 13.5q-22 0 -35 -11t-13 -26q0 -37 78 -69z" />
    <glyph glyph-name="t" unicode="t" horiz-adv-x="370" 
d="M219 640v-123h126v-103h-126v-249q0 -31 13.5 -44t42.5 -13q13 0 27 2t22 4l7 1l14 -110q-38 -15 -114 -15q-69 0 -107.5 37.5t-38.5 107.5v279h-75v103h75v123h134z" />
    <glyph glyph-name="u" unicode="u" 
d="M465 517v-517h-117l-6 60q-45 -70 -136 -70q-74 0 -117.5 48.5t-43.5 135.5v343h134v-312q0 -97 73 -97q37 0 58 23.5t21 71.5v314h134z" />
    <glyph glyph-name="v" unicode="v" horiz-adv-x="460" 
d="M169 0l-169 517h142l92 -323l91 323h135l-169 -517h-122z" />
    <glyph glyph-name="w" unicode="w" horiz-adv-x="665" 
d="M147 0l-147 517h142l73 -313l76 313h90l76 -313l73 313h135l-148 -517h-114l-70 288l-71 -288h-115z" />
    <glyph glyph-name="x" unicode="x" horiz-adv-x="487" 
d="M477 517l-160 -248l170 -269h-150l-97 166l-97 -166h-143l170 263l-160 254h151l85 -151l89 151h142z" />
    <glyph glyph-name="y" unicode="y" horiz-adv-x="460" 
d="M169 0l-169 517h142l92 -343l91 343h135l-174 -532q-27 -82 -69 -118.5t-108 -36.5q-26 0 -51 5t-36 11l-12 5l25 105q24 -12 58 -12q58 0 76 56z" />
    <glyph glyph-name="z" unicode="z" horiz-adv-x="435" 
d="M35 93l211 314h-196v110h350v-93l-211 -314h211v-110h-365v93z" />
    <glyph glyph-name="braceleft" unicode="{" horiz-adv-x="425" 
d="M258 239v-151q0 -32 14 -46t46 -14h72v-108h-94q-86 0 -126 40.5t-40 126.5v164q0 47 -48 47h-47v104h47q48 0 48 47v165q0 86 40 126t126 40h94v-108h-72q-32 0 -46 -14t-14 -46v-150q0 -107 -87 -112q41 -2 64 -29.5t23 -81.5z" />
    <glyph glyph-name="bar" unicode="|" horiz-adv-x="287" 
d="M90 -100v900h107v-900h-107z" />
    <glyph glyph-name="braceright" unicode="}" horiz-adv-x="425" 
d="M167 461v151q0 32 -14.5 46t-45.5 14h-72v108h94q86 0 126 -40.5t40 -126.5v-164q0 -47 48 -47h47v-104h-47q-48 0 -48 -47v-165q0 -86 -40 -126t-126 -40h-94v108h72q31 0 45.5 14t14.5 46v150q0 107 87 112q-41 2 -64 29.5t-23 81.5z" />
    <glyph glyph-name="asciitilde" unicode="~" 
d="M124 246l-94 6q0 7 1 19t8.5 42t20 53t40 42t65.5 19q30 0 57.5 -13t44.5 -29t38 -29t40 -13q20 0 31.5 17.5t13.5 35.5l1 17l94 -6q0 -7 -1 -19t-8.5 -42t-20 -53t-40 -42t-65.5 -19q-39 0 -72 21t-59.5 42t-49.5 21q-20 0 -31 -17.5t-12 -34.5z" />
    <glyph glyph-name="exclamdown" unicode="&#xa1;" horiz-adv-x="277" 
d="M187 470l29 -470h-155l29 470h97zM138 542q-36 0 -59.5 24t-23.5 60t23.5 60t59.5 24q37 0 60.5 -24t23.5 -60t-23.5 -60t-60.5 -24z" />
    <glyph glyph-name="cent" unicode="&#xa2;" horiz-adv-x="506" 
d="M331 390h130v-11q0 -81 -46 -134t-121 -65v-87h-78v86q-78 10 -124.5 61.5t-46.5 134.5v129q0 82 47 135t124 64v87h78v-87q77 -12 122 -62.5t45 -132.5v-10h-130v7q0 41 -20.5 64t-55.5 23t-55.5 -23t-20.5 -64v-127q0 -41 20.5 -64t55.5 -23t55.5 23t20.5 64v12z" />
    <glyph glyph-name="sterling" unicode="&#xa3;" horiz-adv-x="526" 
d="M385 301h-166v-184h256v-117h-390v301h-75v77h75v123q0 95 58 152t148 57q88 0 144 -55t56 -148v-20h-130v19q0 39 -19 60.5t-52 21.5t-52 -21.5t-19 -60.5v-128h166v-77z" />
    <glyph glyph-name="currency" unicode="&#xa4;" horiz-adv-x="594" 
d="M297 238q47 0 78.5 32.5t31.5 79.5t-31.5 79t-78.5 32t-79 -32t-32 -79t32 -79.5t79 -32.5zM117 480l-82 79l54 54l84 -80q56 37 125 37q70 0 125 -37l82 80l54 -54l-81 -77q44 -58 44 -131q0 -75 -45 -132l82 -79l-54 -54l-84 81q-56 -37 -126 -37q-69 0 -124 36
l-82 -80l-54 54l80 78q-43 56 -43 130q0 75 45 132z" />
    <glyph glyph-name="yen" unicode="&#xa5;" horiz-adv-x="555" 
d="M207 0v190h-172v69h172v48l-11 23h-161v69h128l-148 301h157l109 -261l110 261h149l-148 -301h128v-69h-162l-10 -23v-48h172v-69h-172v-190h-141z" />
    <glyph glyph-name="brokenbar" unicode="&#xa6;" horiz-adv-x="287" 
d="M197 800v-337h-107v337h107zM90 -100v338h107v-338h-107z" />
    <glyph glyph-name="section" unicode="&#xa7;" horiz-adv-x="570" 
d="M229 360q-24 -6 -38 -22.5t-14 -36.5q0 -32 28 -57.5t100 -50.5q13 -4 35 -14q52 14 52 60q0 31 -28.5 57t-99.5 51q-24 8 -35 13zM141 428q-41 44 -41 105q0 78 55.5 127.5t143.5 49.5q47 0 84.5 -14.5t57 -35t33 -41.5t17.5 -35l4 -15l-118 -39q0 3 -1 7.5t-6.5 16
t-13 20.5t-22 16.5t-33.5 7.5q-28 0 -46 -17t-18 -41q0 -56 90 -87q203 -72 203 -196q0 -48 -26.5 -86.5t-75.5 -58.5q42 -48 42 -105q0 -78 -55.5 -127.5t-143.5 -49.5q-47 0 -84.5 14.5t-57.5 35t-33 41t-17 35.5l-4 14l117 40q0 -3 1.5 -7.5t6.5 -16t12.5 -20.5
t22.5 -16.5t34 -7.5q28 0 45.5 16.5t17.5 41.5q0 56 -89 87q-203 72 -203 196q0 47 26.5 85.5t74.5 59.5z" />
    <glyph glyph-name="dieresis" unicode="&#xa8;" horiz-adv-x="510" 
d="M351 724q30 0 50 -20t20 -50q0 -31 -20 -50.5t-50 -19.5q-31 0 -50.5 19.5t-19.5 49.5t20 50.5t50 20.5zM158 724q30 0 49.5 -20t19.5 -50q0 -31 -20 -50.5t-50 -19.5q-31 0 -50 19.5t-19 49.5t20 50.5t50 20.5z" />
    <glyph glyph-name="copyright" unicode="&#xa9;" horiz-adv-x="806" 
d="M506 283l63 -57q-6 -8 -17 -20.5t-52 -33t-90 -20.5q-87 0 -142.5 56t-55.5 140t57 142t144 58q47 0 85.5 -17t53.5 -33l14 -17l-65 -58q-3 4 -9 11t-28 18t-49 11q-47 0 -79 -32.5t-32 -80.5q0 -49 32 -81t79 -32q28 0 50.5 11.5t31.5 23.5zM405 710q154 0 257.5 -103
t103.5 -255t-105.5 -257t-259.5 -105t-257.5 103t-103.5 255t105.5 257t259.5 105zM403 63q120 0 202.5 83t82.5 204t-83 204t-202 83t-202 -83t-83 -204t82.5 -204t202.5 -83z" />
    <glyph glyph-name="ordfeminine" unicode="&#xaa;" horiz-adv-x="347" 
d="M174 440q20 0 32 11t12 28q0 16 -12 27t-32 11q-19 0 -30.5 -11t-11.5 -27q0 -17 11.5 -28t30.5 -11zM307 573v-187h-72l-6 21q-29 -27 -77 -27q-52 0 -82 26t-30 69t31 70.5t83 27.5q36 0 61 -17v14q0 60 -58 60q-21 0 -41 -5t-30 -9l-9 -5l-21 66q43 27 116 27
q64 0 99.5 -33.5t35.5 -97.5zM50 275v59h257v-59h-257z" />
    <glyph glyph-name="guillemotleft" unicode="&#xab;" horiz-adv-x="677" 
d="M331 509l-150 -157l150 -156l-70 -74l-221 207v43l221 207zM617 509l-150 -157l150 -156l-70 -74l-221 207v43l221 207z" />
    <glyph glyph-name="logicalnot" unicode="&#xac;" 
d="M361 175v157h-321v106h435v-263h-114z" />
    <glyph glyph-name="registered" unicode="&#xae;" horiz-adv-x="472" 
d="M243 571h-34v-51h34q29 0 29 25q0 26 -29 26zM237 710q83 0 139 -55.5t56 -137.5t-57 -138.5t-140 -56.5t-139 55.5t-56 137.5t57 138.5t140 56.5zM236 366q62 0 105 43t43 107t-43 106.5t-105 42.5t-105 -42.5t-43 -106.5t43 -107t105 -43zM163 421v189h86
q32 0 51.5 -17.5t19.5 -45.5q0 -40 -40 -57l48 -69h-55l-40 63h-24v-63h-46z" />
    <glyph glyph-name="macron" unicode="&#xaf;" horiz-adv-x="460" 
d="M73 620v82h315v-82h-315z" />
    <glyph glyph-name="degree" unicode="&#xb0;" horiz-adv-x="402" 
d="M201 464q34 0 56.5 23.5t22.5 58.5t-22.5 58.5t-56.5 23.5t-56.5 -23.5t-22.5 -58.5t22.5 -58.5t56.5 -23.5zM202 710q70 0 117.5 -47t47.5 -116t-48.5 -117t-118.5 -48t-117.5 47t-47.5 116t48.5 117t118.5 48z" />
    <glyph glyph-name="plusminus" unicode="&#xb1;" 
d="M312 662v-164h163v-106h-163v-165h-109v165h-163v106h163v164h109zM475 37h-435v106h435v-106z" />
    <glyph glyph-name="twosuperior" unicode="&#xb2;" horiz-adv-x="305" 
d="M227 467l-91 -109h144v-78h-255v63l141 176q24 30 24 62q0 44 -39 44t-39 -44v-22h-87v19q0 58 36 93t93 35q53 0 89.5 -32t36.5 -82q0 -62 -53 -125z" />
    <glyph glyph-name="threesuperior" unicode="&#xb3;" horiz-adv-x="311" 
d="M31 577v12q0 52 35 84.5t88 32.5q52 0 86.5 -31.5t34.5 -80.5v-5q0 -58 -47 -92q53 -32 53 -95v-10q0 -52 -37 -85t-92 -33q-54 0 -90.5 33t-36.5 85v20h85v-15q0 -45 41 -45q18 0 29 12t11 34v16q0 48 -43 48h-35v68h35q37 0 37 42v17q0 18 -9.5 28.5t-24.5 10.5
t-25 -10.5t-10 -28.5v-12h-85z" />
    <glyph glyph-name="acute" unicode="&#xb4;" horiz-adv-x="370" 
d="M87 572l56 168h137l-93 -168h-100z" />
    <glyph glyph-name="mu" unicode="&#xb5;" horiz-adv-x="520" 
d="M337 205v312h133v-517h-117l-6 57q-45 -67 -124 -67q-15 0 -39 4v-154h-134v677h134v-312q0 -97 74 -97q79 0 79 97z" />
    <glyph glyph-name="mu" unicode="&#x3bc;" horiz-adv-x="520" 
d="M337 205v312h133v-517h-117l-6 57q-45 -67 -124 -67q-15 0 -39 4v-154h-134v677h134v-312q0 -97 74 -97q79 0 79 97z" />
    <glyph glyph-name="paragraph" unicode="&#xb6;" horiz-adv-x="679" 
d="M255 0v304h-15q-96 0 -153 55.5t-57 140.5t59 142.5t154 57.5h356v-700h-123v590h-99v-590h-122z" />
    <glyph glyph-name="periodcentered" unicode="&#xb7;" horiz-adv-x="247" 
d="M124 434q36 0 59.5 -24t23.5 -60t-23.5 -60t-59.5 -24q-37 0 -60.5 24t-23.5 60t23.5 60t60.5 24z" />
    <glyph glyph-name="cedilla" unicode="&#xb8;" horiz-adv-x="355" 
d="M176 0l47 49q3 -1 8.5 -3.5t19 -12.5t23.5 -22t18.5 -32.5t8.5 -44.5q0 -59 -42.5 -94t-104.5 -35q-20 0 -39 4t-28 8l-9 4l15 80q16 -10 48 -10q29 0 46 15t17 42q0 16 -7 29t-14 18z" />
    <glyph glyph-name="onesuperior" unicode="&#xb9;" horiz-adv-x="265" 
d="M10 599l131 101h74v-420h-90v316l-73 -54z" />
    <glyph glyph-name="ordmasculine" unicode="&#xba;" horiz-adv-x="350" 
d="M132 575v-67q0 -49 43 -49t43 49v67q0 50 -43 50t-43 -50zM40 510v62q0 61 37.5 96.5t98.5 35.5t97.5 -34.5t36.5 -95.5v-62q0 -61 -37.5 -96.5t-98.5 -35.5t-97.5 34.5t-36.5 95.5zM50 275v59h250v-59h-250z" />
    <glyph glyph-name="guillemotright" unicode="&#xbb;" horiz-adv-x="677" 
d="M60 191l150 157l-150 156l70 74l221 -207v-43l-221 -207zM346 191l150 157l-150 156l70 74l221 -207v-43l-221 -207z" />
    <glyph glyph-name="onequarter" unicode="&#xbc;" horiz-adv-x="730" 
d="M10 599l131 101h74v-420h-90v316l-73 -54zM474 158h83v144zM405 160l150 260h87v-262h48v-67h-48v-91h-85v91h-152v69zM110 0l453 700h85l-454 -700h-84z" />
    <glyph glyph-name="onehalf" unicode="&#xbd;" horiz-adv-x="785" 
d="M10 599l131 101h74v-420h-90v316l-73 -54zM110 0l453 700h85l-454 -700h-84zM687 187l-91 -109h144v-78h-255v63l141 176q24 30 24 62q0 44 -39 44t-39 -44v-22h-87v19q0 58 36 93t93 35q53 0 89.5 -32t36.5 -82q0 -62 -53 -125z" />
    <glyph glyph-name="threequarters" unicode="&#xbe;" horiz-adv-x="740" 
d="M484 158h83v144zM415 160l150 260h87v-262h48v-67h-48v-91h-85v91h-152v69zM31 577v12q0 52 35 84.5t88 32.5q52 0 86.5 -31.5t34.5 -80.5v-5q0 -58 -47 -92q53 -32 53 -95v-10q0 -52 -37 -85t-92 -33q-54 0 -90.5 33t-36.5 85v20h85v-15q0 -45 41 -45q18 0 29 12t11 34
v16q0 48 -43 48h-35v68h35q37 0 37 42v17q0 18 -9.5 28.5t-24.5 10.5t-25 -10.5t-10 -28.5v-12h-85zM120 0l453 700h85l-454 -700h-84z" />
    <glyph glyph-name="questiondown" unicode="&#xbf;" horiz-adv-x="485" 
d="M240 542q-36 0 -60 24t-24 60t24 60t60 24t60 -24t24 -60t-24 -60t-60 -24zM179 461v9h122v-20q0 -34 -13.5 -64.5t-33 -53.5t-39 -44.5t-33 -47t-13.5 -52.5q0 -36 20 -56.5t54 -20.5q33 0 53 22.5t20 63.5v25h129v-16q0 -97 -58.5 -156.5t-147.5 -59.5q-87 0 -145.5 53
t-58.5 137q0 41 15 75.5t36 58.5t42 46.5t36 48t15 52.5z" />
    <glyph glyph-name="Agrave" unicode="&#xc0;" horiz-adv-x="563" 
d="M277 507l-70 -252h140zM349 700l214 -700h-148l-41 149h-193l-41 -149h-140l215 700h134zM277 920l56 -168h-100l-93 168h137z" />
    <glyph glyph-name="Aacute" unicode="&#xc1;" horiz-adv-x="563" 
d="M277 507l-70 -252h140zM349 700l214 -700h-148l-41 149h-193l-41 -149h-140l215 700h134zM240 752l56 168h137l-93 -168h-100z" />
    <glyph glyph-name="Acircumflex" unicode="&#xc2;" horiz-adv-x="563" 
d="M277 507l-70 -252h140zM349 700l214 -700h-148l-41 149h-193l-41 -149h-140l215 700h134zM109 752l118 168h107l120 -168h-108l-68 84l-68 -84h-101z" />
    <glyph glyph-name="Atilde" unicode="&#xc3;" horiz-adv-x="563" 
d="M277 507l-70 -252h140zM349 700l214 -700h-148l-41 149h-193l-41 -149h-140l215 700h134zM193 767l-72 4q0 5 0.5 14t6 31t15 39t30 31t48.5 14q22 0 40.5 -9.5t28.5 -20.5t23 -20.5t26 -9.5q12 0 19.5 12.5t9.5 25.5l1 12l72 -4q0 -5 -0.5 -14t-6 -31t-15 -39t-30 -31
t-48.5 -14t-49 14.5t-37 29.5t-32 15q-12 0 -19.5 -12t-9.5 -24z" />
    <glyph glyph-name="Adieresis" unicode="&#xc4;" horiz-adv-x="563" 
d="M277 507l-70 -252h140zM349 700l214 -700h-148l-41 149h-193l-41 -149h-140l215 700h134zM378 904q30 0 50 -20t20 -50q0 -31 -20 -50.5t-50 -19.5q-31 0 -50.5 19.5t-19.5 49.5t20 50.5t50 20.5zM185 904q30 0 49.5 -20t19.5 -50q0 -31 -20 -50.5t-50 -19.5
q-31 0 -50 19.5t-19 49.5t20 50.5t50 20.5z" />
    <glyph glyph-name="Aring" unicode="&#xc5;" horiz-adv-x="563" 
d="M277 507l-70 -252h140zM349 700l214 -700h-148l-41 149h-193l-41 -149h-140l215 700h134zM282 939q44 0 72.5 -27t28.5 -69t-28.5 -69t-72.5 -27t-72.5 27t-28.5 69t28.5 69t72.5 27zM282 799q19 0 31.5 13t12.5 31t-12.5 30.5t-31.5 12.5t-31.5 -12.5t-12.5 -30.5
t12.5 -31t31.5 -13z" />
    <glyph glyph-name="AE" unicode="&#xc6;" horiz-adv-x="770" 
d="M232 254h128v329zM740 575h-239v-157h199v-117h-199v-176h244v-125h-385v149h-166l-59 -149h-145l288 700h462v-125z" />
    <glyph glyph-name="Ccedilla" unicode="&#xc7;" horiz-adv-x="556" 
d="M369 218v40h137v-36q0 -92 -48.5 -152t-128.5 -75q16 -28 16 -61q0 -59 -42.5 -94t-104.5 -35q-20 0 -39 4t-28 8l-9 4l15 80q16 -10 48 -10q29 0 46 15t17 42q0 26 -21 47q-81 14 -129 73.5t-48 150.5v260q0 105 65 168t167 63q100 0 162 -61.5t62 -166.5v-29h-137v30
q0 48 -24 75t-65 27t-64.5 -27t-23.5 -75v-265q0 -48 23.5 -75t64.5 -27q42 0 65.5 27t23.5 75z" />
    <glyph glyph-name="Egrave" unicode="&#xc8;" horiz-adv-x="470" 
d="M445 0h-385v700h380v-125h-238v-156h198v-117h-198v-177h243v-125zM267 920l56 -168h-100l-93 168h137z" />
    <glyph glyph-name="Eacute" unicode="&#xc9;" horiz-adv-x="470" 
d="M445 0h-385v700h380v-125h-238v-156h198v-117h-198v-177h243v-125zM197 752l56 168h137l-93 -168h-100z" />
    <glyph glyph-name="Ecircumflex" unicode="&#xca;" horiz-adv-x="470" 
d="M445 0h-385v700h380v-125h-238v-156h198v-117h-198v-177h243v-125zM77 752l118 168h107l120 -168h-108l-68 84l-68 -84h-101z" />
    <glyph glyph-name="Edieresis" unicode="&#xcb;" horiz-adv-x="470" 
d="M445 0h-385v700h380v-125h-238v-156h198v-117h-198v-177h243v-125zM346 904q30 0 50 -20t20 -50q0 -31 -20 -50.5t-50 -19.5q-31 0 -50.5 19.5t-19.5 49.5t20 50.5t50 20.5zM153 904q30 0 49.5 -20t19.5 -50q0 -31 -20 -50.5t-50 -19.5q-31 0 -50 19.5t-19 49.5t20 50.5
t50 20.5z" />
    <glyph glyph-name="Igrave" unicode="&#xcc;" horiz-adv-x="276" 
d="M65 0v700h146v-700h-146zM127 920l56 -168h-100l-93 168h137z" />
    <glyph glyph-name="Iacute" unicode="&#xcd;" horiz-adv-x="276" 
d="M65 0v700h146v-700h-146zM93 752l56 168h137l-93 -168h-100z" />
    <glyph glyph-name="Icircumflex" unicode="&#xce;" horiz-adv-x="276" 
d="M65 0v700h146v-700h-146zM-35 752l118 168h107l120 -168h-108l-68 84l-68 -84h-101z" />
    <glyph glyph-name="Idieresis" unicode="&#xcf;" horiz-adv-x="276" 
d="M65 0v700h146v-700h-146zM234 904q30 0 50 -20t20 -50q0 -31 -20 -50.5t-50 -19.5q-31 0 -50.5 19.5t-19.5 49.5t20 50.5t50 20.5zM41 904q30 0 49.5 -20t19.5 -50q0 -31 -20 -50.5t-50 -19.5q-31 0 -50 19.5t-19 49.5t20 50.5t50 20.5z" />
    <glyph glyph-name="Eth" unicode="&#xd0;" horiz-adv-x="607" 
d="M239 575v-182h101v-79h-101v-189h73q50 0 77 30t27 87v215q0 58 -27 88t-77 30h-73zM97 0v314h-77v79h77v307h221q111 0 175 -63t64 -178v-215q0 -115 -65.5 -179.5t-177.5 -64.5h-217z" />
    <glyph glyph-name="Ntilde" unicode="&#xd1;" horiz-adv-x="590" 
d="M401 0l-211 445v-445h-130v700h138l203 -427v427h129v-700h-129zM211 767l-72 4q0 5 0.5 14t6 31t15 39t30 31t48.5 14q22 0 40.5 -9.5t28.5 -20.5t23 -20.5t26 -9.5q12 0 19.5 12.5t9.5 25.5l1 12l72 -4q0 -5 -0.5 -14t-6 -31t-15 -39t-30 -31t-48.5 -14t-49 14.5
t-37 29.5t-32 15q-12 0 -19.5 -12t-9.5 -24z" />
    <glyph glyph-name="Ograve" unicode="&#xd2;" horiz-adv-x="570" 
d="M192 478v-255q0 -51 25 -79t68 -28q44 0 69 28t25 79v255q0 50 -25 78.5t-69 28.5q-43 0 -68 -28.5t-25 -78.5zM50 224v250q0 107 66.5 171.5t170.5 64.5q105 0 169 -62.5t64 -170.5v-250q0 -107 -66 -172t-170 -65q-105 0 -169.5 63t-64.5 171zM292 920l56 -168h-100
l-93 168h137z" />
    <glyph glyph-name="Oacute" unicode="&#xd3;" horiz-adv-x="570" 
d="M192 478v-255q0 -51 25 -79t68 -28q44 0 69 28t25 79v255q0 50 -25 78.5t-69 28.5q-43 0 -68 -28.5t-25 -78.5zM50 224v250q0 107 66.5 171.5t170.5 64.5q105 0 169 -62.5t64 -170.5v-250q0 -107 -66 -172t-170 -65q-105 0 -169.5 63t-64.5 171zM222 752l56 168h137
l-93 -168h-100z" />
    <glyph glyph-name="Ocircumflex" unicode="&#xd4;" horiz-adv-x="570" 
d="M192 478v-255q0 -51 25 -79t68 -28q44 0 69 28t25 79v255q0 50 -25 78.5t-69 28.5q-43 0 -68 -28.5t-25 -78.5zM50 224v250q0 107 66.5 171.5t170.5 64.5q105 0 169 -62.5t64 -170.5v-250q0 -107 -66 -172t-170 -65q-105 0 -169.5 63t-64.5 171zM112 752l118 168h107
l120 -168h-108l-68 84l-68 -84h-101z" />
    <glyph glyph-name="Otilde" unicode="&#xd5;" horiz-adv-x="570" 
d="M192 478v-255q0 -51 25 -79t68 -28q44 0 69 28t25 79v255q0 50 -25 78.5t-69 28.5q-43 0 -68 -28.5t-25 -78.5zM50 224v250q0 107 66.5 171.5t170.5 64.5q105 0 169 -62.5t64 -170.5v-250q0 -107 -66 -172t-170 -65q-105 0 -169.5 63t-64.5 171zM197 767l-72 4
q0 5 0.5 14t6 31t15 39t30 31t48.5 14q22 0 40.5 -9.5t28.5 -20.5t23 -20.5t26 -9.5q12 0 19.5 12.5t9.5 25.5l1 12l72 -4q0 -5 -0.5 -14t-6 -31t-15 -39t-30 -31t-48.5 -14t-49 14.5t-37 29.5t-32 15q-12 0 -19.5 -12t-9.5 -24z" />
    <glyph glyph-name="Odieresis" unicode="&#xd6;" horiz-adv-x="570" 
d="M192 478v-255q0 -51 25 -79t68 -28q44 0 69 28t25 79v255q0 50 -25 78.5t-69 28.5q-43 0 -68 -28.5t-25 -78.5zM50 224v250q0 107 66.5 171.5t170.5 64.5q105 0 169 -62.5t64 -170.5v-250q0 -107 -66 -172t-170 -65q-105 0 -169.5 63t-64.5 171zM381 904q30 0 50 -20
t20 -50q0 -31 -20 -50.5t-50 -19.5q-31 0 -50.5 19.5t-19.5 49.5t20 50.5t50 20.5zM188 904q30 0 49.5 -20t19.5 -50q0 -31 -20 -50.5t-50 -19.5q-31 0 -50 19.5t-19 49.5t20 50.5t50 20.5z" />
    <glyph glyph-name="multiply" unicode="&#xd7;" 
d="M401 134l-143 145l-143 -145l-74 73l145 143l-145 142l74 74l143 -145l143 145l73 -74l-145 -142l145 -143z" />
    <glyph glyph-name="Oslash" unicode="&#xd8;" horiz-adv-x="570" 
d="M532 730l-57 -105q45 -59 45 -148v-250q0 -108 -66 -172.5t-171 -64.5q-79 0 -135 36l-30 -56h-81l57 105q-44 60 -44 148v250q0 108 66 172.5t171 64.5q76 0 134 -36l31 56h80zM187 477v-232l170 312q-26 31 -72 31q-45 0 -71.5 -29.5t-26.5 -81.5zM285 112q45 0 71 29
t26 81v232l-170 -312q25 -30 73 -30z" />
    <glyph glyph-name="Ugrave" unicode="&#xd9;" horiz-adv-x="570" 
d="M375 218v482h140v-478q0 -105 -64.5 -168.5t-166.5 -63.5q-103 0 -166 62t-63 167v481h143v-482q0 -48 23.5 -75t64.5 -27q42 0 65.5 27t23.5 75zM283 920l56 -168h-100l-93 168h137z" />
    <glyph glyph-name="Uacute" unicode="&#xda;" horiz-adv-x="570" 
d="M375 218v482h140v-478q0 -105 -64.5 -168.5t-166.5 -63.5q-103 0 -166 62t-63 167v481h143v-482q0 -48 23.5 -75t64.5 -27q42 0 65.5 27t23.5 75zM242 752l56 168h137l-93 -168h-100z" />
    <glyph glyph-name="Ucircumflex" unicode="&#xdb;" horiz-adv-x="570" 
d="M375 218v482h140v-478q0 -105 -64.5 -168.5t-166.5 -63.5q-103 0 -166 62t-63 167v481h143v-482q0 -48 23.5 -75t64.5 -27q42 0 65.5 27t23.5 75zM113 752l118 168h107l120 -168h-108l-68 84l-68 -84h-101z" />
    <glyph glyph-name="Udieresis" unicode="&#xdc;" horiz-adv-x="570" 
d="M375 218v482h140v-478q0 -105 -64.5 -168.5t-166.5 -63.5q-103 0 -166 62t-63 167v481h143v-482q0 -48 23.5 -75t64.5 -27q42 0 65.5 27t23.5 75zM382 904q30 0 50 -20t20 -50q0 -31 -20 -50.5t-50 -19.5q-31 0 -50.5 19.5t-19.5 49.5t20 50.5t50 20.5zM189 904
q30 0 49.5 -20t19.5 -50q0 -31 -20 -50.5t-50 -19.5q-31 0 -50 19.5t-19 49.5t20 50.5t50 20.5z" />
    <glyph glyph-name="Yacute" unicode="&#xdd;" horiz-adv-x="535" 
d="M197 0v260l-202 440h158l118 -298l119 298h150l-202 -440v-260h-141zM227 752l56 168h137l-93 -168h-100z" />
    <glyph glyph-name="Thorn" unicode="&#xde;" horiz-adv-x="545" 
d="M201 471v-215h54q52 0 83 31t31 77t-30.5 76.5t-82.5 30.5h-55zM60 0v700h141v-111h66q109 0 176 -63.5t67 -160.5t-68.5 -161.5t-177.5 -64.5h-63v-139h-141z" />
    <glyph glyph-name="germandbls" unicode="&#xdf;" horiz-adv-x="540" 
d="M287 305h-37v113h10q35 0 55.5 21.5t20.5 58.5v14q0 37 -20.5 58.5t-55.5 21.5t-55.5 -21.5t-20.5 -60.5v-510h-134v512q0 93 58.5 145.5t153.5 52.5q93 0 150.5 -49.5t57.5 -134.5v-10q0 -89 -65 -139q50 -23 77.5 -67.5t27.5 -105.5v-11q0 -92 -58 -147.5t-148 -55.5
q-18 0 -35.5 2t-26.5 4l-8 2l10 114q16 -4 43 -4q41 0 65 24.5t24 66.5v14q0 43 -24 67.5t-65 24.5z" />
    <glyph glyph-name="agrave" unicode="&#xe0;" horiz-adv-x="500" 
d="M244 86q38 0 60 19t22 48t-23 48.5t-59 19.5q-35 0 -57.5 -19.5t-22.5 -48.5t22 -48t58 -19zM455 309v-309h-109l-8 42q-47 -52 -131 -52t-130.5 43.5t-46.5 114.5t48.5 116t132.5 45q67 0 110 -35v25q0 110 -105 110q-33 0 -64.5 -7.5t-45.5 -15.5l-15 -8l-34 105
q7 5 21.5 12.5t62.5 19.5t100 12q102 0 158 -55.5t56 -162.5zM268 740l56 -168h-100l-93 168h137z" />
    <glyph glyph-name="aacute" unicode="&#xe1;" horiz-adv-x="500" 
d="M244 86q38 0 60 19t22 48t-23 48.5t-59 19.5q-35 0 -57.5 -19.5t-22.5 -48.5t22 -48t58 -19zM455 309v-309h-109l-8 42q-47 -52 -131 -52t-130.5 43.5t-46.5 114.5t48.5 116t132.5 45q67 0 110 -35v25q0 110 -105 110q-33 0 -64.5 -7.5t-45.5 -15.5l-15 -8l-34 105
q7 5 21.5 12.5t62.5 19.5t100 12q102 0 158 -55.5t56 -162.5zM209 572l56 168h137l-93 -168h-100z" />
    <glyph glyph-name="acircumflex" unicode="&#xe2;" horiz-adv-x="500" 
d="M244 86q38 0 60 19t22 48t-23 48.5t-59 19.5q-35 0 -57.5 -19.5t-22.5 -48.5t22 -48t58 -19zM455 309v-309h-109l-8 42q-47 -52 -131 -52t-130.5 43.5t-46.5 114.5t48.5 116t132.5 45q67 0 110 -35v25q0 110 -105 110q-33 0 -64.5 -7.5t-45.5 -15.5l-15 -8l-34 105
q7 5 21.5 12.5t62.5 19.5t100 12q102 0 158 -55.5t56 -162.5zM79 572l118 168h107l120 -168h-108l-68 84l-68 -84h-101z" />
    <glyph glyph-name="atilde" unicode="&#xe3;" horiz-adv-x="500" 
d="M244 86q38 0 60 19t22 48t-23 48.5t-59 19.5q-35 0 -57.5 -19.5t-22.5 -48.5t22 -48t58 -19zM455 309v-309h-109l-8 42q-47 -52 -131 -52t-130.5 43.5t-46.5 114.5t48.5 116t132.5 45q67 0 110 -35v25q0 110 -105 110q-33 0 -64.5 -7.5t-45.5 -15.5l-15 -8l-34 105
q7 5 21.5 12.5t62.5 19.5t100 12q102 0 158 -55.5t56 -162.5zM169 587l-72 4q0 5 0.5 14t6 31t15 39t30 31t48.5 14q22 0 40.5 -9.5t28.5 -20.5t23 -20.5t26 -9.5q12 0 19.5 12.5t9.5 25.5l1 12l72 -4q0 -5 -0.5 -14t-6 -31t-15 -39t-30 -31t-48.5 -14t-49 14.5t-37 29.5
t-32 15q-12 0 -19.5 -12t-9.5 -24z" />
    <glyph glyph-name="adieresis" unicode="&#xe4;" horiz-adv-x="500" 
d="M244 86q38 0 60 19t22 48t-23 48.5t-59 19.5q-35 0 -57.5 -19.5t-22.5 -48.5t22 -48t58 -19zM455 309v-309h-109l-8 42q-47 -52 -131 -52t-130.5 43.5t-46.5 114.5t48.5 116t132.5 45q67 0 110 -35v25q0 110 -105 110q-33 0 -64.5 -7.5t-45.5 -15.5l-15 -8l-34 105
q7 5 21.5 12.5t62.5 19.5t100 12q102 0 158 -55.5t56 -162.5zM348 724q30 0 50 -20t20 -50q0 -31 -20 -50.5t-50 -19.5q-31 0 -50.5 19.5t-19.5 49.5t20 50.5t50 20.5zM155 724q30 0 49.5 -20t19.5 -50q0 -31 -20 -50.5t-50 -19.5q-31 0 -50 19.5t-19 49.5t20 50.5t50 20.5z
" />
    <glyph glyph-name="aring" unicode="&#xe5;" horiz-adv-x="500" 
d="M244 86q38 0 60 19t22 48t-23 48.5t-59 19.5q-35 0 -57.5 -19.5t-22.5 -48.5t22 -48t58 -19zM455 309v-309h-109l-8 42q-47 -52 -131 -52t-130.5 43.5t-46.5 114.5t48.5 116t132.5 45q67 0 110 -35v25q0 110 -105 110q-33 0 -64.5 -7.5t-45.5 -15.5l-15 -8l-34 105
q7 5 21.5 12.5t62.5 19.5t100 12q102 0 158 -55.5t56 -162.5zM252 759q44 0 72.5 -27t28.5 -69t-28.5 -69t-72.5 -27t-72.5 27t-28.5 69t28.5 69t72.5 27zM252 619q19 0 31.5 13t12.5 31t-12.5 30.5t-31.5 12.5t-31.5 -12.5t-12.5 -30.5t12.5 -31t31.5 -13z" />
    <glyph glyph-name="ae" unicode="&#xe6;" horiz-adv-x="787" 
d="M455 333v-10h162v10q0 42 -22 66.5t-59 24.5t-59 -24.5t-22 -66.5zM617 189l126 -27q-1 -7 -3 -18.5t-15 -41t-33 -52t-61.5 -41t-96.5 -18.5q-101 0 -152 74q-49 -74 -167 -74q-89 0 -137 43t-48 114t48.5 116t132.5 45q66 0 110 -34v25q0 109 -105 109
q-33 0 -64.5 -7.5t-45.5 -15.5l-15 -8l-34 106q7 5 21.5 12t62.5 19t100 12q103 0 150 -70q51 70 147 70q95 0 152 -55t57 -152v-80h-292v-40q0 -43 22 -67t59 -24q33 0 53 20t24 40zM244 86q38 0 60 19.5t22 48.5t-23 48t-59 19t-58 -19t-22 -48t22.5 -48.5t57.5 -19.5z
" />
    <glyph glyph-name="ccedilla" unicode="&#xe7;" horiz-adv-x="495" 
d="M325 207h130v-11q0 -81 -43.5 -133.5t-115.5 -67.5q17 -27 17 -61q0 -59 -42.5 -94t-104.5 -35q-20 0 -39 4t-28 8l-9 4l15 80q16 -10 48 -10q29 0 46 15t17 42q0 29 -21 47q-72 14 -113.5 65.5t-41.5 131.5v129q0 94 58.5 150t150.5 56t149 -54t57 -148v-10h-130v7
q0 41 -20 64t-55 23t-55.5 -23t-20.5 -64v-127q0 -41 20.5 -64t55.5 -23t55 23t20 64v12z" />
    <glyph glyph-name="egrave" unicode="&#xe8;" horiz-adv-x="506" 
d="M174 332v-10h162v10q0 43 -22 67.5t-59 24.5t-59 -24.5t-22 -67.5zM336 189l126 -28q-1 -7 -3 -18.5t-15 -41t-33.5 -52t-62 -41t-95.5 -18.5q-96 0 -154.5 55t-58.5 152v119q0 97 60 154t157 57q94 0 151.5 -55.5t57.5 -151.5v-81h-292v-39q0 -43 22 -67.5t59 -24.5
q33 0 53 20t24 40zM262 740l56 -168h-100l-93 168h137z" />
    <glyph glyph-name="eacute" unicode="&#xe9;" horiz-adv-x="506" 
d="M174 332v-10h162v10q0 43 -22 67.5t-59 24.5t-59 -24.5t-22 -67.5zM336 189l126 -28q-1 -7 -3 -18.5t-15 -41t-33.5 -52t-62 -41t-95.5 -18.5q-96 0 -154.5 55t-58.5 152v119q0 97 60 154t157 57q94 0 151.5 -55.5t57.5 -151.5v-81h-292v-39q0 -43 22 -67.5t59 -24.5
q33 0 53 20t24 40zM192 572l56 168h137l-93 -168h-100z" />
    <glyph glyph-name="ecircumflex" unicode="&#xea;" horiz-adv-x="506" 
d="M174 332v-10h162v10q0 43 -22 67.5t-59 24.5t-59 -24.5t-22 -67.5zM336 189l126 -28q-1 -7 -3 -18.5t-15 -41t-33.5 -52t-62 -41t-95.5 -18.5q-96 0 -154.5 55t-58.5 152v119q0 97 60 154t157 57q94 0 151.5 -55.5t57.5 -151.5v-81h-292v-39q0 -43 22 -67.5t59 -24.5
q33 0 53 20t24 40zM80 572l118 168h107l120 -168h-108l-68 84l-68 -84h-101z" />
    <glyph glyph-name="edieresis" unicode="&#xeb;" horiz-adv-x="506" 
d="M174 332v-10h162v10q0 43 -22 67.5t-59 24.5t-59 -24.5t-22 -67.5zM336 189l126 -28q-1 -7 -3 -18.5t-15 -41t-33.5 -52t-62 -41t-95.5 -18.5q-96 0 -154.5 55t-58.5 152v119q0 97 60 154t157 57q94 0 151.5 -55.5t57.5 -151.5v-81h-292v-39q0 -43 22 -67.5t59 -24.5
q33 0 53 20t24 40zM348 724q30 0 50 -20t20 -50q0 -31 -20 -50.5t-50 -19.5q-31 0 -50.5 19.5t-19.5 49.5t20 50.5t50 20.5zM155 724q30 0 49.5 -20t19.5 -50q0 -31 -20 -50.5t-50 -19.5q-31 0 -50 19.5t-19 49.5t20 50.5t50 20.5z" />
    <glyph glyph-name="igrave" unicode="&#xec;" horiz-adv-x="247" 
d="M117 740l56 -168h-100l-93 168h137zM55 0v517h137v-517h-137z" />
    <glyph glyph-name="iacute" unicode="&#xed;" horiz-adv-x="247" 
d="M74 572l56 168h137l-93 -168h-100zM55 0v517h137v-517h-137z" />
    <glyph glyph-name="icircumflex" unicode="&#xee;" horiz-adv-x="247" 
d="M-49 572l118 168h107l120 -168h-108l-68 84l-68 -84h-101zM55 0v517h137v-517h-137z" />
    <glyph glyph-name="idieresis" unicode="&#xef;" horiz-adv-x="247" 
d="M220 724q30 0 50 -20t20 -50q0 -31 -20 -50.5t-50 -19.5q-31 0 -50.5 19.5t-19.5 49.5t20 50.5t50 20.5zM27 724q30 0 49.5 -20t19.5 -50q0 -31 -20 -50.5t-50 -19.5q-31 0 -50 19.5t-19 49.5t20 50.5t50 20.5zM55 0v517h137v-517h-137z" />
    <glyph glyph-name="eth" unicode="&#xf0;" horiz-adv-x="510" 
d="M173 312v-112q0 -43 22.5 -67.5t59.5 -24.5t59 24.5t22 67.5v112q0 43 -22 67.5t-59 24.5t-59.5 -24.5t-22.5 -67.5zM470 624l-99 -23l60 -124q39 -81 39 -170v-106q0 -97 -60.5 -154t-156.5 -57t-154.5 55.5t-58.5 151.5v114q0 92 53 144t141 52q33 0 69 -17l-46 85
l-137 -31v72l102 24l-32 60h135l15 -33l130 29v-72z" />
    <glyph glyph-name="ntilde" unicode="&#xf1;" 
d="M50 0v517h117l6 -60q45 70 136 70q74 0 117.5 -48.5t43.5 -135.5v-343h-134v312q0 97 -73 97q-37 0 -58 -23.5t-21 -71.5v-314h-134zM171 587l-72 4q0 5 0.5 14t6 31t15 39t30 31t48.5 14q22 0 40.5 -9.5t28.5 -20.5t23 -20.5t26 -9.5q12 0 19.5 12.5t9.5 25.5l1 12
l72 -4q0 -5 -0.5 -14t-6 -31t-15 -39t-30 -31t-48.5 -14t-49 14.5t-37 29.5t-32 15q-12 0 -19.5 -12t-9.5 -24z" />
    <glyph glyph-name="ograve" unicode="&#xf2;" horiz-adv-x="510" 
d="M174 317v-117q0 -43 22 -67.5t59 -24.5t59 24.5t22 67.5v117q0 43 -22 67.5t-59 24.5t-59 -24.5t-22 -67.5zM40 197v119q0 97 60 154t157 57q96 0 154.5 -55.5t58.5 -151.5v-119q0 -97 -60.5 -154t-156.5 -57t-154.5 55t-58.5 152zM252 740l56 -168h-100l-93 168h137z
" />
    <glyph glyph-name="oacute" unicode="&#xf3;" horiz-adv-x="510" 
d="M174 317v-117q0 -43 22 -67.5t59 -24.5t59 24.5t22 67.5v117q0 43 -22 67.5t-59 24.5t-59 -24.5t-22 -67.5zM40 197v119q0 97 60 154t157 57q96 0 154.5 -55.5t58.5 -151.5v-119q0 -97 -60.5 -154t-156.5 -57t-154.5 55t-58.5 152zM207 572l56 168h137l-93 -168h-100z
" />
    <glyph glyph-name="ocircumflex" unicode="&#xf4;" horiz-adv-x="510" 
d="M174 317v-117q0 -43 22 -67.5t59 -24.5t59 24.5t22 67.5v117q0 43 -22 67.5t-59 24.5t-59 -24.5t-22 -67.5zM40 197v119q0 97 60 154t157 57q96 0 154.5 -55.5t58.5 -151.5v-119q0 -97 -60.5 -154t-156.5 -57t-154.5 55t-58.5 152zM82 572l118 168h107l120 -168h-108
l-68 84l-68 -84h-101z" />
    <glyph glyph-name="otilde" unicode="&#xf5;" horiz-adv-x="510" 
d="M174 317v-117q0 -43 22 -67.5t59 -24.5t59 24.5t22 67.5v117q0 43 -22 67.5t-59 24.5t-59 -24.5t-22 -67.5zM40 197v119q0 97 60 154t157 57q96 0 154.5 -55.5t58.5 -151.5v-119q0 -97 -60.5 -154t-156.5 -57t-154.5 55t-58.5 152zM166 587l-72 4q0 5 0.5 14t6 31t15 39
t30 31t48.5 14t49.5 -15t37 -30t31.5 -15q12 0 19.5 12.5t8.5 25.5l2 12l72 -4q0 -5 -0.5 -14t-6 -31t-15 -39t-30 -31t-48.5 -14t-49 14.5t-37 29.5t-32 15q-12 0 -19.5 -12t-8.5 -24z" />
    <glyph glyph-name="odieresis" unicode="&#xf6;" horiz-adv-x="510" 
d="M174 317v-117q0 -43 22 -67.5t59 -24.5t59 24.5t22 67.5v117q0 43 -22 67.5t-59 24.5t-59 -24.5t-22 -67.5zM40 197v119q0 97 60 154t157 57q96 0 154.5 -55.5t58.5 -151.5v-119q0 -97 -60.5 -154t-156.5 -57t-154.5 55t-58.5 152zM356 724q30 0 50 -20t20 -50
q0 -31 -20 -50.5t-50 -19.5q-31 0 -50.5 19.5t-19.5 49.5t20 50.5t50 20.5zM163 724q30 0 49.5 -20t19.5 -50q0 -31 -20 -50.5t-50 -19.5q-31 0 -50 19.5t-19 49.5t20 50.5t50 20.5z" />
    <glyph glyph-name="divide" unicode="&#xf7;" 
d="M257 633q31 0 53.5 -22t22.5 -53q0 -32 -22.5 -54t-53.5 -22t-53 22.5t-22 53.5t22 53t53 22zM475 298h-435v114h435v-114zM257 228q31 0 53.5 -22t22.5 -53t-22.5 -53.5t-53.5 -22.5t-53 22.5t-22 53.5t22 53t53 22z" />
    <glyph glyph-name="oslash" unicode="&#xf8;" horiz-adv-x="510" 
d="M477 546l-55 -86q48 -54 48 -141v-119q0 -96 -60 -153t-156 -57q-63 0 -113 25l-29 -45h-78l54 85q-48 54 -48 142v119q0 97 60.5 154t156.5 57q64 0 113 -26l29 45h78zM167 317v-118q0 -13 1 -18l139 220q-21 15 -52 15q-42 0 -65 -25.5t-23 -73.5zM344 317q0 3 -0.5 9
t-0.5 8l-140 -220q20 -14 52 -14q42 0 65.5 25.5t23.5 73.5v118z" />
    <glyph glyph-name="ugrave" unicode="&#xf9;" 
d="M465 517v-517h-117l-6 60q-45 -70 -136 -70q-74 0 -117.5 48.5t-43.5 135.5v343h134v-312q0 -97 73 -97q37 0 58 23.5t21 71.5v314h134zM259 740l56 -168h-100l-93 168h137z" />
    <glyph glyph-name="uacute" unicode="&#xfa;" 
d="M465 517v-517h-117l-6 60q-45 -70 -136 -70q-74 0 -117.5 48.5t-43.5 135.5v343h134v-312q0 -97 73 -97q37 0 58 23.5t21 71.5v314h134zM214 572l56 168h137l-93 -168h-100z" />
    <glyph glyph-name="ucircumflex" unicode="&#xfb;" 
d="M465 517v-517h-117l-6 60q-45 -70 -136 -70q-74 0 -117.5 48.5t-43.5 135.5v343h134v-312q0 -97 73 -97q37 0 58 23.5t21 71.5v314h134zM87 572l118 168h107l120 -168h-108l-68 84l-68 -84h-101z" />
    <glyph glyph-name="udieresis" unicode="&#xfc;" 
d="M465 517v-517h-117l-6 60q-45 -70 -136 -70q-74 0 -117.5 48.5t-43.5 135.5v343h134v-312q0 -97 73 -97q37 0 58 23.5t21 71.5v314h134zM356 724q30 0 50 -20t20 -50q0 -31 -20 -50.5t-50 -19.5q-31 0 -50.5 19.5t-19.5 49.5t20 50.5t50 20.5zM163 724q30 0 49.5 -20
t19.5 -50q0 -31 -20 -50.5t-50 -19.5q-31 0 -50 19.5t-19 49.5t20 50.5t50 20.5z" />
    <glyph glyph-name="yacute" unicode="&#xfd;" horiz-adv-x="460" 
d="M169 0l-169 517h142l92 -343l91 343h135l-174 -532q-27 -82 -69 -118.5t-108 -36.5q-26 0 -51 5t-36 11l-12 5l25 105q24 -12 58 -12q58 0 76 56zM189 572l56 168h137l-93 -168h-100z" />
    <glyph glyph-name="thorn" unicode="&#xfe;" horiz-adv-x="520" 
d="M184 317v-117q0 -43 22 -67.5t59 -24.5t59 24.5t22 67.5v117q0 43 -22 67.5t-59 24.5t-59 -24.5t-22 -67.5zM50 -160v860h134v-224q42 51 118 51q86 0 132 -49.5t46 -141.5v-152q0 -92 -48 -143t-133 -51q-74 0 -115 46v-196h-134z" />
    <glyph glyph-name="ydieresis" unicode="&#xff;" horiz-adv-x="460" 
d="M169 0l-169 517h142l92 -343l91 343h135l-174 -532q-27 -82 -69 -118.5t-108 -36.5q-26 0 -51 5t-36 11l-12 5l25 105q24 -12 58 -12q58 0 76 56zM331 724q30 0 50 -20t20 -50q0 -31 -20 -50.5t-50 -19.5q-31 0 -50.5 19.5t-19.5 49.5t20 50.5t50 20.5zM138 724
q30 0 49.5 -20t19.5 -50q0 -31 -20 -50.5t-50 -19.5q-31 0 -50 19.5t-19 49.5t20 50.5t50 20.5z" />
    <glyph glyph-name="Amacron" unicode="&#x100;" horiz-adv-x="563" 
d="M277 507l-70 -252h140zM349 700l214 -700h-148l-41 149h-193l-41 -149h-140l215 700h134zM130 778v82h315v-82h-315z" />
    <glyph glyph-name="amacron" unicode="&#x101;" horiz-adv-x="500" 
d="M244 86q38 0 60 19t22 48t-23 48.5t-59 19.5q-35 0 -57.5 -19.5t-22.5 -48.5t22 -48t58 -19zM455 309v-309h-109l-8 42q-47 -52 -131 -52t-130.5 43.5t-46.5 114.5t48.5 116t132.5 45q67 0 110 -35v25q0 110 -105 110q-33 0 -64.5 -7.5t-45.5 -15.5l-15 -8l-34 105
q7 5 21.5 12.5t62.5 19.5t100 12q102 0 158 -55.5t56 -162.5zM98 598v82h315v-82h-315z" />
    <glyph glyph-name="Abreve" unicode="&#x102;" horiz-adv-x="563" 
d="M277 507l-70 -252h140zM349 700l214 -700h-148l-41 149h-193l-41 -149h-140l215 700h134zM141 920h88v-32q0 -26 15.5 -42.5t42.5 -16.5t42 16.5t15 42.5v32h89v-26q0 -63 -41 -102.5t-105 -39.5q-65 0 -105.5 39t-40.5 102v27z" />
    <glyph glyph-name="abreve" unicode="&#x103;" horiz-adv-x="500" 
d="M244 86q38 0 60 19t22 48t-23 48.5t-59 19.5q-35 0 -57.5 -19.5t-22.5 -48.5t22 -48t58 -19zM455 309v-309h-109l-8 42q-47 -52 -131 -52t-130.5 43.5t-46.5 114.5t48.5 116t132.5 45q67 0 110 -35v25q0 110 -105 110q-33 0 -64.5 -7.5t-45.5 -15.5l-15 -8l-34 105
q7 5 21.5 12.5t62.5 19.5t100 12q102 0 158 -55.5t56 -162.5zM109 740h88v-32q0 -26 15.5 -42.5t42.5 -16.5t42 16.5t15 42.5v32h89v-26q0 -63 -41 -102.5t-105 -39.5q-65 0 -105.5 39t-40.5 102v27z" />
    <glyph glyph-name="Aogonek" unicode="&#x104;" horiz-adv-x="563" 
d="M349 700l214 -700h-62q-22 -13 -22 -45q0 -24 17 -39t45 -15q11 0 21.5 2t15.5 4l4 2l11 -78q-22 -16 -65 -16q-58 0 -97.5 34t-39.5 89q0 41 22 68l-39 143h-193l-41 -149h-140l215 700h134zM277 507l-70 -252h140z" />
    <glyph glyph-name="aogonek" unicode="&#x105;" horiz-adv-x="500" 
d="M455 309v-309h-43q-1 0 -6 -4.5t-10 -15.5t-5 -25q0 -24 17 -39t45 -15q11 0 21.5 2t15.5 4l4 2l11 -78q-22 -16 -65 -16q-58 0 -97.5 34t-39.5 89q0 51 38 87l-3 17q-47 -52 -131 -52t-130.5 43.5t-46.5 114.5t48.5 116t132.5 45q67 0 110 -35v25q0 110 -105 110
q-33 0 -64.5 -7.5t-45.5 -15.5l-15 -8l-34 105q7 5 21.5 12.5t62.5 19.5t100 12q102 0 158 -55.5t56 -162.5zM244 86q38 0 60 19t22 48t-23 48.5t-59 19.5q-35 0 -57.5 -19.5t-22.5 -48.5t22 -48t58 -19z" />
    <glyph glyph-name="Cacute" unicode="&#x106;" horiz-adv-x="556" 
d="M369 218v40h137v-36q0 -105 -63.5 -168.5t-163.5 -63.5q-103 0 -166 62t-63 167v260q0 105 65 168t167 63q100 0 162 -61.5t62 -166.5v-29h-137v30q0 48 -24 75t-65 27t-64.5 -27t-23.5 -75v-265q0 -48 23.5 -75t64.5 -27q42 0 65.5 27t23.5 75zM229 752l56 168h137
l-93 -168h-100z" />
    <glyph glyph-name="cacute" unicode="&#x107;" horiz-adv-x="495" 
d="M325 207h130v-11q0 -94 -58.5 -150t-150.5 -56t-149 54t-57 148v129q0 94 58.5 150t150.5 56t149 -54t57 -148v-10h-130v7q0 41 -20 64t-55 23t-55.5 -23t-20.5 -64v-127q0 -41 20.5 -64t55.5 -23t55 23t20 64v12zM199 572l56 168h137l-93 -168h-100z" />
    <glyph glyph-name="Ccircumflex" unicode="&#x108;" horiz-adv-x="556" 
d="M369 218v40h137v-36q0 -105 -63.5 -168.5t-163.5 -63.5q-103 0 -166 62t-63 167v260q0 105 65 168t167 63q100 0 162 -61.5t62 -166.5v-29h-137v30q0 48 -24 75t-65 27t-64.5 -27t-23.5 -75v-265q0 -48 23.5 -75t64.5 -27q42 0 65.5 27t23.5 75zM109 752l118 168h107
l120 -168h-108l-68 84l-68 -84h-101z" />
    <glyph glyph-name="ccircumflex" unicode="&#x109;" horiz-adv-x="495" 
d="M325 207h130v-11q0 -94 -58.5 -150t-150.5 -56t-149 54t-57 148v129q0 94 58.5 150t150.5 56t149 -54t57 -148v-10h-130v7q0 41 -20 64t-55 23t-55.5 -23t-20.5 -64v-127q0 -41 20.5 -64t55.5 -23t55 23t20 64v12zM75 572l118 168h107l120 -168h-108l-68 84l-68 -84h-101
z" />
    <glyph glyph-name="Cdotaccent" unicode="&#x10a;" horiz-adv-x="556" 
d="M369 218v40h137v-36q0 -105 -63.5 -168.5t-163.5 -63.5q-103 0 -166 62t-63 167v260q0 105 65 168t167 63q100 0 162 -61.5t62 -166.5v-29h-137v30q0 48 -24 75t-65 27t-64.5 -27t-23.5 -75v-265q0 -48 23.5 -75t64.5 -27q42 0 65.5 27t23.5 75zM282 903q30 0 49.5 -20
t19.5 -50t-20 -50t-50 -20q-31 0 -50.5 19.5t-19.5 50.5q0 30 20 50t51 20z" />
    <glyph glyph-name="cdotaccent" unicode="&#x10b;" horiz-adv-x="495" 
d="M325 207h130v-11q0 -94 -58.5 -150t-150.5 -56t-149 54t-57 148v129q0 94 58.5 150t150.5 56t149 -54t57 -148v-10h-130v7q0 41 -20 64t-55 23t-55.5 -23t-20.5 -64v-127q0 -41 20.5 -64t55.5 -23t55 23t20 64v12zM247 723q30 0 49.5 -20t19.5 -50t-20 -50t-50 -20
q-31 0 -50.5 19.5t-19.5 50.5q0 30 20 50t51 20z" />
    <glyph glyph-name="Ccaron" unicode="&#x10c;" horiz-adv-x="556" 
d="M369 218v40h137v-36q0 -105 -63.5 -168.5t-163.5 -63.5q-103 0 -166 62t-63 167v260q0 105 65 168t167 63q100 0 162 -61.5t62 -166.5v-29h-137v30q0 48 -24 75t-65 27t-64.5 -27t-23.5 -75v-265q0 -48 23.5 -75t64.5 -27q42 0 65.5 27t23.5 75zM454 920l-118 -168h-107
l-120 168h108l68 -84l68 84h101z" />
    <glyph glyph-name="ccaron" unicode="&#x10d;" horiz-adv-x="495" 
d="M325 207h130v-11q0 -94 -58.5 -150t-150.5 -56t-149 54t-57 148v129q0 94 58.5 150t150.5 56t149 -54t57 -148v-10h-130v7q0 41 -20 64t-55 23t-55.5 -23t-20.5 -64v-127q0 -41 20.5 -64t55.5 -23t55 23t20 64v12zM420 740l-118 -168h-107l-120 168h108l68 -84l68 84h101
z" />
    <glyph glyph-name="Dcaron" unicode="&#x10e;" horiz-adv-x="570" 
d="M202 575v-450h73q50 0 77 30t27 88v215q0 57 -27 87t-77 30h-73zM60 700h221q111 0 175 -63t64 -177v-215q0 -115 -65.5 -180t-177.5 -65h-217v700zM457 920l-118 -168h-107l-120 168h108l68 -84l68 84h101z" />
    <glyph glyph-name="dcaron" unicode="&#x10f;" horiz-adv-x="681" 
d="M618 450h-98l23 250h138zM336 200v117q0 43 -22 67.5t-59 24.5t-59 -24.5t-22 -67.5v-117q0 -43 22 -67.5t59 -24.5t59 24.5t22 67.5zM470 700v-700h-118l-4 53q-45 -63 -130 -63q-86 0 -132 49.5t-46 141.5v151q0 93 48 144t133 51q73 0 115 -47v220h134z" />
    <glyph glyph-name="Dcroat" unicode="&#x110;" horiz-adv-x="607" 
d="M239 575v-182h101v-79h-101v-189h73q50 0 77 30t27 87v215q0 58 -27 88t-77 30h-73zM97 0v314h-77v79h77v307h221q111 0 175 -63t64 -178v-215q0 -115 -65.5 -179.5t-177.5 -64.5h-217z" />
    <glyph glyph-name="dcroat" unicode="&#x111;" horiz-adv-x="543" 
d="M336 200v117q0 43 -22 67.5t-59 24.5t-59 -24.5t-22 -67.5v-117q0 -43 22 -67.5t59 -24.5t59 24.5t22 67.5zM470 700v-49h63v-79h-63v-572h-117l-5 54q-44 -64 -130 -64t-132 49.5t-46 141.5v152q0 92 48 143t133 51q74 0 115 -47v92h-120v79h120v49h134z" />
    <glyph glyph-name="Emacron" unicode="&#x112;" horiz-adv-x="470" 
d="M445 0h-385v700h380v-125h-238v-156h198v-117h-198v-177h243v-125zM98 778v82h315v-82h-315z" />
    <glyph glyph-name="emacron" unicode="&#x113;" horiz-adv-x="506" 
d="M174 332v-10h162v10q0 43 -22 67.5t-59 24.5t-59 -24.5t-22 -67.5zM336 189l126 -28q-1 -7 -3 -18.5t-15 -41t-33.5 -52t-62 -41t-95.5 -18.5q-96 0 -154.5 55t-58.5 152v119q0 97 60 154t157 57q94 0 151.5 -55.5t57.5 -151.5v-81h-292v-39q0 -43 22 -67.5t59 -24.5
q33 0 53 20t24 40zM100 598v82h315v-82h-315z" />
    <glyph glyph-name="Ebreve" unicode="&#x114;" horiz-adv-x="470" 
d="M445 0h-385v700h380v-125h-238v-156h198v-117h-198v-177h243v-125zM109 920h88v-32q0 -26 15.5 -42.5t42.5 -16.5t42 16.5t15 42.5v32h89v-26q0 -63 -41 -102.5t-105 -39.5q-65 0 -105.5 39t-40.5 102v27z" />
    <glyph glyph-name="ebreve" unicode="&#x115;" horiz-adv-x="506" 
d="M174 332v-10h162v10q0 43 -22 67.5t-59 24.5t-59 -24.5t-22 -67.5zM336 189l126 -28q-1 -7 -3 -18.5t-15 -41t-33.5 -52t-62 -41t-95.5 -18.5q-96 0 -154.5 55t-58.5 152v119q0 97 60 154t157 57q94 0 151.5 -55.5t57.5 -151.5v-81h-292v-39q0 -43 22 -67.5t59 -24.5
q33 0 53 20t24 40zM111 740h88v-32q0 -26 15.5 -42.5t42.5 -16.5t42 16.5t15 42.5v32h89v-26q0 -63 -41 -102.5t-105 -39.5q-65 0 -105.5 39t-40.5 102v27z" />
    <glyph glyph-name="Edotaccent" unicode="&#x116;" horiz-adv-x="470" 
d="M445 0h-385v700h380v-125h-238v-156h198v-117h-198v-177h243v-125zM255 903q30 0 49.5 -20t19.5 -50t-20 -50t-50 -20q-31 0 -50.5 19.5t-19.5 50.5q0 30 20 50t51 20z" />
    <glyph glyph-name="edotaccent" unicode="&#x117;" horiz-adv-x="506" 
d="M174 332v-10h162v10q0 43 -22 67.5t-59 24.5t-59 -24.5t-22 -67.5zM336 189l126 -28q-1 -7 -3 -18.5t-15 -41t-33.5 -52t-62 -41t-95.5 -18.5q-96 0 -154.5 55t-58.5 152v119q0 97 60 154t157 57q94 0 151.5 -55.5t57.5 -151.5v-81h-292v-39q0 -43 22 -67.5t59 -24.5
q33 0 53 20t24 40zM257 723q30 0 49.5 -20t19.5 -50t-20 -50t-50 -20q-31 0 -50.5 19.5t-19.5 50.5q0 30 20 50t51 20z" />
    <glyph glyph-name="Eogonek" unicode="&#x118;" horiz-adv-x="470" 
d="M445 0h-83q-1 0 -6 -4.5t-10 -15.5t-5 -25q0 -24 17 -39t45 -15q11 0 21.5 2t15.5 4l4 2l11 -78q-22 -16 -65 -16q-58 0 -97.5 34t-39.5 89q0 35 17 62h-210v700h380v-125h-238v-156h198v-117h-198v-177h243v-125z" />
    <glyph glyph-name="eogonek" unicode="&#x119;" horiz-adv-x="506" 
d="M336 189l126 -28q0 -5 -1.5 -14t-10.5 -32.5t-22.5 -43.5t-41 -41t-63.5 -31q-20 -12 -20 -44q0 -24 17 -39t45 -15q11 0 21.5 2t15.5 4l4 2l11 -78q-22 -16 -65 -16q-58 0 -97.5 34t-39.5 89q0 28 12 54q-85 7 -136 61t-51 144v119q0 97 60 154t157 57q94 0 151.5 -55.5
t57.5 -151.5v-81h-292v-39q0 -43 22 -67.5t59 -24.5q33 0 53 20t24 40zM174 332v-10h162v10q0 43 -22 67.5t-59 24.5t-59 -24.5t-22 -67.5z" />
    <glyph glyph-name="Ecaron" unicode="&#x11a;" horiz-adv-x="470" 
d="M445 0h-385v700h380v-125h-238v-156h198v-117h-198v-177h243v-125zM427 920l-118 -168h-107l-120 168h108l68 -84l68 84h101z" />
    <glyph glyph-name="ecaron" unicode="&#x11b;" horiz-adv-x="506" 
d="M174 332v-10h162v10q0 43 -22 67.5t-59 24.5t-59 -24.5t-22 -67.5zM336 189l126 -28q-1 -7 -3 -18.5t-15 -41t-33.5 -52t-62 -41t-95.5 -18.5q-96 0 -154.5 55t-58.5 152v119q0 97 60 154t157 57q94 0 151.5 -55.5t57.5 -151.5v-81h-292v-39q0 -43 22 -67.5t59 -24.5
q33 0 53 20t24 40zM430 740l-118 -168h-107l-120 168h108l68 -84l68 84h101z" />
    <glyph glyph-name="Gcircumflex" unicode="&#x11c;" horiz-adv-x="570" 
d="M284 -10q-105 0 -169.5 63t-64.5 171v250q0 107 66.5 171.5t170.5 64.5q105 0 169 -62.5t64 -170.5v-15h-141v16q0 50 -25 78.5t-69 28.5q-43 0 -68 -28.5t-25 -78.5v-251q0 -56 25.5 -85.5t71.5 -29.5t72 30t26 85v50h-99v102h232v-152q0 -107 -66 -172t-170 -65z
M112 752l118 168h107l120 -168h-108l-68 84l-68 -84h-101z" />
    <glyph glyph-name="gcircumflex" unicode="&#x11d;" horiz-adv-x="520" 
d="M336 240v77q0 43 -22 67.5t-59 24.5t-59 -24.5t-22 -67.5v-77q0 -43 22 -67.5t59 -24.5t59 24.5t22 67.5zM47 -125l42 106q63 -33 135 -33q112 0 112 107v32q-44 -49 -118 -49q-86 0 -132 49t-46 141v104q0 93 48 144t133 51q84 0 127 -60l4 50h118v-449
q0 -115 -63 -176.5t-173 -61.5q-52 0 -98.5 11t-67.5 23zM95 572l118 168h107l120 -168h-108l-68 84l-68 -84h-101z" />
    <glyph glyph-name="Gbreve" unicode="&#x11e;" horiz-adv-x="570" 
d="M284 -10q-105 0 -169.5 63t-64.5 171v250q0 107 66.5 171.5t170.5 64.5q105 0 169 -62.5t64 -170.5v-15h-141v16q0 50 -25 78.5t-69 28.5q-43 0 -68 -28.5t-25 -78.5v-251q0 -56 25.5 -85.5t71.5 -29.5t72 30t26 85v50h-99v102h232v-152q0 -107 -66 -172t-170 -65z
M139 920h88v-32q0 -26 15.5 -42.5t42.5 -16.5t42 16.5t15 42.5v32h89v-26q0 -63 -41 -102.5t-105 -39.5q-65 0 -105.5 39t-40.5 102v27z" />
    <glyph glyph-name="gbreve" unicode="&#x11f;" horiz-adv-x="520" 
d="M336 240v77q0 43 -22 67.5t-59 24.5t-59 -24.5t-22 -67.5v-77q0 -43 22 -67.5t59 -24.5t59 24.5t22 67.5zM47 -125l42 106q63 -33 135 -33q112 0 112 107v32q-44 -49 -118 -49q-86 0 -132 49t-46 141v104q0 93 48 144t133 51q84 0 127 -60l4 50h118v-449
q0 -115 -63 -176.5t-173 -61.5q-52 0 -98.5 11t-67.5 23zM121 740h88v-32q0 -26 15.5 -42.5t42.5 -16.5t42 16.5t15 42.5v32h89v-26q0 -63 -41 -102.5t-105 -39.5q-65 0 -105.5 39t-40.5 102v27z" />
    <glyph glyph-name="Gdotaccent" unicode="&#x120;" horiz-adv-x="570" 
d="M284 -10q-105 0 -169.5 63t-64.5 171v250q0 107 66.5 171.5t170.5 64.5q105 0 169 -62.5t64 -170.5v-15h-141v16q0 50 -25 78.5t-69 28.5q-43 0 -68 -28.5t-25 -78.5v-251q0 -56 25.5 -85.5t71.5 -29.5t72 30t26 85v50h-99v102h232v-152q0 -107 -66 -172t-170 -65z
M285 903q30 0 49.5 -20t19.5 -50t-20 -50t-50 -20q-31 0 -50.5 19.5t-19.5 50.5q0 30 20 50t51 20z" />
    <glyph glyph-name="gdotaccent" unicode="&#x121;" horiz-adv-x="520" 
d="M336 240v77q0 43 -22 67.5t-59 24.5t-59 -24.5t-22 -67.5v-77q0 -43 22 -67.5t59 -24.5t59 24.5t22 67.5zM47 -125l42 106q63 -33 135 -33q112 0 112 107v32q-44 -49 -118 -49q-86 0 -132 49t-46 141v104q0 93 48 144t133 51q84 0 127 -60l4 50h118v-449
q0 -115 -63 -176.5t-173 -61.5q-52 0 -98.5 11t-67.5 23zM267 723q30 0 49.5 -20t19.5 -50t-20 -50t-50 -20q-31 0 -50.5 19.5t-19.5 50.5q0 30 20 50t51 20z" />
    <glyph glyph-name="Gcommaaccent" unicode="&#x122;" horiz-adv-x="570" 
d="M284 -10q-105 0 -169.5 63t-64.5 171v250q0 107 66.5 171.5t170.5 64.5q105 0 169 -62.5t64 -170.5v-15h-141v16q0 50 -25 78.5t-69 28.5q-43 0 -68 -28.5t-25 -78.5v-251q0 -56 25.5 -85.5t71.5 -29.5t72 30t26 85v50h-99v102h232v-152q0 -107 -66 -172t-170 -65z
M167 -218l56 168h137l-93 -168h-100z" />
    <glyph glyph-name="gcommaaccent" unicode="&#x123;" horiz-adv-x="520" 
d="M336 240v77q0 43 -22 67.5t-59 24.5t-59 -24.5t-22 -67.5v-77q0 -43 22 -67.5t59 -24.5t59 24.5t22 67.5zM47 -125l42 106q63 -33 135 -33q112 0 112 107v32q-44 -49 -118 -49q-86 0 -132 49t-46 141v104q0 93 48 144t133 51q84 0 127 -60l4 50h118v-449
q0 -115 -63 -176.5t-173 -61.5q-52 0 -98.5 11t-67.5 23zM391 740l-56 -168h-137l93 168h100z" />
    <glyph glyph-name="Hcircumflex" unicode="&#x124;" horiz-adv-x="580" 
d="M379 0v299h-177v-299h-142v700h142v-272h177v272h141v-700h-141zM117 752l118 168h107l120 -168h-108l-68 84l-68 -84h-101z" />
    <glyph glyph-name="hcircumflex" unicode="&#x125;" 
d="M50 0v700h134v-236q44 63 125 63q74 0 117.5 -48.5t43.5 -135.5v-343h-134v312q0 97 -73 97q-79 0 -79 -92v-317h-134zM85 752l118 168h107l120 -168h-108l-68 84l-68 -84h-101z" />
    <glyph glyph-name="Hbar" unicode="&#x126;" horiz-adv-x="650" 
d="M236 522v-94h178v94h-178zM95 0v522h-75v79h75v99h141v-99h178v99h141v-99h75v-79h-75v-522h-141v299h-178v-299h-141z" />
    <glyph glyph-name="hbar" unicode="&#x127;" horiz-adv-x="537" 
d="M72 0v571h-62v80h62v49h134v-49h120v-80h-120v-108q43 63 125 63q74 0 117.5 -48t43.5 -135v-343h-134v312q0 96 -73 96q-79 0 -79 -89v-319h-134z" />
    <glyph glyph-name="Itilde" unicode="&#x128;" horiz-adv-x="276" 
d="M65 0v700h146v-700h-146zM50 767l-72 4q0 5 0.5 14t6 31t15 39t30 31t48.5 14t49.5 -15t37 -30t31.5 -15q12 0 19.5 12.5t8.5 25.5l2 12l72 -4q0 -5 -0.5 -14t-6 -31t-15 -39t-30 -31t-48.5 -14t-49 14.5t-37 29.5t-32 15q-12 0 -19.5 -12t-8.5 -24z" />
    <glyph glyph-name="itilde" unicode="&#x129;" horiz-adv-x="247" 
d="M55 0v517h137v-517h-137zM36 587l-72 4q0 5 0.5 14t6 31t15 39t30 31t48.5 14t49.5 -15t37 -30t31.5 -15q12 0 19.5 12.5t8.5 25.5l2 12l72 -4q0 -5 -0.5 -14t-6 -31t-15 -39t-30 -31t-48.5 -14t-49 14.5t-37 29.5t-32 15q-12 0 -19.5 -12t-8.5 -24z" />
    <glyph glyph-name="Imacron" unicode="&#x12a;" horiz-adv-x="276" 
d="M65 0v700h146v-700h-146zM-20 778v82h315v-82h-315z" />
    <glyph glyph-name="imacron" unicode="&#x12b;" horiz-adv-x="247" 
d="M55 0v517h137v-517h-137zM-34 598v82h315v-82h-315z" />
    <glyph glyph-name="Ibreve" unicode="&#x12c;" horiz-adv-x="276" 
d="M65 0v700h146v-700h-146zM-8 920h88v-32q0 -26 15.5 -42.5t42.5 -16.5t42 16.5t15 42.5v32h89v-26q0 -63 -41 -102.5t-105 -39.5q-65 0 -105.5 39t-40.5 102v27z" />
    <glyph glyph-name="ibreve" unicode="&#x12d;" horiz-adv-x="247" 
d="M55 0v517h137v-517h-137zM-22 740h88v-32q0 -26 15.5 -42.5t42.5 -16.5t42 16.5t15 42.5v32h89v-26q0 -63 -41 -102.5t-105 -39.5q-65 0 -105.5 39t-40.5 102v27z" />
    <glyph glyph-name="Iogonek" unicode="&#x12e;" horiz-adv-x="276" 
d="M211 0h-63q-1 0 -6 -4.5t-10 -15.5t-5 -25q0 -24 17 -39t45 -15q11 0 21.5 2t15.5 4l4 2l11 -78q-22 -16 -65 -16q-58 0 -97.5 34t-39.5 89q0 44 26 73v689h146v-700z" />
    <glyph glyph-name="iogonek" unicode="&#x12f;" horiz-adv-x="247" 
d="M192 0h-62q-22 -13 -22 -45q0 -24 17 -39t45 -15q11 0 21.5 2t14.5 4l5 2l11 -78q-22 -16 -65 -16q-58 0 -97.5 34t-39.5 89q0 48 35 83v496h137v-517zM124 740q36 0 59.5 -23.5t23.5 -59.5q0 -35 -23.5 -58.5t-59.5 -23.5q-37 0 -60.5 23.5t-23.5 58.5q0 36 23.5 59.5
t60.5 23.5z" />
    <glyph glyph-name="Idotaccent" unicode="&#x130;" horiz-adv-x="276" 
d="M65 0v700h146v-700h-146zM138 903q30 0 49.5 -20t19.5 -50t-20 -50t-50 -20q-31 0 -50.5 19.5t-19.5 50.5q0 30 20 50t51 20z" />
    <glyph glyph-name="dotlessi" unicode="&#x131;" horiz-adv-x="247" 
d="M55 0v517h137v-517h-137z" />
    <glyph glyph-name="IJ" unicode="&#x132;" horiz-adv-x="646" 
d="M65 0v700h146v-700h-146zM446 700h145v-488q0 -104 -60 -163t-161 -59q-28 0 -49 3t-28 7l-7 3l25 124q21 -7 53 -7q38 0 60 25t22 70v485z" />
    <glyph glyph-name="ij" unicode="&#x133;" horiz-adv-x="494" 
d="M55 0v517h137v-517h-137zM124 740q36 0 59.5 -23.5t23.5 -59.5q0 -35 -23.5 -58.5t-59.5 -23.5q-37 0 -60.5 23.5t-23.5 58.5q0 36 23.5 59.5t60.5 23.5zM302 517h137v-502q0 -92 -45 -138.5t-127 -46.5q-17 0 -32 2t-21 4l-7 1l13 111q18 -4 35 -4q47 0 47 55v518z
M371 740q36 0 59.5 -23.5t23.5 -59.5q0 -35 -23.5 -58.5t-59.5 -23.5q-37 0 -60.5 23.5t-23.5 58.5q0 36 23.5 59.5t60.5 23.5z" />
    <glyph glyph-name="Jcircumflex" unicode="&#x134;" horiz-adv-x="370" 
d="M170 700h145v-488q0 -104 -60 -163t-161 -59q-28 0 -49 3t-28 7l-7 3l25 124q21 -7 53 -7q38 0 60 25t22 70v485zM69 752l118 168h107l120 -168h-108l-68 84l-68 -84h-101z" />
    <glyph glyph-name="jcircumflex" unicode="&#x135;" horiz-adv-x="247" 
d="M55 517h137v-502q0 -92 -45 -138.5t-127 -46.5q-17 0 -32 2t-22 4l-6 1l13 111q18 -4 35 -4q47 0 47 55v518zM-49 572l118 168h107l120 -168h-108l-68 84l-68 -84h-101z" />
    <glyph glyph-name="Kcommaaccent" unicode="&#x136;" horiz-adv-x="560" 
d="M60 0v700h142v-320l168 320h159l-197 -332l207 -368h-159l-178 341v-341h-142zM167 -218l56 168h137l-93 -168h-100z" />
    <glyph glyph-name="kcommaaccent" unicode="&#x137;" horiz-adv-x="492" 
d="M50 0v700h134v-410l147 227h156l-172 -234l182 -283h-160l-153 258v-258h-134zM137 -218l56 168h137l-93 -168h-100z" />
    <glyph glyph-name="Lacute" unicode="&#x139;" horiz-adv-x="440" 
d="M60 0v700h142v-571h223v-129h-365zM87 752l56 168h137l-93 -168h-100z" />
    <glyph glyph-name="lacute" unicode="&#x13a;" horiz-adv-x="247" 
d="M55 0v700h137v-700h-137zM74 752l56 168h137l-93 -168h-100z" />
    <glyph glyph-name="Lcommaaccent" unicode="&#x13b;" horiz-adv-x="440" 
d="M60 0v700h142v-571h223v-129h-365zM117 -218l56 168h137l-93 -168h-100z" />
    <glyph glyph-name="lcommaaccent" unicode="&#x13c;" horiz-adv-x="257" 
d="M55 0v700h137v-700h-137zM-3 -218l56 168h137l-93 -168h-100z" />
    <glyph glyph-name="Lcaron" unicode="&#x13d;" horiz-adv-x="455" 
d="M376 450h-98l23 250h139zM60 0v700h141v-571h224v-129h-365z" />
    <glyph glyph-name="lcaron" unicode="&#x13e;" horiz-adv-x="403" 
d="M339 450h-97l22 250h139zM55 0v700h137v-700h-137z" />
    <glyph glyph-name="Ldot" unicode="&#x13f;" horiz-adv-x="480" 
d="M60 0v700h142v-571h223v-129h-365zM347 475q36 0 59.5 -24t23.5 -60t-23.5 -60t-59.5 -24q-37 0 -60.5 24t-23.5 60t23.5 60t60.5 24z" />
    <glyph glyph-name="ldot" unicode="&#x140;" horiz-adv-x="431" 
d="M55 0v700h137v-700h-137zM333 434q36 0 59.5 -24t23.5 -60t-23.5 -60t-59.5 -24q-37 0 -60.5 24t-23.5 60t23.5 60t60.5 24z" />
    <glyph glyph-name="Lslash" unicode="&#x141;" horiz-adv-x="475" 
d="M460 0h-365v313l-75 -13v80l75 13v307h141v-284l159 28v-80l-159 -28v-207h224v-129z" />
    <glyph glyph-name="lslash" unicode="&#x142;" horiz-adv-x="317" 
d="M85 0v315l-65 -13v80l65 13v305h137v-277l75 14v-80l-75 -14v-343h-137z" />
    <glyph glyph-name="Nacute" unicode="&#x143;" horiz-adv-x="590" 
d="M401 0l-211 445v-445h-130v700h138l203 -427v427h129v-700h-129zM257 752l56 168h137l-93 -168h-100z" />
    <glyph glyph-name="nacute" unicode="&#x144;" 
d="M50 0v517h117l6 -60q45 70 136 70q74 0 117.5 -48.5t43.5 -135.5v-343h-134v312q0 97 -73 97q-37 0 -58 -23.5t-21 -71.5v-314h-134zM199 572l56 168h137l-93 -168h-100z" />
    <glyph glyph-name="Ncommaaccent" unicode="&#x145;" horiz-adv-x="590" 
d="M401 0l-211 445v-445h-130v700h138l203 -427v427h129v-700h-129zM172 -218l56 168h137l-93 -168h-100z" />
    <glyph glyph-name="ncommaaccent" unicode="&#x146;" 
d="M50 0v517h117l6 -60q45 70 136 70q74 0 117.5 -48.5t43.5 -135.5v-343h-134v312q0 97 -73 97q-37 0 -58 -23.5t-21 -71.5v-314h-134zM137 -218l56 168h137l-93 -168h-100z" />
    <glyph glyph-name="Ncaron" unicode="&#x147;" horiz-adv-x="590" 
d="M401 0l-211 445v-445h-130v700h138l203 -427v427h129v-700h-129zM472 920l-118 -168h-107l-120 168h108l68 -84l68 84h101z" />
    <glyph glyph-name="ncaron" unicode="&#x148;" 
d="M50 0v517h117l6 -60q45 70 136 70q74 0 117.5 -48.5t43.5 -135.5v-343h-134v312q0 97 -73 97q-37 0 -58 -23.5t-21 -71.5v-314h-134zM430 740l-118 -168h-107l-120 168h108l68 -84l68 84h101z" />
    <glyph glyph-name="Eng" unicode="&#x14a;" horiz-adv-x="590" 
d="M285 -159l20 101q18 -5 36 -5q56 0 59 63l-210 445v-445h-130v700h138l202 -427v427h130v-660q0 -210 -168 -210q-21 0 -40 3t-28 5z" />
    <glyph glyph-name="eng" unicode="&#x14b;" 
d="M184 313v-313h-134v517h118l5 -59q46 69 136 69q74 0 117.5 -48.5t43.5 -135.5v-328q0 -185 -164 -185q-16 0 -29.5 1.5t-18.5 2.5l-5 2l9 111q13 -3 27 -3q45 0 48 50v319q0 96 -74 96q-79 0 -79 -96z" />
    <glyph glyph-name="Omacron" unicode="&#x14c;" horiz-adv-x="570" 
d="M192 478v-255q0 -51 25 -79t68 -28q44 0 69 28t25 79v255q0 50 -25 78.5t-69 28.5q-43 0 -68 -28.5t-25 -78.5zM50 224v250q0 107 66.5 171.5t170.5 64.5q105 0 169 -62.5t64 -170.5v-250q0 -107 -66 -172t-170 -65q-105 0 -169.5 63t-64.5 171zM128 778v82h315v-82h-315
z" />
    <glyph glyph-name="omacron" unicode="&#x14d;" horiz-adv-x="510" 
d="M174 317v-117q0 -43 22 -67.5t59 -24.5t59 24.5t22 67.5v117q0 43 -22 67.5t-59 24.5t-59 -24.5t-22 -67.5zM40 197v119q0 97 60 154t157 57q96 0 154.5 -55.5t58.5 -151.5v-119q0 -97 -60.5 -154t-156.5 -57t-154.5 55t-58.5 152zM98 598v82h315v-82h-315z" />
    <glyph glyph-name="Obreve" unicode="&#x14e;" horiz-adv-x="570" 
d="M192 478v-255q0 -51 25 -79t68 -28q44 0 69 28t25 79v255q0 50 -25 78.5t-69 28.5q-43 0 -68 -28.5t-25 -78.5zM50 224v250q0 107 66.5 171.5t170.5 64.5q105 0 169 -62.5t64 -170.5v-250q0 -107 -66 -172t-170 -65q-105 0 -169.5 63t-64.5 171zM139 920h88v-32
q0 -26 15.5 -42.5t42.5 -16.5t42 16.5t15 42.5v32h89v-26q0 -63 -41 -102.5t-105 -39.5q-65 0 -105.5 39t-40.5 102v27z" />
    <glyph glyph-name="obreve" unicode="&#x14f;" horiz-adv-x="510" 
d="M174 317v-117q0 -43 22 -67.5t59 -24.5t59 24.5t22 67.5v117q0 43 -22 67.5t-59 24.5t-59 -24.5t-22 -67.5zM40 197v119q0 97 60 154t157 57q96 0 154.5 -55.5t58.5 -151.5v-119q0 -97 -60.5 -154t-156.5 -57t-154.5 55t-58.5 152zM109 740h88v-32q0 -26 15.5 -42.5
t42.5 -16.5t42 16.5t15 42.5v32h89v-26q0 -63 -41 -102.5t-105 -39.5q-65 0 -105.5 39t-40.5 102v27z" />
    <glyph glyph-name="Ohungarumlaut" unicode="&#x150;" horiz-adv-x="570" 
d="M192 478v-255q0 -51 25 -79t68 -28q44 0 69 28t25 79v255q0 50 -25 78.5t-69 28.5q-43 0 -68 -28.5t-25 -78.5zM50 224v250q0 107 66.5 171.5t170.5 64.5q105 0 169 -62.5t64 -170.5v-250q0 -107 -66 -172t-170 -65q-105 0 -169.5 63t-64.5 171zM332 752l44 168h132
l-80 -168h-96zM142 752l44 168h133l-80 -168h-97z" />
    <glyph glyph-name="ohungarumlaut" unicode="&#x151;" horiz-adv-x="510" 
d="M174 317v-117q0 -43 22 -67.5t59 -24.5t59 24.5t22 67.5v117q0 43 -22 67.5t-59 24.5t-59 -24.5t-22 -67.5zM40 197v119q0 97 60 154t157 57q96 0 154.5 -55.5t58.5 -151.5v-119q0 -97 -60.5 -154t-156.5 -57t-154.5 55t-58.5 152zM302 572l44 168h132l-80 -168h-96z
M112 572l44 168h133l-80 -168h-97z" />
    <glyph glyph-name="OE" unicode="&#x152;" horiz-adv-x="769" 
d="M359 125v450h-64q-50 0 -77 -30t-27 -88v-215q0 -57 27 -87t77 -30h64zM744 0h-455q-111 0 -175 63t-64 178v215q0 114 66 179t177 65h446v-125h-239v-157h199v-117h-199v-176h244v-125z" />
    <glyph glyph-name="oe" unicode="&#x153;" horiz-adv-x="802" 
d="M632 189l126 -28q-1 -7 -3 -18.5t-15 -41t-33.5 -52t-62 -41t-95.5 -18.5q-95 0 -148 56q-54 -56 -148 -56q-96 0 -154.5 55t-58.5 152v119q0 97 60 154t157 57q95 0 148 -56q53 56 148 56q94 0 151.5 -55.5t57.5 -151.5v-81h-292v-39q0 -43 22 -67.5t59 -24.5
q33 0 53 20t24 40zM174 317v-117q0 -43 22 -67.5t59 -24.5t59 24.5t22 67.5v117q0 43 -22 67.5t-59 24.5t-59 -24.5t-22 -67.5zM470 332v-10h162v10q0 43 -22 67.5t-59 24.5t-59 -24.5t-22 -67.5z" />
    <glyph glyph-name="Racute" unicode="&#x154;" horiz-adv-x="550" 
d="M201 579v-216h64q48 0 78 31t30 77q0 47 -29 77.5t-78 30.5h-65zM530 0h-159l-94 255q-4 -1 -24 -1h-52v-254h-141v700h221q104 0 169 -62.5t65 -159.5q0 -60 -29 -109t-79 -76zM227 752l56 168h137l-93 -168h-100z" />
    <glyph glyph-name="racute" unicode="&#x155;" horiz-adv-x="346" 
d="M50 0v517h117l7 -80q47 90 162 90v-137h-55q-45 0 -71 -28t-26 -84v-278h-134zM150 572l56 168h137l-93 -168h-100z" />
    <glyph glyph-name="Rcommaaccent" unicode="&#x156;" horiz-adv-x="550" 
d="M201 579v-216h64q48 0 78 31t30 77q0 47 -29 77.5t-78 30.5h-65zM530 0h-159l-94 255q-4 -1 -24 -1h-52v-254h-141v700h221q104 0 169 -62.5t65 -159.5q0 -60 -29 -109t-79 -76zM162 -218l56 168h137l-93 -168h-100z" />
    <glyph glyph-name="rcommaaccent" unicode="&#x157;" horiz-adv-x="346" 
d="M50 0v517h117l7 -80q47 90 162 90v-137h-55q-45 0 -71 -28t-26 -84v-278h-134zM-8 -218l56 168h137l-93 -168h-100z" />
    <glyph glyph-name="Rcaron" unicode="&#x158;" horiz-adv-x="550" 
d="M201 579v-216h64q48 0 78 31t30 77q0 47 -29 77.5t-78 30.5h-65zM530 0h-159l-94 255q-4 -1 -24 -1h-52v-254h-141v700h221q104 0 169 -62.5t65 -159.5q0 -60 -29 -109t-79 -76zM447 920l-118 -168h-107l-120 168h108l68 -84l68 84h101z" />
    <glyph glyph-name="rcaron" unicode="&#x159;" horiz-adv-x="346" 
d="M50 0v517h117l7 -80q47 90 162 90v-137h-55q-45 0 -71 -28t-26 -84v-278h-134zM370 740l-118 -168h-107l-120 168h108l68 -84l68 84h101z" />
    <glyph glyph-name="Sacute" unicode="&#x15a;" horiz-adv-x="492" 
d="M200 310q-152 93 -152 214q0 82 59.5 134t146.5 52q49 0 89 -15.5t62 -38t37 -45t20 -37.5l5 -16l-115 -46q-1 3 -3 8.5t-10 19.5t-18 24.5t-27 19t-37 8.5q-29 0 -48.5 -17t-19.5 -44q0 -34 25 -60t82 -60q76 -46 119.5 -99t43.5 -123q0 -92 -61 -145.5t-155 -53.5
q-51 0 -93 18t-66 43.5t-40.5 51t-22.5 43.5l-6 18l115 46q1 -4 4 -11t13.5 -24.5t22.5 -31t31.5 -24.5t40.5 -11q34 0 55 20t21 52q0 37 -27 64t-91 66zM213 752l56 168h137l-93 -168h-100z" />
    <glyph glyph-name="sacute" unicode="&#x15b;" horiz-adv-x="417" 
d="M249 314q71 -29 107 -69t36 -98q0 -72 -51.5 -114.5t-133.5 -42.5q-35 0 -68 8t-55.5 20t-39.5 24t-26 20l-8 8l69 86q8 -7 20.5 -16.5t45.5 -26t59 -16.5t40.5 12t14.5 31q0 20 -20 37.5t-71 38.5q-131 54 -131 163q0 65 49.5 106.5t125.5 41.5q52 0 96.5 -17t62.5 -34
l18 -17l-70 -87q-5 5 -14 13t-35.5 21.5t-50.5 13.5q-22 0 -35 -11t-13 -26q0 -37 78 -69zM169 572l56 168h137l-93 -168h-100z" />
    <glyph glyph-name="Scircumflex" unicode="&#x15c;" horiz-adv-x="492" 
d="M200 310q-152 93 -152 214q0 82 59.5 134t146.5 52q49 0 89 -15.5t62 -38t37 -45t20 -37.5l5 -16l-115 -46q-1 3 -3 8.5t-10 19.5t-18 24.5t-27 19t-37 8.5q-29 0 -48.5 -17t-19.5 -44q0 -34 25 -60t82 -60q76 -46 119.5 -99t43.5 -123q0 -92 -61 -145.5t-155 -53.5
q-51 0 -93 18t-66 43.5t-40.5 51t-22.5 43.5l-6 18l115 46q1 -4 4 -11t13.5 -24.5t22.5 -31t31.5 -24.5t40.5 -11q34 0 55 20t21 52q0 37 -27 64t-91 66zM83 752l118 168h107l120 -168h-108l-68 84l-68 -84h-101z" />
    <glyph glyph-name="scircumflex" unicode="&#x15d;" horiz-adv-x="417" 
d="M249 314q71 -29 107 -69t36 -98q0 -72 -51.5 -114.5t-133.5 -42.5q-35 0 -68 8t-55.5 20t-39.5 24t-26 20l-8 8l69 86q8 -7 20.5 -16.5t45.5 -26t59 -16.5t40.5 12t14.5 31q0 20 -20 37.5t-71 38.5q-131 54 -131 163q0 65 49.5 106.5t125.5 41.5q52 0 96.5 -17t62.5 -34
l18 -17l-70 -87q-5 5 -14 13t-35.5 21.5t-50.5 13.5q-22 0 -35 -11t-13 -26q0 -37 78 -69zM40 572l118 168h107l120 -168h-108l-68 84l-68 -84h-101z" />
    <glyph glyph-name="Scedilla" unicode="&#x15e;" horiz-adv-x="492" 
d="M200 310q-152 93 -152 214q0 82 59.5 134t146.5 52q49 0 89 -15.5t62 -38t37 -45t20 -37.5l5 -16l-115 -46q-1 3 -3 8.5t-10 19.5t-18 24.5t-27 19t-37 8.5q-29 0 -48.5 -17t-19.5 -44q0 -34 25 -60t82 -60q76 -46 119.5 -99t43.5 -123q0 -78 -45 -129t-119 -65
q17 -27 17 -61q0 -59 -42.5 -94t-104.5 -35q-20 0 -39 4t-28 8l-9 4l15 80q16 -10 48 -10q29 0 46 15t17 42q0 26 -21 47q-39 8 -72 28t-52 43.5t-32 45.5t-18 37l-5 15l115 46q1 -4 4 -11t13.5 -24.5t22.5 -31t31.5 -24.5t40.5 -11q34 0 55 20t21 52q0 37 -27 64t-91 66z
" />
    <glyph glyph-name="scedilla" unicode="&#x15f;" horiz-adv-x="417" 
d="M249 314q71 -29 107 -69t36 -98q0 -60 -36.5 -100t-97.5 -52q17 -27 17 -61q0 -59 -42.5 -94t-104.5 -35q-20 0 -39 4t-28 8l-9 4l15 80q16 -10 48 -10q29 0 46 15t17 42q0 28 -21 47q-41 7 -78 26t-53 34l-16 15l69 86q8 -7 20.5 -16.5t45.5 -26t59 -16.5t40.5 12
t14.5 31q0 20 -20 37.5t-71 38.5q-131 54 -131 163q0 65 49.5 106.5t125.5 41.5q52 0 96.5 -17t62.5 -34l18 -17l-70 -87q-5 5 -14 13t-35.5 21.5t-50.5 13.5q-22 0 -35 -11t-13 -26q0 -37 78 -69z" />
    <glyph glyph-name="Scaron" unicode="&#x160;" horiz-adv-x="486" 
d="M200 310q-152 93 -152 214q0 82 59.5 134t146.5 52q49 0 89 -15.5t62 -38t37 -45t20 -37.5l5 -16l-115 -46q-1 3 -3 8.5t-10 19.5t-18 24.5t-27 19t-37 8.5q-29 0 -48.5 -17t-19.5 -44q0 -34 25 -60t82 -60q76 -46 119.5 -99t43.5 -123q0 -92 -61 -145.5t-155 -53.5
q-51 0 -93 18t-66 43.5t-40.5 51t-22.5 43.5l-6 18l115 46q1 -4 4 -11t13.5 -24.5t22.5 -31t31.5 -24.5t40.5 -11q34 0 55 20t21 52q0 37 -27 64t-91 66zM432 920l-118 -168h-107l-120 168h108l68 -84l68 84h101z" />
    <glyph glyph-name="scaron" unicode="&#x161;" horiz-adv-x="417" 
d="M249 314q71 -29 107 -69t36 -98q0 -72 -51.5 -114.5t-133.5 -42.5q-35 0 -68 8t-55.5 20t-39.5 24t-26 20l-8 8l69 86q8 -7 20.5 -16.5t45.5 -26t59 -16.5t40.5 12t14.5 31q0 20 -20 37.5t-71 38.5q-131 54 -131 163q0 65 49.5 106.5t125.5 41.5q52 0 96.5 -17t62.5 -34
l18 -17l-70 -87q-5 5 -14 13t-35.5 21.5t-50.5 13.5q-22 0 -35 -11t-13 -26q0 -37 78 -69zM392 740l-118 -168h-107l-120 168h108l68 -84l68 84h101z" />
    <glyph glyph-name="Tcommaaccent" unicode="&#x162;" horiz-adv-x="465" 
d="M450 572h-146v-572h-142v572h-147v128h435v-128zM107 -218l56 168h137l-93 -168h-100z" />
    <glyph glyph-name="tcommaaccent" unicode="&#x163;" horiz-adv-x="370" 
d="M219 640v-123h126v-103h-126v-249q0 -31 13.5 -44t42.5 -13q13 0 27 2t22 4l7 1l14 -110q-38 -15 -114 -15q-69 0 -107.5 37.5t-38.5 107.5v279h-75v103h75v123h134zM102 -218l56 168h137l-93 -168h-100z" />
    <glyph glyph-name="Tcaron" unicode="&#x164;" horiz-adv-x="465" 
d="M450 572h-146v-572h-142v572h-147v128h435v-128zM405 920l-118 -168h-107l-120 168h108l68 -84l68 84h101z" />
    <glyph glyph-name="tcaron" unicode="&#x165;" horiz-adv-x="407" 
d="M363 570h-97l22 220h139zM218 640v-123h127v-103h-127v-249q0 -57 57 -57q12 0 26 2t22 4l8 1l14 -110q-39 -15 -114 -15q-69 0 -107.5 37.5t-38.5 107.5v279h-75v103h75v123h133z" />
    <glyph glyph-name="Tbar" unicode="&#x166;" horiz-adv-x="465" 
d="M450 572h-146v-186h123v-80h-123v-306h-142v306h-125v80h125v186h-147v128h435v-128z" />
    <glyph glyph-name="tbar" unicode="&#x167;" horiz-adv-x="370" 
d="M219 640v-123h126v-99h-126v-112h126v-76h-126v-68q0 -31 13.5 -44t42.5 -13l56 6l14 -106q-38 -15 -114 -15q-69 0 -107.5 37.5t-38.5 107.5v95h-75v76h75v112h-75v99h75v123h134z" />
    <glyph glyph-name="Utilde" unicode="&#x168;" horiz-adv-x="570" 
d="M375 218v482h140v-478q0 -105 -64.5 -168.5t-166.5 -63.5q-103 0 -166 62t-63 167v481h143v-482q0 -48 23.5 -75t64.5 -27q42 0 65.5 27t23.5 75zM197 767l-72 4q0 5 0.5 14t6 31t15 39t30 31t48.5 14q22 0 40.5 -9.5t28.5 -20.5t23 -20.5t26 -9.5q12 0 19.5 12.5
t9.5 25.5l1 12l72 -4q0 -5 -0.5 -14t-6 -31t-15 -39t-30 -31t-48.5 -14t-49 14.5t-37 29.5t-32 15q-12 0 -19.5 -12t-9.5 -24z" />
    <glyph glyph-name="utilde" unicode="&#x169;" 
d="M465 517v-517h-117l-6 60q-45 -70 -136 -70q-74 0 -117.5 48.5t-43.5 135.5v343h134v-312q0 -97 73 -97q37 0 58 23.5t21 71.5v314h134zM169 587l-72 4q0 5 0.5 14t6 31t15 39t30 31t48.5 14q22 0 40.5 -9.5t28.5 -20.5t23 -20.5t26 -9.5q12 0 19.5 12.5t9.5 25.5l1 12
l72 -4q0 -5 -0.5 -14t-6 -31t-15 -39t-30 -31t-48.5 -14t-49 14.5t-37 29.5t-32 15q-12 0 -19.5 -12t-9.5 -24z" />
    <glyph glyph-name="Umacron" unicode="&#x16a;" horiz-adv-x="570" 
d="M375 218v482h140v-478q0 -105 -64.5 -168.5t-166.5 -63.5q-103 0 -166 62t-63 167v481h143v-482q0 -48 23.5 -75t64.5 -27q42 0 65.5 27t23.5 75zM129 778v82h315v-82h-315z" />
    <glyph glyph-name="umacron" unicode="&#x16b;" 
d="M465 517v-517h-117l-6 60q-45 -70 -136 -70q-74 0 -117.5 48.5t-43.5 135.5v343h134v-312q0 -97 73 -97q37 0 58 23.5t21 71.5v314h134zM100 598v82h315v-82h-315z" />
    <glyph glyph-name="Ubreve" unicode="&#x16c;" horiz-adv-x="570" 
d="M375 218v482h140v-478q0 -105 -64.5 -168.5t-166.5 -63.5q-103 0 -166 62t-63 167v481h143v-482q0 -48 23.5 -75t64.5 -27q42 0 65.5 27t23.5 75zM140 920h88v-32q0 -26 15.5 -42.5t42.5 -16.5t42 16.5t15 42.5v32h89v-26q0 -63 -41 -102.5t-105 -39.5q-65 0 -105.5 39
t-40.5 102v27z" />
    <glyph glyph-name="ubreve" unicode="&#x16d;" 
d="M465 517v-517h-117l-6 60q-45 -70 -136 -70q-74 0 -117.5 48.5t-43.5 135.5v343h134v-312q0 -97 73 -97q37 0 58 23.5t21 71.5v314h134zM111 740h88v-32q0 -26 15.5 -42.5t42.5 -16.5t42 16.5t15 42.5v32h89v-26q0 -63 -41 -102.5t-105 -39.5q-65 0 -105.5 39t-40.5 102
v27z" />
    <glyph glyph-name="Uring" unicode="&#x16e;" horiz-adv-x="570" 
d="M375 218v482h140v-478q0 -105 -64.5 -168.5t-166.5 -63.5q-103 0 -166 62t-63 167v481h143v-482q0 -48 23.5 -75t64.5 -27q42 0 65.5 27t23.5 75zM286 949q44 0 72.5 -27t28.5 -69t-28.5 -69t-72.5 -27t-72.5 27t-28.5 69t28.5 69t72.5 27zM286 809q19 0 31.5 13t12.5 31
t-12.5 30.5t-31.5 12.5t-31.5 -12.5t-12.5 -30.5t12.5 -31t31.5 -13z" />
    <glyph glyph-name="uring" unicode="&#x16f;" 
d="M465 517v-517h-117l-6 60q-45 -70 -136 -70q-74 0 -117.5 48.5t-43.5 135.5v343h134v-312q0 -97 73 -97q37 0 58 23.5t21 71.5v314h134zM257 769q44 0 72.5 -27t28.5 -69t-28.5 -69t-72.5 -27t-72.5 27t-28.5 69t28.5 69t72.5 27zM257 629q19 0 31.5 13t12.5 31
t-12.5 30.5t-31.5 12.5t-31.5 -12.5t-12.5 -30.5t12.5 -31t31.5 -13z" />
    <glyph glyph-name="Uhungarumlaut" unicode="&#x170;" horiz-adv-x="570" 
d="M375 218v482h140v-478q0 -105 -64.5 -168.5t-166.5 -63.5q-103 0 -166 62t-63 167v481h143v-482q0 -48 23.5 -75t64.5 -27q42 0 65.5 27t23.5 75zM337 752l44 168h132l-80 -168h-96zM147 752l44 168h133l-80 -168h-97z" />
    <glyph glyph-name="uhungarumlaut" unicode="&#x171;" 
d="M465 517v-517h-117l-6 60q-45 -70 -136 -70q-74 0 -117.5 48.5t-43.5 135.5v343h134v-312q0 -97 73 -97q37 0 58 23.5t21 71.5v314h134zM305 572l44 168h132l-80 -168h-96zM115 572l44 168h133l-80 -168h-97z" />
    <glyph glyph-name="Uogonek" unicode="&#x172;" horiz-adv-x="570" 
d="M375 218v482h140v-478q0 -88 -45.5 -147.5t-122.5 -77.5q-18 -15 -18 -42q0 -24 17 -39t45 -15q11 0 21.5 2t15.5 4l4 2l11 -78q-22 -16 -65 -16q-58 0 -97.5 34t-39.5 89q0 30 13 54q-90 8 -144.5 69t-54.5 158v481h143v-482q0 -48 23.5 -75t64.5 -27q42 0 65.5 27
t23.5 75z" />
    <glyph glyph-name="uogonek" unicode="&#x173;" 
d="M465 517v-517h-52q-22 -13 -22 -45q0 -24 17 -39t45 -15q11 0 21.5 2t15.5 4l4 2l11 -78q-22 -16 -65 -16q-58 0 -97.5 34t-39.5 89q0 56 42 90l-3 32q-45 -70 -136 -70q-74 0 -117.5 48.5t-43.5 135.5v343h134v-312q0 -97 73 -97q37 0 58 23.5t21 71.5v314h134z" />
    <glyph glyph-name="Wcircumflex" unicode="&#x174;" horiz-adv-x="790" 
d="M186 0l-186 700h154l99 -450l97 450h98l97 -450l100 450h145l-185 -700h-119l-91 409l-91 -409h-118zM227 752l118 168h107l120 -168h-108l-68 84l-68 -84h-101z" />
    <glyph glyph-name="wcircumflex" unicode="&#x175;" horiz-adv-x="665" 
d="M147 0l-147 517h142l73 -313l76 313h90l76 -313l73 313h135l-148 -517h-114l-70 288l-71 -288h-115zM159 572l118 168h107l120 -168h-108l-68 84l-68 -84h-101z" />
    <glyph glyph-name="Ycircumflex" unicode="&#x176;" horiz-adv-x="535" 
d="M197 0v260l-202 440h158l118 -298l119 298h150l-202 -440v-260h-141zM99 752l118 168h107l120 -168h-108l-68 84l-68 -84h-101z" />
    <glyph glyph-name="ycircumflex" unicode="&#x177;" horiz-adv-x="460" 
d="M169 0l-169 517h142l92 -343l91 343h135l-174 -532q-27 -82 -69 -118.5t-108 -36.5q-26 0 -51 5t-36 11l-12 5l25 105q24 -12 58 -12q58 0 76 56zM62 572l118 168h107l120 -168h-108l-68 84l-68 -84h-101z" />
    <glyph glyph-name="Ydieresis" unicode="&#x178;" horiz-adv-x="535" 
d="M197 0v260l-202 440h158l118 -298l119 298h150l-202 -440v-260h-141zM368 904q30 0 50 -20t20 -50q0 -31 -20 -50.5t-50 -19.5q-31 0 -50.5 19.5t-19.5 49.5t20 50.5t50 20.5zM175 904q30 0 49.5 -20t19.5 -50q0 -31 -20 -50.5t-50 -19.5q-31 0 -50 19.5t-19 49.5
t20 50.5t50 20.5z" />
    <glyph glyph-name="Zacute" unicode="&#x179;" horiz-adv-x="500" 
d="M465 0h-430v104l265 475h-245v121h410v-104l-265 -475h265v-121zM207 752l56 168h137l-93 -168h-100z" />
    <glyph glyph-name="zacute" unicode="&#x17a;" horiz-adv-x="435" 
d="M35 93l211 314h-196v110h350v-93l-211 -314h211v-110h-365v93zM169 572l56 168h137l-93 -168h-100z" />
    <glyph glyph-name="Zdotaccent" unicode="&#x17b;" horiz-adv-x="500" 
d="M465 0h-430v104l265 475h-245v121h410v-104l-265 -475h265v-121zM265 903q30 0 49.5 -20t19.5 -50t-20 -50t-50 -20q-31 0 -50.5 19.5t-19.5 50.5q0 30 20 50t51 20z" />
    <glyph glyph-name="zdotaccent" unicode="&#x17c;" horiz-adv-x="435" 
d="M35 93l211 314h-196v110h350v-93l-211 -314h211v-110h-365v93zM232 723q30 0 49.5 -20t19.5 -50t-20 -50t-50 -20q-31 0 -50.5 19.5t-19.5 50.5q0 30 20 50t51 20z" />
    <glyph glyph-name="Zcaron" unicode="&#x17d;" horiz-adv-x="500" 
d="M465 0h-430v104l265 475h-245v121h410v-104l-265 -475h265v-121zM432 920l-118 -168h-107l-120 168h108l68 -84l68 84h101z" />
    <glyph glyph-name="zcaron" unicode="&#x17e;" horiz-adv-x="442" 
d="M35 93l211 314h-196v110h350v-93l-211 -314h211v-110h-365v93zM407 740l-118 -168h-107l-120 168h108l68 -84l68 84h101z" />
    <glyph glyph-name="florin" unicode="&#x192;" horiz-adv-x="490" 
d="M224 -160h-134l34 447h-114v81h120l11 140q7 93 62.5 147.5t134.5 54.5q37 0 68.5 -8t45.5 -16l13 -8l-46 -109q-27 15 -67 15q-70 0 -78 -87l-11 -129h167v-81h-173z" />
    <glyph glyph-name="Aringacute" unicode="&#x1fa;" horiz-adv-x="563" 
d="M419 920l-58 -105q27 -27 27 -67q0 -45 -32 -72l207 -676h-148l-41 149h-193l-41 -149h-140l210 683q-24 27 -24 65q0 33 19 58t50 34l27 80h137zM277 507l-70 -252h140zM287 704q19 0 31.5 13t12.5 31t-12.5 30.5t-31.5 12.5t-31.5 -12.5t-12.5 -30.5t12.5 -31t31.5 -13
z" />
    <glyph glyph-name="aringacute" unicode="&#x1fb;" horiz-adv-x="500" 
d="M455 309v-309h-109l-8 42q-47 -52 -131 -52t-130.5 43.5t-46.5 114.5t48.5 116t132.5 45q67 0 110 -35v25q0 110 -105 110q-33 0 -64.5 -7.5t-45.5 -15.5l-15 -8l-34 105q39 25 107 37q-18 24 -18 58t20 59t53 33l23 70h137l-55 -99q24 -26 24 -63q0 -38 -23 -63
q130 -42 130 -206zM244 86q38 0 60 19t22 48t-23 48.5t-59 19.5q-35 0 -57.5 -19.5t-22.5 -48.5t22 -48t58 -19zM247 534q19 0 31.5 13t12.5 31t-12.5 30.5t-31.5 12.5t-31.5 -12.5t-12.5 -30.5t12.5 -31t31.5 -13z" />
    <glyph glyph-name="AEacute" unicode="&#x1fc;" horiz-adv-x="770" 
d="M232 254h128v329zM740 575h-239v-157h199v-117h-199v-176h244v-125h-385v149h-166l-59 -149h-145l288 700h462v-125zM442 752l56 168h137l-93 -168h-100z" />
    <glyph glyph-name="aeacute" unicode="&#x1fd;" horiz-adv-x="787" 
d="M455 333v-10h162v10q0 42 -22 66.5t-59 24.5t-59 -24.5t-22 -66.5zM617 189l126 -27q-1 -7 -3 -18.5t-15 -41t-33 -52t-61.5 -41t-96.5 -18.5q-101 0 -152 74q-49 -74 -167 -74q-89 0 -137 43t-48 114t48.5 116t132.5 45q66 0 110 -34v25q0 109 -105 109
q-33 0 -64.5 -7.5t-45.5 -15.5l-15 -8l-34 106q7 5 21.5 12t62.5 19t100 12q103 0 150 -70q51 70 147 70q95 0 152 -55t57 -152v-80h-292v-40q0 -43 22 -67t59 -24q33 0 53 20t24 40zM244 86q38 0 60 19.5t22 48.5t-23 48t-59 19t-58 -19t-22 -48t22.5 -48.5t57.5 -19.5z
M347 572l56 168h137l-93 -168h-100z" />
    <glyph glyph-name="Oslashacute" unicode="&#x1fe;" horiz-adv-x="570" 
d="M532 730l-57 -105q45 -59 45 -148v-250q0 -108 -66 -172.5t-171 -64.5q-79 0 -135 36l-30 -56h-81l57 105q-44 60 -44 148v250q0 108 66 172.5t171 64.5q76 0 134 -36l31 56h80zM187 477v-232l170 312q-26 31 -72 31q-45 0 -71.5 -29.5t-26.5 -81.5zM285 112q45 0 71 29
t26 81v232l-170 -312q25 -30 73 -30zM222 752l56 168h137l-93 -168h-100z" />
    <glyph glyph-name="oslashacute" unicode="&#x1ff;" horiz-adv-x="510" 
d="M477 546l-55 -86q48 -54 48 -141v-119q0 -96 -60 -153t-156 -57q-63 0 -113 25l-29 -45h-78l54 85q-48 54 -48 142v119q0 97 60.5 154t156.5 57q64 0 113 -26l29 45h78zM167 317v-118q0 -13 1 -18l139 220q-21 15 -52 15q-42 0 -65 -25.5t-23 -73.5zM344 317q0 3 -0.5 9
t-0.5 8l-140 -220q20 -14 52 -14q42 0 65.5 25.5t23.5 73.5v118zM207 572l56 168h137l-93 -168h-100z" />
    <glyph glyph-name="Scommaaccent" unicode="&#x218;" horiz-adv-x="492" 
d="M200 310q-152 93 -152 214q0 82 59.5 134t146.5 52q49 0 89 -15.5t62 -38t37 -45t20 -37.5l5 -16l-115 -46q-1 3 -3 8.5t-10 19.5t-18 24.5t-27 19t-37 8.5q-29 0 -48.5 -17t-19.5 -44q0 -34 25 -60t82 -60q76 -46 119.5 -99t43.5 -123q0 -92 -61 -145.5t-155 -53.5
q-51 0 -93 18t-66 43.5t-40.5 51t-22.5 43.5l-6 18l115 46q1 -4 4 -11t13.5 -24.5t22.5 -31t31.5 -24.5t40.5 -11q34 0 55 20t21 52q0 37 -27 64t-91 66zM117 -218l56 168h137l-93 -168h-100z" />
    <glyph glyph-name="scommaaccent" unicode="&#x219;" horiz-adv-x="417" 
d="M249 314q71 -29 107 -69t36 -98q0 -72 -51.5 -114.5t-133.5 -42.5q-35 0 -68 8t-55.5 20t-39.5 24t-26 20l-8 8l69 86q8 -7 20.5 -16.5t45.5 -26t59 -16.5t40.5 12t14.5 31q0 20 -20 37.5t-71 38.5q-131 54 -131 163q0 65 49.5 106.5t125.5 41.5q52 0 96.5 -17t62.5 -34
l18 -17l-70 -87q-5 5 -14 13t-35.5 21.5t-50.5 13.5q-22 0 -35 -11t-13 -26q0 -37 78 -69zM82 -218l56 168h137l-93 -168h-100z" />
    <glyph glyph-name="circumflex" unicode="&#x2c6;" horiz-adv-x="530" 
d="M92 572l118 168h107l120 -168h-108l-68 84l-68 -84h-101z" />
    <glyph glyph-name="caron" unicode="&#x2c7;" horiz-adv-x="530" 
d="M437 740l-118 -168h-107l-120 168h108l68 -84l68 84h101z" />
    <glyph glyph-name="breve" unicode="&#x2d8;" horiz-adv-x="452" 
d="M80 740h88v-32q0 -26 15.5 -42.5t42.5 -16.5t42 16.5t15 42.5v32h89v-26q0 -63 -41 -102.5t-105 -39.5q-65 0 -105.5 39t-40.5 102v27z" />
    <glyph glyph-name="dotaccent" unicode="&#x2d9;" horiz-adv-x="279" 
d="M140 723q30 0 49.5 -20t19.5 -50t-20 -50t-50 -20q-31 0 -50.5 19.5t-19.5 50.5q0 30 20 50t51 20z" />
    <glyph glyph-name="ring" unicode="&#x2da;" horiz-adv-x="320" 
d="M160 769q44 0 72.5 -27t28.5 -69t-28.5 -69t-72.5 -27t-72.5 27t-28.5 69t28.5 69t72.5 27zM160 629q19 0 31.5 13t12.5 31t-12.5 30.5t-31.5 12.5t-31.5 -12.5t-12.5 -30.5t12.5 -31t31.5 -13z" />
    <glyph glyph-name="ogonek" unicode="&#x2db;" horiz-adv-x="345" 
d="M136 50l34 -50q-22 -13 -22 -45q0 -24 17 -39t45 -15q11 0 21.5 2t14.5 4l5 2l11 -78q-22 -16 -65 -16q-58 0 -97.5 34t-39.5 89q0 36 19 64t38 38z" />
    <glyph glyph-name="tilde" unicode="&#x2dc;" horiz-adv-x="467" 
d="M145 593l-72 4q0 5 0.5 14t6 31t15 39t30 31t48.5 14q22 0 40.5 -9.5t28.5 -20.5t23 -20.5t26 -9.5q12 0 19.5 12.5t9.5 25.5l1 12l72 -4q0 -5 -0.5 -14t-6 -31t-15 -39t-30 -31t-48.5 -14t-49 14.5t-37 29.5t-32 15q-12 0 -19.5 -12t-9.5 -24z" />
    <glyph glyph-name="hungarumlaut" unicode="&#x2dd;" horiz-adv-x="570" 
d="M292 572l44 168h132l-80 -168h-96zM102 572l44 168h133l-80 -168h-97z" />
    <glyph glyph-name="Delta" unicode="&#x394;" horiz-adv-x="572" 
d="M282 512l-109 -383h218zM0 0l219 700h134l219 -700h-572z" />
    <glyph glyph-name="Delta" unicode="&#x2206;" horiz-adv-x="572" 
d="M282 512l-109 -383h218zM0 0l219 700h134l219 -700h-572z" />
    <glyph glyph-name="pi" unicode="&#x3c0;" horiz-adv-x="600" 
d="M10 410v107h565v-107h-96v-261q0 -25 10.5 -35t33.5 -10l38 4l14 -106q-24 -12 -96 -12q-64 0 -99 33.5t-35 98.5v288h-116v-410h-134v410h-85z" />
    <glyph glyph-name="Wgrave" unicode="&#x1e80;" horiz-adv-x="790" 
d="M186 0l-186 700h154l99 -450l97 450h98l97 -450l100 450h145l-185 -700h-119l-91 409l-91 -409h-118zM392 920l56 -168h-100l-93 168h137z" />
    <glyph glyph-name="wgrave" unicode="&#x1e81;" horiz-adv-x="665" 
d="M147 0l-147 517h142l73 -313l76 313h90l76 -313l73 313h135l-148 -517h-114l-70 288l-71 -288h-115zM324 740l56 -168h-100l-93 168h137z" />
    <glyph glyph-name="Wacute" unicode="&#x1e82;" horiz-adv-x="790" 
d="M186 0l-186 700h154l99 -450l97 450h98l97 -450l100 450h145l-185 -700h-119l-91 409l-91 -409h-118zM352 752l56 168h137l-93 -168h-100z" />
    <glyph glyph-name="wacute" unicode="&#x1e83;" horiz-adv-x="665" 
d="M147 0l-147 517h142l73 -313l76 313h90l76 -313l73 313h135l-148 -517h-114l-70 288l-71 -288h-115zM294 572l56 168h137l-93 -168h-100z" />
    <glyph glyph-name="Wdieresis" unicode="&#x1e84;" horiz-adv-x="790" 
d="M186 0l-186 700h154l99 -450l97 450h98l97 -450l100 450h145l-185 -700h-119l-91 409l-91 -409h-118zM496 904q30 0 50 -20t20 -50q0 -31 -20 -50.5t-50 -19.5q-31 0 -50.5 19.5t-19.5 49.5t20 50.5t50 20.5zM303 904q30 0 49.5 -20t19.5 -50q0 -31 -20 -50.5t-50 -19.5
q-31 0 -50 19.5t-19 49.5t20 50.5t50 20.5z" />
    <glyph glyph-name="wdieresis" unicode="&#x1e85;" horiz-adv-x="665" 
d="M147 0l-147 517h142l73 -313l76 313h90l76 -313l73 313h135l-148 -517h-114l-70 288l-71 -288h-115zM428 724q30 0 50 -20t20 -50q0 -31 -20 -50.5t-50 -19.5q-31 0 -50.5 19.5t-19.5 49.5t20 50.5t50 20.5zM235 724q30 0 49.5 -20t19.5 -50q0 -31 -20 -50.5t-50 -19.5
q-31 0 -50 19.5t-19 49.5t20 50.5t50 20.5z" />
    <glyph glyph-name="uni1E9E" unicode="&#x1e9e;" horiz-adv-x="580" 
d="M515 605l-93 -155q60 -25 94 -79.5t34 -128.5v-20q0 -104 -62 -168t-152 -64l-65 5l12 123q14 -3 32 -3q44 0 69 28t25 77v20q0 49 -25 76.5t-69 27.5h-31v89l76 129q-26 22 -66 22q-47 0 -72.5 -28.5t-25.5 -83.5v-472h-141v468q0 111 66.5 176.5t175.5 65.5
q42 0 79.5 -11t62 -26t42.5 -30.5t26 -26.5z" />
    <glyph glyph-name="Ygrave" unicode="&#x1ef2;" horiz-adv-x="535" 
d="M197 0v260l-202 440h158l118 -298l119 298h150l-202 -440v-260h-141zM269 920l56 -168h-100l-93 168h137z" />
    <glyph glyph-name="ygrave" unicode="&#x1ef3;" horiz-adv-x="460" 
d="M169 0l-169 517h142l92 -343l91 343h135l-174 -532q-27 -82 -69 -118.5t-108 -36.5q-26 0 -51 5t-36 11l-12 5l25 105q24 -12 58 -12q58 0 76 56zM227 740l56 -168h-100l-93 168h137z" />
    <glyph glyph-name="endash" unicode="&#x2013;" horiz-adv-x="510" 
d="M470 295h-430v122h430v-122z" />
    <glyph glyph-name="emdash" unicode="&#x2014;" horiz-adv-x="710" 
d="M670 295h-630v122h630v-122z" />
    <glyph glyph-name="quoteleft" unicode="&#x2018;" horiz-adv-x="245" 
d="M99 700h106l-19 -293h-146z" />
    <glyph glyph-name="quoteright" unicode="&#x2019;" horiz-adv-x="245" 
d="M146 407h-106l19 293h146z" />
    <glyph glyph-name="quotesinglbase" unicode="&#x201a;" horiz-adv-x="245" 
d="M146 -130h-106l19 293h146z" />
    <glyph glyph-name="quotedblleft" unicode="&#x201c;" horiz-adv-x="450" 
d="M99 700h106l-19 -293h-146zM304 700h106l-19 -293h-146z" />
    <glyph glyph-name="quotedblright" unicode="&#x201d;" horiz-adv-x="450" 
d="M146 407h-106l19 293h146zM351 407h-106l19 293h146z" />
    <glyph glyph-name="quotedblbase" unicode="&#x201e;" horiz-adv-x="450" 
d="M146 -130h-106l19 293h146zM351 -130h-106l19 293h146z" />
    <glyph glyph-name="dagger" unicode="&#x2020;" horiz-adv-x="390" 
d="M350 504h-107v-219h-96v219h-107v87h107v109h96v-109h107v-87z" />
    <glyph glyph-name="daggerdbl" unicode="&#x2021;" horiz-adv-x="390" 
d="M350 504h-107v-118h107v-88h-107v-108h-96v108h-107v88h107v118h-107v87h107v109h96v-109h107v-87z" />
    <glyph glyph-name="bullet" unicode="&#x2022;" horiz-adv-x="355" 
d="M178 487q58 0 97.5 -39t39.5 -97q0 -59 -40.5 -99t-98.5 -40t-97 39.5t-39 97.5t40 98t98 40z" />
    <glyph glyph-name="perthousand" unicode="&#x2030;" horiz-adv-x="985" 
d="M755 130q0 -25 16 -41.5t40 -16.5t40 16.5t16 41.5t-16 41t-40 16t-40 -16t-16 -41zM668 129q0 60 41.5 100.5t102.5 40.5t102 -39.5t41 -99.5q0 -61 -42 -101t-103 -40t-101.5 39t-40.5 100zM430 130q0 -25 16 -41.5t40 -16.5t40 16.5t16 41.5t-16 41t-40 16t-40 -16
t-16 -41zM343 129q0 60 41.5 100.5t102.5 40.5t102 -39.5t41 -99.5q0 -61 -42 -101t-103 -40t-101.5 39t-40.5 100zM174 610q62 0 102.5 -39t40.5 -100t-41.5 -101.5t-103.5 -40.5q-61 0 -101.5 39.5t-40.5 100.5t41.5 101t102.5 40zM92 0l391 600h85l-391 -600h-85z
M173 528q-23 0 -39 -16.5t-16 -41.5t16 -41.5t39 -16.5q25 0 40.5 16.5t15.5 41.5t-15.5 41.5t-40.5 16.5z" />
    <glyph glyph-name="guilsinglleft" unicode="&#x2039;" horiz-adv-x="391" 
d="M331 509l-150 -157l150 -156l-70 -74l-221 207v43l221 207z" />
    <glyph glyph-name="guilsinglright" unicode="&#x203a;" horiz-adv-x="391" 
d="M60 191l150 157l-150 156l70 74l221 -207v-43l-221 -207z" />
    <glyph glyph-name="fraction" unicode="&#x2044;" horiz-adv-x="158" 
d="M-190 0l453 700h85l-454 -700h-84z" />
    <glyph glyph-name="zerosuperior" unicode="&#x2070;" horiz-adv-x="331" 
d="M125 579v-178q0 -22 11 -34.5t30 -12.5t29.5 12.5t10.5 34.5v178q0 21 -10.5 33.5t-29.5 12.5t-30 -12.5t-11 -33.5zM35 405v168q0 61 37 97t95 36q57 0 93 -35.5t36 -95.5v-168q0 -61 -37 -97t-94 -36t-93.5 35.5t-36.5 95.5z" />
    <glyph glyph-name="foursuperior" unicode="&#x2074;" horiz-adv-x="325" 
d="M89 438h83v144zM20 440l150 260h87v-262h48v-67h-48v-91h-85v91h-152v69z" />
    <glyph glyph-name="fivesuperior" unicode="&#x2075;" horiz-adv-x="313" 
d="M271 622h-152v-75q21 19 56 19q48 0 78 -31t30 -83v-48q0 -59 -35.5 -94.5t-93.5 -35.5q-55 0 -89.5 34.5t-34.5 93.5v7h88v-13q0 -20 10 -31t27 -11t27.5 11.5t10.5 31.5v52q0 19 -10.5 30t-27.5 11q-15 0 -24 -7t-11 -15l-2 -7h-82v239h235v-78z" />
    <glyph glyph-name="sixsuperior" unicode="&#x2076;" horiz-adv-x="327" 
d="M207 403v31q0 49 -43 49q-44 0 -44 -49v-31q0 -49 44 -49q43 0 43 49zM188 554q49 0 79 -32.5t30 -88.5v-23q0 -63 -37.5 -99.5t-96.5 -36.5t-96 36t-37 98v11q0 53 24 100l94 181h95l-83 -151q13 5 28 5z" />
    <glyph glyph-name="sevensuperior" unicode="&#x2077;" horiz-adv-x="292" 
d="M48 280l123 339h-146v81h242v-66l-125 -354h-94z" />
    <glyph glyph-name="eightsuperior" unicode="&#x2078;" horiz-adv-x="333" 
d="M129 590v-15q0 -18 10.5 -29t27.5 -11t27 11t10 29v15q0 19 -10 29.5t-27 10.5t-27.5 -10.5t-10.5 -29.5zM39 587v6q0 49 37 81t92 32q54 0 90 -31.5t36 -79.5v-6q0 -53 -44 -86q53 -34 53 -98v-6q0 -55 -39.5 -90t-97.5 -35t-97 34.5t-39 88.5v6q0 64 53 100
q-44 31 -44 84zM120 419v-19q0 -24 13 -37.5t34 -13.5t33.5 13.5t12.5 37.5v19q0 24 -12.5 37.5t-33.5 13.5t-34 -13.5t-13 -37.5z" />
    <glyph glyph-name="ninesuperior" unicode="&#x2079;" horiz-adv-x="327" 
d="M120 577v-31q0 -49 43 -49q44 0 44 49v31q0 49 -44 49q-43 0 -43 -49zM139 426q-49 0 -79 32.5t-30 88.5v23q0 63 37.5 99.5t96.5 36.5t96 -36t37 -98v-11q0 -53 -24 -100l-94 -181h-95l83 151q-13 -5 -28 -5z" />
    <glyph glyph-name="zeroinferior" unicode="&#x2080;" horiz-adv-x="331" 
d="M125 299v-178q0 -22 11 -34.5t30 -12.5t29.5 12.5t10.5 34.5v178q0 21 -10.5 33.5t-29.5 12.5t-30 -12.5t-11 -33.5zM35 125v168q0 61 37 97t95 36q57 0 93 -35.5t36 -95.5v-168q0 -61 -37 -97t-94 -36t-93.5 35.5t-36.5 95.5z" />
    <glyph glyph-name="oneinferior" unicode="&#x2081;" horiz-adv-x="265" 
d="M10 319l131 101h74v-420h-90v316l-73 -54z" />
    <glyph glyph-name="twoinferior" unicode="&#x2082;" horiz-adv-x="305" 
d="M227 187l-91 -109h144v-78h-255v63l141 176q24 30 24 62q0 44 -39 44t-39 -44v-22h-87v19q0 58 36 93t93 35q53 0 89.5 -32t36.5 -82q0 -62 -53 -125z" />
    <glyph glyph-name="threeinferior" unicode="&#x2083;" horiz-adv-x="311" 
d="M31 297v12q0 52 35 84.5t88 32.5q52 0 86.5 -31.5t34.5 -80.5v-5q0 -58 -47 -92q53 -32 53 -95v-10q0 -52 -37 -85t-92 -33q-54 0 -90.5 33t-36.5 85v20h85v-15q0 -45 41 -45q18 0 29 12t11 34v16q0 48 -43 48h-35v68h35q37 0 37 42v17q0 18 -9.5 28.5t-24.5 10.5
t-25 -10.5t-10 -28.5v-12h-85z" />
    <glyph glyph-name="fourinferior" unicode="&#x2084;" horiz-adv-x="325" 
d="M89 158h83v144zM20 160l150 260h87v-262h48v-67h-48v-91h-85v91h-152v69z" />
    <glyph glyph-name="fiveinferior" unicode="&#x2085;" horiz-adv-x="313" 
d="M271 342h-152v-75q21 19 56 19q48 0 78 -31t30 -83v-48q0 -59 -35.5 -94.5t-93.5 -35.5q-55 0 -89.5 34.5t-34.5 93.5v7h88v-13q0 -20 10 -31t27 -11t27.5 11.5t10.5 31.5v52q0 19 -10.5 30t-27.5 11q-15 0 -24 -7t-11 -15l-2 -7h-82v239h235v-78z" />
    <glyph glyph-name="sixinferior" unicode="&#x2086;" horiz-adv-x="327" 
d="M207 123v31q0 49 -43 49q-44 0 -44 -49v-31q0 -49 44 -49q43 0 43 49zM188 274q49 0 79 -32.5t30 -88.5v-23q0 -63 -37.5 -99.5t-96.5 -36.5t-96 36t-37 98v11q0 53 24 100l94 181h95l-83 -151q13 5 28 5z" />
    <glyph glyph-name="seveninferior" unicode="&#x2087;" horiz-adv-x="292" 
d="M48 0l123 339h-146v81h242v-66l-125 -354h-94z" />
    <glyph glyph-name="eightinferior" unicode="&#x2088;" horiz-adv-x="333" 
d="M129 310v-15q0 -18 10.5 -29t27.5 -11t27 11t10 29v15q0 19 -10 29.5t-27 10.5t-27.5 -10.5t-10.5 -29.5zM39 307v6q0 49 37 81t92 32q54 0 90 -31.5t36 -79.5v-6q0 -53 -44 -86q53 -34 53 -98v-6q0 -55 -39.5 -90t-97.5 -35t-97 34.5t-39 88.5v6q0 64 53 100
q-44 31 -44 84zM120 139v-19q0 -24 13 -37.5t34 -13.5t33.5 13.5t12.5 37.5v19q0 24 -12.5 37.5t-33.5 13.5t-34 -13.5t-13 -37.5z" />
    <glyph glyph-name="nineinferior" unicode="&#x2089;" horiz-adv-x="327" 
d="M120 297v-31q0 -49 43 -49q44 0 44 49v31q0 49 -44 49q-43 0 -43 -49zM139 146q-49 0 -79 32.5t-30 88.5v23q0 63 37.5 99.5t96.5 36.5t96 -36t37 -98v-11q0 -53 -24 -100l-94 -181h-95l83 151q-13 -5 -28 -5z" />
    <glyph glyph-name="Euro" unicode="&#x20ac;" horiz-adv-x="526" 
d="M361 190v15h130v-14q0 -91 -57 -146t-145 -55q-90 0 -147 56t-57 150v54h-75v69h75v61h-75v69h75v52q0 95 58 152t148 57q88 0 144 -54t56 -145v-16h-130v15q0 39 -19 60.5t-52 21.5t-52 -21.5t-19 -60.5v-61h216v-69h-216v-61h196v-69h-196v-60q0 -39 19 -60.5t52 -21.5
t52 21.5t19 60.5z" />
    <glyph glyph-name="trademark" unicode="&#x2122;" horiz-adv-x="646" 
d="M444 434l-55 127v-176h-76v315h80l68 -158l68 158h77v-315h-77v173l-54 -124h-31zM265 629h-72v-244h-81v244h-72v71h225v-71z" />
    <glyph glyph-name="minus" unicode="&#x2212;" 
d="M475 295h-435v121h435v-121z" />
    <glyph glyph-name="fi" unicode="&#xfb01;" horiz-adv-x="607" 
d="M219 536v-39h121v-103h-121v-394h-134v394h-75v103h75v58q0 75 41 115t115 40q33 0 60 -4t38 -8l11 -3l-14 -102q-23 7 -55 7t-47 -15t-15 -49zM415 0v517h137v-517h-137zM484 740q36 0 59.5 -23.5t23.5 -59.5q0 -35 -23.5 -58.5t-59.5 -23.5q-37 0 -60.5 23.5
t-23.5 58.5q0 36 23.5 59.5t60.5 23.5z" />
    <glyph glyph-name="fl" unicode="&#xfb02;" horiz-adv-x="607" 
d="M219 536v-39h121v-103h-121v-394h-134v394h-75v103h75v58q0 75 41 115t115 40q33 0 60 -4t38 -8l11 -3l-14 -102q-23 7 -55 7t-47 -15t-15 -49zM415 0v700h137v-700h-137z" />
    <glyph glyph-name="one.onum" horiz-adv-x="404" 
d="M15 477l211 163h113v-640h-133v483l-129 -95z" />
    <glyph glyph-name="two.onum" horiz-adv-x="470" 
d="M334 251l-122 -135h223v-116h-400v91l221 250q47 54 47 106q0 38 -19.5 60.5t-51.5 22.5q-31 0 -50 -22t-19 -61v-30h-128v26q0 94 57 150.5t144 56.5q85 0 142 -53t57 -136q0 -100 -101 -210z" />
    <glyph glyph-name="three.onum" horiz-adv-x="462" 
d="M40 447v26q0 77 55 127t137 50t136 -48t54 -122v-6q0 -91 -74 -142q84 -50 84 -147v-17q0 -77 -58.5 -127.5t-143.5 -50.5q-86 0 -143 50.5t-57 130.5v36h124v-23q0 -38 20 -59.5t53 -21.5t53 21.5t20 59.5v17q0 37 -20 59t-57 22h-52v96h52q31 0 49 19t18 51v19
q0 32 -17.5 51t-45.5 19q-29 0 -46 -19t-17 -52v-19h-124z" />
    <glyph glyph-name="four.onum" horiz-adv-x="505" 
d="M132 231h140v236zM27 235l241 405h129v-409h80v-99h-80v-132h-125v132h-245v103z" />
    <glyph glyph-name="five.onum" horiz-adv-x="476" 
d="M416 523h-246v-121q38 35 98 35q74 0 121 -48t47 -129v-67q0 -93 -56 -148t-145 -55q-87 0 -141 54.5t-54 146.5v11h128v-13q0 -37 18.5 -58t49.5 -21t49.5 21t18.5 58v58q0 36 -18.5 57t-49.5 21q-26 0 -42.5 -13.5t-19.5 -26.5l-4 -13h-120v368h366v-117z" />
    <glyph glyph-name="six.onum" horiz-adv-x="495" 
d="M170 231v-32q0 -42 21 -65.5t57 -23.5t57 23.5t21 65.5v32q0 42 -21 65.5t-57 23.5t-57 -23.5t-21 -65.5zM38 201v23q0 72 39 143l152 273h145l-133 -224q29 9 47 9q76 0 123 -51t47 -138v-33q0 -97 -59.5 -155t-151.5 -58t-150.5 57t-58.5 154z" />
    <glyph glyph-name="seven.onum" horiz-adv-x="430" 
d="M63 0l200 520h-238v120h380v-95l-203 -545h-139z" />
    <glyph glyph-name="eight.onum" horiz-adv-x="495" 
d="M180 468v-12q0 -30 18.5 -49.5t49.5 -19.5t49.5 19.5t18.5 49.5v12q0 30 -18.5 49.5t-49.5 19.5t-49.5 -19.5t-18.5 -49.5zM48 469v10q0 74 57.5 122.5t143.5 48.5q85 0 142 -47.5t57 -121.5v-10q0 -81 -70 -129q85 -52 85 -150v-10q0 -84 -62.5 -138t-153.5 -54
t-152.5 53t-61.5 137v10q0 95 85 151q-70 46 -70 128zM165 204v-11q0 -42 22.5 -66t60.5 -24t60.5 24t22.5 66v11q0 42 -22.5 66t-60.5 24t-60.5 -24t-22.5 -66z" />
    <glyph glyph-name="nine.onum" horiz-adv-x="495" 
d="M325 409v32q0 42 -21 65.5t-57 23.5t-57 -23.5t-21 -65.5v-32q0 -42 21 -65.5t57 -23.5t57 23.5t21 65.5zM457 439v-23q0 -72 -39 -143l-152 -273h-145l133 224q-29 -9 -47 -9q-76 0 -123 51t-47 138v33q0 97 59.5 155t151.5 58t150.5 -57t58.5 -154z" />
    <glyph glyph-name="zero.onum" horiz-adv-x="495" 
d="M177 446v-252q0 -39 19 -60.5t52 -21.5t52 21.5t19 60.5v252q0 39 -19 60.5t-52 21.5t-52 -21.5t-19 -60.5zM43 196v245q0 95 58 152t148 57t147 -56t57 -151v-245q0 -94 -58 -151t-148 -57t-147 56t-57 150z" />
    <glyph glyph-name="numbersign.onum" horiz-adv-x="505" 
d="M211 343l-18 -126h100l19 126h-101zM263 0l19 138h-101l-19 -138h-86l19 138h-75v79h87l18 126h-75v79h86l20 138h86l-20 -138h101l20 138h86l-20 -138h76v-79h-87l-19 -126h76v-79h-87l-19 -138h-86z" />
    <glyph glyph-name="cent.onum" horiz-adv-x="486" 
d="M318 345h128v-11q0 -78 -44.5 -129.5t-117.5 -64.5v-87h-78v86q-76 10 -121 60t-45 131v119q0 80 45.5 131.5t120.5 62.5v87h78v-87q74 -12 118 -61.5t44 -128.5v-10h-128v7q0 39 -20 61t-53 22t-53 -22t-20 -61v-117q0 -39 20 -61t53 -22t53 22t20 61v12z" />
    <glyph glyph-name="dollar.onum" horiz-adv-x="476" 
d="M202 272q-80 35 -120.5 81.5t-40.5 115.5q0 68 44 115t115 58v88h78v-87q73 -11 115.5 -60.5t42.5 -125.5v-7h-128v15q0 31 -19 51t-51 20q-29 0 -47 -17t-18 -42q0 -30 23 -52.5t85 -49.5q80 -35 120 -81.5t40 -117.5q0 -72 -45.5 -120t-117.5 -58v-88h-78v86
q-76 11 -120.5 61.5t-44.5 130.5v19h128v-27q0 -34 20.5 -55.5t54.5 -21.5q32 0 51 18.5t19 46.5q0 30 -22.5 53.5t-83.5 50.5z" />
    <glyph glyph-name="sterling.onum" horiz-adv-x="511" 
d="M375 272h-158v-156h248v-116h-380v272h-75v75h75v99q0 93 57 148.5t144 55.5q86 0 140.5 -53.5t54.5 -144.5v-15h-128v14q0 37 -18.5 58t-49.5 21t-49.5 -21t-18.5 -58v-104h158v-75z" />
    <glyph glyph-name="Euro.onum" horiz-adv-x="511" 
d="M353 181v19h128v-14q0 -89 -55.5 -142.5t-141.5 -53.5q-87 0 -143 54.5t-56 146.5v42h-75v63h75v48h-75v63h75v39q0 93 57 148.5t144 55.5q86 0 140.5 -52.5t54.5 -141.5v-16h-128v19q0 36 -18.5 57t-49.5 21t-49.5 -21t-18.5 -57v-52h208v-63h-208v-48h188v-63h-188v-52
q0 -36 18.5 -57t49.5 -21t49.5 21t18.5 57z" />
    <glyph glyph-name="yen.onum" horiz-adv-x="545" 
d="M202 0v160h-167v68h167v49l-12 23h-155v68h121l-141 272h156l105 -241l106 241h148l-142 -272h122v-68h-156l-11 -23v-49h167v-68h-167v-160h-141z" />
    <glyph glyph-name="florin.onum" horiz-adv-x="479" 
d="M226 -160h-132l31 422h-115v75h121l9 112q7 92 61.5 146.5t130.5 54.5q36 0 66.5 -8t43.5 -16l12 -8l-46 -108q-25 16 -62 16q-68 0 -75 -87l-8 -102h159v-75h-164z" />
    <glyph glyph-name="percent.onum" horiz-adv-x="660" 
d="M30 430q0 60 41 100t101 40q61 0 101 -39t40 -99t-41 -99.5t-102 -39.5q-60 0 -100 38.5t-40 98.5zM92 0l391 560h85l-391 -560h-85zM171 489q-23 0 -38.5 -16.5t-15.5 -41.5q0 -24 15.5 -40t38.5 -16q25 0 40.5 16t15.5 40q0 26 -15.5 42t-40.5 16zM347 127q0 60 41 100
t101 40q61 0 101 -39t40 -99t-41 -99.5t-102 -39.5q-60 0 -100 38.5t-40 98.5zM488 186q-23 0 -38.5 -16.5t-15.5 -41.5q0 -24 15.5 -40t38.5 -16q25 0 40.5 16t15.5 40q0 26 -15.5 42t-40.5 16z" />
    <glyph glyph-name="perthousand.onum" horiz-adv-x="985" 
d="M30 430q0 60 41 100t101 40q61 0 101 -39t40 -99t-41 -99.5t-102 -39.5q-60 0 -100 38.5t-40 98.5zM92 0l391 560h85l-391 -560h-85zM171 489q-23 0 -38.5 -16.5t-15.5 -41.5q0 -24 15.5 -40t38.5 -16q25 0 40.5 16t15.5 40q0 26 -15.5 42t-40.5 16zM347 127q0 60 41 100
t101 40q61 0 101 -39t40 -99t-41 -99.5t-102 -39.5q-60 0 -100 38.5t-40 98.5zM488 186q-23 0 -38.5 -16.5t-15.5 -41.5q0 -24 15.5 -40t38.5 -16q25 0 40.5 16t15.5 40q0 26 -15.5 42t-40.5 16zM672 127q0 60 41 100t101 40q61 0 101 -39t40 -99t-41 -99.5t-102 -39.5
q-60 0 -100 38.5t-40 98.5zM813 186q-23 0 -38.5 -16.5t-15.5 -41.5q0 -24 15.5 -40t38.5 -16q25 0 40.5 16t15.5 40q0 26 -15.5 42t-40.5 16z" />
    <glyph glyph-name="one.lnum" 
d="M492 0h-432v110h160v431l-123 -91l-62 90l206 160h113v-590h138v-110z" />
    <glyph glyph-name="two.lnum" 
d="M377 307l-159 -189h249v-118h-420v93l245 301q41 51 41 103q0 43 -21.5 67t-57.5 24q-35 0 -56.5 -24t-21.5 -67v-33h-129v29q0 99 59.5 158t151.5 59q89 0 149 -54.5t60 -140.5q0 -100 -90 -208z" />
    <glyph glyph-name="three.lnum" 
d="M56 497v20q0 85 57.5 139t144.5 54q86 0 143 -51.5t57 -133.5v-9q0 -101 -81 -154q91 -52 91 -160v-17q0 -85 -61 -140t-151 -55q-91 0 -150.5 55t-59.5 143v29h126v-17q0 -43 21.5 -67.5t59.5 -24.5q37 0 59 24.5t22 67.5v17q0 42 -22 67t-63 25h-59v102h59q35 0 55 22
t20 59v19q0 38 -19 59.5t-52 21.5t-52 -21.5t-19 -59.5v-14h-126z" />
    <glyph glyph-name="four.lnum" 
d="M133 261h148v260zM27 265l250 435h130v-439h80v-102h-80v-159h-126v159h-254v106z" />
    <glyph glyph-name="five.lnum" 
d="M446 582h-264v-150q43 43 106 43q78 0 128 -51.5t50 -136.5v-84q0 -97 -59 -155t-152 -58q-91 0 -148 57t-57 154v11h130v-13q0 -41 20.5 -64t55.5 -23t55.5 23t20.5 64v76q0 40 -20.5 63t-55.5 23q-28 0 -46.5 -14.5t-23.5 -29.5l-5 -15h-121v398h386v-118z" />
    <glyph glyph-name="six.lnum" 
d="M339 204v52q0 43 -22 67.5t-59 24.5q-38 0 -59.5 -24.5t-21.5 -67.5v-52q0 -43 21.5 -67.5t59.5 -24.5q37 0 59 24.5t22 67.5zM298 455q77 0 126 -52.5t49 -141.5v-53q0 -99 -61 -158.5t-155 -59.5t-154 58.5t-60 157.5v28q0 88 39 163l157 303h147l-144 -257
q30 12 56 12z" />
    <glyph glyph-name="seven.lnum" 
d="M103 0l226 579h-287v121h430v-96l-228 -604h-141z" />
    <glyph glyph-name="eight.lnum" 
d="M187 517v-19q0 -35 19.5 -56.5t51.5 -21.5t51.5 21.5t19.5 56.5v19q0 36 -19.5 57.5t-51.5 21.5t-51.5 -21.5t-19.5 -57.5zM53 514v10q0 81 59 133.5t147 52.5t146 -52t58 -132v-10q0 -91 -74 -144q89 -55 89 -165v-10q0 -91 -63.5 -149t-157.5 -58t-156.5 57t-62.5 148
v10q0 109 88 166q-73 52 -73 143zM172 225v-25q0 -45 23.5 -70.5t62.5 -25.5t62.5 25.5t23.5 70.5v25q0 45 -23.5 70.5t-62.5 25.5t-62.5 -25.5t-23.5 -70.5z" />
    <glyph glyph-name="nine.lnum" 
d="M176 496v-52q0 -43 22 -67.5t59 -24.5q38 0 59.5 24.5t21.5 67.5v52q0 43 -21.5 67.5t-59.5 24.5q-37 0 -59 -24.5t-22 -67.5zM217 245q-77 0 -126 52.5t-49 141.5v53q0 99 61 158.5t155 59.5t154 -58.5t60 -157.5v-28q0 -88 -39 -163l-157 -303h-147l144 257
q-30 -12 -56 -12z" />
    <glyph glyph-name="zero.lnum" 
d="M182 501v-302q0 -41 20.5 -64t55.5 -23t55.5 23t20.5 64v302q0 41 -20.5 64t-55.5 23t-55.5 -23t-20.5 -64zM48 201v295q0 97 59.5 155.5t151.5 58.5t150.5 -57.5t58.5 -154.5v-295q0 -97 -59.5 -155t-151.5 -58t-150.5 57t-58.5 154z" />
    <glyph glyph-name="numbersign.lnum" 
d="M215 423l-17 -146h101l17 146h-101zM268 0l22 198h-101l-22 -198h-86l22 198h-78v79h87l17 146h-74v79h83l23 198h86l-23 -198h101l23 198h86l-23 -198h79v-79h-88l-17 -146h75v-79h-84l-22 -198h-86z" />
    <glyph glyph-name="cent.lnum" 
d="M336 390h130v-11q0 -81 -46 -134t-121 -65v-87h-78v86q-78 10 -124.5 61.5t-46.5 134.5v129q0 82 47 135t124 64v87h78v-87q77 -12 122 -62.5t45 -132.5v-10h-130v7q0 41 -20.5 64t-55.5 23t-55.5 -23t-20.5 -64v-127q0 -41 20.5 -64t55.5 -23t55.5 23t20.5 64v12z" />
    <glyph glyph-name="dollar.lnum" 
d="M216 305q-160 79 -160 213q0 74 45 123.5t119 60.5v88h78v-86q75 -11 119 -63.5t44 -135.5v-18h-129v24q0 37 -20 59t-54 22q-31 0 -50 -19t-19 -51q0 -34 27 -61t91 -59q159 -80 159 -215q0 -77 -46.5 -127.5t-121.5 -61.5v-88h-78v86q-78 11 -124 64.5t-46 139.5v27
h129v-33q0 -39 21 -62.5t58 -23.5q34 0 54 20t20 54q0 35 -26.5 63t-89.5 60z" />
    <glyph glyph-name="sterling.lnum" 
d="M375 301h-166v-184h256v-117h-390v301h-65v77h65v123q0 95 58 152t148 57q88 0 144 -55t56 -148v-20h-130v19q0 39 -19 60.5t-52 21.5t-52 -21.5t-19 -60.5v-128h166v-77z" />
    <glyph glyph-name="Euro.lnum" 
d="M351 190v15h130v-14q0 -91 -57 -146t-145 -55q-90 0 -147 56t-57 150v54h-65v69h65v61h-65v69h65v52q0 95 58 152t148 57q88 0 144 -54t56 -145v-16h-130v15q0 39 -19 60.5t-52 21.5t-52 -21.5t-19 -60.5v-61h216v-69h-216v-61h196v-69h-196v-60q0 -39 19 -60.5t52 -21.5
t52 21.5t19 60.5z" />
    <glyph glyph-name="yen.lnum" 
d="M187 0v190h-152v69h152v48l-9 23h-143v69h114l-134 301h157l89 -241l90 241h149l-133 -301h113v-69h-143l-9 -23v-48h152v-69h-152v-190h-141z" />
    <glyph glyph-name="florin.lnum" 
d="M244 -160h-134l34 447h-114v81h120l11 140q7 93 62.5 147.5t134.5 54.5q37 0 68.5 -8t45.5 -16l13 -8l-46 -109q-25 15 -67 15q-70 0 -78 -87l-11 -129h167v-81h-173z" />
    <glyph glyph-name="percent.lnum" horiz-adv-x="714" 
d="M526 214q-29 0 -48 -19.5t-19 -49.5t19 -49.5t48 -19.5t48 19.5t19 49.5t-19 49.5t-48 19.5zM527 300q68 0 112.5 -43.5t44.5 -110.5q0 -68 -45.5 -112t-113.5 -44q-69 0 -113.5 43t-44.5 111q0 67 46 111.5t114 44.5zM189 710q69 0 113.5 -43t44.5 -111t-45.5 -112.5
t-114.5 -44.5q-68 0 -112.5 43.5t-44.5 111.5t45.5 112t113.5 44zM188 624q-29 0 -48 -20t-19 -49q0 -30 19 -49.5t48 -19.5t48 19.5t19 49.5q0 29 -19 49t-48 20zM91 0l442 700h90l-443 -700h-89z" />
    <glyph glyph-name="perthousand.lnum" horiz-adv-x="1080" 
d="M891 214q-29 0 -47.5 -19.5t-18.5 -49.5t18.5 -49.5t47.5 -19.5t48.5 19.5t19.5 49.5t-19.5 49.5t-48.5 19.5zM733 144q0 67 45.5 111.5t113.5 44.5t113 -43.5t45 -110.5q0 -68 -45.5 -112t-114.5 -44q-68 0 -112.5 43t-44.5 111zM526 214q-29 0 -48 -19.5t-19 -49.5
t19 -49.5t48 -19.5t48 19.5t19 49.5t-19 49.5t-48 19.5zM527 300q68 0 112.5 -43.5t44.5 -110.5q0 -68 -45.5 -112t-113.5 -44q-69 0 -113.5 43t-44.5 111q0 67 46 111.5t114 44.5zM189 710q69 0 113.5 -43t44.5 -111t-45.5 -112.5t-114.5 -44.5q-68 0 -112.5 43.5
t-44.5 111.5t45.5 112t113.5 44zM188 624q-29 0 -48 -20t-19 -49q0 -30 19 -49.5t48 -19.5t48 19.5t19 49.5q0 29 -19 49t-48 20zM91 0l442 700h90l-443 -700h-89z" />
    <glyph glyph-name="numbersignsuperior" horiz-adv-x="325" 
d="M139 531l-9 -82h57l9 82h-57zM167 280l14 116h-57l-14 -116h-57l13 116h-46v53h52l9 82h-43v53h49l14 116h57l-13 -116h57l13 116h58l-14 -116h46v-53h-52l-9 -82h43v-53h-49l-13 -116h-58z" />
    <glyph glyph-name="centsuperior" horiz-adv-x="318" 
d="M201 516h87v-6q0 -49 -27 -81.5t-73 -40.5v-52h-55v52q-47 7 -75 38.5t-28 83.5v68q0 51 28 83t75 40v53h55v-53q46 -7 73 -38.5t27 -81.5v-4h-87v6q0 21 -11 33t-29 12t-29.5 -12t-11.5 -33v-76q0 -21 11.5 -33t29.5 -12t29 12t11 33v9z" />
    <glyph glyph-name="dollarsuperior" horiz-adv-x="318" 
d="M130 462q-96 47 -96 128q0 44 26.5 73.5t71.5 37.5v53h56v-53q45 -7 71.5 -39t26.5 -82v-9h-87v16q0 19 -10.5 30.5t-28.5 11.5q-17 0 -27 -10t-10 -26q0 -20 15.5 -35.5t54.5 -34.5q95 -49 95 -130q0 -46 -27.5 -76.5t-72.5 -38.5v-52h-56v52q-47 7 -74.5 40t-27.5 85
v15h87v-22q0 -20 11.5 -32.5t30.5 -12.5q18 0 29 10.5t11 27.5q0 20 -15.5 37t-53.5 36z" />
    <glyph glyph-name="sterlingsuperior" horiz-adv-x="332" 
d="M244 456h-99v-98h153v-78h-243v176h-45v55h45v65q0 59 36 94.5t92 35.5q55 0 89.5 -34t34.5 -92v-9h-87v13q0 41 -37 41q-38 0 -38 -41v-73h99v-55z" />
    <glyph glyph-name="Eurosuperior" horiz-adv-x="332" 
d="M220 394v10h87v-6q0 -58 -34.5 -91t-90.5 -33q-57 0 -92 34t-35 94v27h-45v44h45v34h-45v44h45v25q0 60 35.5 95t92.5 35q56 0 90 -32.5t34 -89.5v-9h-87v11q0 42 -37 42q-38 0 -38 -42v-35h129v-44h-129v-34h117v-44h-117v-35q0 -42 38 -42q37 0 37 42z" />
    <glyph glyph-name="yensuperior" horiz-adv-x="344" 
d="M126 280v112h-103v47h103v25l-6 12h-97v47h74l-87 177h104l60 -151l62 151h98l-86 -177h74v-47h-97l-6 -12v-25h103v-47h-103v-112h-93z" />
    <glyph glyph-name="florinsuperior" horiz-adv-x="302" 
d="M148 184h-90l21 266h-69v55h73l6 75q4 58 38.5 92t84.5 34q23 0 43 -5t29 -9l8 -5l-28 -73q-19 9 -44 9q-39 0 -42 -45l-6 -73h99v-55h-104z" />
    <glyph glyph-name="percentsuperior" horiz-adv-x="460" 
d="M127 650q-17 0 -27.5 -11t-10.5 -27q0 -17 10.5 -27.5t27.5 -10.5q16 0 26.5 10.5t10.5 27.5q0 16 -10.5 27t-26.5 11zM127 706q42 0 69.5 -26t27.5 -68q0 -41 -28 -68t-70 -27q-41 0 -68.5 26.5t-27.5 67.5t28 68t69 27zM334 408q-17 0 -28 -11t-11 -28t11 -27.5
t28 -10.5q16 0 26.5 11t10.5 27q0 17 -10.5 28t-26.5 11zM334 464q41 0 68.5 -26.5t27.5 -67.5t-28 -68.5t-69 -27.5t-68.5 27t-27.5 68t28 68t69 27zM68 280l265 420h59l-265 -420h-59z" />
    <glyph glyph-name="perthousandsuperior" horiz-adv-x="678" 
d="M127 650q-17 0 -27.5 -11t-10.5 -27q0 -17 10.5 -27.5t27.5 -10.5q16 0 26.5 10.5t10.5 27.5q0 16 -10.5 27t-26.5 11zM127 706q42 0 69.5 -26t27.5 -68q0 -41 -28 -68t-70 -27q-41 0 -68.5 26.5t-27.5 67.5t28 68t69 27zM334 408q-17 0 -28 -11t-11 -28t11 -27.5
t28 -10.5q16 0 26.5 11t10.5 27q0 17 -10.5 28t-26.5 11zM334 464q41 0 68.5 -26.5t27.5 -67.5t-28 -68.5t-69 -27.5t-68.5 27t-27.5 68t28 68t69 27zM551 408q-17 0 -27.5 -11t-10.5 -28t10.5 -27.5t27.5 -10.5q16 0 26.5 11t10.5 27q0 17 -10.5 28t-26.5 11zM551 464
q42 0 69.5 -26.5t27.5 -67.5t-28.5 -68.5t-69.5 -27.5t-68.5 27t-27.5 68t28 68t69 27zM68 280l265 420h59l-265 -420h-59z" />
    <glyph glyph-name="G.ss01" horiz-adv-x="570" 
d="M520 379v-311l-8.5 -8.5t-26.5 -19t-45 -23.5t-63.5 -18.5t-82.5 -8.5q-111 0 -177.5 63t-66.5 171v250q0 107 66.5 171.5t170.5 64.5q105 0 169 -62.5t64 -170.5v-15h-141v16q0 50 -25 78.5t-69 28.5q-43 0 -68 -28.5t-25 -78.5v-251q0 -56 27.5 -85.5t79.5 -29.5
q28 0 51 7t32 15l8 7v136h-102v102h232z" />
    <glyph glyph-name="Gbreve.ss01" horiz-adv-x="570" 
d="M520 379v-311l-8.5 -8.5t-26.5 -19t-45 -23.5t-63.5 -18.5t-82.5 -8.5q-111 0 -177.5 63t-66.5 171v250q0 107 66.5 171.5t170.5 64.5q105 0 169 -62.5t64 -170.5v-15h-141v16q0 50 -25 78.5t-69 28.5q-43 0 -68 -28.5t-25 -78.5v-251q0 -56 27.5 -85.5t79.5 -29.5
q28 0 51 7t32 15l8 7v136h-102v102h232zM139 920h88v-32q0 -26 15.5 -42.5t42.5 -16.5t42 16.5t15 42.5v32h89v-26q0 -63 -41 -102.5t-105 -39.5q-65 0 -105.5 39t-40.5 102v27z" />
    <glyph glyph-name="Gcommaaccent.ss01" horiz-adv-x="570" 
d="M520 379v-311l-8.5 -8.5t-26.5 -19t-45 -23.5t-63.5 -18.5t-82.5 -8.5q-111 0 -177.5 63t-66.5 171v250q0 107 66.5 171.5t170.5 64.5q105 0 169 -62.5t64 -170.5v-15h-141v16q0 50 -25 78.5t-69 28.5q-43 0 -68 -28.5t-25 -78.5v-251q0 -56 27.5 -85.5t79.5 -29.5
q28 0 51 7t32 15l8 7v136h-102v102h232zM167 -218l56 168h137l-93 -168h-100z" />
    <glyph glyph-name="Gdotaccent.ss01" horiz-adv-x="570" 
d="M520 379v-311l-8.5 -8.5t-26.5 -19t-45 -23.5t-63.5 -18.5t-82.5 -8.5q-111 0 -177.5 63t-66.5 171v250q0 107 66.5 171.5t170.5 64.5q105 0 169 -62.5t64 -170.5v-15h-141v16q0 50 -25 78.5t-69 28.5q-43 0 -68 -28.5t-25 -78.5v-251q0 -56 27.5 -85.5t79.5 -29.5
q28 0 51 7t32 15l8 7v136h-102v102h232zM285 903q30 0 49.5 -20t19.5 -50t-20 -50t-50 -20q-31 0 -50.5 19.5t-19.5 50.5q0 30 20 50t51 20z" />
    <glyph glyph-name="Gcircumflex.ss01" horiz-adv-x="570" 
d="M520 379v-311l-8.5 -8.5t-26.5 -19t-45 -23.5t-63.5 -18.5t-82.5 -8.5q-111 0 -177.5 63t-66.5 171v250q0 107 66.5 171.5t170.5 64.5q105 0 169 -62.5t64 -170.5v-15h-141v16q0 50 -25 78.5t-69 28.5q-43 0 -68 -28.5t-25 -78.5v-251q0 -56 27.5 -85.5t79.5 -29.5
q28 0 51 7t32 15l8 7v136h-102v102h232zM112 752l118 168h107l120 -168h-108l-68 84l-68 -84h-101z" />
    <glyph glyph-name="a.ss01" horiz-adv-x="520" 
d="M336 200v117q0 43 -22 67.5t-59 24.5t-59 -24.5t-22 -67.5v-117q0 -43 22 -67.5t59 -24.5t59 24.5t22 67.5zM470 517v-517h-118l-4 53q-45 -63 -130 -63q-86 0 -132 49.5t-46 141.5v151q0 93 48 144t133 51q84 0 127 -60l4 50h118z" />
    <glyph glyph-name="agrave.ss01" horiz-adv-x="520" 
d="M336 200v117q0 43 -22 67.5t-59 24.5t-59 -24.5t-22 -67.5v-117q0 -43 22 -67.5t59 -24.5t59 24.5t22 67.5zM470 517v-517h-118l-4 53q-45 -63 -130 -63q-86 0 -132 49.5t-46 141.5v151q0 93 48 144t133 51q84 0 127 -60l4 50h118zM288 740l56 -168h-100l-93 168h137z
" />
    <glyph glyph-name="aacute.ss01" horiz-adv-x="520" 
d="M336 200v117q0 43 -22 67.5t-59 24.5t-59 -24.5t-22 -67.5v-117q0 -43 22 -67.5t59 -24.5t59 24.5t22 67.5zM470 517v-517h-118l-4 53q-45 -63 -130 -63q-86 0 -132 49.5t-46 141.5v151q0 93 48 144t133 51q84 0 127 -60l4 50h118zM219 572l56 168h137l-93 -168h-100z
" />
    <glyph glyph-name="acircumflex.ss01" horiz-adv-x="520" 
d="M336 200v117q0 43 -22 67.5t-59 24.5t-59 -24.5t-22 -67.5v-117q0 -43 22 -67.5t59 -24.5t59 24.5t22 67.5zM470 517v-517h-118l-4 53q-45 -63 -130 -63q-86 0 -132 49.5t-46 141.5v151q0 93 48 144t133 51q84 0 127 -60l4 50h118zM99 572l118 168h107l120 -168h-108
l-68 84l-68 -84h-101z" />
    <glyph glyph-name="atilde.ss01" horiz-adv-x="520" 
d="M336 200v117q0 43 -22 67.5t-59 24.5t-59 -24.5t-22 -67.5v-117q0 -43 22 -67.5t59 -24.5t59 24.5t22 67.5zM470 517v-517h-118l-4 53q-45 -63 -130 -63q-86 0 -132 49.5t-46 141.5v151q0 93 48 144t133 51q84 0 127 -60l4 50h118zM189 587l-72 4q0 5 0.5 14t6 31t15 39
t30 31t48.5 14q22 0 40.5 -9.5t28.5 -20.5t23 -20.5t26 -9.5q12 0 19.5 12.5t9.5 25.5l1 12l72 -4q0 -5 -0.5 -14t-6 -31t-15 -39t-30 -31t-48.5 -14t-49 14.5t-37 29.5t-32 15q-12 0 -19.5 -12t-9.5 -24z" />
    <glyph glyph-name="adieresis.ss01" horiz-adv-x="520" 
d="M336 200v117q0 43 -22 67.5t-59 24.5t-59 -24.5t-22 -67.5v-117q0 -43 22 -67.5t59 -24.5t59 24.5t22 67.5zM470 517v-517h-118l-4 53q-45 -63 -130 -63q-86 0 -132 49.5t-46 141.5v151q0 93 48 144t133 51q84 0 127 -60l4 50h118zM368 724q30 0 50 -20t20 -50
q0 -31 -20 -50.5t-50 -19.5q-31 0 -50.5 19.5t-19.5 49.5t20 50.5t50 20.5zM175 724q30 0 49.5 -20t19.5 -50q0 -31 -20 -50.5t-50 -19.5q-31 0 -50 19.5t-19 49.5t20 50.5t50 20.5z" />
    <glyph glyph-name="aring.ss01" horiz-adv-x="520" 
d="M336 200v117q0 43 -22 67.5t-59 24.5t-59 -24.5t-22 -67.5v-117q0 -43 22 -67.5t59 -24.5t59 24.5t22 67.5zM470 517v-517h-118l-4 53q-45 -63 -130 -63q-86 0 -132 49.5t-46 141.5v151q0 93 48 144t133 51q84 0 127 -60l4 50h118zM272 769q44 0 72.5 -27t28.5 -69
t-28.5 -69t-72.5 -27t-72.5 27t-28.5 69t28.5 69t72.5 27zM272 629q19 0 31.5 13t12.5 31t-12.5 30.5t-31.5 12.5t-31.5 -12.5t-12.5 -30.5t12.5 -31t31.5 -13z" />
    <glyph glyph-name="abreve.ss01" horiz-adv-x="520" 
d="M336 200v117q0 43 -22 67.5t-59 24.5t-59 -24.5t-22 -67.5v-117q0 -43 22 -67.5t59 -24.5t59 24.5t22 67.5zM470 517v-517h-118l-4 53q-45 -63 -130 -63q-86 0 -132 49.5t-46 141.5v151q0 93 48 144t133 51q84 0 127 -60l4 50h118zM129 740h88v-32q0 -26 15.5 -42.5
t42.5 -16.5t42 16.5t15 42.5v32h89v-26q0 -63 -41 -102.5t-105 -39.5q-65 0 -105.5 39t-40.5 102v27z" />
    <glyph glyph-name="amacron.ss01" horiz-adv-x="520" 
d="M336 200v117q0 43 -22 67.5t-59 24.5t-59 -24.5t-22 -67.5v-117q0 -43 22 -67.5t59 -24.5t59 24.5t22 67.5zM470 517v-517h-118l-4 53q-45 -63 -130 -63q-86 0 -132 49.5t-46 141.5v151q0 93 48 144t133 51q84 0 127 -60l4 50h118zM118 598v82h315v-82h-315z" />
    <glyph glyph-name="aogonek.ss01" horiz-adv-x="520" 
d="M470 517v-517h-52q-22 -13 -22 -45q0 -24 17 -39t45 -15q11 0 21.5 2t14.5 4l5 2l11 -78q-22 -16 -65 -16q-58 0 -97.5 34t-39.5 89q0 54 42 90l-2 25q-45 -63 -130 -63q-86 0 -132 49.5t-46 141.5v151q0 93 48 144t133 51q84 0 127 -60l4 50h118zM336 200v117
q0 43 -22 67.5t-59 24.5t-59 -24.5t-22 -67.5v-117q0 -43 22 -67.5t59 -24.5t59 24.5t22 67.5z" />
    <glyph glyph-name="aringacute.ss01" horiz-adv-x="520" 
d="M470 517v-517h-118l-4 53q-45 -63 -130 -63q-86 0 -132 49.5t-46 141.5v151q0 75 32.5 123.5t91.5 64.5q-18 22 -18 58q0 34 20 59t53 33l23 70h137l-55 -99q24 -26 24 -63q0 -49 -37 -76q25 -17 37 -35l4 50h118zM336 200v117q0 43 -22 67.5t-59 24.5t-59 -24.5
t-22 -67.5v-117q0 -43 22 -67.5t59 -24.5t59 24.5t22 67.5zM247 534q19 0 31.5 13t12.5 31t-12.5 30.5t-31.5 12.5t-31.5 -12.5t-12.5 -30.5t12.5 -31t31.5 -13z" />
    <glyph glyph-name="K.ss01" horiz-adv-x="550" 
d="M60 0v700h142v-313l167 313h161l-174 -301l194 -399h-157l-132 276l-59 -95v-181h-142z" />
    <glyph glyph-name="Kcommaaccent.ss01" horiz-adv-x="550" 
d="M60 0v700h142v-313l167 313h161l-174 -301l194 -399h-157l-132 276l-59 -95v-181h-142zM172 -218l56 168h137l-93 -168h-100z" />
    <glyph glyph-name="k.ss01" horiz-adv-x="505" 
d="M50 0v700h134v-390l152 207h164l-161 -209l171 -308h-159l-112 205l-55 -67v-138h-134z" />
    <glyph glyph-name="kcommaaccent.ss01" horiz-adv-x="505" 
d="M50 0v700h134v-390l152 207h164l-161 -209l171 -308h-159l-112 205l-55 -67v-138h-134zM142 -218l56 168h137l-93 -168h-100z" />
    <glyph glyph-name="Sarcasm" horiz-adv-x="575" 
d="M535 670l-142 -455l-93 26l86 469zM181 215l-141 455l148 40l86 -469zM288 158q36 0 59.5 -24t23.5 -60t-23.5 -60t-59.5 -24q-37 0 -60.5 24t-23.5 60t23.5 60t60.5 24z" />
    </font>
</defs>
</svg>
