<?xml version="1.0" standalone="no"?>
<!DOCTYPE svg PUBLIC "-//W3C//DTD SVG 1.1//EN" "http://www.w3.org/Graphics/SVG/1.1/DTD/svg11.dtd" >
<svg xmlns="http://www.w3.org/2000/svg" xmlns:xlink="http://www.w3.org/1999/xlink" version="1.1">
<metadata>
Created by FontForge 20170731 at Sun Mar  1 19:24:09 2015
 By Aleksey,,,
Copyright (c) 2014 by Richard Miller. All rights reserved.
</metadata>
<defs>
<font id="Uniform-ExtraCondensed4" horiz-adv-x="410" >
  <font-face 
    font-family="Uniform ExtCond 3"
    font-weight="400"
    font-stretch="extra-condensed"
    units-per-em="1000"
    panose-1="2 0 0 0 0 0 0 0 0 0"
    ascent="807"
    descent="-193"
    x-height="509"
    cap-height="700"
    bbox="-160 -222 876 930"
    underline-thickness="50"
    underline-position="-150"
    unicode-range="U+0020-FB02"
  />
<missing-glyph horiz-adv-x="691" 
d="M20 0v700h651v-700h-651zM381 350l159 158l-36 36l-159 -158l-158 159l-36 -36l158 -159l-159 -159l36 -36l159 159l159 -159l36 36z" />
    <glyph glyph-name="ellipsis" unicode="&#x2e;&#x2e;&#x2e;" horiz-adv-x="565" 
d="M82 85q20 0 34 -14.5t14 -33.5t-14 -33t-34 -14t-33.5 14t-13.5 33q0 20 14 34t33 14zM282 85q20 0 34 -14.5t14 -33.5t-14 -33t-34 -14t-33.5 14t-13.5 33q0 20 14 34t33 14zM482 85q20 0 34 -14.5t14 -33.5t-14 -33t-34 -14t-33.5 14t-13.5 33q0 20 14 34t33 14z" />
    <glyph glyph-name="ff" unicode="ff" horiz-adv-x="497" 
d="M477 704v-56q-16 3 -33 3q-67 0 -67 -79v-63h100v-55h-100v-454h-65v579q0 64 31.5 97.5t86.5 33.5q13 0 25 -1.5t17 -2.5zM20 454v55h65v75q0 62 30 94t83 32l52 -6v-56q-20 3 -37 3q-63 0 -63 -75v-67h100v-55h-100v-454h-65v454h-65z" />
    <glyph glyph-name="ft" unicode="ft" horiz-adv-x="512" 
d="M477 53v-57q-23 -6 -52 -6q-53 0 -83 32t-30 94v524h65v-131h105v-55h-105v-329q0 -75 64 -75zM20 454v55h65v75q0 62 30 94t83 32l52 -6v-56q-20 3 -37 3q-63 0 -63 -75v-67h100v-55h-100v-454h-65v454h-65z" />
    <glyph glyph-name="rf" unicode="rf" horiz-adv-x="484" 
d="M464 704v-56q-16 3 -33 3q-67 0 -67 -79v-63h100v-55h-100v-454h-65v579q0 64 31.5 97.5t86.5 33.5q13 0 25 -1.5t17 -2.5zM237 519v-69h-14q-47 0 -75 -28.5t-28 -84.5v-337h-65v509h56l4 -62q35 72 122 72z" />
    <glyph glyph-name="rt" unicode="rt" horiz-adv-x="499" 
d="M464 53v-57q-23 -6 -52 -6q-53 0 -83 32t-30 94v524h65v-131h105v-55h-105v-329q0 -75 64 -75zM237 519v-69h-14q-47 0 -75 -28.5t-28 -84.5v-337h-65v509h56l4 -62q35 72 122 72z" />
    <glyph glyph-name="tf" unicode="tf" horiz-adv-x="502" 
d="M482 704v-56q-16 3 -33 3q-67 0 -67 -79v-63h100v-55h-100v-454h-65v579q0 64 31.5 97.5t86.5 33.5q13 0 25 -1.5t17 -2.5zM20 454v55h65v131h65v-131h105v-55h-105v-329q0 -75 63 -75l37 3v-57q-23 -6 -52 -6q-53 0 -83 32t-30 94v338h-65z" />
    <glyph glyph-name="tt" unicode="tt" horiz-adv-x="517" 
d="M482 53v-57q-23 -6 -52 -6q-53 0 -83 32t-30 94v524h65v-131h105v-55h-105v-329q0 -75 64 -75zM20 454v55h65v131h65v-131h105v-55h-105v-329q0 -75 63 -75l37 3v-57q-23 -6 -52 -6q-53 0 -83 32t-30 94v338h-65z" />
    <glyph glyph-name="rtf" unicode="rtf" horiz-adv-x="716" 
d="M696 704v-56q-16 3 -33 3q-67 0 -67 -79v-63h100v-55h-100v-454h-65v579q0 64 31.5 97.5t86.5 33.5q13 0 25 -1.5t17 -2.5zM464 53v-57q-23 -6 -52 -6q-53 0 -83 32t-30 94v524h65v-131h105v-55h-105v-329q0 -75 64 -75zM237 519v-69h-14q-47 0 -75 -28.5t-28 -84.5v-337
h-65v509h56l4 -62q35 72 122 72z" />
    <glyph glyph-name=".notdef" horiz-adv-x="691" 
d="M20 0v700h651v-700h-651zM381 350l159 158l-36 36l-159 -158l-158 159l-36 -36l158 -159l-159 -159l36 -36l159 159l159 -159l36 36z" />
    <glyph glyph-name=".null" horiz-adv-x="0" 
 />
    <glyph glyph-name="nonmarkingreturn" horiz-adv-x="333" 
 />
    <glyph glyph-name="space" unicode=" " horiz-adv-x="187" 
 />
    <glyph glyph-name="exclam" unicode="!" horiz-adv-x="205" 
d="M80 207l-16 493h77l-16 -493h-45zM102 85q20 0 34 -14.5t14 -33.5t-14 -33t-34 -14t-33.5 14t-13.5 33q0 20 14 34t33 14z" />
    <glyph glyph-name="quotedbl" unicode="&#x22;" horiz-adv-x="266" 
d="M96 470h-56v230h56v-230zM226 470h-56v230h56v-230z" />
    <glyph glyph-name="numbersign" unicode="#" horiz-adv-x="395" 
d="M155 385l-14 -170h97l14 170h-97zM221 0l13 170h-97l-13 -170h-49l13 170h-68v45h72l14 170h-71v45h75l15 170h49l-15 -170h97l15 170h49l-15 -170h70v-45h-74l-14 -170h73v-45h-77l-13 -170h-49z" />
    <glyph glyph-name="dollar" unicode="$" horiz-adv-x="369" 
d="M104 195v-51q0 -43 22 -68t58 -25q35 0 57 24.5t22 67.5q0 53 -24 98t-75 100q-56 59 -85.5 110t-29.5 110t31 97.5t82 47.5v74h48v-73q52 -6 84.5 -44t32.5 -98v-45h-64v41q0 41 -20.5 64.5t-53.5 23.5q-34 0 -54.5 -23t-20.5 -64q0 -45 25.5 -86t78.5 -96
q55 -58 83 -113.5t28 -122.5q0 -61 -33 -101t-86 -49v-74h-48v73q-55 6 -88.5 45t-33.5 102v55h64z" />
    <glyph glyph-name="percent" unicode="%" horiz-adv-x="550" 
d="M152 610q52 0 86 -33.5t34 -85.5t-35 -86.5t-87 -34.5q-51 0 -85.5 34t-34.5 85t35.5 86t86.5 35zM64 0l370 600h52l-370 -600h-52zM151 420q29 0 49 20t20 50t-20 50.5t-49 20.5t-48.5 -20.5t-19.5 -50.5t19.5 -50t48.5 -20zM400 229q51 0 85.5 -33.5t34.5 -84.5
t-35.5 -86t-86.5 -35q-52 0 -86.5 33.5t-34.5 85.5q0 51 35.5 85.5t87.5 34.5zM399 39q29 0 48.5 20t19.5 51q0 30 -19.5 50t-48.5 20t-49 -20t-20 -50q0 -31 20 -51t49 -20z" />
    <glyph glyph-name="ampersand" unicode="&#x26;" horiz-adv-x="480" 
d="M332 578q0 -49 -26.5 -95t-82.5 -106l105 -160l80 183h62l-107 -237l107 -163h-72l-65 98q-55 -108 -151 -108q-67 0 -107 46t-40 120q0 58 27 110.5t86 117.5q-68 108 -68 192q0 58 36.5 96t92.5 38q55 0 89 -37.5t34 -94.5zM188 50q66 0 111 102l-118 181
q-81 -93 -81 -171q0 -49 24.5 -80.5t63.5 -31.5zM142 577q0 -70 50 -151q44 49 62 82.5t18 68.5q0 32 -17 54t-46 22q-31 0 -49 -21.5t-18 -54.5z" />
    <glyph glyph-name="quotesingle" unicode="'" horiz-adv-x="136" 
d="M96 470h-56v230h56v-230z" />
    <glyph glyph-name="parenleft" unicode="(" horiz-adv-x="283" 
d="M258 -61l-43 -39q-7 6 -18.5 17t-40.5 51t-51.5 87t-41 126t-18.5 166t17.5 165.5t42.5 128.5t50 88t43 55l17 16l43 -39q-6 -5 -16 -16t-35.5 -49t-45 -81.5t-35.5 -115t-16 -149.5t15 -148.5t37 -116.5t44 -80.5t37 -50.5z" />
    <glyph glyph-name="parenright" unicode=")" horiz-adv-x="283" 
d="M25 761l43 39q7 -6 18.5 -17t40.5 -51t51.5 -87t41 -126t18.5 -166t-17.5 -165.5t-42.5 -128.5t-50 -88t-42 -55l-18 -16l-43 39q6 5 16 16t35.5 49t45 81.5t35.5 115t16 149.5t-15 148.5t-37 116.5t-44 80.5t-37 50.5z" />
    <glyph glyph-name="asterisk" unicode="*" horiz-adv-x="376" 
d="M346 565l-125 -34l81 -102l-43 -31l-71 109l-71 -109l-43 31l80 102l-124 34l16 51l122 -47l-7 131h54l-7 -131l122 47z" />
    <glyph glyph-name="plus" unicode="+" horiz-adv-x="395" 
d="M224 546v-163h141v-53h-141v-163h-53v163h-141v53h141v163h53z" />
    <glyph glyph-name="comma" unicode="," horiz-adv-x="159" 
d="M94 -130h-54l6 230h73z" />
    <glyph glyph-name="hyphen" unicode="-" horiz-adv-x="300" 
d="M270 327h-240v59h240v-59z" />
    <glyph glyph-name="period" unicode="." horiz-adv-x="165" 
d="M82 85q20 0 34 -14.5t14 -33.5t-14 -33t-34 -14t-33.5 14t-13.5 33q0 20 14 34t33 14z" />
    <glyph glyph-name="slash" unicode="/" horiz-adv-x="340" 
d="M0 -80l280 860h60l-280 -860h-60z" />
    <glyph glyph-name="zero" unicode="0" horiz-adv-x="395" 
d="M117 555v-410q0 -43 22 -68t58 -25q35 0 57 25t22 68v410q0 43 -22 68t-57 25q-36 0 -58 -25t-22 -68zM52 140v417q0 68 42 110.5t104 42.5t103 -41t41 -109v-418q0 -68 -42 -110t-104 -42t-103 41t-41 109z" />
    <glyph glyph-name="one" unicode="1" horiz-adv-x="329" 
d="M15 548l181 152h53v-700h-66v615l-133 -110z" />
    <glyph glyph-name="two" unicode="2" horiz-adv-x="372" 
d="M327 0h-280v44l180 372q35 73 35 139q0 44 -21.5 68.5t-56.5 24.5q-34 0 -55 -24.5t-21 -68.5v-65h-63v69q0 67 40.5 109t100.5 42q61 0 101 -42.5t40 -111.5q0 -73 -47 -170l-157 -327h204v-59z" />
    <glyph glyph-name="three" unicode="3" horiz-adv-x="377" 
d="M324 568v-82q0 -81 -60 -119q68 -40 68 -129v-96q0 -68 -41.5 -110t-104.5 -42q-62 0 -101.5 41t-39.5 109v65h63v-62q0 -43 21.5 -67.5t57.5 -24.5t58 24.5t22 67.5v102q0 43 -22 67.5t-58 24.5h-37v55h37q31 0 51.5 23t20.5 62v87q0 39 -20.5 62t-51.5 23t-51 -23
t-20 -62v-54h-63v55q0 64 39 104.5t96 40.5q58 0 97 -39t39 -103z" />
    <glyph glyph-name="four" unicode="4" horiz-adv-x="395" 
d="M94 242h145v339zM39 244l199 456h63v-458h55v-55h-55v-187h-62v187h-200v57z" />
    <glyph glyph-name="five" unicode="5" horiz-adv-x="383" 
d="M60 320v380h258v-61h-199v-214q33 40 87 40q55 0 91 -38t36 -100v-188q0 -65 -42 -107t-102 -42q-59 0 -99 40.5t-40 105.5v64h64v-58q0 -41 21.5 -65.5t55.5 -24.5q33 0 54.5 24.5t21.5 65.5v176q0 41 -21.5 64.5t-54.5 23.5q-32 0 -52.5 -21t-20.5 -55v-10h-58z" />
    <glyph glyph-name="six" unicode="6" horiz-adv-x="395" 
d="M114 292v-145q0 -45 22.5 -70t60.5 -25q37 0 59.5 25t22.5 70v145q0 45 -22 69.5t-60 24.5t-60.5 -24.5t-22.5 -69.5zM49 143v130q0 76 27 138l124 289h66l-120 -276q26 21 63 21q62 0 99 -40.5t37 -109.5v-150q0 -69 -42.5 -112t-106.5 -43t-105.5 41.5t-41.5 111.5z
" />
    <glyph glyph-name="seven" unicode="7" horiz-adv-x="350" 
d="M69 0l183 639h-222v61h290v-46l-185 -654h-66z" />
    <glyph glyph-name="eight" unicode="8" horiz-adv-x="395" 
d="M120 561v-73q0 -41 21.5 -65.5t55.5 -24.5t55 24.5t21 65.5v73q0 41 -21 65t-55 24t-55.5 -24t-21.5 -65zM55 496v64q0 66 41.5 108t101.5 42q61 0 101 -40.5t40 -106.5v-64q0 -85 -64 -125q72 -39 72 -135v-92q0 -70 -43.5 -113.5t-107.5 -43.5q-65 0 -107 42.5
t-42 112.5v92q0 92 72 134q-64 39 -64 125zM112 248v-101q0 -46 23.5 -71.5t61.5 -25.5t61 25.5t23 71.5v101q0 45 -23 71t-61 26t-61.5 -26t-23.5 -71z" />
    <glyph glyph-name="nine" unicode="9" horiz-adv-x="390" 
d="M276 408v145q0 45 -22.5 70t-60.5 25q-37 0 -59.5 -25t-22.5 -70v-145q0 -45 22 -69.5t60 -24.5t60.5 24.5t22.5 69.5zM341 557v-130q0 -76 -27 -138l-124 -289h-66l120 276q-26 -21 -63 -21q-62 0 -99 40.5t-37 109.5v150q0 69 42.5 112t106.5 43t105.5 -41.5
t41.5 -111.5z" />
    <glyph glyph-name="colon" unicode=":" horiz-adv-x="165" 
d="M82 85q20 0 34 -14.5t14 -33.5t-14 -33t-34 -14t-33.5 14t-13.5 33q0 20 14 34t33 14zM82 519q20 0 34 -14.5t14 -33.5t-14 -33t-34 -14t-33.5 14t-13.5 33q0 20 14 34t33 14z" />
    <glyph glyph-name="semicolon" unicode=";" horiz-adv-x="165" 
d="M99 -130h-54l6 230h73zM82 519q20 0 34 -14.5t14 -33.5t-14 -33t-34 -14t-33.5 14t-13.5 33q0 20 14 34t33 14z" />
    <glyph glyph-name="less" unicode="&#x3c;" horiz-adv-x="395" 
d="M365 525l-277 -169l277 -168v-68l-335 207v55l335 208v-65z" />
    <glyph glyph-name="equal" unicode="=" horiz-adv-x="395" 
d="M365 407h-335v55h335v-55zM365 227h-335v55h335v-55z" />
    <glyph glyph-name="greater" unicode="&#x3e;" horiz-adv-x="395" 
d="M30 185l277 169l-277 168v68l335 -207v-55l-335 -208v65z" />
    <glyph glyph-name="question" unicode="?" horiz-adv-x="367" 
d="M184 85q20 0 34 -14.5t14 -33.5t-14 -33t-34 -14t-33.5 14t-13.5 33q0 20 14 34t33 14zM215 235v-28h-62v30q0 38 17 80.5t37.5 74.5t37.5 76.5t17 86.5q0 44 -21.5 68.5t-56.5 24.5q-34 0 -55 -24.5t-21 -68.5v-55h-63v56q0 70 40 112t101 42t101 -42.5t40 -111.5
q0 -45 -17.5 -91t-38.5 -78t-38.5 -73.5t-17.5 -78.5z" />
    <glyph glyph-name="at" unicode="@" horiz-adv-x="911" 
d="M398 379l-26 -184q-5 -30 10.5 -48.5t45.5 -18.5q58 0 66 59l26 184q5 30 -10.5 49t-45.5 19q-58 0 -66 -60zM311 185l28 203q7 49 38.5 77t78.5 28q59 0 81 -48l9 40h48l4 -5l-49 -342q-7 -49 18.5 -77t72.5 -28q79 0 129.5 67.5t50.5 170.5q0 163 -105 273.5
t-260 110.5q-153 0 -258.5 -111t-105.5 -271q0 -150 105.5 -257t258.5 -107q46 0 81 8l9 -51q-53 -11 -91 -11q-177 0 -298 121.5t-121 296.5q0 182 122 309.5t298 127.5q177 0 299 -127t122 -309q0 -130 -68 -212t-172 -82q-67 0 -104.5 37t-39.5 96q-32 -40 -86 -40
q-48 0 -75 31.5t-20 80.5z" />
    <glyph glyph-name="A" unicode="A" horiz-adv-x="375" 
d="M186 574l-66 -341h131zM220 700l145 -700h-71l-34 178h-149l-34 -178h-67l145 700h65z" />
    <glyph glyph-name="B" unicode="B" 
d="M127 642v-250h68q46 0 71.5 28.5t25.5 81.5v30q0 53 -25.5 81.5t-71.5 28.5h-68zM60 0v700h141q73 0 116 -43.5t43 -121.5v-18q0 -108 -80 -148q43 -17 66.5 -56t23.5 -96v-50q0 -77 -44.5 -122t-116.5 -45h-149zM127 338v-281h78q46 0 71.5 28.5t25.5 81.5v61
q0 53 -25.5 81.5t-71.5 28.5h-78z" />
    <glyph glyph-name="C" unicode="C" horiz-adv-x="398" 
d="M282 148v97h65v-99q0 -70 -42 -113t-106 -43q-65 0 -107 42t-42 113v407q0 71 43 114.5t108 43.5q64 0 105 -42t41 -112v-91h-65v87q0 44 -22.5 69.5t-59.5 25.5t-60 -25.5t-23 -69.5v-404q0 -45 23 -70t60 -25t59.5 25t22.5 70z" />
    <glyph glyph-name="D" unicode="D" horiz-adv-x="415" 
d="M127 639v-578h73q46 0 71.5 28.5t25.5 81.5v358q0 53 -25.5 81.5t-71.5 28.5h-73zM60 0v700h144q73 0 117 -44t44 -124v-362q0 -80 -45 -125t-119 -45h-141z" />
    <glyph glyph-name="E" unicode="E" horiz-adv-x="340" 
d="M310 0h-250v700h245v-64h-178v-241h148v-60h-148v-271h183v-64z" />
    <glyph glyph-name="F" unicode="F" horiz-adv-x="320" 
d="M270 299h-143v-299h-67v700h240v-64h-173v-274h143v-63z" />
    <glyph glyph-name="G" unicode="G" 
d="M212 300v55h148v-203q0 -73 -44.5 -117.5t-111.5 -44.5t-110.5 43.5t-43.5 116.5v397q0 73 44.5 118t111.5 45t110.5 -43.5t43.5 -116.5v-75h-68v72q0 46 -24 73t-63 27t-63.5 -27t-24.5 -73v-395q0 -47 24.5 -74t63.5 -27q40 0 64.5 27t24.5 74v148h-82z" />
    <glyph glyph-name="H" unicode="H" horiz-adv-x="425" 
d="M297 0v337h-170v-337h-67v700h67v-299h170v299h68v-700h-68z" />
    <glyph glyph-name="I" unicode="I" horiz-adv-x="200" 
d="M65 0v700h70v-700h-70z" />
    <glyph glyph-name="J" unicode="J" horiz-adv-x="228" 
d="M10 -8v63q8 -1 18 -1q76 0 76 84v562h69v-574q0 -64 -36.5 -100t-91.5 -36z" />
    <glyph glyph-name="K" unicode="K" horiz-adv-x="375" 
d="M60 0v700h67v-324l161 324h77l-176 -336l186 -364h-77l-171 344v-344h-67z" />
    <glyph glyph-name="L" unicode="L" horiz-adv-x="310" 
d="M290 0h-230v700h67v-636h163v-64z" />
    <glyph glyph-name="M" unicode="M" horiz-adv-x="540" 
d="M253 115l-129 416v-531h-64v700h69l143 -463l143 463h65v-700h-64v531l-130 -416h-33z" />
    <glyph glyph-name="N" unicode="N" horiz-adv-x="435" 
d="M314 0l-193 546v-546h-61v700h65l189 -534v534h61v-700h-61z" />
    <glyph glyph-name="O" unicode="O" 
d="M117 547v-394q0 -47 24.5 -73.5t63.5 -26.5t63 26.5t24 73.5v394q0 46 -24 73t-63 27t-63.5 -27t-24.5 -73zM50 150v397q0 73 44.5 118t111.5 45t110.5 -43.5t43.5 -116.5v-398q0 -73 -44.5 -117.5t-111.5 -44.5t-110.5 43.5t-43.5 116.5z" />
    <glyph glyph-name="P" unicode="P" horiz-adv-x="400" 
d="M127 639v-299h73q46 0 71.5 28.5t25.5 81.5v79q0 53 -25.5 81.5t-71.5 28.5h-73zM60 0v700h141q76 0 120 -44.5t44 -125.5v-78q0 -81 -45 -126.5t-121 -45.5h-72v-280h-67z" />
    <glyph glyph-name="Q" unicode="Q" 
d="M117 547v-394q0 -47 24.5 -73.5t63.5 -26.5t63 26.5t24 73.5v394q0 46 -24 73t-63 27t-63.5 -27t-24.5 -73zM274 -120l-41 113q-14 -3 -29 -3q-67 0 -110.5 43.5t-43.5 116.5v397q0 73 44.5 118t111.5 45t110.5 -43.5t43.5 -116.5v-398q0 -94 -71 -137l54 -135h-69z" />
    <glyph glyph-name="R" unicode="R" 
d="M127 639v-290h73q46 0 71.5 28.5t25.5 81.5v70q0 53 -25.5 81.5t-71.5 28.5h-73zM395 0h-71l-103 294q-7 -1 -26 -1h-68v-293h-67v700h141q76 0 120 -44.5t44 -125.5v-68q0 -110 -84 -148z" />
    <glyph glyph-name="S" unicode="S" horiz-adv-x="377" 
d="M100 195v-42q0 -47 24 -74.5t63 -27.5t63.5 26t24.5 71q0 51 -27 94.5t-90 102.5q-116 108 -116 211q0 69 43.5 111.5t107.5 42.5t105 -42t41 -112v-36h-64v32q0 45 -23 70.5t-60 25.5t-59.5 -24t-22.5 -67q0 -42 24 -80t78 -88q65 -61 97.5 -117.5t32.5 -122.5
q0 -71 -44.5 -115t-111.5 -44t-109 43t-42 116v46h65z" />
    <glyph glyph-name="T" unicode="T" horiz-adv-x="352" 
d="M332 636h-122v-636h-68v636h-122v64h312v-64z" />
    <glyph glyph-name="U" unicode="U" 
d="M288 700h67v-553q0 -71 -43.5 -114t-107.5 -43q-65 0 -107 42t-42 113v555h68v-552q0 -45 23 -70t60 -25t59.5 25t22.5 70v552z" />
    <glyph glyph-name="V" unicode="V" horiz-adv-x="365" 
d="M150 0l-140 700h72l102 -556l103 556h68l-140 -700h-65z" />
    <glyph glyph-name="W" unicode="W" horiz-adv-x="540" 
d="M127 0l-117 700h72l80 -542l83 542h53l83 -542l81 542h68l-117 -700h-62l-81 506l-81 -506h-62z" />
    <glyph glyph-name="X" unicode="X" horiz-adv-x="384" 
d="M364 700l-136 -336l146 -364h-75l-109 291l-109 -291h-71l145 361l-135 339h74l98 -266l100 266h72z" />
    <glyph glyph-name="Y" unicode="Y" horiz-adv-x="355" 
d="M143 0v282l-133 418h72l97 -336l98 336h68l-134 -420v-280h-68z" />
    <glyph glyph-name="Z" unicode="Z" horiz-adv-x="330" 
d="M300 0h-270v49l198 590h-183v61h255v-49l-199 -590h199v-61z" />
    <glyph glyph-name="bracketleft" unicode="[" horiz-adv-x="310" 
d="M275 -80h-210v860h210v-58h-145v-745h145v-57z" />
    <glyph glyph-name="backslash" unicode="\" horiz-adv-x="340" 
d="M60 780l280 -860h-60l-280 860h60z" />
    <glyph glyph-name="bracketright" unicode="]" horiz-adv-x="310" 
d="M245 -80h-210v57h145v745h-145v58h210v-860z" />
    <glyph glyph-name="asciicircum" unicode="^" horiz-adv-x="391" 
d="M287 360l-92 256l-92 -256h-68l134 340h53l134 -340h-69z" />
    <glyph glyph-name="underscore" unicode="_" horiz-adv-x="400" 
d="M400 -101h-400v51h400v-51z" />
    <glyph glyph-name="grave" unicode="`" horiz-adv-x="370" 
d="M191 740l59 -162h-53l-76 162h70z" />
    <glyph glyph-name="a" unicode="a" horiz-adv-x="380" 
d="M105 160v-22q0 -42 22 -67.5t58 -25.5t58 25.5t22 67.5v22q0 42 -22 67.5t-58 25.5t-58 -25.5t-22 -67.5zM40 135v23q0 65 37 106.5t93 41.5q60 0 95 -48v120q0 38 -20.5 61t-51.5 23t-51.5 -23t-20.5 -61v-21h-62v18q0 64 39 104t96 40q58 0 97 -39t39 -102v-378h-53
l-5 50q-36 -60 -105 -60q-56 0 -91.5 39.5t-35.5 105.5z" />
    <glyph glyph-name="b" unicode="b" horiz-adv-x="384" 
d="M274 139v231q0 41 -21.5 65t-55.5 24t-55.5 -24t-21.5 -65v-231q0 -41 21.5 -65t55.5 -24t55.5 24t21.5 65zM55 0v700h65v-229q34 48 95 48q55 0 89.5 -37t34.5 -98v-256q0 -61 -36 -99.5t-90 -38.5q-68 0 -99 53l-3 -43h-56z" />
    <glyph glyph-name="c" unicode="c" horiz-adv-x="363" 
d="M256 195h62v-60q0 -63 -39.5 -104t-96.5 -41q-59 0 -98 39.5t-39 102.5v242q0 64 40.5 104.5t98.5 40.5t96 -39t38 -103v-58h-62v55q0 39 -20.5 62t-52.5 23t-52.5 -23t-20.5 -62v-239q0 -39 20.5 -62t52.5 -23t52.5 23t20.5 62v60z" />
    <glyph glyph-name="d" unicode="d" horiz-adv-x="384" 
d="M110 370v-231q0 -41 21.5 -65t55.5 -24t55.5 24t21.5 65v231q0 41 -21.5 65t-55.5 24t-55.5 -24t-21.5 -65zM329 700v-700h-56l-3 46q-33 -56 -102 -56q-54 0 -88.5 37t-34.5 98v256q0 62 36 100t90 38q60 0 93 -44v225h65z" />
    <glyph glyph-name="e" unicode="e" horiz-adv-x="370" 
d="M110 374v-69h154v69q0 41 -21.5 65t-55.5 24t-55.5 -24t-21.5 -65zM264 139v26h61v-27q0 -66 -40.5 -107t-100.5 -41t-99.5 40t-39.5 105v237q0 65 41 106t101 41t99 -39.5t39 -105.5v-116h-215v-119q0 -41 21.5 -65t55.5 -24t55.5 24t21.5 65z" />
    <glyph glyph-name="f" unicode="f" horiz-adv-x="270" 
d="M20 454v55h65v75q0 62 30 94t83 32l52 -6v-56q-20 3 -37 3q-63 0 -63 -75v-67h100v-55h-100v-454h-65v454h-65z" />
    <glyph glyph-name="g" unicode="g" horiz-adv-x="384" 
d="M110 370v-188q0 -41 21.5 -65t55.5 -24q33 0 55 23.5t22 63.5v190q0 41 -21.5 65t-55.5 24t-55.5 -24t-21.5 -65zM329 509v-530q0 -65 -41.5 -107t-101.5 -42t-99 40t-39 106v16h62v-15q0 -41 21.5 -65t55.5 -24t55.5 24t21.5 65v105q-34 -47 -96 -47q-54 0 -88.5 37
t-34.5 98v211q0 62 36 100t90 38q65 0 99 -53l3 43h56z" />
    <glyph glyph-name="h" unicode="h" horiz-adv-x="385" 
d="M335 0h-65v372q0 41 -19.5 64t-52.5 23q-34 0 -56 -22t-22 -60v-377h-65v700h65v-235q34 54 99 54q51 0 83.5 -36t32.5 -99v-384z" />
    <glyph glyph-name="i" unicode="i" horiz-adv-x="187" 
d="M60 0v509h67v-509h-67zM93 700q19 0 33.5 -14t14.5 -34q0 -19 -14 -33t-34 -14q-19 0 -33 13.5t-14 33.5t14 34t33 14z" />
    <glyph glyph-name="j" unicode="j" horiz-adv-x="187" 
d="M-15 -166v57q10 -2 23 -2q24 0 38 15.5t14 44.5v560h67v-565q0 -53 -29.5 -83.5t-75.5 -30.5zM93 700q19 0 33.5 -14t14.5 -34q0 -19 -14 -33t-34 -14q-19 0 -33 13.5t-14 33.5t14 34t33 14z" />
    <glyph glyph-name="k" unicode="k" horiz-adv-x="355" 
d="M55 0v700h65v-413l139 222h76l-154 -230l164 -279h-77l-148 261v-261h-65z" />
    <glyph glyph-name="l" unicode="l" horiz-adv-x="187" 
d="M60 0v700h67v-700h-67z" />
    <glyph glyph-name="m" unicode="m" horiz-adv-x="588" 
d="M120 372v-372h-65v509h56l3 -48q33 58 102 58q73 0 101 -69q32 69 108 69q50 0 81.5 -36t31.5 -99v-384h-65v372q0 42 -18 64.5t-51 22.5t-54 -22t-21 -61v-376h-65v372q0 42 -18 64.5t-51 22.5t-54 -23t-21 -64z" />
    <glyph glyph-name="n" unicode="n" horiz-adv-x="385" 
d="M120 372v-372h-65v509h56l3 -49q34 59 105 59q51 0 83.5 -36t32.5 -99v-384h-65v372q0 41 -19.5 64t-52.5 23q-34 0 -56 -23t-22 -64z" />
    <glyph glyph-name="o" unicode="o" horiz-adv-x="374" 
d="M110 370v-231q0 -41 21.5 -65t55.5 -24t55.5 24t21.5 65v231q0 41 -21.5 65t-55.5 24t-55.5 -24t-21.5 -65zM45 136v234q0 66 41 107.5t102 41.5q60 0 100.5 -40.5t40.5 -105.5v-234q0 -65 -41.5 -107t-101.5 -42t-100.5 40t-40.5 106z" />
    <glyph glyph-name="p" unicode="p" horiz-adv-x="384" 
d="M274 139v231q0 41 -21.5 65t-55.5 24t-55.5 -24t-21.5 -65v-231q0 -41 21.5 -65t55.5 -24t55.5 24t21.5 65zM55 -160v669h56l3 -46q34 56 101 56q55 0 89.5 -37t34.5 -98v-256q0 -61 -36 -99.5t-90 -38.5q-60 0 -93 44v-194h-65z" />
    <glyph glyph-name="q" unicode="q" horiz-adv-x="384" 
d="M110 370v-231q0 -41 21.5 -65t55.5 -24t55.5 24t21.5 65v231q0 41 -21.5 65t-55.5 24t-55.5 -24t-21.5 -65zM329 509v-669h-65v197q-34 -47 -96 -47q-54 0 -88.5 37t-34.5 98v256q0 62 36 100t90 38q65 0 99 -53l3 43h56z" />
    <glyph glyph-name="r" unicode="r" horiz-adv-x="257" 
d="M237 519v-69h-14q-48 0 -75.5 -29.5t-27.5 -87.5v-333h-65v509h56l4 -62q35 72 122 72z" />
    <glyph glyph-name="s" unicode="s" horiz-adv-x="351" 
d="M251 374v14q0 33 -20.5 53.5t-51.5 20.5t-51.5 -20t-20.5 -52q0 -31 20 -53.5t68 -46.5q61 -29 91 -67t30 -93q0 -61 -41 -100.5t-101 -39.5t-99.5 38t-39.5 101v16h62v-15q0 -38 21.5 -60t55.5 -22t55.5 22t21.5 59q0 34 -22 59.5t-78 52.5q-109 54 -109 149
q0 56 39.5 92.5t97.5 36.5t96 -36.5t38 -93.5v-15h-62z" />
    <glyph glyph-name="t" unicode="t" horiz-adv-x="285" 
d="M20 454v55h65v131h65v-131h105v-55h-105v-329q0 -75 63 -75l37 3v-57q-23 -6 -52 -6q-53 0 -83 32t-30 94v338h-65z" />
    <glyph glyph-name="u" unicode="u" horiz-adv-x="385" 
d="M265 137v372h65v-509h-56l-3 49q-34 -59 -105 -59q-51 0 -83.5 36t-32.5 99v384h65v-372q0 -41 19.5 -64t52.5 -23q34 0 56 23t22 64z" />
    <glyph glyph-name="v" unicode="v" horiz-adv-x="320" 
d="M130 0l-120 509h69l83 -396l83 396h65l-120 -509h-60z" />
    <glyph glyph-name="w" unicode="w" horiz-adv-x="475" 
d="M116 0l-106 509h68l69 -380l70 380h45l70 -380l68 380h65l-107 -509h-56l-65 359l-65 -359h-56z" />
    <glyph glyph-name="x" unicode="x" horiz-adv-x="342" 
d="M322 509l-118 -243l128 -266h-68l-94 207l-94 -207h-66l127 263l-117 246h69l83 -186l84 186h66z" />
    <glyph glyph-name="y" unicode="y" horiz-adv-x="320" 
d="M130 0l-120 509h69l83 -408l83 408h65l-124 -524q-20 -85 -51 -120t-74 -35l-31 4v54q7 -2 20 -2q30 0 48 23.5t32 90.5z" />
    <glyph glyph-name="z" unicode="z" horiz-adv-x="300" 
d="M30 44l171 409h-156v56h225v-43l-171 -410h171v-56h-240v44z" />
    <glyph glyph-name="braceleft" unicode="{" horiz-adv-x="355" 
d="M195 255v-199q0 -42 19 -61t61 -19h45v-56h-51q-139 0 -139 139v200q0 35 -14.5 49t-48.5 14h-32v56h32q34 0 48.5 14t14.5 49v200q0 139 139 139h51v-56h-45q-41 0 -60.5 -19t-19.5 -61v-199q0 -44 -19 -68.5t-50 -26.5q31 -2 50 -26.5t19 -68.5z" />
    <glyph glyph-name="bar" unicode="|" horiz-adv-x="259" 
d="M100 -100v900h59v-900h-59z" />
    <glyph glyph-name="braceright" unicode="}" horiz-adv-x="355" 
d="M160 445v199q0 42 -19 61t-61 19h-45v56h51q139 0 139 -139v-200q0 -35 14.5 -49t48.5 -14h32v-56h-32q-34 0 -48.5 -14t-14.5 -49v-200q0 -139 -139 -139h-51v56h45q41 0 60.5 19t19.5 61v199q0 44 19 68.5t50 26.5q-31 2 -50 26.5t-19 68.5z" />
    <glyph glyph-name="asciitilde" unicode="~" horiz-adv-x="395" 
d="M72 273h-52q0 5 0.5 13.5t6 29.5t14.5 37t29.5 29.5t48.5 13.5q33 0 60.5 -19t51 -37.5t47.5 -18.5q20 0 31 16.5t13 32.5l1 17h52q0 -5 -0.5 -13.5t-6 -29.5t-15 -37t-30 -29.5t-48.5 -13.5q-27 0 -49.5 11.5t-36.5 26t-33 26t-39 11.5t-31 -16.5t-12 -32.5z" />
    <glyph glyph-name="exclamdown" unicode="&#xa1;" horiz-adv-x="205" 
d="M125 493l16 -493h-77l16 493h45zM103 615q-19 0 -33.5 14.5t-14.5 33.5t14 33t34 14q19 0 33 -14t14 -33q0 -20 -14 -34t-33 -14z" />
    <glyph glyph-name="cent" unicode="&#xa2;" horiz-adv-x="373" 
d="M165 110v73q-51 8 -83 45.5t-32 94.5v242q0 56 32.5 94.5t82.5 46.5v74h48v-73q49 -8 79.5 -46t30.5 -94v-57h-62v55q0 38 -21 61.5t-52 23.5t-52 -23.5t-21 -61.5v-239q0 -39 20.5 -62t52.5 -23t52.5 23t20.5 62v59h62v-60q0 -56 -31 -94.5t-79 -46.5v-74h-48z" />
    <glyph glyph-name="sterling" unicode="&#xa3;" horiz-adv-x="413" 
d="M365 59v-59h-270v316h-75v45h75v199q0 68 41 109t102 41t100.5 -39.5t39.5 -106.5v-64h-65v59q0 43 -21 66.5t-55 23.5q-35 0 -56 -23.5t-21 -66.5v-198h130v-45h-130v-257h205z" />
    <glyph glyph-name="currency" unicode="&#xa4;" horiz-adv-x="509" 
d="M255 213q58 0 96.5 39.5t38.5 97.5t-38.5 97.5t-96.5 39.5t-96.5 -39.5t-38.5 -97.5t38.5 -97.5t96.5 -39.5zM103 473l-68 66l35 35l69 -66q51 37 117 37q64 0 115 -36l68 65l35 -35l-67 -63q45 -55 45 -125q0 -71 -45 -126l67 -64l-35 -35l-69 65q-50 -36 -116 -36
t-117 37l-67 -66l-35 35l67 64q-44 50 -44 124q0 73 45 124z" />
    <glyph glyph-name="yen" unicode="&#xa5;" horiz-adv-x="385" 
d="M158 0v208h-113v44h113v72l-3 10h-110v44h94l-114 322h72l97 -306l98 306h68l-116 -322h96v-44h-110l-4 -12v-70h114v-44h-114v-208h-68z" />
    <glyph glyph-name="brokenbar" unicode="&#xa6;" horiz-adv-x="259" 
d="M159 800v-333h-59v333h59zM100 -100v332h59v-332h-59z" />
    <glyph glyph-name="section" unicode="&#xa7;" horiz-adv-x="470" 
d="M309 -35q0 42 -26 73t-83 66q-80 49 -117.5 93.5t-37.5 102.5q0 52 30 89.5t78 52.5q-58 60 -58 130q0 61 41.5 99.5t104.5 38.5q62 0 101.5 -38t39.5 -100v-25h-63v23q0 37 -22 60t-57 23t-57 -21.5t-22 -57.5q0 -41 25.5 -72t83.5 -67q80 -49 117.5 -93t37.5 -102
q0 -53 -30 -90t-79 -52q59 -61 59 -131q0 -60 -42 -98.5t-104 -38.5t-101.5 37.5t-39.5 99.5v25h63v-22q0 -38 22 -61t57 -23t57 21.5t22 57.5zM226 386l-23 15q-39 -3 -65.5 -30t-26.5 -67q0 -41 29 -72.5t104 -77.5l23 -15q38 2 65 29.5t27 67.5q0 41 -29 72.5t-104 77.5z
" />
    <glyph glyph-name="dieresis" unicode="&#xa8;" horiz-adv-x="510" 
d="M330 701q19 0 31.5 -13t12.5 -32t-12.5 -31.5t-31.5 -12.5t-32 12.5t-13 31.5t13 32t32 13zM181 701q19 0 31.5 -13t12.5 -32t-12.5 -31.5t-31.5 -12.5t-32 12.5t-13 31.5t13 32t32 13z" />
    <glyph glyph-name="copyright" unicode="&#xa9;" horiz-adv-x="786" 
d="M519 260l39 -33q-2 -3 -6 -8t-18 -18t-31 -23t-44.5 -18t-57.5 -8q-88 0 -143.5 56t-55.5 140t57.5 142t144.5 58q29 0 55.5 -7t43 -17t29 -20t18.5 -17l5 -7l-41 -34q-4 5 -12 13.5t-36 22t-61 13.5q-61 0 -103.5 -41.5t-42.5 -103.5t42.5 -103.5t103.5 -41.5
q22 0 41.5 5.5t32.5 13.5t22.5 16.5t13.5 13.5zM395 710q154 0 257.5 -103t103.5 -255t-105.5 -257t-259.5 -105t-257.5 103t-103.5 255t105.5 257t259.5 105zM393 38q131 0 221 90t90 222t-90 222t-221 90t-221.5 -90t-90.5 -222t90.5 -222t221.5 -90z" />
    <glyph glyph-name="ordfeminine" unicode="&#xaa;" horiz-adv-x="272" 
d="M91 485v-15q0 -23 12 -36.5t33 -13.5t33 13.5t12 36.5v15q0 23 -12 37t-33 14t-33 -14t-12 -37zM40 470v12q0 41 23.5 66.5t59.5 25.5q37 0 58 -23v66q0 19 -10.5 30.5t-29.5 11.5t-29.5 -11.5t-10.5 -30.5v-13h-50v10q0 40 26 65t65 25q40 0 65 -24t25 -64v-230h-43
l-3 25q-20 -31 -64 -31q-36 0 -59 24.5t-23 65.5zM50 279v42h182v-42h-182z" />
    <glyph glyph-name="guillemotleft" unicode="&#xab;" horiz-adv-x="570" 
d="M269 512l-162 -161l162 -161l-38 -40l-201 187v25l201 188zM520 512l-162 -161l162 -161l-38 -40l-201 187v25l201 188z" />
    <glyph glyph-name="logicalnot" unicode="&#xac;" horiz-adv-x="395" 
d="M309 205v155h-279v54h335v-209h-56z" />
    <glyph glyph-name="registered" unicode="&#xae;" horiz-adv-x="408" 
d="M211 592h-35v-52h35q30 0 30 26t-30 26zM205 710q73 0 123 -49.5t50 -122.5t-50.5 -123.5t-124.5 -50.5q-73 0 -123 49.5t-50 122.5t50.5 123.5t124.5 50.5zM204 401q58 0 96.5 38.5t38.5 97.5t-38.5 97.5t-96.5 38.5t-97 -38.5t-39 -97.5t39 -97.5t97 -38.5zM141 453
v168h74q27 0 44 -15t17 -40q0 -37 -39 -51l46 -62h-41l-42 59h-24v-59h-35z" />
    <glyph glyph-name="macron" unicode="&#xaf;" horiz-adv-x="460" 
d="M105 636v49h250v-49h-250z" />
    <glyph glyph-name="degree" unicode="&#xb0;" horiz-adv-x="344" 
d="M172 479q37 0 61.5 26t24.5 64t-24.5 63.5t-61.5 25.5t-61.5 -25.5t-24.5 -63.5t24.5 -64t61.5 -26zM172 710q61 0 101.5 -40t40.5 -101t-40.5 -101.5t-101.5 -40.5t-101.5 40.5t-40.5 100.5q0 61 40.5 101.5t101.5 40.5z" />
    <glyph glyph-name="plusminus" unicode="&#xb1;" horiz-adv-x="395" 
d="M224 587v-146h141v-53h-141v-146h-53v146h-141v53h141v146h53zM365 112h-335v54h335v-54z" />
    <glyph glyph-name="twosuperior" unicode="&#xb2;" horiz-adv-x="238" 
d="M208 280h-177v36l105 208q22 42 22 85q0 50 -40 50t-40 -50v-35h-48v37q0 42 25.5 68.5t63.5 26.5q39 0 64 -26.5t25 -70.5q0 -46 -30 -106l-91 -178h121v-45z" />
    <glyph glyph-name="threesuperior" unicode="&#xb3;" horiz-adv-x="241" 
d="M207 616v-43q0 -48 -33 -73q37 -26 37 -78v-52q0 -43 -26 -69.5t-66 -26.5q-39 0 -64 25.5t-25 68.5v35h48v-33q0 -50 41 -50q42 0 42 50v58q0 51 -42 51h-22v40h22q37 0 37 45v51q0 45 -37 45q-16 0 -26 -12t-10 -33v-29h-49v28q0 41 24.5 66.5t61.5 25.5q38 0 62.5 -25
t24.5 -65z" />
    <glyph glyph-name="acute" unicode="&#xb4;" horiz-adv-x="370" 
d="M121 578l59 162h70l-76 -162h-53z" />
    <glyph glyph-name="mu" unicode="&#xb5;" horiz-adv-x="390" 
d="M55 509h65v-372q0 -41 19.5 -64t52.5 -23q34 0 56 23t22 64v372h65v-509h-56l-4 48q-32 -58 -95 -58q-35 0 -60 20v-170h-65v669z" />
    <glyph glyph-name="mu" unicode="&#x3bc;" horiz-adv-x="390" 
d="M55 509h65v-372q0 -41 19.5 -64t52.5 -23q34 0 56 23t22 64v372h65v-509h-56l-4 48q-32 -58 -95 -58q-35 0 -60 20v-170h-65v669z" />
    <glyph glyph-name="paragraph" unicode="&#xb6;" horiz-adv-x="521" 
d="M209 0v362h-10q-81 0 -125 48t-44 120q0 73 45 121.5t126 48.5h235v-700h-65v642h-97v-642h-65z" />
    <glyph glyph-name="periodcentered" unicode="&#xb7;" horiz-adv-x="165" 
d="M82 398q20 0 34 -14t14 -34q0 -19 -14 -33t-34 -14t-33.5 13.5t-13.5 33.5t14 34t33 14z" />
    <glyph glyph-name="cedilla" unicode="&#xb8;" horiz-adv-x="355" 
d="M170 0l30 24q3 -1 7.5 -3.5t16.5 -12t21.5 -20.5t17 -30.5t7.5 -41.5q0 -53 -34.5 -82t-83.5 -29q-12 0 -23.5 1.5t-17.5 3.5l-6 2v48q11 -6 39 -6q31 0 50.5 18.5t19.5 50.5q0 24 -11 43.5t-22 26.5z" />
    <glyph glyph-name="onesuperior" unicode="&#xb9;" horiz-adv-x="204" 
d="M10 609l106 91h43v-420h-51v355l-70 -59z" />
    <glyph glyph-name="ordmasculine" unicode="&#xba;" horiz-adv-x="268" 
d="M91 611v-136q0 -22 12 -34t31 -12t31 12t12 34v136q0 23 -12 35t-31 12t-31 -12t-12 -35zM40 475v135q0 43 27.5 69t67.5 26t66.5 -25.5t26.5 -67.5v-135q0 -43 -27.5 -69.5t-67.5 -26.5t-66.5 25.5t-26.5 68.5zM50 279v42h168v-42h-168z" />
    <glyph glyph-name="guillemotright" unicode="&#xbb;" horiz-adv-x="570" 
d="M50 188l162 161l-162 161l38 40l201 -187v-25l-201 -188zM301 188l162 161l-162 161l38 40l201 -187v-25l-201 -188z" />
    <glyph glyph-name="onequarter" unicode="&#xbc;" horiz-adv-x="564" 
d="M15 609l106 91h43v-420h-51v355l-70 -59zM391 150h77v181zM349 151l118 269h49v-270h33v-43h-33v-107h-48v107h-119v44zM85 0l407 700h53l-408 -700h-52z" />
    <glyph glyph-name="onehalf" unicode="&#xbd;" horiz-adv-x="616" 
d="M15 609l106 91h43v-420h-51v355l-70 -59zM596 0h-177v36l105 208q22 42 22 85q0 50 -40 50t-40 -50v-35h-48v37q0 42 25.5 68.5t63.5 26.5q39 0 64 -26.5t25 -70.5q0 -46 -30 -106l-91 -178h121v-45zM85 0l407 700h53l-408 -700h-52z" />
    <glyph glyph-name="threequarters" unicode="&#xbe;" horiz-adv-x="569" 
d="M354 151l118 269h49v-270h33v-43h-33v-107h-48v107h-119v44zM207 616v-43q0 -48 -33 -73q37 -26 37 -78v-52q0 -43 -26 -69.5t-66 -26.5q-39 0 -64 25.5t-25 68.5v35h48v-33q0 -50 41 -50q42 0 42 50v58q0 51 -42 51h-22v40h22q37 0 37 45v51q0 45 -37 45q-16 0 -26 -12
t-10 -33v-29h-49v28q0 41 24.5 66.5t61.5 25.5q38 0 62.5 -25t24.5 -65zM90 0l407 700h53l-408 -700h-52zM396 150h77v181z" />
    <glyph glyph-name="questiondown" unicode="&#xbf;" horiz-adv-x="367" 
d="M183 615q-19 0 -33.5 14.5t-14.5 33.5t14 33t34 14q19 0 33 -14t14 -33q0 -20 -14 -34t-33 -14zM152 465v28h62v-30q0 -38 -17 -80.5t-37.5 -74.5t-37.5 -76.5t-17 -86.5q0 -44 21.5 -68.5t56.5 -24.5q34 0 55 24.5t21 68.5v55h63v-56q0 -70 -40 -112t-101 -42t-101 42.5
t-40 111.5q0 45 17.5 91t38.5 78t38.5 73.5t17.5 78.5z" />
    <glyph glyph-name="Agrave" unicode="&#xc0;" horiz-adv-x="375" 
d="M150 920l59 -162h-53l-76 162h70zM186 574l-66 -341h131zM220 700l145 -700h-71l-34 178h-149l-34 -178h-67l145 700h65z" />
    <glyph glyph-name="Aacute" unicode="&#xc1;" horiz-adv-x="375" 
d="M166 758l59 162h70l-76 -162h-53zM186 574l-66 -341h131zM220 700l145 -700h-71l-34 178h-149l-34 -178h-67l145 700h65z" />
    <glyph glyph-name="Acircumflex" unicode="&#xc2;" horiz-adv-x="375" 
d="M67 758l93 162h55l92 -162h-55l-67 109l-65 -109h-53zM186 574l-66 -341h131zM220 700l145 -700h-71l-34 178h-149l-34 -178h-67l145 700h65z" />
    <glyph glyph-name="Atilde" unicode="&#xc3;" horiz-adv-x="375" 
d="M100 778h-45q0 4 0.5 10.5t4.5 22.5t11.5 28.5t24 23t38.5 10.5q26 0 45 -15.5t33 -31t30 -15.5q14 0 22.5 12.5t9.5 25.5l1 13h45q0 -4 -0.5 -10.5t-5 -23t-12 -29t-24 -23t-38.5 -10.5q-26 0 -44.5 15.5t-32.5 31t-30 15.5q-14 0 -22.5 -12.5t-9.5 -25.5zM186 574
l-66 -341h131zM220 700l145 -700h-71l-34 178h-149l-34 -178h-67l145 700h65z" />
    <glyph glyph-name="Adieresis" unicode="&#xc4;" horiz-adv-x="375" 
d="M263 871q19 0 31.5 -13t12.5 -32t-12.5 -31.5t-31.5 -12.5t-32 12.5t-13 31.5t13 32t32 13zM114 871q19 0 31.5 -13t12.5 -32t-12.5 -31.5t-31.5 -12.5t-32 12.5t-13 31.5t13 32t32 13zM186 574l-66 -341h131zM220 700l145 -700h-71l-34 178h-149l-34 -178h-67l145 700
h65z" />
    <glyph glyph-name="Aring" unicode="&#xc5;" horiz-adv-x="375" 
d="M187 930q39 0 64.5 -24.5t25.5 -61.5q0 -38 -25.5 -62.5t-64.5 -24.5t-64 24.5t-25 62.5q0 37 25 61.5t64 24.5zM187 796q21 0 34 13t13 35q0 21 -13.5 34t-33.5 13t-33 -13t-13 -34t13 -34.5t33 -13.5zM186 574l-66 -341h131zM220 700l145 -700h-71l-34 178h-149
l-34 -178h-67l145 700h65z" />
    <glyph glyph-name="AE" unicode="&#xc6;" horiz-adv-x="540" 
d="M136 233h124v412zM505 636h-178v-241h148v-60h-148v-271h183v-64h-250v178h-139l-54 -178h-67l217 700h288v-64z" />
    <glyph glyph-name="Ccedilla" unicode="&#xc7;" horiz-adv-x="397" 
d="M282 148v97h65v-99q0 -62 -33.5 -103.5t-86.5 -49.5q29 -31 29 -77q0 -53 -34.5 -82t-83.5 -29q-12 0 -23.5 1.5t-17.5 3.5l-6 2v48q11 -6 39 -6q31 0 50.5 18.5t19.5 50.5q0 44 -34 70q-52 10 -84 50t-32 102v407q0 71 43 114.5t108 43.5q64 0 105 -42t41 -112v-91h-65
v87q0 44 -22.5 69.5t-59.5 25.5t-60 -25.5t-23 -69.5v-404q0 -45 23 -70t60 -25t59.5 25t22.5 70z" />
    <glyph glyph-name="Egrave" unicode="&#xc8;" horiz-adv-x="340" 
d="M310 0h-250v700h245v-64h-178v-241h148v-60h-148v-271h183v-64zM156 920l59 -162h-53l-76 162h70z" />
    <glyph glyph-name="Eacute" unicode="&#xc9;" horiz-adv-x="340" 
d="M310 0h-250v700h245v-64h-178v-241h148v-60h-148v-271h183v-64zM156 758l59 162h70l-76 -162h-53z" />
    <glyph glyph-name="Ecircumflex" unicode="&#xca;" horiz-adv-x="340" 
d="M310 0h-250v700h245v-64h-178v-241h148v-60h-148v-271h183v-64zM63 758l93 162h55l92 -162h-55l-67 109l-65 -109h-53z" />
    <glyph glyph-name="Edieresis" unicode="&#xcb;" horiz-adv-x="340" 
d="M310 0h-250v700h245v-64h-178v-241h148v-60h-148v-271h183v-64zM257 871q19 0 31.5 -13t12.5 -32t-12.5 -31.5t-31.5 -12.5t-32 12.5t-13 31.5t13 32t32 13zM108 871q19 0 31.5 -13t12.5 -32t-12.5 -31.5t-31.5 -12.5t-32 12.5t-13 31.5t13 32t32 13z" />
    <glyph glyph-name="Igrave" unicode="&#xcc;" horiz-adv-x="200" 
d="M65 0v700h70v-700h-70zM65 920l59 -162h-53l-76 162h70z" />
    <glyph glyph-name="Iacute" unicode="&#xcd;" horiz-adv-x="200" 
d="M65 0v700h70v-700h-70zM76 758l59 162h70l-76 -162h-53z" />
    <glyph glyph-name="Icircumflex" unicode="&#xce;" horiz-adv-x="200" 
d="M65 0v700h70v-700h-70zM-20 758l93 162h55l92 -162h-55l-67 109l-65 -109h-53z" />
    <glyph glyph-name="Idieresis" unicode="&#xcf;" horiz-adv-x="200" 
d="M65 0v700h70v-700h-70zM175 871q19 0 31.5 -13t12.5 -32t-12.5 -31.5t-31.5 -12.5t-32 12.5t-13 31.5t13 32t32 13zM26 871q19 0 31.5 -13t12.5 -32t-12.5 -31.5t-31.5 -12.5t-32 12.5t-13 31.5t13 32t32 13z" />
    <glyph glyph-name="Eth" unicode="&#xd0;" horiz-adv-x="447" 
d="M160 639v-260h105v-47h-105v-271h72q46 0 72 28.5t26 81.5v358q0 53 -26 81.5t-72 28.5h-72zM92 0v332h-82v47h82v321h144q74 0 117.5 -44t43.5 -124v-362q0 -80 -45 -125t-118 -45h-142z" />
    <glyph glyph-name="Ntilde" unicode="&#xd1;" horiz-adv-x="435" 
d="M314 0l-193 546v-546h-61v700h65l189 -534v534h61v-700h-61zM130 778h-45q0 4 0.5 10.5t4.5 22.5t11.5 28.5t24 23t38.5 10.5q26 0 45 -15.5t33 -31t30 -15.5q14 0 22.5 12.5t9.5 25.5l1 13h45q0 -4 -0.5 -10.5t-5 -23t-12 -29t-24 -23t-38.5 -10.5q-26 0 -44.5 15.5
t-32.5 31t-30 15.5q-14 0 -22.5 -12.5t-9.5 -25.5z" />
    <glyph glyph-name="Ograve" unicode="&#xd2;" 
d="M175 920l59 -162h-53l-76 162h70zM117 547v-394q0 -47 24.5 -73.5t63.5 -26.5t63 26.5t24 73.5v394q0 46 -24 73t-63 27t-63.5 -27t-24.5 -73zM50 150v397q0 73 44.5 118t111.5 45t110.5 -43.5t43.5 -116.5v-398q0 -73 -44.5 -117.5t-111.5 -44.5t-110.5 43.5
t-43.5 116.5z" />
    <glyph glyph-name="Oacute" unicode="&#xd3;" 
d="M176 758l59 162h70l-76 -162h-53zM117 547v-394q0 -47 24.5 -73.5t63.5 -26.5t63 26.5t24 73.5v394q0 46 -24 73t-63 27t-63.5 -27t-24.5 -73zM50 150v397q0 73 44.5 118t111.5 45t110.5 -43.5t43.5 -116.5v-398q0 -73 -44.5 -117.5t-111.5 -44.5t-110.5 43.5
t-43.5 116.5z" />
    <glyph glyph-name="Ocircumflex" unicode="&#xd4;" 
d="M117 547v-394q0 -47 24.5 -73.5t63.5 -26.5t63 26.5t24 73.5v394q0 46 -24 73t-63 27t-63.5 -27t-24.5 -73zM50 150v397q0 73 44.5 118t111.5 45t110.5 -43.5t43.5 -116.5v-398q0 -73 -44.5 -117.5t-111.5 -44.5t-110.5 43.5t-43.5 116.5zM85 758l93 162h55l92 -162h-55
l-67 109l-65 -109h-53z" />
    <glyph glyph-name="Otilde" unicode="&#xd5;" 
d="M117 547v-394q0 -47 24.5 -73.5t63.5 -26.5t63 26.5t24 73.5v394q0 46 -24 73t-63 27t-63.5 -27t-24.5 -73zM50 150v397q0 73 44.5 118t111.5 45t110.5 -43.5t43.5 -116.5v-398q0 -73 -44.5 -117.5t-111.5 -44.5t-110.5 43.5t-43.5 116.5zM118 778h-45q0 4 0.5 10.5
t4.5 22.5t11.5 28.5t24 23t38.5 10.5q26 0 45 -15.5t33 -31t30 -15.5q14 0 22.5 12.5t9.5 25.5l1 13h45q0 -4 -0.5 -10.5t-5 -23t-12 -29t-24 -23t-38.5 -10.5q-26 0 -44.5 15.5t-32.5 31t-30 15.5q-14 0 -22.5 -12.5t-9.5 -25.5z" />
    <glyph glyph-name="Odieresis" unicode="&#xd6;" 
d="M117 547v-394q0 -47 24.5 -73.5t63.5 -26.5t63 26.5t24 73.5v394q0 46 -24 73t-63 27t-63.5 -27t-24.5 -73zM50 150v397q0 73 44.5 118t111.5 45t110.5 -43.5t43.5 -116.5v-398q0 -73 -44.5 -117.5t-111.5 -44.5t-110.5 43.5t-43.5 116.5zM280 871q19 0 31.5 -13
t12.5 -32t-12.5 -31.5t-31.5 -12.5t-32 12.5t-13 31.5t13 32t32 13zM131 871q19 0 31.5 -13t12.5 -32t-12.5 -31.5t-31.5 -12.5t-32 12.5t-13 31.5t13 32t32 13z" />
    <glyph glyph-name="multiply" unicode="&#xd7;" horiz-adv-x="395" 
d="M319 190l-121 124l-122 -124l-38 39l123 121l-123 121l38 38l122 -123l121 123l38 -38l-123 -121l123 -121z" />
    <glyph glyph-name="Oslash" unicode="&#xd8;" 
d="M370 730l-34 -89q24 -40 24 -91v-398q0 -73 -44.5 -117.5t-111.5 -44.5q-61 0 -101 35l-21 -55h-42l33 89q-23 37 -23 91v397q0 73 44.5 118t111.5 45q59 0 100 -35l21 55h43zM117 547v-373l162 430q-23 43 -74 43q-39 0 -63.5 -27t-24.5 -73zM205 52q39 0 63 27t24 73
v372l-163 -429q23 -43 76 -43z" />
    <glyph glyph-name="Ugrave" unicode="&#xd9;" 
d="M288 700h67v-553q0 -71 -43.5 -114t-107.5 -43q-65 0 -107 42t-42 113v555h68v-552q0 -45 23 -70t60 -25t59.5 25t22.5 70v552zM176 920l59 -162h-53l-76 162h70z" />
    <glyph glyph-name="Uacute" unicode="&#xda;" 
d="M288 700h67v-553q0 -71 -43.5 -114t-107.5 -43q-65 0 -107 42t-42 113v555h68v-552q0 -45 23 -70t60 -25t59.5 25t22.5 70v552zM186 758l59 162h70l-76 -162h-53z" />
    <glyph glyph-name="Ucircumflex" unicode="&#xdb;" 
d="M288 700h67v-553q0 -71 -43.5 -114t-107.5 -43q-65 0 -107 42t-42 113v555h68v-552q0 -45 23 -70t60 -25t59.5 25t22.5 70v552zM85 758l93 162h55l92 -162h-55l-67 109l-65 -109h-53z" />
    <glyph glyph-name="Udieresis" unicode="&#xdc;" 
d="M288 700h67v-553q0 -71 -43.5 -114t-107.5 -43q-65 0 -107 42t-42 113v555h68v-552q0 -45 23 -70t60 -25t59.5 25t22.5 70v552zM280 871q19 0 31.5 -13t12.5 -32t-12.5 -31.5t-31.5 -12.5t-32 12.5t-13 31.5t13 32t32 13zM131 871q19 0 31.5 -13t12.5 -32t-12.5 -31.5
t-31.5 -12.5t-32 12.5t-13 31.5t13 32t32 13z" />
    <glyph glyph-name="Yacute" unicode="&#xdd;" horiz-adv-x="355" 
d="M143 0v282l-133 418h72l97 -336l98 336h68l-134 -420v-280h-68zM161 758l59 162h70l-76 -162h-53z" />
    <glyph glyph-name="Thorn" unicode="&#xde;" horiz-adv-x="400" 
d="M127 511v-289h73q46 0 71.5 28.5t25.5 81.5v69q0 53 -25.5 81.5t-71.5 28.5h-73zM60 0v700h67v-129h74q76 0 120 -44.5t44 -125.5v-66q0 -81 -45.5 -127t-120.5 -46h-72v-162h-67z" />
    <glyph glyph-name="germandbls" unicode="&#xdf;" horiz-adv-x="388" 
d="M190 393h4q33 0 53.5 23t20.5 63v85q0 40 -20.5 63t-53.5 23t-53.5 -23t-20.5 -63v-564h-65v564q0 65 40 105.5t100 40.5t99 -39.5t39 -104.5v-75q0 -79 -58 -119q36 -16 57 -50.5t21 -80.5v-106q0 -64 -40 -104.5t-98 -40.5l-25 2v59q8 -1 21 -1q34 0 55.5 24t21.5 65
v107q0 41 -21.5 65t-55.5 24h-21v58z" />
    <glyph glyph-name="agrave" unicode="&#xe0;" horiz-adv-x="380" 
d="M105 160v-22q0 -42 22 -67.5t58 -25.5t58 25.5t22 67.5v22q0 42 -22 67.5t-58 25.5t-58 -25.5t-22 -67.5zM40 135v23q0 65 37 106.5t93 41.5q60 0 95 -48v120q0 38 -20.5 61t-51.5 23t-51.5 -23t-20.5 -61v-21h-62v18q0 64 39 104t96 40q58 0 97 -39t39 -102v-378h-53
l-5 50q-36 -60 -105 -60q-56 0 -91.5 39.5t-35.5 105.5zM175 740l59 -162h-53l-76 162h70z" />
    <glyph glyph-name="aacute" unicode="&#xe1;" horiz-adv-x="380" 
d="M105 160v-22q0 -42 22 -67.5t58 -25.5t58 25.5t22 67.5v22q0 42 -22 67.5t-58 25.5t-58 -25.5t-22 -67.5zM40 135v23q0 65 37 106.5t93 41.5q60 0 95 -48v120q0 38 -20.5 61t-51.5 23t-51.5 -23t-20.5 -61v-21h-62v18q0 64 39 104t96 40q58 0 97 -39t39 -102v-378h-53
l-5 50q-36 -60 -105 -60q-56 0 -91.5 39.5t-35.5 105.5zM174 578l59 162h70l-76 -162h-53z" />
    <glyph glyph-name="acircumflex" unicode="&#xe2;" horiz-adv-x="380" 
d="M105 160v-22q0 -42 22 -67.5t58 -25.5t58 25.5t22 67.5v22q0 42 -22 67.5t-58 25.5t-58 -25.5t-22 -67.5zM40 135v23q0 65 37 106.5t93 41.5q60 0 95 -48v120q0 38 -20.5 61t-51.5 23t-51.5 -23t-20.5 -61v-21h-62v18q0 64 39 104t96 40q58 0 97 -39t39 -102v-378h-53
l-5 50q-36 -60 -105 -60q-56 0 -91.5 39.5t-35.5 105.5zM72 578l93 162h55l92 -162h-55l-67 109l-65 -109h-53z" />
    <glyph glyph-name="atilde" unicode="&#xe3;" horiz-adv-x="380" 
d="M105 160v-22q0 -42 22 -67.5t58 -25.5t58 25.5t22 67.5v22q0 42 -22 67.5t-58 25.5t-58 -25.5t-22 -67.5zM40 135v23q0 65 37 106.5t93 41.5q60 0 95 -48v120q0 38 -20.5 61t-51.5 23t-51.5 -23t-20.5 -61v-21h-62v18q0 64 39 104t96 40q58 0 97 -39t39 -102v-378h-53
l-5 50q-36 -60 -105 -60q-56 0 -91.5 39.5t-35.5 105.5zM110 598h-45q0 4 0.5 10.5t4.5 22.5t11.5 28.5t24 23t38.5 10.5q26 0 45 -15.5t33 -31t30 -15.5q14 0 22.5 12.5t9.5 25.5l1 13h45q0 -4 -0.5 -10.5t-5 -23t-12 -29t-24 -23t-38.5 -10.5q-26 0 -44.5 15.5t-32.5 31
t-30 15.5q-14 0 -22.5 -12.5t-9.5 -25.5z" />
    <glyph glyph-name="adieresis" unicode="&#xe4;" horiz-adv-x="380" 
d="M105 160v-22q0 -42 22 -67.5t58 -25.5t58 25.5t22 67.5v22q0 42 -22 67.5t-58 25.5t-58 -25.5t-22 -67.5zM40 135v23q0 65 37 106.5t93 41.5q60 0 95 -48v120q0 38 -20.5 61t-51.5 23t-51.5 -23t-20.5 -61v-21h-62v18q0 64 39 104t96 40q58 0 97 -39t39 -102v-378h-53
l-5 50q-36 -60 -105 -60q-56 0 -91.5 39.5t-35.5 105.5zM265 691q19 0 31.5 -13t12.5 -32t-12.5 -31.5t-31.5 -12.5t-32 12.5t-13 31.5t13 32t32 13zM116 691q19 0 31.5 -13t12.5 -32t-12.5 -31.5t-31.5 -12.5t-32 12.5t-13 31.5t13 32t32 13z" />
    <glyph glyph-name="aring" unicode="&#xe5;" horiz-adv-x="380" 
d="M105 160v-22q0 -42 22 -67.5t58 -25.5t58 25.5t22 67.5v22q0 42 -22 67.5t-58 25.5t-58 -25.5t-22 -67.5zM40 135v23q0 65 37 106.5t93 41.5q60 0 95 -48v120q0 38 -20.5 61t-51.5 23t-51.5 -23t-20.5 -61v-21h-62v18q0 64 39 104t96 40q58 0 97 -39t39 -102v-378h-53
l-5 50q-36 -60 -105 -60q-56 0 -91.5 39.5t-35.5 105.5zM197 750q39 0 64.5 -24.5t25.5 -61.5q0 -38 -25.5 -62.5t-64.5 -24.5t-64 24.5t-25 62.5q0 37 25 61.5t64 24.5zM197 616q21 0 34 13t13 35q0 21 -13.5 34t-33.5 13t-33 -13t-13 -34t13 -34.5t33 -13.5z" />
    <glyph glyph-name="ae" unicode="&#xe6;" horiz-adv-x="590" 
d="M330 375v-70h154v70q0 41 -21.5 65t-55.5 24t-55.5 -24t-21.5 -65zM40 135v23q0 65 37 106.5t93 41.5q60 0 95 -48v120q0 38 -20.5 61t-51.5 23t-51.5 -23t-20.5 -61v-21h-62v18q0 64 39 104t96 40q72 0 105 -59q35 59 108 59q60 0 99 -39.5t39 -105.5v-116h-215v-119
q0 -41 21.5 -65t55.5 -24t55.5 24t21.5 65v26h61v-27q0 -66 -40.5 -107t-100.5 -41q-83 0 -115 73q-16 -34 -47.5 -53.5t-71.5 -19.5q-57 0 -93.5 39.5t-36.5 105.5zM105 160v-22q0 -42 22 -67.5t58 -25.5t58 25.5t22 67.5v22q0 42 -22 67.5t-58 25.5t-58 -25.5t-22 -67.5z
" />
    <glyph glyph-name="ccedilla" unicode="&#xe7;" horiz-adv-x="363" 
d="M256 195h62v-60q0 -55 -30 -93.5t-77 -48.5q29 -33 29 -77q0 -53 -34.5 -82t-83.5 -29q-12 0 -23.5 1.5t-17.5 3.5l-6 2v48q11 -6 39 -6q31 0 50.5 18.5t19.5 50.5q0 44 -34 70q-47 10 -76 47.5t-29 91.5v242q0 64 40.5 104.5t98.5 40.5t96 -39t38 -103v-58h-62v55
q0 39 -20.5 62t-52.5 23t-52.5 -23t-20.5 -62v-239q0 -39 20.5 -62t52.5 -23t52.5 23t20.5 62v60z" />
    <glyph glyph-name="egrave" unicode="&#xe8;" horiz-adv-x="370" 
d="M110 374v-69h154v69q0 41 -21.5 65t-55.5 24t-55.5 -24t-21.5 -65zM264 139v26h61v-27q0 -66 -40.5 -107t-100.5 -41t-99.5 40t-39.5 105v237q0 65 41 106t101 41t99 -39.5t39 -105.5v-116h-215v-119q0 -41 21.5 -65t55.5 -24t55.5 24t21.5 65zM159 740l59 -162h-53
l-76 162h70z" />
    <glyph glyph-name="eacute" unicode="&#xe9;" horiz-adv-x="370" 
d="M110 374v-69h154v69q0 41 -21.5 65t-55.5 24t-55.5 -24t-21.5 -65zM264 139v26h61v-27q0 -66 -40.5 -107t-100.5 -41t-99.5 40t-39.5 105v237q0 65 41 106t101 41t99 -39.5t39 -105.5v-116h-215v-119q0 -41 21.5 -65t55.5 -24t55.5 24t21.5 65zM163 578l59 162h70
l-76 -162h-53z" />
    <glyph glyph-name="ecircumflex" unicode="&#xea;" horiz-adv-x="370" 
d="M110 374v-69h154v69q0 41 -21.5 65t-55.5 24t-55.5 -24t-21.5 -65zM264 139v26h61v-27q0 -66 -40.5 -107t-100.5 -41t-99.5 40t-39.5 105v237q0 65 41 106t101 41t99 -39.5t39 -105.5v-116h-215v-119q0 -41 21.5 -65t55.5 -24t55.5 24t21.5 65zM66 578l93 162h55l92 -162
h-55l-67 109l-65 -109h-53z" />
    <glyph glyph-name="edieresis" unicode="&#xeb;" horiz-adv-x="370" 
d="M110 374v-69h154v69q0 41 -21.5 65t-55.5 24t-55.5 -24t-21.5 -65zM264 139v26h61v-27q0 -66 -40.5 -107t-100.5 -41t-99.5 40t-39.5 105v237q0 65 41 106t101 41t99 -39.5t39 -105.5v-116h-215v-119q0 -41 21.5 -65t55.5 -24t55.5 24t21.5 65zM261 691q19 0 31.5 -13
t12.5 -32t-12.5 -31.5t-31.5 -12.5t-32 12.5t-13 31.5t13 32t32 13zM112 691q19 0 31.5 -13t12.5 -32t-12.5 -31.5t-31.5 -12.5t-32 12.5t-13 31.5t13 32t32 13z" />
    <glyph glyph-name="igrave" unicode="&#xec;" horiz-adv-x="187" 
d="M58 740l59 -162h-53l-76 162h70zM60 0v509h67v-509h-67z" />
    <glyph glyph-name="iacute" unicode="&#xed;" horiz-adv-x="187" 
d="M70 578l59 162h70l-76 -162h-53zM60 0v509h67v-509h-67z" />
    <glyph glyph-name="icircumflex" unicode="&#xee;" horiz-adv-x="187" 
d="M-26 578l93 162h55l92 -162h-55l-67 109l-65 -109h-53zM60 0v509h67v-509h-67z" />
    <glyph glyph-name="idieresis" unicode="&#xef;" horiz-adv-x="187" 
d="M168 691q19 0 31.5 -13t12.5 -32t-12.5 -31.5t-31.5 -12.5t-32 12.5t-13 31.5t13 32t32 13zM19 691q19 0 31.5 -13t12.5 -32t-12.5 -31.5t-31.5 -12.5t-32 12.5t-13 31.5t13 32t32 13zM60 0v509h67v-509h-67z" />
    <glyph glyph-name="eth" unicode="&#xf0;" horiz-adv-x="374" 
d="M329 633l-95 -24l77 -168q18 -39 18 -113v-189q0 -65 -41.5 -107t-101.5 -42t-100.5 40t-40.5 106v223q0 62 38.5 101t95.5 39q24 0 50 -12l-53 107l-86 -21v42l68 17l-33 68h68l24 -53l112 28v-42zM110 355v-216q0 -41 21.5 -65t55.5 -24t55.5 24t21.5 65v216
q0 41 -21.5 65t-55.5 24t-55.5 -24t-21.5 -65z" />
    <glyph glyph-name="ntilde" unicode="&#xf1;" horiz-adv-x="385" 
d="M120 372v-372h-65v509h56l3 -49q34 59 105 59q51 0 83.5 -36t32.5 -99v-384h-65v372q0 41 -19.5 64t-52.5 23q-34 0 -56 -23t-22 -64zM110 598h-45q0 4 0.5 10.5t4.5 22.5t11.5 28.5t24 23t38.5 10.5q26 0 45 -15.5t33 -31t30 -15.5q14 0 22.5 12.5t9.5 25.5l1 13h45
q0 -4 -0.5 -10.5t-5 -23t-12 -29t-24 -23t-38.5 -10.5q-26 0 -44.5 15.5t-32.5 31t-30 15.5q-14 0 -22.5 -12.5t-9.5 -25.5z" />
    <glyph glyph-name="ograve" unicode="&#xf2;" horiz-adv-x="374" 
d="M150 740l59 -162h-53l-76 162h70zM110 370v-231q0 -41 21.5 -65t55.5 -24t55.5 24t21.5 65v231q0 41 -21.5 65t-55.5 24t-55.5 -24t-21.5 -65zM45 136v234q0 66 41 107.5t102 41.5q60 0 100.5 -40.5t40.5 -105.5v-234q0 -65 -41.5 -107t-101.5 -42t-100.5 40t-40.5 106z
" />
    <glyph glyph-name="oacute" unicode="&#xf3;" horiz-adv-x="374" 
d="M165 578l59 162h70l-76 -162h-53zM110 370v-231q0 -41 21.5 -65t55.5 -24t55.5 24t21.5 65v231q0 41 -21.5 65t-55.5 24t-55.5 -24t-21.5 -65zM45 136v234q0 66 41 107.5t102 41.5q60 0 100.5 -40.5t40.5 -105.5v-234q0 -65 -41.5 -107t-101.5 -42t-100.5 40t-40.5 106z
" />
    <glyph glyph-name="ocircumflex" unicode="&#xf4;" horiz-adv-x="374" 
d="M110 370v-231q0 -41 21.5 -65t55.5 -24t55.5 24t21.5 65v231q0 41 -21.5 65t-55.5 24t-55.5 -24t-21.5 -65zM45 136v234q0 66 41 107.5t102 41.5q60 0 100.5 -40.5t40.5 -105.5v-234q0 -65 -41.5 -107t-101.5 -42t-100.5 40t-40.5 106zM67 578l93 162h55l92 -162h-55
l-67 109l-65 -109h-53z" />
    <glyph glyph-name="otilde" unicode="&#xf5;" horiz-adv-x="374" 
d="M100 598h-45q0 4 0.5 10.5t4.5 22.5t11.5 28.5t24 23t38.5 10.5q26 0 45 -15.5t33 -31t30 -15.5q14 0 22.5 12.5t9.5 25.5l1 13h45q0 -4 -0.5 -10.5t-5 -23t-12 -29t-24 -23t-38.5 -10.5q-26 0 -44.5 15.5t-32.5 31t-30 15.5q-14 0 -22.5 -12.5t-9.5 -25.5zM110 370v-231
q0 -41 21.5 -65t55.5 -24t55.5 24t21.5 65v231q0 41 -21.5 65t-55.5 24t-55.5 -24t-21.5 -65zM45 136v234q0 66 41 107.5t102 41.5q60 0 100.5 -40.5t40.5 -105.5v-234q0 -65 -41.5 -107t-101.5 -42t-100.5 40t-40.5 106z" />
    <glyph glyph-name="odieresis" unicode="&#xf6;" horiz-adv-x="374" 
d="M110 370v-231q0 -41 21.5 -65t55.5 -24t55.5 24t21.5 65v231q0 41 -21.5 65t-55.5 24t-55.5 -24t-21.5 -65zM45 136v234q0 66 41 107.5t102 41.5q60 0 100.5 -40.5t40.5 -105.5v-234q0 -65 -41.5 -107t-101.5 -42t-100.5 40t-40.5 106zM262 691q19 0 31.5 -13t12.5 -32
t-12.5 -31.5t-31.5 -12.5t-32 12.5t-13 31.5t13 32t32 13zM113 691q19 0 31.5 -13t12.5 -32t-12.5 -31.5t-31.5 -12.5t-32 12.5t-13 31.5t13 32t32 13z" />
    <glyph glyph-name="divide" unicode="&#xf7;" horiz-adv-x="395" 
d="M197 583q19 0 32 -13.5t13 -31.5q0 -19 -13 -32t-32 -13q-18 0 -31.5 13t-13.5 32q0 18 13.5 31.5t31.5 13.5zM365 329h-335v56h335v-56zM197 221q19 0 32 -13.5t13 -31.5q0 -19 -13 -32t-32 -13q-18 0 -31.5 13t-13.5 32q0 18 13.5 31.5t31.5 13.5z" />
    <glyph glyph-name="oslash" unicode="&#xf8;" horiz-adv-x="374" 
d="M349 539l-42 -85q22 -35 22 -81v-234q0 -65 -41.5 -107t-101.5 -42q-54 0 -91 31l-25 -51h-45l41 84q-21 37 -21 82v234q0 66 41 107.5t102 41.5q51 0 91 -32l25 52h45zM109 370v-229l140 286q-22 33 -62 33q-35 0 -56.5 -24t-21.5 -66zM187 49q34 0 56 24.5t22 65.5v229
l-141 -287q21 -32 63 -32z" />
    <glyph glyph-name="ugrave" unicode="&#xf9;" horiz-adv-x="385" 
d="M265 137v372h65v-509h-56l-3 49q-34 -59 -105 -59q-51 0 -83.5 36t-32.5 99v384h65v-372q0 -41 19.5 -64t52.5 -23q34 0 56 23t22 64zM159 740l59 -162h-53l-76 162h70z" />
    <glyph glyph-name="uacute" unicode="&#xfa;" horiz-adv-x="385" 
d="M265 137v372h65v-509h-56l-3 49q-34 -59 -105 -59q-51 0 -83.5 36t-32.5 99v384h65v-372q0 -41 19.5 -64t52.5 -23q34 0 56 23t22 64zM169 578l59 162h70l-76 -162h-53z" />
    <glyph glyph-name="ucircumflex" unicode="&#xfb;" horiz-adv-x="385" 
d="M265 137v372h65v-509h-56l-3 49q-34 -59 -105 -59q-51 0 -83.5 36t-32.5 99v384h65v-372q0 -41 19.5 -64t52.5 -23q34 0 56 23t22 64zM70 578l93 162h55l92 -162h-55l-67 109l-65 -109h-53z" />
    <glyph glyph-name="udieresis" unicode="&#xfc;" horiz-adv-x="385" 
d="M265 137v372h65v-509h-56l-3 49q-34 -59 -105 -59q-51 0 -83.5 36t-32.5 99v384h65v-372q0 -41 19.5 -64t52.5 -23q34 0 56 23t22 64zM265 691q19 0 31.5 -13t12.5 -32t-12.5 -31.5t-31.5 -12.5t-32 12.5t-13 31.5t13 32t32 13zM116 691q19 0 31.5 -13t12.5 -32
t-12.5 -31.5t-31.5 -12.5t-32 12.5t-13 31.5t13 32t32 13z" />
    <glyph glyph-name="yacute" unicode="&#xfd;" horiz-adv-x="320" 
d="M130 0l-120 509h69l83 -408l83 408h65l-124 -524q-20 -85 -51 -120t-74 -35l-31 4v54q7 -2 20 -2q30 0 48 23.5t32 90.5zM136 578l59 162h70l-76 -162h-53z" />
    <glyph glyph-name="thorn" unicode="&#xfe;" horiz-adv-x="384" 
d="M274 139v231q0 41 -21.5 65t-55.5 24t-55.5 -24t-21.5 -65v-231q0 -41 21.5 -65t55.5 -24t55.5 24t21.5 65zM55 -160v860h65v-229q34 48 95 48q55 0 89.5 -37t34.5 -98v-256q0 -61 -36 -99.5t-90 -38.5q-60 0 -93 44v-194h-65z" />
    <glyph glyph-name="ydieresis" unicode="&#xff;" horiz-adv-x="320" 
d="M130 0l-120 509h69l83 -408l83 408h65l-124 -524q-20 -85 -51 -120t-74 -35l-31 4v54q7 -2 20 -2q30 0 48 23.5t32 90.5zM237 691q19 0 31.5 -13t12.5 -32t-12.5 -31.5t-31.5 -12.5t-32 12.5t-13 31.5t13 32t32 13zM88 691q19 0 31.5 -13t12.5 -32t-12.5 -31.5
t-31.5 -12.5t-32 12.5t-13 31.5t13 32t32 13z" />
    <glyph glyph-name="Amacron" unicode="&#x100;" horiz-adv-x="375" 
d="M62 800v49h250v-49h-250zM186 574l-66 -341h131zM220 700l145 -700h-71l-34 178h-149l-34 -178h-67l145 700h65z" />
    <glyph glyph-name="amacron" unicode="&#x101;" horiz-adv-x="380" 
d="M105 160v-22q0 -42 22 -67.5t58 -25.5t58 25.5t22 67.5v22q0 42 -22 67.5t-58 25.5t-58 -25.5t-22 -67.5zM40 135v23q0 65 37 106.5t93 41.5q60 0 95 -48v120q0 38 -20.5 61t-51.5 23t-51.5 -23t-20.5 -61v-21h-62v18q0 64 39 104t96 40q58 0 97 -39t39 -102v-378h-53
l-5 50q-36 -60 -105 -60q-56 0 -91.5 39.5t-35.5 105.5zM75 606v49h250v-49h-250z" />
    <glyph glyph-name="Abreve" unicode="&#x102;" horiz-adv-x="375" 
d="M77 920h52v-50q0 -30 15 -48t44 -18t44.5 18t15.5 48v50h51v-48q0 -52 -30.5 -83.5t-80.5 -31.5t-80.5 31t-30.5 82v50zM186 574l-66 -341h131zM220 700l145 -700h-71l-34 178h-149l-34 -178h-67l145 700h65z" />
    <glyph glyph-name="abreve" unicode="&#x103;" horiz-adv-x="380" 
d="M105 160v-22q0 -42 22 -67.5t58 -25.5t58 25.5t22 67.5v22q0 42 -22 67.5t-58 25.5t-58 -25.5t-22 -67.5zM40 135v23q0 65 37 106.5t93 41.5q60 0 95 -48v120q0 38 -20.5 61t-51.5 23t-51.5 -23t-20.5 -61v-21h-62v18q0 64 39 104t96 40q58 0 97 -39t39 -102v-378h-53
l-5 50q-36 -60 -105 -60q-56 0 -91.5 39.5t-35.5 105.5zM89 740h52v-50q0 -30 15 -48t44 -18t44.5 18t15.5 48v50h51v-48q0 -52 -30.5 -83.5t-80.5 -31.5t-80.5 31t-30.5 82v50z" />
    <glyph glyph-name="Aogonek" unicode="&#x104;" horiz-adv-x="355" 
d="M220 700l145 -700h-26q-27 -18 -27 -65q0 -32 22 -51.5t56 -19.5l35 3v-47q-11 -5 -38 -5q-54 0 -90.5 32t-36.5 80q0 47 32 81l-32 170h-149l-34 -178h-67l145 700h65zM186 574l-66 -341h131z" />
    <glyph glyph-name="aogonek" unicode="&#x105;" horiz-adv-x="380" 
d="M40 135v23q0 65 37 106.5t93 41.5q60 0 95 -48v120q0 38 -20.5 61t-51.5 23t-51.5 -23t-20.5 -61v-21h-62v18q0 64 39 104t96 40q58 0 97 -39t39 -102v-378h-16q-27 -18 -27 -65q0 -32 22 -51.5t56 -19.5l35 3v-47q-11 -5 -38 -5q-54 0 -90.5 32t-36.5 80q0 55 40 88
l-3 35q-36 -60 -105 -60q-56 0 -91.5 39.5t-35.5 105.5zM105 160v-22q0 -42 22 -67.5t58 -25.5t58 25.5t22 67.5v22q0 42 -22 67.5t-58 25.5t-58 -25.5t-22 -67.5z" />
    <glyph glyph-name="Cacute" unicode="&#x106;" horiz-adv-x="397" 
d="M282 148v97h65v-99q0 -70 -42 -113t-106 -43q-65 0 -107 42t-42 113v407q0 71 43 114.5t108 43.5q64 0 105 -42t41 -112v-91h-65v87q0 44 -22.5 69.5t-59.5 25.5t-60 -25.5t-23 -69.5v-404q0 -45 23 -70t60 -25t59.5 25t22.5 70zM177 758l59 162h70l-76 -162h-53z" />
    <glyph glyph-name="cacute" unicode="&#x107;" horiz-adv-x="363" 
d="M256 195h62v-60q0 -63 -39.5 -104t-96.5 -41q-59 0 -98 39.5t-39 102.5v242q0 64 40.5 104.5t98.5 40.5t96 -39t38 -103v-58h-62v55q0 39 -20.5 62t-52.5 23t-52.5 -23t-20.5 -62v-239q0 -39 20.5 -62t52.5 -23t52.5 23t20.5 62v60zM161 578l59 162h70l-76 -162h-53z" />
    <glyph glyph-name="Ccircumflex" unicode="&#x108;" horiz-adv-x="397" 
d="M282 148v97h65v-99q0 -70 -42 -113t-106 -43q-65 0 -107 42t-42 113v407q0 71 43 114.5t108 43.5q64 0 105 -42t41 -112v-91h-65v87q0 44 -22.5 69.5t-59.5 25.5t-60 -25.5t-23 -69.5v-404q0 -45 23 -70t60 -25t59.5 25t22.5 70zM79 758l93 162h55l92 -162h-55l-67 109
l-65 -109h-53z" />
    <glyph glyph-name="ccircumflex" unicode="&#x109;" horiz-adv-x="363" 
d="M256 195h62v-60q0 -63 -39.5 -104t-96.5 -41q-59 0 -98 39.5t-39 102.5v242q0 64 40.5 104.5t98.5 40.5t96 -39t38 -103v-58h-62v55q0 39 -20.5 62t-52.5 23t-52.5 -23t-20.5 -62v-239q0 -39 20.5 -62t52.5 -23t52.5 23t20.5 62v60zM62 578l93 162h55l92 -162h-55
l-67 109l-65 -109h-53z" />
    <glyph glyph-name="Cdotaccent" unicode="&#x10a;" horiz-adv-x="397" 
d="M282 148v97h65v-99q0 -70 -42 -113t-106 -43q-65 0 -107 42t-42 113v407q0 71 43 114.5t108 43.5q64 0 105 -42t41 -112v-91h-65v87q0 44 -22.5 69.5t-59.5 25.5t-60 -25.5t-23 -69.5v-404q0 -45 23 -70t60 -25t59.5 25t22.5 70zM197 880q19 0 32 -13t13 -32t-13 -31.5
t-32 -12.5t-31.5 12.5t-12.5 31.5t12.5 32t31.5 13z" />
    <glyph glyph-name="cdotaccent" unicode="&#x10b;" horiz-adv-x="363" 
d="M256 195h62v-60q0 -63 -39.5 -104t-96.5 -41q-59 0 -98 39.5t-39 102.5v242q0 64 40.5 104.5t98.5 40.5t96 -39t38 -103v-58h-62v55q0 39 -20.5 62t-52.5 23t-52.5 -23t-20.5 -62v-239q0 -39 20.5 -62t52.5 -23t52.5 23t20.5 62v60zM181 700q19 0 32 -13t13 -32
t-13 -31.5t-32 -12.5t-31.5 12.5t-12.5 31.5t12.5 32t31.5 13z" />
    <glyph glyph-name="Ccaron" unicode="&#x10c;" horiz-adv-x="397" 
d="M282 148v97h65v-99q0 -70 -42 -113t-106 -43q-65 0 -107 42t-42 113v407q0 71 43 114.5t108 43.5q64 0 105 -42t41 -112v-91h-65v87q0 44 -22.5 69.5t-59.5 25.5t-60 -25.5t-23 -69.5v-404q0 -45 23 -70t60 -25t59.5 25t22.5 70zM319 920l-93 -162h-55l-92 162h55
l67 -109l65 109h53z" />
    <glyph glyph-name="ccaron" unicode="&#x10d;" horiz-adv-x="363" 
d="M256 195h62v-60q0 -63 -39.5 -104t-96.5 -41q-59 0 -98 39.5t-39 102.5v242q0 64 40.5 104.5t98.5 40.5t96 -39t38 -103v-58h-62v55q0 39 -20.5 62t-52.5 23t-52.5 -23t-20.5 -62v-239q0 -39 20.5 -62t52.5 -23t52.5 23t20.5 62v60zM302 740l-93 -162h-55l-92 162h55
l67 -109l65 109h53z" />
    <glyph glyph-name="Dcaron" unicode="&#x10e;" horiz-adv-x="415" 
d="M127 639v-578h73q46 0 71.5 28.5t25.5 81.5v358q0 53 -25.5 81.5t-71.5 28.5h-73zM60 0v700h144q73 0 117 -44t44 -124v-362q0 -80 -45 -125t-119 -45h-141zM328 920l-93 -162h-55l-92 162h55l67 -109l65 109h53z" />
    <glyph glyph-name="dcaron" unicode="&#x10f;" horiz-adv-x="473" 
d="M433 477h-48l18 223h70zM110 370v-231q0 -41 21.5 -65t55.5 -24t55.5 24t21.5 65v231q0 41 -21.5 65t-55.5 24t-55.5 -24t-21.5 -65zM329 700v-700h-56l-3 46q-33 -56 -102 -56q-54 0 -88.5 37t-34.5 98v256q0 62 36 100t90 38q60 0 93 -44v225h65z" />
    <glyph glyph-name="Dcroat" unicode="&#x110;" horiz-adv-x="447" 
d="M160 639v-260h105v-47h-105v-271h72q46 0 72 28.5t26 81.5v358q0 53 -26 81.5t-72 28.5h-72zM92 0v332h-82v47h82v321h144q74 0 117.5 -44t43.5 -124v-362q0 -80 -45 -125t-118 -45h-142z" />
    <glyph glyph-name="dcroat" unicode="&#x111;" horiz-adv-x="411" 
d="M110 370v-231q0 -41 21.5 -65t55.5 -24t55.5 24t21.5 65v231q0 41 -21.5 65t-55.5 24t-55.5 -24t-21.5 -65zM329 700v-68h72v-48h-72v-584h-56l-3 46q-33 -56 -102 -56q-54 0 -88.5 37t-34.5 98v256q0 62 36 100t90 38q60 0 93 -44v109h-99v48h99v68h65z" />
    <glyph glyph-name="Emacron" unicode="&#x112;" horiz-adv-x="340" 
d="M310 0h-250v700h245v-64h-178v-241h148v-60h-148v-271h183v-64zM60 800v49h250v-49h-250z" />
    <glyph glyph-name="emacron" unicode="&#x113;" horiz-adv-x="370" 
d="M110 374v-69h154v69q0 41 -21.5 65t-55.5 24t-55.5 -24t-21.5 -65zM264 139v26h61v-27q0 -66 -40.5 -107t-100.5 -41t-99.5 40t-39.5 105v237q0 65 41 106t101 41t99 -39.5t39 -105.5v-116h-215v-119q0 -41 21.5 -65t55.5 -24t55.5 24t21.5 65zM61 606v49h250v-49h-250z
" />
    <glyph glyph-name="Ebreve" unicode="&#x114;" horiz-adv-x="340" 
d="M310 0h-250v700h245v-64h-178v-241h148v-60h-148v-271h183v-64zM74 920h52v-50q0 -30 15 -48t44 -18t44.5 18t15.5 48v50h51v-48q0 -52 -30.5 -83.5t-80.5 -31.5t-80.5 31t-30.5 82v50z" />
    <glyph glyph-name="ebreve" unicode="&#x115;" horiz-adv-x="370" 
d="M110 374v-69h154v69q0 41 -21.5 65t-55.5 24t-55.5 -24t-21.5 -65zM264 139v26h61v-27q0 -66 -40.5 -107t-100.5 -41t-99.5 40t-39.5 105v237q0 65 41 106t101 41t99 -39.5t39 -105.5v-116h-215v-119q0 -41 21.5 -65t55.5 -24t55.5 24t21.5 65zM75 740h52v-50
q0 -30 15 -48t44 -18t44.5 18t15.5 48v50h51v-48q0 -52 -30.5 -83.5t-80.5 -31.5t-80.5 31t-30.5 82v50z" />
    <glyph glyph-name="Edotaccent" unicode="&#x116;" horiz-adv-x="340" 
d="M310 0h-250v700h245v-64h-178v-241h148v-60h-148v-271h183v-64zM182 880q19 0 32 -13t13 -32t-13 -31.5t-32 -12.5t-31.5 12.5t-12.5 31.5t12.5 32t31.5 13z" />
    <glyph glyph-name="edotaccent" unicode="&#x117;" horiz-adv-x="370" 
d="M110 374v-69h154v69q0 41 -21.5 65t-55.5 24t-55.5 -24t-21.5 -65zM264 139v26h61v-27q0 -66 -40.5 -107t-100.5 -41t-99.5 40t-39.5 105v237q0 65 41 106t101 41t99 -39.5t39 -105.5v-116h-215v-119q0 -41 21.5 -65t55.5 -24t55.5 24t21.5 65zM184 700q19 0 32 -13
t13 -32t-13 -31.5t-32 -12.5t-31.5 12.5t-12.5 31.5t12.5 32t31.5 13z" />
    <glyph glyph-name="Eogonek" unicode="&#x118;" horiz-adv-x="340" 
d="M310 0h-81q-27 -18 -27 -65q0 -32 22 -51.5t56 -19.5l35 3v-47q-11 -5 -38 -5q-54 0 -90.5 32t-36.5 80q0 42 25 73h-115v700h245v-64h-178v-241h148v-60h-148v-271h183v-64z" />
    <glyph glyph-name="eogonek" unicode="&#x119;" horiz-adv-x="370" 
d="M264 139v26h61v-27q0 -51 -25 -87.5t-66 -51.5q-25 -21 -25 -64q0 -32 22 -51.5t56 -19.5l35 3v-47q-11 -5 -38 -5q-54 0 -90.5 32t-36.5 80q0 36 18 63q-57 3 -93.5 42.5t-36.5 102.5v237q0 65 41 106t101 41t99 -39.5t39 -105.5v-116h-215v-119q0 -41 21.5 -65
t55.5 -24t55.5 24t21.5 65zM110 374v-69h154v69q0 41 -21.5 65t-55.5 24t-55.5 -24t-21.5 -65z" />
    <glyph glyph-name="Ecaron" unicode="&#x11a;" horiz-adv-x="340" 
d="M310 0h-250v700h245v-64h-178v-241h148v-60h-148v-271h183v-64zM305 920l-93 -162h-55l-92 162h55l67 -109l65 109h53z" />
    <glyph glyph-name="ecaron" unicode="&#x11b;" horiz-adv-x="370" 
d="M110 374v-69h154v69q0 41 -21.5 65t-55.5 24t-55.5 -24t-21.5 -65zM264 139v26h61v-27q0 -66 -40.5 -107t-100.5 -41t-99.5 40t-39.5 105v237q0 65 41 106t101 41t99 -39.5t39 -105.5v-116h-215v-119q0 -41 21.5 -65t55.5 -24t55.5 24t21.5 65zM306 740l-93 -162h-55
l-92 162h55l67 -109l65 109h53z" />
    <glyph glyph-name="Gcircumflex" unicode="&#x11c;" 
d="M212 300v55h148v-203q0 -73 -44.5 -117.5t-111.5 -44.5t-110.5 43.5t-43.5 116.5v397q0 73 44.5 118t111.5 45t110.5 -43.5t43.5 -116.5v-75h-68v72q0 46 -24 73t-63 27t-63.5 -27t-24.5 -73v-395q0 -47 24.5 -74t63.5 -27q40 0 64.5 27t24.5 74v148h-82zM85 758l93 162
h55l92 -162h-55l-67 109l-65 -109h-53z" />
    <glyph glyph-name="gcircumflex" unicode="&#x11d;" horiz-adv-x="384" 
d="M110 370v-188q0 -41 21.5 -65t55.5 -24q33 0 55 23.5t22 63.5v190q0 41 -21.5 65t-55.5 24t-55.5 -24t-21.5 -65zM329 509v-530q0 -65 -41.5 -107t-101.5 -42t-99 40t-39 106v16h62v-15q0 -41 21.5 -65t55.5 -24t55.5 24t21.5 65v105q-34 -47 -96 -47q-54 0 -88.5 37
t-34.5 98v211q0 62 36 100t90 38q65 0 99 -53l3 43h56zM72 578l93 162h55l92 -162h-55l-67 109l-65 -109h-53z" />
    <glyph glyph-name="Gbreve" unicode="&#x11e;" 
d="M212 300v55h148v-203q0 -73 -44.5 -117.5t-111.5 -44.5t-110.5 43.5t-43.5 116.5v397q0 73 44.5 118t111.5 45t110.5 -43.5t43.5 -116.5v-75h-68v72q0 46 -24 73t-63 27t-63.5 -27t-24.5 -73v-395q0 -47 24.5 -74t63.5 -27q40 0 64.5 27t24.5 74v148h-82zM94 920h52v-50
q0 -30 15 -48t44 -18t44.5 18t15.5 48v50h51v-48q0 -52 -30.5 -83.5t-80.5 -31.5t-80.5 31t-30.5 82v50z" />
    <glyph glyph-name="gbreve" unicode="&#x11f;" horiz-adv-x="384" 
d="M110 370v-188q0 -41 21.5 -65t55.5 -24q33 0 55 23.5t22 63.5v190q0 41 -21.5 65t-55.5 24t-55.5 -24t-21.5 -65zM329 509v-530q0 -65 -41.5 -107t-101.5 -42t-99 40t-39 106v16h62v-15q0 -41 21.5 -65t55.5 -24t55.5 24t21.5 65v105q-34 -47 -96 -47q-54 0 -88.5 37
t-34.5 98v211q0 62 36 100t90 38q65 0 99 -53l3 43h56zM81 740h52v-50q0 -30 15 -48t44 -18t44.5 18t15.5 48v50h51v-48q0 -52 -30.5 -83.5t-80.5 -31.5t-80.5 31t-30.5 82v50z" />
    <glyph glyph-name="Gdotaccent" unicode="&#x120;" 
d="M204 880q19 0 32 -13t13 -32t-13 -31.5t-32 -12.5t-31.5 12.5t-12.5 31.5t12.5 32t31.5 13zM212 300v55h148v-203q0 -73 -44.5 -117.5t-111.5 -44.5t-110.5 43.5t-43.5 116.5v397q0 73 44.5 118t111.5 45t110.5 -43.5t43.5 -116.5v-75h-68v72q0 46 -24 73t-63 27
t-63.5 -27t-24.5 -73v-395q0 -47 24.5 -74t63.5 -27q40 0 64.5 27t24.5 74v148h-82z" />
    <glyph glyph-name="gdotaccent" unicode="&#x121;" horiz-adv-x="384" 
d="M110 370v-188q0 -41 21.5 -65t55.5 -24q33 0 55 23.5t22 63.5v190q0 41 -21.5 65t-55.5 24t-55.5 -24t-21.5 -65zM329 509v-530q0 -65 -41.5 -107t-101.5 -42t-99 40t-39 106v16h62v-15q0 -41 21.5 -65t55.5 -24t55.5 24t21.5 65v105q-34 -47 -96 -47q-54 0 -88.5 37
t-34.5 98v211q0 62 36 100t90 38q65 0 99 -53l3 43h56zM190 700q19 0 32 -13t13 -32t-13 -31.5t-32 -12.5t-31.5 12.5t-12.5 31.5t12.5 32t31.5 13z" />
    <glyph glyph-name="Gcommaaccent" unicode="&#x122;" 
d="M212 300v55h148v-203q0 -73 -44.5 -117.5t-111.5 -44.5t-110.5 43.5t-43.5 116.5v397q0 73 44.5 118t111.5 45t110.5 -43.5t43.5 -116.5v-75h-68v72q0 46 -24 73t-63 27t-63.5 -27t-24.5 -73v-395q0 -47 24.5 -74t63.5 -27q40 0 64.5 27t24.5 74v148h-82zM109 -222
l59 162h70l-76 -162h-53z" />
    <glyph glyph-name="gcommaaccent" unicode="&#x123;" horiz-adv-x="384" 
d="M110 370v-188q0 -41 21.5 -65t55.5 -24q33 0 55 23.5t22 63.5v190q0 41 -21.5 65t-55.5 24t-55.5 -24t-21.5 -65zM329 509v-530q0 -65 -41.5 -107t-101.5 -42t-99 40t-39 106v16h62v-15q0 -41 21.5 -65t55.5 -24t55.5 24t21.5 65v105q-34 -47 -96 -47q-54 0 -88.5 37
t-34.5 98v211q0 62 36 100t90 38q65 0 99 -53l3 43h56zM282 740l-59 -162h-70l76 162h53z" />
    <glyph glyph-name="Hcircumflex" unicode="&#x124;" horiz-adv-x="425" 
d="M297 0v337h-170v-337h-67v700h67v-299h170v299h68v-700h-68zM93 758l93 162h55l92 -162h-55l-67 109l-65 -109h-53z" />
    <glyph glyph-name="hcircumflex" unicode="&#x125;" horiz-adv-x="385" 
d="M335 0h-65v372q0 41 -19.5 64t-52.5 23q-34 0 -56 -22t-22 -60v-377h-65v700h65v-235q34 54 99 54q51 0 83.5 -36t32.5 -99v-384zM73 758l93 162h55l92 -162h-55l-67 109l-65 -109h-53z" />
    <glyph glyph-name="Hbar" unicode="&#x126;" horiz-adv-x="490" 
d="M160 526v-125h170v125h-170zM92 0v526h-82v47h82v127h68v-127h170v127h67v-127h83v-47h-83v-526h-67v337h-170v-337h-68z" />
    <glyph glyph-name="hbar" unicode="&#x127;" horiz-adv-x="405" 
d="M75 0v584h-65v48h65v68h65v-68h106v-48h-106v-119q34 54 99 54q51 0 83.5 -36t32.5 -99v-384h-65v372q0 41 -19.5 64t-52.5 23q-34 0 -56 -23t-22 -63v-373h-65z" />
    <glyph glyph-name="Itilde" unicode="&#x128;" horiz-adv-x="200" 
d="M65 0v700h70v-700h-70zM13 778h-45q0 4 0.5 10.5t4.5 22.5t11.5 28.5t24 23t38.5 10.5q26 0 45 -15.5t33 -31t30 -15.5q14 0 22.5 12.5t9.5 25.5l1 13h45q0 -4 -0.5 -10.5t-5 -23t-12 -29t-24 -23t-38.5 -10.5q-26 0 -44.5 15.5t-32.5 31t-30 15.5q-14 0 -22.5 -12.5
t-9.5 -25.5z" />
    <glyph glyph-name="itilde" unicode="&#x129;" horiz-adv-x="187" 
d="M60 0v509h67v-509h-67zM6 598h-45q0 4 0.5 10.5t4.5 22.5t11.5 28.5t24 23t38.5 10.5q26 0 45 -15.5t33 -31t30 -15.5q14 0 22.5 12.5t9.5 25.5l1 13h45q0 -4 -0.5 -10.5t-5 -23t-12 -29t-24 -23t-38.5 -10.5q-26 0 -44.5 15.5t-32.5 31t-30 15.5q-14 0 -22.5 -12.5
t-9.5 -25.5z" />
    <glyph glyph-name="Imacron" unicode="&#x12a;" horiz-adv-x="200" 
d="M65 0v700h70v-700h-70zM-25 800v49h250v-49h-250z" />
    <glyph glyph-name="imacron" unicode="&#x12b;" horiz-adv-x="187" 
d="M60 0v509h67v-509h-67zM-32 606v49h250v-49h-250z" />
    <glyph glyph-name="Ibreve" unicode="&#x12c;" horiz-adv-x="200" 
d="M65 0v700h70v-700h-70zM-11 920h52v-50q0 -30 15 -48t44 -18t44.5 18t15.5 48v50h51v-48q0 -52 -30.5 -83.5t-80.5 -31.5t-80.5 31t-30.5 82v50z" />
    <glyph glyph-name="ibreve" unicode="&#x12d;" horiz-adv-x="187" 
d="M60 0v509h67v-509h-67zM-18 740h52v-50q0 -30 15 -48t44 -18t44.5 18t15.5 48v50h51v-48q0 -52 -30.5 -83.5t-80.5 -31.5t-80.5 31t-30.5 82v50z" />
    <glyph glyph-name="Iogonek" unicode="&#x12e;" horiz-adv-x="200" 
d="M135 0h-26q-27 -18 -27 -65q0 -32 22 -51.5t56 -19.5l35 3v-47q-11 -5 -38 -5q-54 0 -90.5 32t-36.5 80q0 50 35 83v690h70v-700z" />
    <glyph glyph-name="iogonek" unicode="&#x12f;" horiz-adv-x="187" 
d="M127 0h-21q-27 -18 -27 -65q0 -32 22 -51.5t56 -19.5l35 3v-47q-11 -5 -38 -5q-54 0 -90.5 32t-36.5 80q0 50 33 81v501h67v-509zM93 700q19 0 33.5 -14t14.5 -34q0 -19 -14 -33t-34 -14q-19 0 -33 13.5t-14 33.5t14 34t33 14z" />
    <glyph glyph-name="Idotaccent" unicode="&#x130;" horiz-adv-x="200" 
d="M65 0v700h70v-700h-70zM100 880q19 0 32 -13t13 -32t-13 -31.5t-32 -12.5t-31.5 12.5t-12.5 31.5t12.5 32t31.5 13z" />
    <glyph glyph-name="dotlessi" unicode="&#x131;" horiz-adv-x="187" 
d="M60 0v509h67v-509h-67z" />
    <glyph glyph-name="IJ" unicode="&#x132;" horiz-adv-x="428" 
d="M65 0v700h70v-700h-70zM210 -8v63q8 -1 18 -1q76 0 76 84v562h69v-574q0 -64 -36.5 -100t-91.5 -36z" />
    <glyph glyph-name="ij" unicode="&#x133;" horiz-adv-x="374" 
d="M60 0v509h67v-509h-67zM93 700q19 0 33.5 -14t14.5 -34q0 -19 -14 -33t-34 -14q-19 0 -33 13.5t-14 33.5t14 34t33 14zM172 -166v57q10 -2 23 -2q24 0 38 15.5t14 44.5v560h67v-565q0 -53 -29.5 -83.5t-75.5 -30.5zM280 700q20 0 34 -14t14 -34q0 -19 -14 -33t-34 -14
t-33.5 13.5t-13.5 33.5t14 34t33 14z" />
    <glyph glyph-name="Jcircumflex" unicode="&#x134;" horiz-adv-x="228" 
d="M10 -8v63q8 -1 18 -1q76 0 76 84v562h69v-574q0 -64 -36.5 -100t-91.5 -36zM18 758l93 162h55l92 -162h-55l-67 109l-65 -109h-53z" />
    <glyph glyph-name="jcircumflex" unicode="&#x135;" horiz-adv-x="187" 
d="M-15 -166v57q10 -2 23 -2q24 0 38 15.5t14 44.5v560h67v-565q0 -53 -29.5 -83.5t-75.5 -30.5zM-29 578l93 162h55l92 -162h-55l-67 109l-65 -109h-53z" />
    <glyph glyph-name="Kcommaaccent" unicode="&#x136;" horiz-adv-x="375" 
d="M60 0v700h67v-324l161 324h77l-176 -336l186 -364h-77l-171 344v-344h-67zM114 -222l59 162h70l-76 -162h-53z" />
    <glyph glyph-name="kcommaaccent" unicode="&#x137;" horiz-adv-x="345" 
d="M55 0v700h65v-413l139 222h76l-154 -230l164 -279h-77l-148 261v-261h-65zM94 -222l59 162h70l-76 -162h-53z" />
    <glyph glyph-name="Lacute" unicode="&#x139;" horiz-adv-x="310" 
d="M290 0h-230v700h67v-636h163v-64zM71 758l59 162h70l-76 -162h-53z" />
    <glyph glyph-name="lacute" unicode="&#x13a;" horiz-adv-x="187" 
d="M60 0v700h67v-700h-67zM68 758l59 162h70l-76 -162h-53z" />
    <glyph glyph-name="Lcommaaccent" unicode="&#x13b;" horiz-adv-x="310" 
d="M290 0h-230v700h67v-636h163v-64zM84 -222l59 162h70l-76 -162h-53z" />
    <glyph glyph-name="lcommaaccent" unicode="&#x13c;" horiz-adv-x="187" 
d="M60 0v700h67v-700h-67zM-5 -222l59 162h70l-76 -162h-53z" />
    <glyph glyph-name="Lcaron" unicode="&#x13d;" horiz-adv-x="310" 
d="M264 477h-48l18 223h70zM290 0h-230v700h67v-636h163v-64z" />
    <glyph glyph-name="lcaron" unicode="&#x13e;" horiz-adv-x="271" 
d="M231 477h-48l18 223h70zM60 0v700h67v-700h-67z" />
    <glyph glyph-name="Ldot" unicode="&#x13f;" horiz-adv-x="310" 
d="M290 0h-230v700h67v-636h163v-64zM246 401q20 0 34 -14.5t14 -33.5t-14 -33t-34 -14t-33.5 14t-13.5 33q0 20 14 34t33 14z" />
    <glyph glyph-name="ldot" unicode="&#x140;" horiz-adv-x="297" 
d="M60 0v700h67v-700h-67zM239 394q19 0 33.5 -14t14.5 -34q0 -19 -14 -33t-34 -14q-19 0 -33 13.5t-14 33.5t14 34t33 14z" />
    <glyph glyph-name="Lslash" unicode="&#x141;" horiz-adv-x="342" 
d="M322 0h-230v327l-82 -16v49l82 16v324h68v-311l136 27v-49l-136 -27v-276h162v-64z" />
    <glyph glyph-name="lslash" unicode="&#x142;" horiz-adv-x="242" 
d="M82 0v324l-72 -13v49l72 13v327h67v-314l83 15v-49l-83 -15v-337h-67z" />
    <glyph glyph-name="Nacute" unicode="&#x143;" horiz-adv-x="435" 
d="M314 0l-193 546v-546h-61v700h65l189 -534v534h61v-700h-61zM196 758l59 162h70l-76 -162h-53z" />
    <glyph glyph-name="nacute" unicode="&#x144;" horiz-adv-x="385" 
d="M120 372v-372h-65v509h56l3 -49q34 59 105 59q51 0 83.5 -36t32.5 -99v-384h-65v372q0 41 -19.5 64t-52.5 23q-34 0 -56 -23t-22 -64zM171 578l59 162h70l-76 -162h-53z" />
    <glyph glyph-name="Ncommaaccent" unicode="&#x145;" horiz-adv-x="435" 
d="M314 0l-193 546v-546h-61v700h65l189 -534v534h61v-700h-61zM126 -222l59 162h70l-76 -162h-53z" />
    <glyph glyph-name="ncommaaccent" unicode="&#x146;" horiz-adv-x="385" 
d="M120 372v-372h-65v509h56l3 -49q34 59 105 59q51 0 83.5 -36t32.5 -99v-384h-65v372q0 41 -19.5 64t-52.5 23q-34 0 -56 -23t-22 -64zM99 -222l59 162h70l-76 -162h-53z" />
    <glyph glyph-name="Ncaron" unicode="&#x147;" horiz-adv-x="435" 
d="M314 0l-193 546v-546h-61v700h65l189 -534v534h61v-700h-61zM338 920l-93 -162h-55l-92 162h55l67 -109l65 109h53z" />
    <glyph glyph-name="ncaron" unicode="&#x148;" horiz-adv-x="385" 
d="M120 372v-372h-65v509h56l3 -49q34 59 105 59q51 0 83.5 -36t32.5 -99v-384h-65v372q0 41 -19.5 64t-52.5 23q-34 0 -56 -23t-22 -64zM318 740l-93 -162h-55l-92 162h55l67 -109l65 109h53z" />
    <glyph glyph-name="Eng" unicode="&#x14a;" horiz-adv-x="435" 
d="M60 0v700h65l189 -534v534h61v-735q0 -64 -33.5 -99.5t-87.5 -35.5l-34 2v54q8 -1 18 -1q36 0 56 21.5t20 62.5v31l-193 546v-546h-61z" />
    <glyph glyph-name="eng" unicode="&#x14b;" horiz-adv-x="385" 
d="M195 -166v57q10 -2 23 -2q24 0 38 15.5t14 44.5v423q0 41 -19.5 64t-52.5 23q-34 0 -56 -22t-22 -60v-377h-65v509h56l3 -49q34 59 105 59q51 0 83.5 -36t32.5 -99v-440q0 -54 -28.5 -84t-74.5 -30z" />
    <glyph glyph-name="Omacron" unicode="&#x14c;" 
d="M117 547v-394q0 -47 24.5 -73.5t63.5 -26.5t63 26.5t24 73.5v394q0 46 -24 73t-63 27t-63.5 -27t-24.5 -73zM50 150v397q0 73 44.5 118t111.5 45t110.5 -43.5t43.5 -116.5v-398q0 -73 -44.5 -117.5t-111.5 -44.5t-110.5 43.5t-43.5 116.5zM80 800v49h250v-49h-250z" />
    <glyph glyph-name="omacron" unicode="&#x14d;" horiz-adv-x="374" 
d="M110 370v-231q0 -41 21.5 -65t55.5 -24t55.5 24t21.5 65v231q0 41 -21.5 65t-55.5 24t-55.5 -24t-21.5 -65zM45 136v234q0 66 41 107.5t102 41.5q60 0 100.5 -40.5t40.5 -105.5v-234q0 -65 -41.5 -107t-101.5 -42t-100.5 40t-40.5 106zM62 606v49h250v-49h-250z" />
    <glyph glyph-name="Obreve" unicode="&#x14e;" 
d="M94 920h52v-50q0 -30 15 -48t44 -18t44.5 18t15.5 48v50h51v-48q0 -52 -30.5 -83.5t-80.5 -31.5t-80.5 31t-30.5 82v50zM117 547v-394q0 -47 24.5 -73.5t63.5 -26.5t63 26.5t24 73.5v394q0 46 -24 73t-63 27t-63.5 -27t-24.5 -73zM50 150v397q0 73 44.5 118t111.5 45
t110.5 -43.5t43.5 -116.5v-398q0 -73 -44.5 -117.5t-111.5 -44.5t-110.5 43.5t-43.5 116.5z" />
    <glyph glyph-name="obreve" unicode="&#x14f;" horiz-adv-x="374" 
d="M110 370v-231q0 -41 21.5 -65t55.5 -24t55.5 24t21.5 65v231q0 41 -21.5 65t-55.5 24t-55.5 -24t-21.5 -65zM45 136v234q0 66 41 107.5t102 41.5q60 0 100.5 -40.5t40.5 -105.5v-234q0 -65 -41.5 -107t-101.5 -42t-100.5 40t-40.5 106zM76 740h52v-50q0 -30 15 -48
t44 -18t44.5 18t15.5 48v50h51v-48q0 -52 -30.5 -83.5t-80.5 -31.5t-80.5 31t-30.5 82v50z" />
    <glyph glyph-name="Ohungarumlaut" unicode="&#x150;" 
d="M117 547v-394q0 -47 24.5 -73.5t63.5 -26.5t63 26.5t24 73.5v394q0 46 -24 73t-63 27t-63.5 -27t-24.5 -73zM50 150v397q0 73 44.5 118t111.5 45t110.5 -43.5t43.5 -116.5v-398q0 -73 -44.5 -117.5t-111.5 -44.5t-110.5 43.5t-43.5 116.5zM252 757l41 163h69l-59 -163
h-51zM109 757l41 163h69l-59 -163h-51z" />
    <glyph glyph-name="ohungarumlaut" unicode="&#x151;" horiz-adv-x="374" 
d="M110 370v-231q0 -41 21.5 -65t55.5 -24t55.5 24t21.5 65v231q0 41 -21.5 65t-55.5 24t-55.5 -24t-21.5 -65zM45 136v234q0 66 41 107.5t102 41.5q60 0 100.5 -40.5t40.5 -105.5v-234q0 -65 -41.5 -107t-101.5 -42t-100.5 40t-40.5 106zM234 577l41 163h69l-59 -163h-51z
M91 577l41 163h69l-59 -163h-51z" />
    <glyph glyph-name="OE" unicode="&#x152;" horiz-adv-x="567" 
d="M287 61v578h-72q-46 0 -72 -28.5t-26 -81.5v-358q0 -53 26 -81.5t72 -28.5h72zM537 0h-326q-74 0 -117.5 43.5t-43.5 123.5v363q0 80 45 125t119 45h318v-64h-177v-241h147v-60h-147v-271h182v-64z" />
    <glyph glyph-name="oe" unicode="&#x153;" horiz-adv-x="589" 
d="M483 139v26h61v-27q0 -66 -40.5 -107t-100.5 -41q-71 0 -108 54q-40 -54 -109 -54q-60 0 -100.5 40t-40.5 106v234q0 66 41 107.5t102 41.5q71 0 109 -54q40 54 109 54q60 0 99 -39.5t39 -105.5v-116h-215v-119q0 -41 21.5 -65t55.5 -24t55.5 24t21.5 65zM110 370v-231
q0 -41 21.5 -65t55.5 -24t55.5 24t21.5 65v231q0 41 -21.5 65t-55.5 24t-55.5 -24t-21.5 -65zM329 374v-69h154v69q0 41 -21.5 65t-55.5 24t-55.5 -24t-21.5 -65z" />
    <glyph glyph-name="Racute" unicode="&#x154;" 
d="M127 639v-290h73q46 0 71.5 28.5t25.5 81.5v70q0 53 -25.5 81.5t-71.5 28.5h-73zM395 0h-71l-103 294q-7 -1 -26 -1h-68v-293h-67v700h141q76 0 120 -44.5t44 -125.5v-68q0 -110 -84 -148zM171 758l59 162h70l-76 -162h-53z" />
    <glyph glyph-name="racute" unicode="&#x155;" horiz-adv-x="257" 
d="M237 519v-69h-14q-48 0 -75.5 -29.5t-27.5 -87.5v-333h-65v509h56l4 -62q35 72 122 72zM122 578l59 162h70l-76 -162h-53z" />
    <glyph glyph-name="Rcommaaccent" unicode="&#x156;" 
d="M127 639v-290h73q46 0 71.5 28.5t25.5 81.5v70q0 53 -25.5 81.5t-71.5 28.5h-73zM395 0h-71l-103 294q-7 -1 -26 -1h-68v-293h-67v700h141q76 0 120 -44.5t44 -125.5v-68q0 -110 -84 -148zM126 -222l59 162h70l-76 -162h-53z" />
    <glyph glyph-name="rcommaaccent" unicode="&#x157;" horiz-adv-x="257" 
d="M237 519v-69h-14q-48 0 -75.5 -29.5t-27.5 -87.5v-333h-65v509h56l4 -62q35 72 122 72zM-10 -222l59 162h70l-76 -162h-53z" />
    <glyph glyph-name="Rcaron" unicode="&#x158;" 
d="M127 639v-290h73q46 0 71.5 28.5t25.5 81.5v70q0 53 -25.5 81.5t-71.5 28.5h-73zM395 0h-71l-103 294q-7 -1 -26 -1h-68v-293h-67v700h141q76 0 120 -44.5t44 -125.5v-68q0 -110 -84 -148zM323 920l-93 -162h-55l-92 162h55l67 -109l65 109h53z" />
    <glyph glyph-name="rcaron" unicode="&#x159;" horiz-adv-x="257" 
d="M237 519v-69h-14q-48 0 -75.5 -29.5t-27.5 -87.5v-333h-65v509h56l4 -62q35 72 122 72zM264 740l-93 -162h-55l-92 162h55l67 -109l65 109h53z" />
    <glyph glyph-name="Sacute" unicode="&#x15a;" horiz-adv-x="377" 
d="M100 195v-42q0 -47 24 -74.5t63 -27.5t63.5 26t24.5 71q0 51 -27 94.5t-90 102.5q-116 108 -116 211q0 69 43.5 111.5t107.5 42.5t105 -42t41 -112v-36h-64v32q0 45 -23 70.5t-60 25.5t-59.5 -24t-22.5 -67q0 -42 24 -80t78 -88q65 -61 97.5 -117.5t32.5 -122.5
q0 -71 -44.5 -115t-111.5 -44t-109 43t-42 116v46h65zM166 758l59 162h70l-76 -162h-53z" />
    <glyph glyph-name="sacute" unicode="&#x15b;" horiz-adv-x="351" 
d="M251 374v14q0 33 -20.5 53.5t-51.5 20.5t-51.5 -20t-20.5 -52q0 -31 20 -53.5t68 -46.5q61 -29 91 -67t30 -93q0 -61 -41 -100.5t-101 -39.5t-99.5 38t-39.5 101v16h62v-15q0 -38 21.5 -60t55.5 -22t55.5 22t21.5 59q0 34 -22 59.5t-78 52.5q-109 54 -109 149
q0 56 39.5 92.5t97.5 36.5t96 -36.5t38 -93.5v-15h-62zM150 578l59 162h70l-76 -162h-53z" />
    <glyph glyph-name="Scircumflex" unicode="&#x15c;" horiz-adv-x="377" 
d="M100 195v-42q0 -47 24 -74.5t63 -27.5t63.5 26t24.5 71q0 51 -27 94.5t-90 102.5q-116 108 -116 211q0 69 43.5 111.5t107.5 42.5t105 -42t41 -112v-36h-64v32q0 45 -23 70.5t-60 25.5t-59.5 -24t-22.5 -67q0 -42 24 -80t78 -88q65 -61 97.5 -117.5t32.5 -122.5
q0 -71 -44.5 -115t-111.5 -44t-109 43t-42 116v46h65zM71 758l93 162h55l92 -162h-55l-67 109l-65 -109h-53z" />
    <glyph glyph-name="scircumflex" unicode="&#x15d;" horiz-adv-x="351" 
d="M251 374v14q0 33 -20.5 53.5t-51.5 20.5t-51.5 -20t-20.5 -52q0 -31 20 -53.5t68 -46.5q61 -29 91 -67t30 -93q0 -61 -41 -100.5t-101 -39.5t-99.5 38t-39.5 101v16h62v-15q0 -38 21.5 -60t55.5 -22t55.5 22t21.5 59q0 34 -22 59.5t-78 52.5q-109 54 -109 149
q0 56 39.5 92.5t97.5 36.5t96 -36.5t38 -93.5v-15h-62zM61 578l93 162h55l92 -162h-55l-67 109l-65 -109h-53z" />
    <glyph glyph-name="Scedilla" unicode="&#x15e;" horiz-adv-x="377" 
d="M100 195v-42q0 -47 24 -74.5t63 -27.5t63.5 26t24.5 71q0 51 -27 94.5t-90 102.5q-116 108 -116 211q0 69 43.5 111.5t107.5 42.5t105 -42t41 -112v-36h-64v32q0 45 -23 70.5t-60 25.5t-59.5 -24t-22.5 -67q0 -42 24 -80t78 -88q65 -61 97.5 -117.5t32.5 -122.5
q0 -64 -35.5 -106t-92.5 -50q29 -31 29 -77q0 -53 -34.5 -82t-83.5 -29q-12 0 -23.5 1.5t-17.5 3.5l-6 2v48q11 -6 39 -6q31 0 50.5 18.5t19.5 50.5q0 45 -34 71q-54 10 -86 51t-32 104v46h65z" />
    <glyph glyph-name="scedilla" unicode="&#x15f;" horiz-adv-x="351" 
d="M251 374v14q0 33 -20.5 53.5t-51.5 20.5t-51.5 -20t-20.5 -52q0 -31 20 -53.5t68 -46.5q61 -29 91 -67t30 -93q0 -54 -31.5 -91.5t-81.5 -45.5q29 -31 29 -77q0 -53 -34.5 -82t-83.5 -29q-12 0 -23.5 1.5t-17.5 3.5l-6 2v48q11 -6 39 -6q31 0 50.5 18.5t19.5 50.5
q0 44 -34 70q-48 9 -77.5 45.5t-29.5 90.5v16h62v-15q0 -38 21.5 -60t55.5 -22t55.5 22t21.5 59q0 34 -22 59.5t-78 52.5q-109 54 -109 149q0 56 39.5 92.5t97.5 36.5t96 -36.5t38 -93.5v-15h-62z" />
    <glyph glyph-name="Scaron" unicode="&#x160;" horiz-adv-x="377" 
d="M100 195v-42q0 -47 24 -74.5t63 -27.5t63.5 26t24.5 71q0 51 -27 94.5t-90 102.5q-116 108 -116 211q0 69 43.5 111.5t107.5 42.5t105 -42t41 -112v-36h-64v32q0 45 -23 70.5t-60 25.5t-59.5 -24t-22.5 -67q0 -42 24 -80t78 -88q65 -61 97.5 -117.5t32.5 -122.5
q0 -71 -44.5 -115t-111.5 -44t-109 43t-42 116v46h65zM313 920l-93 -162h-55l-92 162h55l67 -109l65 109h53z" />
    <glyph glyph-name="scaron" unicode="&#x161;" horiz-adv-x="351" 
d="M251 374v14q0 33 -20.5 53.5t-51.5 20.5t-51.5 -20t-20.5 -52q0 -31 20 -53.5t68 -46.5q61 -29 91 -67t30 -93q0 -61 -41 -100.5t-101 -39.5t-99.5 38t-39.5 101v16h62v-15q0 -38 21.5 -60t55.5 -22t55.5 22t21.5 59q0 34 -22 59.5t-78 52.5q-109 54 -109 149
q0 56 39.5 92.5t97.5 36.5t96 -36.5t38 -93.5v-15h-62zM300 740l-93 -162h-55l-92 162h55l67 -109l65 109h53z" />
    <glyph glyph-name="Tcommaaccent" unicode="&#x162;" horiz-adv-x="352" 
d="M332 636h-122v-636h-68v636h-122v64h312v-64zM81 -222l59 162h70l-76 -162h-53z" />
    <glyph glyph-name="tcommaaccent" unicode="&#x163;" horiz-adv-x="285" 
d="M20 454v55h65v131h65v-131h105v-55h-105v-329q0 -75 63 -75l37 3v-57q-23 -6 -52 -6q-53 0 -83 32t-30 94v338h-65zM74 -222l59 162h70l-76 -162h-53z" />
    <glyph glyph-name="Tcaron" unicode="&#x164;" horiz-adv-x="352" 
d="M296 920l-93 -162h-55l-92 162h55l67 -109l65 109h53zM332 636h-122v-636h-68v636h-122v64h312v-64z" />
    <glyph glyph-name="tcaron" unicode="&#x165;" horiz-adv-x="285" 
d="M242 570h-47l17 220h70zM20 454v55h65v131h65v-131h105v-55h-105v-329q0 -75 63 -75l37 3v-57q-23 -6 -52 -6q-53 0 -83 32t-30 94v338h-65z" />
    <glyph glyph-name="Tbar" unicode="&#x166;" horiz-adv-x="352" 
d="M332 636h-122v-249h102v-47h-102v-340h-68v340h-102v47h102v249h-122v64h312v-64z" />
    <glyph glyph-name="tbar" unicode="&#x167;" horiz-adv-x="285" 
d="M20 456v53h65v131h65v-131h105v-53h-105v-166h105v-47h-105v-119q0 -75 63 -75l37 3v-56q-23 -6 -52 -6q-53 0 -83 32t-30 94v127h-65v47h65v166h-65z" />
    <glyph glyph-name="Utilde" unicode="&#x168;" 
d="M117 778h-45q0 4 0.5 10.5t4.5 22.5t11.5 28.5t24 23t38.5 10.5q26 0 45 -15.5t33 -31t30 -15.5q14 0 22.5 12.5t9.5 25.5l1 13h45q0 -4 -0.5 -10.5t-5 -23t-12 -29t-24 -23t-38.5 -10.5q-26 0 -44.5 15.5t-32.5 31t-30 15.5q-14 0 -22.5 -12.5t-9.5 -25.5zM288 700h67
v-553q0 -71 -43.5 -114t-107.5 -43q-65 0 -107 42t-42 113v555h68v-552q0 -45 23 -70t60 -25t59.5 25t22.5 70v552z" />
    <glyph glyph-name="utilde" unicode="&#x169;" horiz-adv-x="385" 
d="M265 137v372h65v-509h-56l-3 49q-34 -59 -105 -59q-51 0 -83.5 36t-32.5 99v384h65v-372q0 -41 19.5 -64t52.5 -23q34 0 56 23t22 64zM103 598h-45q0 4 0.5 10.5t4.5 22.5t11.5 28.5t24 23t38.5 10.5q26 0 45 -15.5t33 -31t30 -15.5q14 0 22.5 12.5t9.5 25.5l1 13h45
q0 -4 -0.5 -10.5t-5 -23t-12 -29t-24 -23t-38.5 -10.5q-26 0 -44.5 15.5t-32.5 31t-30 15.5q-14 0 -22.5 -12.5t-9.5 -25.5z" />
    <glyph glyph-name="Umacron" unicode="&#x16a;" 
d="M288 700h67v-553q0 -71 -43.5 -114t-107.5 -43q-65 0 -107 42t-42 113v555h68v-552q0 -45 23 -70t60 -25t59.5 25t22.5 70v552zM80 800v49h250v-49h-250z" />
    <glyph glyph-name="umacron" unicode="&#x16b;" horiz-adv-x="385" 
d="M265 137v372h65v-509h-56l-3 49q-34 -59 -105 -59q-51 0 -83.5 36t-32.5 99v384h65v-372q0 -41 19.5 -64t52.5 -23q34 0 56 23t22 64zM66 606v49h250v-49h-250z" />
    <glyph glyph-name="Ubreve" unicode="&#x16c;" 
d="M94 920h52v-50q0 -30 15 -48t44 -18t44.5 18t15.5 48v50h51v-48q0 -52 -30.5 -83.5t-80.5 -31.5t-80.5 31t-30.5 82v50zM288 700h67v-553q0 -71 -43.5 -114t-107.5 -43q-65 0 -107 42t-42 113v555h68v-552q0 -45 23 -70t60 -25t59.5 25t22.5 70v552z" />
    <glyph glyph-name="ubreve" unicode="&#x16d;" horiz-adv-x="385" 
d="M265 137v372h65v-509h-56l-3 49q-34 -59 -105 -59q-51 0 -83.5 36t-32.5 99v384h65v-372q0 -41 19.5 -64t52.5 -23q34 0 56 23t22 64zM80 740h52v-50q0 -30 15 -48t44 -18t44.5 18t15.5 48v50h51v-48q0 -52 -30.5 -83.5t-80.5 -31.5t-80.5 31t-30.5 82v50z" />
    <glyph glyph-name="Uring" unicode="&#x16e;" 
d="M288 700h67v-553q0 -71 -43.5 -114t-107.5 -43q-65 0 -107 42t-42 113v555h68v-552q0 -45 23 -70t60 -25t59.5 25t22.5 70v552zM205 930q39 0 64.5 -24.5t25.5 -61.5q0 -38 -25.5 -62.5t-64.5 -24.5t-64 24.5t-25 62.5q0 37 25 61.5t64 24.5zM205 796q21 0 34 13t13 35
q0 21 -13.5 34t-33.5 13t-33 -13t-13 -34t13 -34.5t33 -13.5z" />
    <glyph glyph-name="uring" unicode="&#x16f;" horiz-adv-x="385" 
d="M265 137v372h65v-509h-56l-3 49q-34 -59 -105 -59q-51 0 -83.5 36t-32.5 99v384h65v-372q0 -41 19.5 -64t52.5 -23q34 0 56 23t22 64zM192 750q39 0 64.5 -24.5t25.5 -61.5q0 -38 -25.5 -62.5t-64.5 -24.5t-64 24.5t-25 62.5q0 37 25 61.5t64 24.5zM192 616q20 0 33.5 13
t13.5 35q0 21 -13.5 34t-33.5 13t-33 -13t-13 -34t13 -34.5t33 -13.5z" />
    <glyph glyph-name="Uhungarumlaut" unicode="&#x170;" 
d="M288 700h67v-553q0 -71 -43.5 -114t-107.5 -43q-65 0 -107 42t-42 113v555h68v-552q0 -45 23 -70t60 -25t59.5 25t22.5 70v552zM252 757l41 163h69l-59 -163h-51zM109 757l41 163h69l-59 -163h-51z" />
    <glyph glyph-name="uhungarumlaut" unicode="&#x171;" horiz-adv-x="385" 
d="M265 137v372h65v-509h-56l-3 49q-34 -59 -105 -59q-51 0 -83.5 36t-32.5 99v384h65v-372q0 -41 19.5 -64t52.5 -23q34 0 56 23t22 64zM235 577l41 163h69l-59 -163h-51zM92 577l41 163h69l-59 -163h-51z" />
    <glyph glyph-name="Uogonek" unicode="&#x172;" 
d="M288 700h67v-553q0 -55 -27 -93.5t-71 -54.5q-25 -19 -25 -64q0 -32 22 -51.5t56 -19.5l35 3v-47q-11 -5 -38 -5q-54 0 -90.5 32t-36.5 80q0 36 18 63q-63 2 -103 44t-40 111v555h68v-552q0 -45 23 -70t60 -25t59.5 25t22.5 70v552z" />
    <glyph glyph-name="uogonek" unicode="&#x173;" horiz-adv-x="385" 
d="M265 137v372h65v-509h-21q-27 -18 -27 -65q0 -32 22 -51.5t56 -19.5l35 3v-47q-11 -5 -38 -5q-54 0 -90.5 32t-36.5 80q0 57 43 90l-2 32q-34 -59 -105 -59q-51 0 -83.5 36t-32.5 99v384h65v-372q0 -41 19.5 -64t52.5 -23q34 0 56 23t22 64z" />
    <glyph glyph-name="Wcircumflex" unicode="&#x174;" horiz-adv-x="540" 
d="M127 0l-117 700h72l80 -542l83 542h53l83 -542l81 542h68l-117 -700h-62l-81 506l-81 -506h-62zM150 758l93 162h55l92 -162h-55l-67 109l-65 -109h-53z" />
    <glyph glyph-name="wcircumflex" unicode="&#x175;" horiz-adv-x="475" 
d="M117 578l93 162h55l92 -162h-55l-67 109l-65 -109h-53zM116 0l-106 509h68l69 -380l70 380h45l70 -380l68 380h65l-107 -509h-56l-65 359l-65 -359h-56z" />
    <glyph glyph-name="Ycircumflex" unicode="&#x176;" horiz-adv-x="355" 
d="M143 0v282l-133 418h72l97 -336l98 336h68l-134 -420v-280h-68zM59 758l93 162h55l92 -162h-55l-67 109l-65 -109h-53z" />
    <glyph glyph-name="ycircumflex" unicode="&#x177;" horiz-adv-x="320" 
d="M130 0l-120 509h69l83 -408l83 408h65l-124 -524q-20 -85 -51 -120t-74 -35l-31 4v54q7 -2 20 -2q30 0 48 23.5t32 90.5zM42 578l93 162h55l92 -162h-55l-67 109l-65 -109h-53z" />
    <glyph glyph-name="Ydieresis" unicode="&#x178;" horiz-adv-x="355" 
d="M143 0v282l-133 418h72l97 -336l98 336h68l-134 -420v-280h-68zM254 871q19 0 31.5 -13t12.5 -32t-12.5 -31.5t-31.5 -12.5t-32 12.5t-13 31.5t13 32t32 13zM105 871q19 0 31.5 -13t12.5 -32t-12.5 -31.5t-31.5 -12.5t-32 12.5t-13 31.5t13 32t32 13z" />
    <glyph glyph-name="Zacute" unicode="&#x179;" horiz-adv-x="330" 
d="M300 0h-270v49l198 590h-183v61h255v-49l-199 -590h199v-61zM144 758l59 162h70l-76 -162h-53z" />
    <glyph glyph-name="zacute" unicode="&#x17a;" horiz-adv-x="300" 
d="M30 44l171 409h-156v56h225v-43l-171 -410h171v-56h-240v44zM128 578l59 162h70l-76 -162h-53z" />
    <glyph glyph-name="Zdotaccent" unicode="&#x17b;" horiz-adv-x="330" 
d="M300 0h-270v49l198 590h-183v61h255v-49l-199 -590h199v-61zM173 880q19 0 32 -13t13 -32t-13 -31.5t-32 -12.5t-31.5 12.5t-12.5 31.5t12.5 32t31.5 13z" />
    <glyph glyph-name="zdotaccent" unicode="&#x17c;" horiz-adv-x="300" 
d="M30 44l171 409h-156v56h225v-43l-171 -410h171v-56h-240v44zM159 700q19 0 32 -13t13 -32t-13 -31.5t-32 -12.5t-31.5 12.5t-12.5 31.5t12.5 32t31.5 13z" />
    <glyph glyph-name="Zcaron" unicode="&#x17d;" horiz-adv-x="330" 
d="M300 0h-270v49l198 590h-183v61h255v-49l-199 -590h199v-61zM293 920l-93 -162h-55l-92 162h55l67 -109l65 109h53z" />
    <glyph glyph-name="zcaron" unicode="&#x17e;" horiz-adv-x="300" 
d="M30 44l171 409h-156v56h225v-43l-171 -410h171v-56h-240v44zM281 740l-93 -162h-55l-92 162h55l67 -109l65 109h53z" />
    <glyph glyph-name="florin" unicode="&#x192;" horiz-adv-x="340" 
d="M140 -160h-65l35 464h-90v47h94l18 228q5 63 38.5 97t88.5 34l46 -5v-60q-14 4 -39 4q-63 0 -69 -80l-17 -218h110v-47h-113z" />
    <glyph glyph-name="Aringacute" unicode="&#x1fa;" horiz-adv-x="375" 
d="M288 930l-50 -106q39 -24 39 -71q0 -57 -52 -80l140 -673h-71l-34 178h-149l-34 -178h-67l139 673q-23 10 -37 31t-14 49q0 36 24.5 60.5t62.5 25.5l33 91h70zM186 574l-66 -341h131zM187 705q21 0 34 13.5t13 34.5t-13.5 34t-33.5 13t-33 -13t-13 -34t13 -34.5t33 -13.5
z" />
    <glyph glyph-name="aringacute" unicode="&#x1fb;" horiz-adv-x="380" 
d="M40 135v23q0 65 37 106.5t93 41.5q60 0 95 -48v120q0 38 -20.5 61t-51.5 23t-51.5 -23t-20.5 -61v-21h-62v18q0 47 22 82t58 50q-28 25 -28 66q0 36 24.5 60.5t62.5 25.5l33 91h70l-50 -106q39 -24 39 -71q0 -43 -33 -69q73 -35 73 -126v-378h-53l-5 50q-36 -60 -105 -60
q-56 0 -91.5 39.5t-35.5 105.5zM105 160v-22q0 -42 22 -67.5t58 -25.5t58 25.5t22 67.5v22q0 42 -22 67.5t-58 25.5t-58 -25.5t-22 -67.5zM200 525q20 0 33.5 13.5t13.5 34.5t-13.5 34t-33.5 13t-33 -13t-13 -34t13 -34.5t33 -13.5z" />
    <glyph glyph-name="AEacute" unicode="&#x1fc;" horiz-adv-x="540" 
d="M136 233h124v412zM505 636h-178v-241h148v-60h-148v-271h183v-64h-250v178h-139l-54 -178h-67l217 700h288v-64zM331 758l59 162h70l-76 -162h-53z" />
    <glyph glyph-name="aeacute" unicode="&#x1fd;" horiz-adv-x="590" 
d="M330 375v-70h154v70q0 41 -21.5 65t-55.5 24t-55.5 -24t-21.5 -65zM40 135v23q0 65 37 106.5t93 41.5q60 0 95 -48v120q0 38 -20.5 61t-51.5 23t-51.5 -23t-20.5 -61v-21h-62v18q0 64 39 104t96 40q72 0 105 -59q35 59 108 59q60 0 99 -39.5t39 -105.5v-116h-215v-119
q0 -41 21.5 -65t55.5 -24t55.5 24t21.5 65v26h61v-27q0 -66 -40.5 -107t-100.5 -41q-83 0 -115 73q-16 -34 -47.5 -53.5t-71.5 -19.5q-57 0 -93.5 39.5t-36.5 105.5zM105 160v-22q0 -42 22 -67.5t58 -25.5t58 25.5t22 67.5v22q0 42 -22 67.5t-58 25.5t-58 -25.5t-22 -67.5z
M283 578l59 162h70l-76 -162h-53z" />
    <glyph glyph-name="Oslashacute" unicode="&#x1fe;" 
d="M370 730l-34 -89q24 -40 24 -91v-398q0 -73 -44.5 -117.5t-111.5 -44.5q-61 0 -101 35l-21 -55h-42l33 89q-23 37 -23 91v397q0 73 44.5 118t111.5 45q59 0 100 -35l21 55h43zM117 547v-373l162 430q-23 43 -74 43q-39 0 -63.5 -27t-24.5 -73zM205 52q39 0 63 27t24 73
v372l-163 -429q23 -43 76 -43zM176 758l59 162h70l-76 -162h-53z" />
    <glyph glyph-name="oslashacute" unicode="&#x1ff;" horiz-adv-x="374" 
d="M349 539l-42 -85q22 -35 22 -81v-234q0 -65 -41.5 -107t-101.5 -42q-54 0 -91 31l-25 -51h-45l41 84q-21 37 -21 82v234q0 66 41 107.5t102 41.5q51 0 91 -32l25 52h45zM109 370v-229l140 286q-22 33 -62 33q-35 0 -56.5 -24t-21.5 -66zM187 49q34 0 56 24.5t22 65.5v229
l-141 -287q21 -32 63 -32zM165 578l59 162h70l-76 -162h-53z" />
    <glyph glyph-name="Scommaaccent" unicode="&#x218;" horiz-adv-x="377" 
d="M100 195v-42q0 -47 24 -74.5t63 -27.5t63.5 26t24.5 71q0 51 -27 94.5t-90 102.5q-116 108 -116 211q0 69 43.5 111.5t107.5 42.5t105 -42t41 -112v-36h-64v32q0 45 -23 70.5t-60 25.5t-59.5 -24t-22.5 -67q0 -42 24 -80t78 -88q65 -61 97.5 -117.5t32.5 -122.5
q0 -71 -44.5 -115t-111.5 -44t-109 43t-42 116v46h65zM84 -222l59 162h70l-76 -162h-53z" />
    <glyph glyph-name="scommaaccent" unicode="&#x219;" horiz-adv-x="351" 
d="M251 374v14q0 33 -20.5 53.5t-51.5 20.5t-51.5 -20t-20.5 -52q0 -31 20 -53.5t68 -46.5q61 -29 91 -67t30 -93q0 -61 -41 -100.5t-101 -39.5t-99.5 38t-39.5 101v16h62v-15q0 -38 21.5 -60t55.5 -22t55.5 22t21.5 59q0 34 -22 59.5t-78 52.5q-109 54 -109 149
q0 56 39.5 92.5t97.5 36.5t96 -36.5t38 -93.5v-15h-62zM74 -222l59 162h70l-76 -162h-53z" />
    <glyph glyph-name="circumflex" unicode="&#x2c6;" horiz-adv-x="530" 
d="M145 578l93 162h55l92 -162h-55l-67 109l-65 -109h-53z" />
    <glyph glyph-name="caron" unicode="&#x2c7;" horiz-adv-x="530" 
d="M385 740l-93 -162h-55l-92 162h55l67 -109l65 109h53z" />
    <glyph glyph-name="breve" unicode="&#x2d8;" horiz-adv-x="452" 
d="M115 740h52v-50q0 -30 15 -48t44 -18t44.5 18t15.5 48v50h51v-48q0 -52 -30.5 -83.5t-80.5 -31.5t-80.5 31t-30.5 82v50z" />
    <glyph glyph-name="dotaccent" unicode="&#x2d9;" horiz-adv-x="279" 
d="M139 700q19 0 32 -13t13 -32t-13 -31.5t-32 -12.5t-31.5 12.5t-12.5 31.5t12.5 32t31.5 13z" />
    <glyph glyph-name="ring" unicode="&#x2da;" horiz-adv-x="320" 
d="M160 770q39 0 64.5 -24.5t25.5 -61.5q0 -38 -25.5 -62.5t-64.5 -24.5t-64 24.5t-25 62.5q0 37 25 61.5t64 24.5zM160 636q20 0 33.5 13t13.5 35q0 21 -13.5 34t-33.5 13t-33 -13t-13 -34t13 -34.5t33 -13.5z" />
    <glyph glyph-name="ogonek" unicode="&#x2db;" horiz-adv-x="345" 
d="M142 27l22 -27q-27 -18 -27 -65q0 -32 22 -51.5t56 -19.5l35 3v-47q-11 -5 -38 -5q-54 0 -90.5 32t-36.5 80q0 20 6 37.5t14.5 28.5t16.5 19t14 12z" />
    <glyph glyph-name="tilde" unicode="&#x2dc;" horiz-adv-x="467" 
d="M146 608h-45q0 4 0.5 10.5t4.5 22.5t11.5 28.5t24 23t38.5 10.5q26 0 45 -15.5t33 -31t30 -15.5q14 0 22.5 12.5t9.5 25.5l1 13h45q0 -4 -0.5 -10.5t-5 -23t-12 -29t-24 -23t-38.5 -10.5q-26 0 -44.5 15.5t-32.5 31t-30 15.5q-14 0 -22.5 -12.5t-9.5 -25.5z" />
    <glyph glyph-name="hungarumlaut" unicode="&#x2dd;" horiz-adv-x="570" 
d="M302 577l41 163h69l-59 -163h-51zM159 577l41 163h69l-59 -163h-51z" />
    <glyph glyph-name="Delta" unicode="&#x394;" horiz-adv-x="385" 
d="M190 579l-103 -518h206zM225 700l150 -700h-365l150 700h65z" />
    <glyph glyph-name="Delta" unicode="&#x2206;" horiz-adv-x="385" 
d="M190 579l-103 -518h206zM225 700l150 -700h-365l150 700h65z" />
    <glyph glyph-name="pi" unicode="&#x3c0;" horiz-adv-x="470" 
d="M160 0h-65v453h-75v56h420v-56h-86v-344q0 -60 52 -60l29 2v-55q-18 -6 -47 -6q-45 0 -72 27.5t-27 81.5v354h-129v-453z" />
    <glyph glyph-name="Wgrave" unicode="&#x1e80;" horiz-adv-x="540" 
d="M127 0l-117 700h72l80 -542l83 542h53l83 -542l81 542h68l-117 -700h-62l-81 506l-81 -506h-62zM233 920l59 -162h-53l-76 162h70z" />
    <glyph glyph-name="wgrave" unicode="&#x1e81;" horiz-adv-x="475" 
d="M116 0l-106 509h68l69 -380l70 380h45l70 -380l68 380h65l-107 -509h-56l-65 359l-65 -359h-56zM201 740l59 -162h-53l-76 162h70z" />
    <glyph glyph-name="Wacute" unicode="&#x1e82;" horiz-adv-x="540" 
d="M127 0l-117 700h72l80 -542l83 542h53l83 -542l81 542h68l-117 -700h-62l-81 506l-81 -506h-62zM253 758l59 162h70l-76 -162h-53z" />
    <glyph glyph-name="wacute" unicode="&#x1e83;" horiz-adv-x="475" 
d="M116 0l-106 509h68l69 -380l70 380h45l70 -380l68 380h65l-107 -509h-56l-65 359l-65 -359h-56zM221 578l59 162h70l-76 -162h-53z" />
    <glyph glyph-name="Wdieresis" unicode="&#x1e84;" horiz-adv-x="540" 
d="M127 0l-117 700h72l80 -542l83 542h53l83 -542l81 542h68l-117 -700h-62l-81 506l-81 -506h-62zM345 871q19 0 31.5 -13t12.5 -32t-12.5 -31.5t-31.5 -12.5t-32 12.5t-13 31.5t13 32t32 13zM196 871q19 0 31.5 -13t12.5 -32t-12.5 -31.5t-31.5 -12.5t-32 12.5t-13 31.5
t13 32t32 13z" />
    <glyph glyph-name="wdieresis" unicode="&#x1e85;" horiz-adv-x="475" 
d="M312 691q19 0 31.5 -13t12.5 -32t-12.5 -31.5t-31.5 -12.5t-32 12.5t-13 31.5t13 32t32 13zM163 691q19 0 31.5 -13t12.5 -32t-12.5 -31.5t-31.5 -12.5t-32 12.5t-13 31.5t13 32t32 13zM116 0l-106 509h68l69 -380l70 380h45l70 -380l68 380h65l-107 -509h-56l-65 359
l-65 -359h-56z" />
    <glyph glyph-name="uni1E9E" unicode="&#x1e9e;" 
d="M195 -7v62q9 -2 25 -2q39 0 63 26.5t24 73.5v134q0 46 -24 73t-63 27h-20v45l88 161q-22 54 -82 54q-38 0 -61 -25.5t-23 -70.5v-551h-67v552q0 71 43 114.5t108 43.5q33 0 60.5 -11t43 -26t26.5 -30.5t15 -26.5l4 -11l-90 -166q50 -12 80 -52t30 -100v-138
q0 -72 -42 -115.5t-103 -43.5z" />
    <glyph glyph-name="Ygrave" unicode="&#x1ef2;" horiz-adv-x="355" 
d="M143 0v282l-133 418h72l97 -336l98 336h68l-134 -420v-280h-68zM147 920l59 -162h-53l-76 162h70z" />
    <glyph glyph-name="ygrave" unicode="&#x1ef3;" horiz-adv-x="320" 
d="M130 0l-120 509h69l83 -408l83 408h65l-124 -524q-20 -85 -51 -120t-74 -35l-31 4v54q7 -2 20 -2q30 0 48 23.5t32 90.5zM129 740l59 -162h-53l-76 162h70z" />
    <glyph glyph-name="endash" unicode="&#x2013;" horiz-adv-x="450" 
d="M420 327h-390v59h390v-59z" />
    <glyph glyph-name="emdash" unicode="&#x2014;" horiz-adv-x="520" 
d="M490 327h-460v59h460v-59z" />
    <glyph glyph-name="quoteleft" unicode="&#x2018;" horiz-adv-x="159" 
d="M65 700h54l-6 -230h-73z" />
    <glyph glyph-name="quoteright" unicode="&#x2019;" horiz-adv-x="159" 
d="M94 470h-54l6 230h73z" />
    <glyph glyph-name="quotesinglbase" unicode="&#x201a;" horiz-adv-x="159" 
d="M94 -130h-54l6 230h73z" />
    <glyph glyph-name="quotedblleft" unicode="&#x201c;" horiz-adv-x="289" 
d="M65 700h54l-6 -230h-73zM195 700h54l-6 -230h-73z" />
    <glyph glyph-name="quotedblright" unicode="&#x201d;" horiz-adv-x="289" 
d="M94 470h-54l6 230h73zM224 470h-54l6 230h73z" />
    <glyph glyph-name="quotedblbase" unicode="&#x201e;" horiz-adv-x="289" 
d="M94 -130h-54l6 230h73zM224 -130h-54l6 230h73z" />
    <glyph glyph-name="dagger" unicode="&#x2020;" horiz-adv-x="335" 
d="M305 534h-109v-224h-57v224h-109v51h109v115h57v-115h109v-51z" />
    <glyph glyph-name="daggerdbl" unicode="&#x2021;" horiz-adv-x="335" 
d="M30 396h109v138h-109v51h109v115h57v-115h109v-51h-109v-138h109v-51h-109v-115h-57v115h-109v51z" />
    <glyph glyph-name="bullet" unicode="&#x2022;" horiz-adv-x="277" 
d="M139 449q42 0 70 -28.5t28 -70.5q0 -41 -28.5 -70t-70.5 -29t-70 28.5t-28 69.5q0 42 29 71t70 29z" />
    <glyph glyph-name="perthousand" unicode="&#x2030;" horiz-adv-x="845" 
d="M694 39q29 0 48.5 20t19.5 51q0 30 -19.5 50t-48.5 20t-49 -20t-20 -50q0 -31 20 -51t49 -20zM152 610q52 0 86 -33.5t34 -85.5t-35 -86.5t-87 -34.5q-51 0 -85.5 34t-34.5 85t35.5 86t86.5 35zM64 0l370 600h52l-370 -600h-52zM151 420q29 0 49 20t20 50t-20 50.5
t-49 20.5t-48.5 -20.5t-19.5 -50.5t19.5 -50t48.5 -20zM400 229q51 0 85.5 -33.5t34.5 -84.5t-35.5 -86t-86.5 -35q-52 0 -86.5 33.5t-34.5 85.5q0 51 35.5 85.5t87.5 34.5zM399 39q29 0 48.5 20t19.5 51q0 30 -19.5 50t-48.5 20t-49 -20t-20 -50q0 -31 20 -51t49 -20z
M695 229q51 0 85.5 -33.5t34.5 -84.5t-35.5 -86t-86.5 -35q-52 0 -86.5 33.5t-34.5 85.5q0 51 35.5 85.5t87.5 34.5z" />
    <glyph glyph-name="guilsinglleft" unicode="&#x2039;" horiz-adv-x="319" 
d="M269 512l-162 -161l162 -161l-38 -40l-201 187v25l201 188z" />
    <glyph glyph-name="guilsinglright" unicode="&#x203a;" horiz-adv-x="319" 
d="M50 188l162 161l-162 161l38 40l201 -187v-25l-201 -188z" />
    <glyph glyph-name="fraction" unicode="&#x2044;" horiz-adv-x="140" 
d="M-160 0l407 700h53l-408 -700h-52z" />
    <glyph glyph-name="zerosuperior" unicode="&#x2070;" horiz-adv-x="253" 
d="M85 610v-240q0 -49 42 -49q41 0 41 49v240q0 23 -11 36t-30 13q-20 0 -31 -13t-11 -36zM35 368v241q0 44 26.5 70.5t66.5 26.5q39 0 64.5 -26t25.5 -69v-241q0 -43 -26 -69.5t-66 -26.5t-65.5 25.5t-25.5 68.5z" />
    <glyph glyph-name="foursuperior" unicode="&#x2074;" horiz-adv-x="250" 
d="M67 430h77v181zM25 431l118 269h49v-270h33v-43h-33v-107h-48v107h-119v44z" />
    <glyph glyph-name="fivesuperior" unicode="&#x2075;" horiz-adv-x="249" 
d="M41 472v228h164v-46h-117v-110q18 20 45 20q35 0 58 -24t23 -64v-108q0 -41 -26.5 -67.5t-64.5 -26.5t-63 25.5t-25 66.5v34h50v-32q0 -47 39 -47q18 0 28.5 12.5t10.5 34.5v104q0 22 -10.5 34.5t-28.5 12.5q-17 0 -27 -10.5t-10 -29.5v-7h-46z" />
    <glyph glyph-name="sixsuperior" unicode="&#x2076;" horiz-adv-x="257" 
d="M85 456v-84q0 -51 44 -51q43 0 43 51v84q0 52 -43 52q-44 0 -44 -52zM35 370v67q0 50 16 87l75 176h51l-68 -156q12 7 27 7q39 0 62.5 -25.5t23.5 -69.5v-85q0 -43 -27 -70t-67 -27q-41 0 -67 26t-26 70z" />
    <glyph glyph-name="sevensuperior" unicode="&#x2077;" horiz-adv-x="230" 
d="M43 280l109 374h-127v46h180v-37l-111 -383h-51z" />
    <glyph glyph-name="eightsuperior" unicode="&#x2078;" horiz-adv-x="249" 
d="M85 613v-42q0 -23 11 -35.5t29 -12.5t28.5 12.5t10.5 35.5v42q0 23 -10.5 35.5t-28.5 12.5t-29 -12.5t-11 -35.5zM35 578v33q0 42 26 68.5t65 26.5t63.5 -25.5t24.5 -67.5v-32q0 -52 -34 -76q39 -27 39 -82v-50q0 -45 -26.5 -72t-68.5 -27t-68 26.5t-26 70.5v50
q0 54 39 82q-34 24 -34 75zM80 430v-58q0 -53 45 -53q44 0 44 53v58q0 53 -44 53q-45 0 -45 -53z" />
    <glyph glyph-name="ninesuperior" unicode="&#x2079;" horiz-adv-x="257" 
d="M172 524v84q0 51 -44 51q-43 0 -43 -51v-84q0 -52 43 -52q44 0 44 52zM222 610v-67q0 -50 -16 -87l-75 -176h-51l68 156q-12 -7 -27 -7q-39 0 -62.5 25.5t-23.5 69.5v85q0 43 26.5 70t67.5 27t67 -26t26 -70z" />
    <glyph glyph-name="zeroinferior" unicode="&#x2080;" horiz-adv-x="253" 
d="M85 330v-240q0 -49 42 -49q41 0 41 49v240q0 23 -11 36t-30 13q-20 0 -31 -13t-11 -36zM35 88v241q0 44 26.5 70.5t66.5 26.5q39 0 64.5 -26t25.5 -69v-241q0 -43 -26 -69.5t-66 -26.5t-65.5 25.5t-25.5 68.5z" />
    <glyph glyph-name="oneinferior" unicode="&#x2081;" horiz-adv-x="204" 
d="M10 329l106 91h43v-420h-51v355l-70 -59z" />
    <glyph glyph-name="twoinferior" unicode="&#x2082;" horiz-adv-x="238" 
d="M208 0h-177v36l105 208q22 42 22 85q0 50 -40 50t-40 -50v-35h-48v37q0 42 25.5 68.5t63.5 26.5q39 0 64 -26.5t25 -70.5q0 -46 -30 -106l-91 -178h121v-45z" />
    <glyph glyph-name="threeinferior" unicode="&#x2083;" horiz-adv-x="241" 
d="M207 336v-43q0 -48 -33 -73q37 -26 37 -78v-52q0 -43 -26 -69.5t-66 -26.5q-39 0 -64 25.5t-25 68.5v35h48v-33q0 -50 41 -50q42 0 42 50v58q0 51 -42 51h-22v40h22q37 0 37 45v51q0 45 -37 45q-16 0 -26 -12t-10 -33v-29h-49v28q0 41 24.5 66.5t61.5 25.5q38 0 62.5 -25
t24.5 -65z" />
    <glyph glyph-name="fourinferior" unicode="&#x2084;" horiz-adv-x="250" 
d="M67 150h77v181zM25 151l118 269h49v-270h33v-43h-33v-107h-48v107h-119v44z" />
    <glyph glyph-name="fiveinferior" unicode="&#x2085;" horiz-adv-x="249" 
d="M41 192v228h164v-46h-117v-110q18 20 45 20q35 0 58 -24t23 -64v-108q0 -41 -26.5 -67.5t-64.5 -26.5t-63 25.5t-25 66.5v34h50v-32q0 -47 39 -47q18 0 28.5 12.5t10.5 34.5v104q0 22 -10.5 34.5t-28.5 12.5q-17 0 -27 -10.5t-10 -29.5v-7h-46z" />
    <glyph glyph-name="sixinferior" unicode="&#x2086;" horiz-adv-x="257" 
d="M85 176v-84q0 -51 44 -51q43 0 43 51v84q0 52 -43 52q-44 0 -44 -52zM35 90v67q0 50 16 87l75 176h51l-68 -156q12 7 27 7q39 0 62.5 -25.5t23.5 -69.5v-85q0 -43 -27 -70t-67 -27q-41 0 -67 26t-26 70z" />
    <glyph glyph-name="seveninferior" unicode="&#x2087;" horiz-adv-x="230" 
d="M43 0l109 374h-127v46h180v-37l-111 -383h-51z" />
    <glyph glyph-name="eightinferior" unicode="&#x2088;" horiz-adv-x="249" 
d="M85 333v-42q0 -23 11 -35.5t29 -12.5t28.5 12.5t10.5 35.5v42q0 23 -10.5 35.5t-28.5 12.5t-29 -12.5t-11 -35.5zM35 298v33q0 42 26 68.5t65 26.5t63.5 -25.5t24.5 -67.5v-32q0 -52 -34 -76q39 -27 39 -82v-50q0 -45 -26.5 -72t-68.5 -27t-68 26.5t-26 70.5v50
q0 54 39 82q-34 24 -34 75zM80 150v-58q0 -53 45 -53q44 0 44 53v58q0 53 -44 53q-45 0 -45 -53z" />
    <glyph glyph-name="nineinferior" unicode="&#x2089;" horiz-adv-x="257" 
d="M172 244v84q0 51 -44 51q-43 0 -43 -51v-84q0 -52 43 -52q44 0 44 52zM222 330v-67q0 -50 -16 -87l-75 -176h-51l68 156q-12 -7 -27 -7q-39 0 -62.5 25.5t-23.5 69.5v85q0 43 26.5 70t67.5 27t67 -26t26 -70z" />
    <glyph glyph-name="Euro" unicode="&#x20ac;" horiz-adv-x="413" 
d="M313 140v50h65v-52q0 -66 -40.5 -107t-101.5 -41t-101 40t-40 107v131h-75v43h75v78h-75v43h75v128q0 68 41 109t102 41t100.5 -39.5t39.5 -106.5v-54h-65v49q0 43 -21 66.5t-55 23.5q-35 0 -56 -23.5t-21 -66.5v-127h169v-43h-169v-78h149v-43h-149v-128q0 -42 21 -65.5
t56 -23.5q34 0 55 23.5t21 65.5z" />
    <glyph glyph-name="trademark" unicode="&#x2122;" horiz-adv-x="513" 
d="M355 440l-49 146v-201h-48v315h51l57 -178l58 178h49v-315h-49v200l-48 -145h-21zM214 656h-62v-271h-50v271h-62v44h174v-44z" />
    <glyph glyph-name="minus" unicode="&#x2212;" horiz-adv-x="395" 
d="M365 327h-335v59h335v-59z" />
    <glyph glyph-name="fi" unicode="&#xfb01;" horiz-adv-x="442" 
d="M20 454v55h65v75q0 62 30 94t83 32l52 -6v-56q-20 3 -37 3q-63 0 -63 -75v-67h100v-55h-100v-454h-65v454h-65zM320 0v509h67v-509h-67zM353 700q19 0 33.5 -14t14.5 -34q0 -19 -14 -33t-34 -14q-19 0 -33 13.5t-14 33.5t14 34t33 14z" />
    <glyph glyph-name="fl" unicode="&#xfb02;" horiz-adv-x="442" 
d="M20 454v55h65v75q0 62 30 94t83 32l52 -6v-56q-20 3 -37 3q-63 0 -63 -75v-67h100v-55h-100v-454h-65v454h-65zM320 0v700h67v-700h-67z" />
    <glyph glyph-name="one.onum" horiz-adv-x="323" 
d="M15 489l175 151h53v-640h-66v555l-127 -109z" />
    <glyph glyph-name="two.onum" horiz-adv-x="366" 
d="M321 0h-274v44l173 318q36 64 36 136q0 43 -20.5 66.5t-54.5 23.5t-54 -23.5t-20 -66.5v-58h-62v62q0 66 39 107t99 41t99 -41t39 -110q0 -76 -48 -165l-148 -275h196v-59z" />
    <glyph glyph-name="three.onum" horiz-adv-x="371" 
d="M318 508v-52q0 -80 -59 -119q67 -39 67 -129v-66q0 -67 -40.5 -109.5t-102.5 -42.5q-61 0 -99.5 41t-38.5 109v55h62v-51q0 -43 21 -68t56 -25t56 25t21 68v71q0 43 -21 67.5t-56 24.5h-34v55h34q30 0 49.5 23t19.5 62v57q0 39 -19.5 62t-49.5 23t-49.5 -23t-19.5 -62
v-44h-62v45q0 63 38 104t94 41q57 0 95 -39.5t38 -102.5z" />
    <glyph glyph-name="four.onum" horiz-adv-x="389" 
d="M94 212h139v312zM39 214l193 426h63v-428h55v-55h-55v-157h-62v157h-194v57z" />
    <glyph glyph-name="five.onum" horiz-adv-x="377" 
d="M60 290v350h252v-61h-193v-185q29 38 84 38q54 0 89 -37.5t35 -99.5v-156q0 -65 -41 -107t-100 -42q-58 0 -97 40.5t-39 105.5v54h64v-49q0 -41 20.5 -65t53.5 -24q32 0 52.5 24t20.5 65v145q0 40 -20.5 64t-52.5 24q-31 0 -50.5 -21.5t-19.5 -54.5v-8h-58z" />
    <glyph glyph-name="six.onum" horiz-adv-x="389" 
d="M274 144v120q0 44 -21.5 68t-58.5 24t-58.5 -24t-21.5 -68v-120q0 -44 21.5 -68t58.5 -24t58.5 24t21.5 68zM209 415q59 0 94.5 -39.5t35.5 -106.5v-126q0 -69 -41.5 -111t-104.5 -42t-103.5 40.5t-40.5 109.5v110q0 70 27 130l121 260h66l-116 -245q27 20 62 20z" />
    <glyph glyph-name="seven.onum" horiz-adv-x="344" 
d="M66 0l180 579h-216v61h284v-46l-182 -594h-66z" />
    <glyph glyph-name="eight.onum" horiz-adv-x="389" 
d="M120 503v-48q0 -40 20.5 -63.5t53.5 -23.5t53.5 23.5t20.5 63.5v48q0 40 -20.5 63.5t-53.5 23.5t-53.5 -23.5t-20.5 -63.5zM55 463v40q0 65 40.5 106t99.5 41q60 0 99 -39.5t39 -104.5v-40q0 -83 -62 -122q70 -39 70 -132v-68q0 -69 -42 -111.5t-106 -42.5t-105 41.5
t-41 110.5v68q0 92 69 131q-61 40 -61 122zM112 220v-76q0 -44 22.5 -69t59.5 -25q38 0 60 24.5t22 69.5v76q0 45 -22.5 70t-59.5 25t-59.5 -25t-22.5 -70z" />
    <glyph glyph-name="nine.onum" horiz-adv-x="389" 
d="M115 496v-120q0 -44 21.5 -68t58.5 -24t58.5 24t21.5 68v120q0 44 -21.5 68t-58.5 24t-58.5 -24t-21.5 -68zM180 225q-59 0 -94.5 39.5t-35.5 106.5v126q0 69 41.5 111t104.5 42t103.5 -40.5t40.5 -109.5v-110q0 -70 -27 -130l-121 -260h-66l116 245q-27 -20 -62 -20z
" />
    <glyph glyph-name="zero.onum" horiz-adv-x="389" 
d="M117 498v-356q0 -43 21 -66.5t56 -23.5t56 23.5t21 66.5v356q0 43 -21 66.5t-56 23.5t-56 -23.5t-21 -66.5zM52 137v363q0 68 41 109t102 41t101 -40t40 -107v-364q0 -67 -41 -108t-102 -41t-101 40t-40 107z" />
    <glyph glyph-name="numbersign.onum" horiz-adv-x="389" 
d="M153 360l-15 -160h97l15 160h-97zM218 0l13 155h-97l-13 -155h-49l13 155h-68v45h72l15 160h-72v45h76l14 155h49l-14 -155h97l14 155h49l-14 -155h69v-45h-73l-15 -160h73v-45h-77l-13 -155h-49z" />
    <glyph glyph-name="cent.onum" horiz-adv-x="367" 
d="M162 70v73q-50 7 -81 44t-31 94v226q0 55 31.5 93t80.5 46v74h48v-73q48 -8 77.5 -45t29.5 -92v-58h-62v55q0 38 -19.5 60.5t-50.5 22.5t-50.5 -22.5t-19.5 -60.5v-224q0 -38 19.5 -60t50.5 -22t50.5 22t19.5 60v60h62v-60q0 -55 -30 -93t-77 -46v-74h-48z" />
    <glyph glyph-name="dollar.onum" horiz-adv-x="363" 
d="M104 185v-46q0 -40 21 -64.5t56 -24.5q34 0 55 24t21 64q0 80 -95 172q-56 54 -84.5 100.5t-28.5 95.5q0 55 30.5 93t79.5 47v74h48v-73q51 -6 82.5 -42.5t31.5 -94.5v-40h-64v36q0 38 -19.5 60.5t-51.5 22.5t-52 -22.5t-20 -59.5q0 -35 24 -69.5t76 -86.5
q109 -109 109 -212q0 -58 -32.5 -97.5t-83.5 -47.5v-74h-48v73q-53 6 -86 44t-33 98v50h64z" />
    <glyph glyph-name="sterling.onum" horiz-adv-x="407" 
d="M359 59v-59h-264v286h-75v45h75v172q0 67 39.5 107t100.5 40q60 0 98.5 -38.5t38.5 -104.5v-65h-64v60q0 42 -20 64.5t-54 22.5t-54 -22.5t-20 -64.5v-171h124v-45h-124v-227h199z" />
    <glyph glyph-name="Euro.onum" horiz-adv-x="407" 
d="M308 138v39h64v-42q0 -65 -39.5 -105t-99.5 -40q-61 0 -99.5 39t-38.5 105v105h-75v43h75v76h-75v43h75v102q0 67 39.5 107t100.5 40q60 0 98.5 -38.5t38.5 -104.5v-45h-64v40q0 42 -20 64.5t-54 22.5t-54 -22.5t-20 -64.5v-101h163v-43h-163v-76h143v-43h-143v-101
q0 -42 20 -64.5t54 -22.5t54 22.5t20 64.5z" />
    <glyph glyph-name="yen.onum" horiz-adv-x="379" 
d="M155 0v178h-110v44h110v72l-3 10h-107v44h90l-110 292h71l95 -280l95 280h68l-112 -292h92v-44h-107l-4 -12v-70h111v-44h-111v-178h-68z" />
    <glyph glyph-name="florin.onum" horiz-adv-x="334" 
d="M140 -160h-65l36 434h-91v47h95l16 200q5 63 37.5 96t87.5 33l43 -5v-59q-11 3 -36 3q-61 0 -67 -77l-16 -191h107v-47h-111z" />
    <glyph glyph-name="percent.onum" horiz-adv-x="550" 
d="M151 570q51 0 85 -33t34 -84t-35 -85t-86 -34t-85 33t-34 84t35 85t86 34zM64 0l370 560h52l-370 -560h-52zM150 383q29 0 48.5 20t19.5 49q0 30 -19.5 49.5t-48.5 19.5t-48.5 -19.5t-19.5 -49.5q0 -29 19.5 -49t48.5 -20zM401 225q51 0 85 -33t34 -83q0 -51 -35 -85
t-86 -34t-85 33t-34 84q0 50 35 84t86 34zM400 39q29 0 48.5 19.5t19.5 49.5q0 29 -19.5 49t-48.5 20t-48.5 -20t-19.5 -49q0 -30 19.5 -49.5t48.5 -19.5z" />
    <glyph glyph-name="perthousand.onum" horiz-adv-x="845" 
d="M695 39q29 0 48.5 19.5t19.5 49.5q0 29 -19.5 49t-48.5 20t-48.5 -20t-19.5 -49q0 -30 19.5 -49.5t48.5 -19.5zM151 570q51 0 85 -33t34 -84t-35 -85t-86 -34t-85 33t-34 84t35 85t86 34zM64 0l370 560h52l-370 -560h-52zM150 383q29 0 48.5 20t19.5 49q0 30 -19.5 49.5
t-48.5 19.5t-48.5 -19.5t-19.5 -49.5q0 -29 19.5 -49t48.5 -20zM401 225q51 0 85 -33t34 -83q0 -51 -35 -85t-86 -34t-85 33t-34 84q0 50 35 84t86 34zM400 39q29 0 48.5 19.5t19.5 49.5q0 29 -19.5 49t-48.5 20t-48.5 -20t-19.5 -49q0 -30 19.5 -49.5t48.5 -19.5zM696 225
q51 0 85 -33t34 -83q0 -51 -35 -85t-86 -34t-85 33t-34 84q0 50 35 84t86 34z" />
    <glyph glyph-name="one.lnum" horiz-adv-x="395" 
d="M380 0h-339v57h150v558l-131 -109l-35 44l178 150h53v-643h124v-57z" />
    <glyph glyph-name="two.lnum" horiz-adv-x="395" 
d="M342 0h-286v44l185 370q36 70 36 140q0 44 -22 69t-58 25t-58 -25t-22 -69v-64h-63v68q0 68 41.5 110t103.5 42t102.5 -42t40.5 -113q0 -73 -48 -171l-161 -325h209v-59z" />
    <glyph glyph-name="three.lnum" horiz-adv-x="395" 
d="M337 563v-72q0 -86 -63 -124q71 -40 71 -134v-86q0 -70 -43 -113.5t-108 -43.5q-64 0 -105 42.5t-41 112.5v60h63v-57q0 -45 23 -71t61 -26t61.5 26t23.5 71v92q0 46 -23.5 71.5t-61.5 25.5h-42v55h42q33 0 55 25t22 65v77q0 41 -21.5 65.5t-55.5 24.5t-55 -24.5
t-21 -65.5v-49h-63v50q0 66 40.5 108t99.5 42q61 0 101 -40.5t40 -106.5z" />
    <glyph glyph-name="four.lnum" horiz-adv-x="395" 
d="M94 242h145v339zM39 244l199 456h63v-458h55v-55h-55v-187h-62v187h-200v57z" />
    <glyph glyph-name="five.lnum" horiz-adv-x="395" 
d="M62 320v380h268v-61h-209v-218q35 44 92 44t94.5 -39t37.5 -104v-178q0 -68 -43.5 -111t-105.5 -43q-61 0 -102.5 41.5t-41.5 109.5v59h64v-53q0 -43 23 -69t59 -26q35 0 58 26t23 69v166q0 43 -23 68t-58 25q-34 0 -56 -22.5t-22 -58.5v-5h-58z" />
    <glyph glyph-name="six.lnum" horiz-adv-x="395" 
d="M114 292v-145q0 -45 22.5 -70t60.5 -25q37 0 59.5 25t22.5 70v145q0 45 -22 69.5t-60 24.5t-60.5 -24.5t-22.5 -69.5zM49 143v130q0 76 27 138l124 289h66l-120 -276q26 21 63 21q62 0 99 -40.5t37 -109.5v-150q0 -69 -42.5 -112t-106.5 -43t-105.5 41.5t-41.5 111.5z
" />
    <glyph glyph-name="seven.lnum" horiz-adv-x="395" 
d="M91 0l198 639h-252v61h320v-46l-200 -654h-66z" />
    <glyph glyph-name="eight.lnum" horiz-adv-x="395" 
d="M120 561v-73q0 -41 21.5 -65.5t55.5 -24.5t55 24.5t21 65.5v73q0 41 -21 65t-55 24t-55.5 -24t-21.5 -65zM55 496v64q0 66 41.5 108t101.5 42q61 0 101 -40.5t40 -106.5v-64q0 -85 -64 -125q72 -39 72 -135v-92q0 -70 -43.5 -113.5t-107.5 -43.5q-65 0 -107 42.5
t-42 112.5v92q0 92 72 134q-64 39 -64 125zM112 248v-101q0 -46 23.5 -71.5t61.5 -25.5t61 25.5t23 71.5v101q0 45 -23 71t-61 26t-61.5 -26t-23.5 -71z" />
    <glyph glyph-name="nine.lnum" horiz-adv-x="395" 
d="M281 408v145q0 45 -22.5 70t-60.5 25q-37 0 -59.5 -25t-22.5 -70v-145q0 -45 22 -69.5t60 -24.5t60.5 24.5t22.5 69.5zM346 557v-130q0 -76 -27 -138l-124 -289h-66l120 276q-26 -21 -63 -21q-62 0 -99 40.5t-37 109.5v150q0 69 42.5 112t106.5 43t105.5 -41.5
t41.5 -111.5z" />
    <glyph glyph-name="zero.lnum" horiz-adv-x="395" 
d="M117 555v-410q0 -43 22 -68t58 -25q35 0 57 25t22 68v410q0 43 -22 68t-57 25q-36 0 -58 -25t-22 -68zM52 140v417q0 68 42 110.5t104 42.5t103 -41t41 -109v-418q0 -68 -42 -110t-104 -42t-103 41t-41 109z" />
    <glyph glyph-name="numbersign.lnum" horiz-adv-x="395" 
d="M155 440l-13 -180h97l13 180h-97zM221 0l15 215h-97l-15 -215h-49l15 215h-70v45h73l13 180h-71v45h74l16 215h49l-16 -215h97l16 215h49l-16 -215h71v-45h-74l-13 -180h72v-45h-75l-15 -215h-49z" />
    <glyph glyph-name="cent.lnum" horiz-adv-x="395" 
d="M175 110v73q-51 8 -83 45.5t-32 94.5v242q0 56 32.5 94.5t82.5 46.5v74h48v-73q49 -8 79.5 -46t30.5 -94v-57h-62v55q0 38 -21 61.5t-52 23.5t-52 -23.5t-21 -61.5v-239q0 -39 20.5 -62t52.5 -23t52.5 23t20.5 62v59h62v-60q0 -56 -31 -94.5t-79 -46.5v-74h-48z" />
    <glyph glyph-name="dollar.lnum" horiz-adv-x="395" 
d="M117 195v-51q0 -43 22 -68t58 -25q35 0 57 24.5t22 67.5q0 53 -24 98t-75 100q-56 59 -85.5 110t-29.5 110t31 97.5t82 47.5v74h48v-73q52 -6 84.5 -44t32.5 -98v-45h-64v41q0 41 -20.5 64.5t-53.5 23.5q-34 0 -54.5 -23t-20.5 -64q0 -45 25.5 -86t78.5 -96
q55 -58 83 -113.5t28 -122.5q0 -61 -33 -101t-86 -49v-74h-48v73q-55 6 -88.5 45t-33.5 102v55h64z" />
    <glyph glyph-name="sterling.lnum" horiz-adv-x="395" 
d="M350 59v-59h-270v316h-60v45h60v199q0 68 41 109t102 41t100.5 -39.5t39.5 -106.5v-64h-65v59q0 43 -21 66.5t-55 23.5q-35 0 -56 -23.5t-21 -66.5v-198h130v-45h-130v-257h205z" />
    <glyph glyph-name="Euro.lnum" horiz-adv-x="395" 
d="M298 140v50h65v-52q0 -66 -40.5 -107t-101.5 -41t-101 40t-40 107v131h-60v43h60v78h-60v43h60v128q0 68 41 109t102 41t100.5 -39.5t39.5 -106.5v-54h-65v49q0 43 -21 66.5t-55 23.5q-35 0 -56 -23.5t-21 -66.5v-127h169v-43h-169v-78h149v-43h-149v-128q0 -42 21 -65.5
t56 -23.5q34 0 55 23.5t21 65.5z" />
    <glyph glyph-name="yen.lnum" horiz-adv-x="395" 
d="M163 0v208h-113v44h113v72l-3 10h-110v44h95l-116 322h72l98 -305l99 305h68l-116 -322h94v-44h-110l-4 -12v-70h114v-44h-114v-208h-67z" />
    <glyph glyph-name="florin.lnum" horiz-adv-x="395" 
d="M175 -160h-65l36 464h-101v47h104l18 223q5 66 40 101t92 35q14 0 26.5 -2t18.5 -4l6 -1v-58q-17 4 -44 4q-67 0 -74 -85l-17 -213h120v-47h-123z" />
    <glyph glyph-name="percent.lnum" horiz-adv-x="580" 
d="M162 710q56 0 93 -36.5t37 -92.5t-38 -93.5t-94 -37.5t-93 36.5t-37 92.5t38 93.5t94 37.5zM64 0l398 700h54l-399 -700h-53zM161 501q33 0 55 22.5t22 56.5t-22 56.5t-55 22.5t-55 -22.5t-22 -56.5t22 -56.5t55 -22.5zM420 249q56 0 93 -36.5t37 -91.5q0 -56 -38 -93.5
t-94 -37.5t-93.5 36.5t-37.5 92.5q0 55 38.5 92.5t94.5 37.5zM419 40q32 0 54.5 23t22.5 57t-22.5 56.5t-54.5 22.5q-33 0 -55.5 -22.5t-22.5 -56.5t22.5 -57t55.5 -23z" />
    <glyph glyph-name="perthousand.lnum" horiz-adv-x="900" 
d="M739 40q32 0 54.5 23t22.5 57t-22.5 56.5t-54.5 22.5q-33 0 -55.5 -22.5t-22.5 -56.5t22.5 -57t55.5 -23zM162 710q56 0 93 -36.5t37 -92.5t-38 -93.5t-94 -37.5t-93 36.5t-37 92.5t38 93.5t94 37.5zM64 0l398 700h54l-399 -700h-53zM161 501q33 0 55 22.5t22 56.5
t-22 56.5t-55 22.5t-55 -22.5t-22 -56.5t22 -56.5t55 -22.5zM420 249q56 0 93 -36.5t37 -91.5q0 -56 -38 -93.5t-94 -37.5t-93.5 36.5t-37.5 92.5q0 55 38.5 92.5t94.5 37.5zM419 40q32 0 54.5 23t22.5 57t-22.5 56.5t-54.5 22.5q-33 0 -55.5 -22.5t-22.5 -56.5t22.5 -57
t55.5 -23zM740 249q56 0 93 -36.5t37 -91.5q0 -56 -38 -93.5t-94 -37.5t-93.5 36.5t-37.5 92.5q0 55 38.5 92.5t94.5 37.5z" />
    <glyph glyph-name="numbersignsuperior" horiz-adv-x="265" 
d="M111 540l-7 -100h49l7 100h-49zM142 280l9 125h-49l-9 -125h-39l9 125h-38v35h40l7 100h-38v35h41l9 125h39l-10 -125h49l10 125h39l-10 -125h39v-35h-41l-7 -100h39v-35h-42l-8 -125h-39z" />
    <glyph glyph-name="centsuperior" horiz-adv-x="243" 
d="M104 346v44q-31 6 -50 29.5t-19 58.5v136q0 34 19.5 58.5t49.5 30.5v45h38v-45q29 -6 47.5 -29.5t18.5 -57.5v-30h-49v29q0 45 -36 45q-38 0 -38 -45v-136q0 -22 10.5 -34t27.5 -12q36 0 36 46v32h49v-31q0 -35 -18.5 -59t-47.5 -31v-44h-38z" />
    <glyph glyph-name="dollarsuperior" horiz-adv-x="243" 
d="M80 397v-30q0 -22 11.5 -34.5t29.5 -12.5q17 0 29 12t12 34q0 56 -57 114q-70 74 -70 133q0 35 18.5 59t49.5 31v45h38v-44q32 -5 51.5 -29t19.5 -61v-22h-50v24q0 20 -11 32t-27 12t-27 -11.5t-11 -31.5q0 -44 59 -105q68 -71 68 -142q0 -37 -20 -62t-52 -32v-44h-38v44
q-34 5 -53.5 29.5t-19.5 62.5v29h50z" />
    <glyph glyph-name="sterlingsuperior" horiz-adv-x="274" 
d="M236 325v-45h-171v185h-45v37h45v109q0 43 25.5 69t65.5 26q38 0 63 -25t25 -68v-33h-50v32q0 48 -39 48q-40 0 -40 -48v-110h76v-37h-76v-140h121z" />
    <glyph glyph-name="Eurosuperior" horiz-adv-x="274" 
d="M194 368v26h50v-26q0 -42 -26 -68t-64 -26q-39 0 -64 25t-25 68v69h-45v34h45v40h-45v33h45v68q0 43 25.5 69t65.5 26q38 0 63 -25t25 -68v-27h-50v26q0 48 -39 48q-40 0 -40 -48v-69h99v-33h-99v-40h87v-34h-87v-68q0 -48 40 -48q39 0 39 48z" />
    <glyph glyph-name="yensuperior" horiz-adv-x="250" 
d="M100 280v124h-68v34h68v37l-2 6h-66v34h54l-66 185h54l52 -170l52 170h52l-66 -185h54v-34h-66l-2 -8v-35h68v-34h-68v-124h-50z" />
    <glyph glyph-name="florinsuperior" horiz-adv-x="226" 
d="M103 184h-50l21 274h-54v37h57l11 132q6 79 80 79l28 -3v-45q-9 2 -23 2q-32 0 -35 -38l-10 -127h65v-37h-68z" />
    <glyph glyph-name="percentsuperior" horiz-adv-x="377" 
d="M111 706q35 0 57.5 -22t22.5 -56t-23 -56.5t-58 -22.5t-57.5 22t-22.5 56t23.5 56.5t57.5 22.5zM48 280l239 420h42l-239 -420h-42zM110 588q17 0 28.5 11t11.5 28q0 18 -11.5 29t-28.5 11t-28 -11t-11 -29q0 -17 11.5 -28t27.5 -11zM268 430q34 0 56.5 -21.5t22.5 -55.5
t-23 -56.5t-57 -22.5q-35 0 -58 22t-23 56t23.5 56t58.5 22zM267 313q17 0 28 11t11 28t-11 28t-28 11t-28.5 -11t-11.5 -28t11.5 -28t28.5 -11z" />
    <glyph glyph-name="perthousandsuperior" horiz-adv-x="567" 
d="M456 313q17 0 28.5 11t11.5 28t-11.5 28t-28.5 11t-28 -11t-11 -28t11 -28t28 -11zM111 706q35 0 57.5 -22t22.5 -56t-23 -56.5t-58 -22.5t-57.5 22t-22.5 56t23.5 56.5t57.5 22.5zM48 280l239 420h42l-239 -420h-42zM110 588q17 0 28.5 11t11.5 28q0 18 -11.5 29
t-28.5 11t-28 -11t-11 -29q0 -17 11.5 -28t27.5 -11zM268 430q34 0 56.5 -21.5t22.5 -55.5t-23 -56.5t-57 -22.5q-35 0 -58 22t-23 56t23.5 56t58.5 22zM267 313q17 0 28 11t11 28t-11 28t-28 11t-28.5 -11t-11.5 -28t11.5 -28t28.5 -11zM457 430q35 0 57.5 -21.5
t22.5 -55.5t-23 -56.5t-58 -22.5t-57.5 22t-22.5 56q0 33 23.5 55.5t57.5 22.5z" />
    <glyph glyph-name="G.ss01" 
d="M212 300v55h148v-312q-6 -6 -17 -15t-49.5 -23.5t-81.5 -14.5q-73 0 -117.5 43t-44.5 117v397q0 73 44.5 118t111.5 45t110.5 -43.5t43.5 -116.5v-75h-68v72q0 46 -24 73t-63 27t-63.5 -27t-24.5 -73v-395q0 -48 26 -74.5t71 -26.5q26 0 46.5 7t27.5 14l7 7v221h-83z" />
    <glyph glyph-name="Gbreve.ss01" 
d="M212 300v55h148v-312q-6 -6 -17 -15t-49.5 -23.5t-81.5 -14.5q-73 0 -117.5 43t-44.5 117v397q0 73 44.5 118t111.5 45t110.5 -43.5t43.5 -116.5v-75h-68v72q0 46 -24 73t-63 27t-63.5 -27t-24.5 -73v-395q0 -48 26 -74.5t71 -26.5q26 0 46.5 7t27.5 14l7 7v221h-83z
M94 920h52v-50q0 -30 15 -48t44 -18t44.5 18t15.5 48v50h51v-48q0 -52 -30.5 -83.5t-80.5 -31.5t-80.5 31t-30.5 82v50z" />
    <glyph glyph-name="Gcommaaccent.ss01" 
d="M212 300v55h148v-312q-6 -6 -17 -15t-49.5 -23.5t-81.5 -14.5q-73 0 -117.5 43t-44.5 117v397q0 73 44.5 118t111.5 45t110.5 -43.5t43.5 -116.5v-75h-68v72q0 46 -24 73t-63 27t-63.5 -27t-24.5 -73v-395q0 -48 26 -74.5t71 -26.5q26 0 46.5 7t27.5 14l7 7v221h-83z
M114 -222l59 162h70l-76 -162h-53z" />
    <glyph glyph-name="Gdotaccent.ss01" 
d="M212 300v55h148v-312q-6 -6 -17 -15t-49.5 -23.5t-81.5 -14.5q-73 0 -117.5 43t-44.5 117v397q0 73 44.5 118t111.5 45t110.5 -43.5t43.5 -116.5v-75h-68v72q0 46 -24 73t-63 27t-63.5 -27t-24.5 -73v-395q0 -48 26 -74.5t71 -26.5q26 0 46.5 7t27.5 14l7 7v221h-83z
M203 880q19 0 32 -13t13 -32t-13 -31.5t-32 -12.5t-31.5 12.5t-12.5 31.5t12.5 32t31.5 13z" />
    <glyph glyph-name="Gcircumflex.ss01" 
d="M212 300v55h148v-312q-6 -6 -17 -15t-49.5 -23.5t-81.5 -14.5q-73 0 -117.5 43t-44.5 117v397q0 73 44.5 118t111.5 45t110.5 -43.5t43.5 -116.5v-75h-68v72q0 46 -24 73t-63 27t-63.5 -27t-24.5 -73v-395q0 -48 26 -74.5t71 -26.5q26 0 46.5 7t27.5 14l7 7v221h-83z
M85 758l93 162h55l92 -162h-55l-67 109l-65 -109h-53z" />
    <glyph glyph-name="a.ss01" horiz-adv-x="384" 
d="M110 370v-231q0 -41 21.5 -65t55.5 -24t55.5 24t21.5 65v231q0 41 -21.5 65t-55.5 24t-55.5 -24t-21.5 -65zM329 509v-509h-56l-3 46q-33 -56 -102 -56q-54 0 -88.5 37t-34.5 98v256q0 62 36 100t90 38q65 0 99 -53l3 43h56z" />
    <glyph glyph-name="agrave.ss01" horiz-adv-x="384" 
d="M110 370v-231q0 -41 21.5 -65t55.5 -24t55.5 24t21.5 65v231q0 41 -21.5 65t-55.5 24t-55.5 -24t-21.5 -65zM329 509v-509h-56l-3 46q-33 -56 -102 -56q-54 0 -88.5 37t-34.5 98v256q0 62 36 100t90 38q65 0 99 -53l3 43h56zM165 740l59 -162h-53l-76 162h70z" />
    <glyph glyph-name="aacute.ss01" horiz-adv-x="384" 
d="M110 370v-231q0 -41 21.5 -65t55.5 -24t55.5 24t21.5 65v231q0 41 -21.5 65t-55.5 24t-55.5 -24t-21.5 -65zM329 509v-509h-56l-3 46q-33 -56 -102 -56q-54 0 -88.5 37t-34.5 98v256q0 62 36 100t90 38q65 0 99 -53l3 43h56zM169 578l59 162h70l-76 -162h-53z" />
    <glyph glyph-name="acircumflex.ss01" horiz-adv-x="384" 
d="M110 370v-231q0 -41 21.5 -65t55.5 -24t55.5 24t21.5 65v231q0 41 -21.5 65t-55.5 24t-55.5 -24t-21.5 -65zM329 509v-509h-56l-3 46q-33 -56 -102 -56q-54 0 -88.5 37t-34.5 98v256q0 62 36 100t90 38q65 0 99 -53l3 43h56zM72 578l93 162h55l92 -162h-55l-67 109
l-65 -109h-53z" />
    <glyph glyph-name="atilde.ss01" horiz-adv-x="384" 
d="M110 370v-231q0 -41 21.5 -65t55.5 -24t55.5 24t21.5 65v231q0 41 -21.5 65t-55.5 24t-55.5 -24t-21.5 -65zM329 509v-509h-56l-3 46q-33 -56 -102 -56q-54 0 -88.5 37t-34.5 98v256q0 62 36 100t90 38q65 0 99 -53l3 43h56zM110 598h-45q0 4 0.5 10.5t4.5 22.5
t11.5 28.5t24 23t38.5 10.5q26 0 45 -15.5t33 -31t30 -15.5q14 0 22.5 12.5t9.5 25.5l1 13h45q0 -4 -0.5 -10.5t-5 -23t-12 -29t-24 -23t-38.5 -10.5q-26 0 -44.5 15.5t-32.5 31t-30 15.5q-14 0 -22.5 -12.5t-9.5 -25.5z" />
    <glyph glyph-name="adieresis.ss01" horiz-adv-x="384" 
d="M110 370v-231q0 -41 21.5 -65t55.5 -24t55.5 24t21.5 65v231q0 41 -21.5 65t-55.5 24t-55.5 -24t-21.5 -65zM329 509v-509h-56l-3 46q-33 -56 -102 -56q-54 0 -88.5 37t-34.5 98v256q0 62 36 100t90 38q65 0 99 -53l3 43h56zM265 691q19 0 31.5 -13t12.5 -32t-12.5 -31.5
t-31.5 -12.5t-32 12.5t-13 31.5t13 32t32 13zM116 691q19 0 31.5 -13t12.5 -32t-12.5 -31.5t-31.5 -12.5t-32 12.5t-13 31.5t13 32t32 13z" />
    <glyph glyph-name="aring.ss01" horiz-adv-x="384" 
d="M110 370v-231q0 -41 21.5 -65t55.5 -24t55.5 24t21.5 65v231q0 41 -21.5 65t-55.5 24t-55.5 -24t-21.5 -65zM329 509v-509h-56l-3 46q-33 -56 -102 -56q-54 0 -88.5 37t-34.5 98v256q0 62 36 100t90 38q65 0 99 -53l3 43h56zM192 750q39 0 64.5 -24.5t25.5 -61.5
q0 -38 -25.5 -62.5t-64.5 -24.5t-64 24.5t-25 62.5q0 37 25 61.5t64 24.5zM192 616q20 0 33.5 13t13.5 35q0 21 -13.5 34t-33.5 13t-33 -13t-13 -34t13 -34.5t33 -13.5z" />
    <glyph glyph-name="abreve.ss01" horiz-adv-x="384" 
d="M110 370v-231q0 -41 21.5 -65t55.5 -24t55.5 24t21.5 65v231q0 41 -21.5 65t-55.5 24t-55.5 -24t-21.5 -65zM329 509v-509h-56l-3 46q-33 -56 -102 -56q-54 0 -88.5 37t-34.5 98v256q0 62 36 100t90 38q65 0 99 -53l3 43h56zM89 740h52v-50q0 -30 15 -48t44 -18t44.5 18
t15.5 48v50h51v-48q0 -52 -30.5 -83.5t-80.5 -31.5t-80.5 31t-30.5 82v50z" />
    <glyph glyph-name="amacron.ss01" horiz-adv-x="384" 
d="M110 370v-231q0 -41 21.5 -65t55.5 -24t55.5 24t21.5 65v231q0 41 -21.5 65t-55.5 24t-55.5 -24t-21.5 -65zM329 509v-509h-56l-3 46q-33 -56 -102 -56q-54 0 -88.5 37t-34.5 98v256q0 62 36 100t90 38q65 0 99 -53l3 43h56zM75 606v49h250v-49h-250z" />
    <glyph glyph-name="aogonek.ss01" horiz-adv-x="384" 
d="M329 509v-509h-21q-27 -18 -27 -65q0 -32 22 -51.5t56 -19.5l35 3v-47q-11 -5 -38 -5q-54 0 -90.5 32t-36.5 80q0 57 43 90l-2 29q-33 -56 -102 -56q-54 0 -88.5 37t-34.5 98v256q0 62 36 100t90 38q65 0 99 -53l3 43h56zM110 370v-231q0 -41 21.5 -65t55.5 -24t55.5 24
t21.5 65v231q0 41 -21.5 65t-55.5 24t-55.5 -24t-21.5 -65z" />
    <glyph glyph-name="aringacute.ss01" horiz-adv-x="384" 
d="M329 509v-509h-56l-3 46q-33 -56 -102 -56q-54 0 -88.5 37t-34.5 98v256q0 50 24 85.5t64 46.5q-22 25 -22 60q0 36 24.5 60.5t62.5 25.5l33 91h70l-50 -106q39 -24 39 -71q0 -53 -47 -77q12 -10 27 -30l3 43h56zM110 370v-231q0 -41 21.5 -65t55.5 -24t55.5 24t21.5 65
v231q0 41 -21.5 65t-55.5 24t-55.5 -24t-21.5 -65zM200 525q20 0 33.5 13.5t13.5 34.5t-13.5 34t-33.5 13t-33 -13t-13 -34t13 -34.5t33 -13.5z" />
    <glyph glyph-name="K.ss01" horiz-adv-x="405" 
d="M60 0v700h67v-379l194 379h74l-156 -298l166 -402h-74l-136 329l-68 -126v-203h-67z" />
    <glyph glyph-name="Kcommaaccent.ss01" horiz-adv-x="405" 
d="M60 0v700h67v-379l194 379h74l-156 -298l166 -402h-74l-136 329l-68 -126v-203h-67zM129 -222l59 162h70l-76 -162h-53z" />
    <glyph glyph-name="k.ss01" horiz-adv-x="375" 
d="M55 0v700h65v-443l170 252h76l-136 -200l145 -309h-74l-116 249l-65 -93v-156h-65z" />
    <glyph glyph-name="kcommaaccent.ss01" horiz-adv-x="375" 
d="M55 0v700h65v-443l170 252h76l-136 -200l145 -309h-74l-116 249l-65 -93v-156h-65zM109 -222l59 162h70l-76 -162h-53z" />
    <glyph glyph-name="Sarcasm" horiz-adv-x="427" 
d="M382 697l-104 -499l-44 8l72 504zM166 37q0 19 14 33.5t34 14.5q19 0 33 -14t14 -34q0 -19 -13.5 -33t-33.5 -14t-34 14t-14 33zM149 198l-104 499l76 13l72 -504z" />
    </font>
</defs>
</svg>
