<?xml version="1.0" standalone="no"?>
<!DOCTYPE svg PUBLIC "-//W3C//DTD SVG 1.1//EN" "http://www.w3.org/Graphics/SVG/1.1/DTD/svg11.dtd" >
<svg xmlns="http://www.w3.org/2000/svg" xmlns:xlink="http://www.w3.org/1999/xlink" version="1.1">
<metadata>
Created by FontForge 20170731 at Sun Mar  1 19:24:10 2015
 By Aleksey,,,
Copyright (c) 2014 by Richard Miller. All rights reserved.
</metadata>
<defs>
<font id="Uniform-Regular6" horiz-adv-x="600" >
  <font-face 
    font-family="Uniform"
    font-weight="400"
    font-stretch="normal"
    units-per-em="1000"
    panose-1="2 0 0 0 0 0 0 0 0 0"
    ascent="807"
    descent="-193"
    x-height="506"
    cap-height="700"
    bbox="-190 -210 1180 950"
    underline-thickness="50"
    underline-position="-150"
    unicode-range="U+0020-FB02"
  />
<missing-glyph horiz-adv-x="691" 
d="M20 0v700h651v-700h-651zM381 350l159 158l-36 36l-159 -158l-158 159l-36 -36l158 -159l-159 -159l36 -36l159 159l159 -159l36 36z" />
    <glyph glyph-name="ellipsis" unicode="&#x2e;&#x2e;&#x2e;" horiz-adv-x="610" 
d="M50 25q0 14 10.5 24.5t24.5 10.5t24.5 -10.5t10.5 -24.5t-10.5 -24.5t-24.5 -10.5t-24.5 10.5t-10.5 24.5zM270 25q0 14 10.5 24.5t24.5 10.5t24.5 -10.5t10.5 -24.5t-10.5 -24.5t-24.5 -10.5t-24.5 10.5t-10.5 24.5zM490 25q0 14 10.5 24.5t24.5 10.5t24.5 -10.5
t10.5 -24.5t-10.5 -24.5t-24.5 -10.5t-24.5 10.5t-10.5 24.5z" />
    <glyph glyph-name="ff" unicode="ff" horiz-adv-x="740" 
d="M395 690l-8 -34q-34 17 -92 17t-91.5 -35t-33.5 -103v-59h215v-32h-215v-444h-40v444h-110v32h110v59q0 85 44 130t121 45q31 0 56 -5t35 -10zM730 690l-8 -34q-34 17 -92 17t-91.5 -37t-33.5 -111v-49h215v-32h-215v-444h-40v525q0 92 43.5 138.5t121.5 46.5q31 0 56 -5
t34 -10z" />
    <glyph glyph-name="ft" unicode="ft" horiz-adv-x="755" 
d="M395 690l-8 -34q-34 17 -92 17t-91.5 -35t-33.5 -103v-59h215v-32h-215v-444h-40v444h-110v32h110v59q0 85 44 130t121 45q31 0 56 -5t35 -10zM717 43l8 -33q-38 -20 -110 -20q-71 0 -110.5 40.5t-39.5 119.5v490h40v-134h220v-32h-220v-324q0 -61 29.5 -92t80.5 -31
q24 0 49.5 4t39.5 8z" />
    <glyph glyph-name="rf" unicode="rf" horiz-adv-x="715" 
d="M705 690l-8 -34q-34 17 -92 17t-91.5 -37t-33.5 -111v-49h215v-32h-215v-444h-40v525q0 92 43.5 138.5t121.5 46.5q31 0 56 -5t35 -10zM90 0v506h35l5 -122q58 132 218 132l-1 -39h-5q-97 0 -153 -58.5t-59 -175.5v-243h-40z" />
    <glyph glyph-name="rt" unicode="rt" horiz-adv-x="730" 
d="M692 43l8 -33q-38 -20 -110 -20q-71 0 -110.5 40.5t-39.5 119.5v490h40v-134h220v-32h-220v-324q0 -61 29.5 -92t80.5 -31q24 0 49.5 4t38.5 8zM130 231v-231h-40v506h35l5 -122q58 132 218 132l-1 -39h-5q-100 0 -156 -61.5t-56 -184.5z" />
    <glyph glyph-name="tf" unicode="tf" horiz-adv-x="745" 
d="M20 474v32h110v134h40v-134h220v-32h-220v-324q0 -61 29.5 -92t80.5 -31q24 0 49.5 4t38.5 8l14 4l8 -33q-38 -20 -110 -20q-71 0 -110.5 40.5t-39.5 119.5v324h-110zM735 690l-8 -34q-34 17 -92 17t-91.5 -37t-33.5 -111v-49h215v-32h-215v-444h-40v525q0 92 43.5 138.5
t121.5 46.5q31 0 56 -5t35 -10z" />
    <glyph glyph-name="tt" unicode="tt" horiz-adv-x="760" 
d="M20 474v32h110v134h40v-134h220v-32h-220v-324q0 -61 29.5 -92t80.5 -31q24 0 49.5 4t38.5 8l14 4l8 -33q-38 -20 -110 -20q-71 0 -110.5 40.5t-39.5 119.5v324h-110zM722 43l8 -33q-38 -20 -110 -20q-71 0 -110.5 40.5t-39.5 119.5v490h40v-134h220v-32h-220v-324
q0 -61 29.5 -92t80.5 -31q24 0 49.5 4t38.5 8z" />
    <glyph glyph-name="rtf" unicode="rtf" horiz-adv-x="1055" 
d="M1045 690l-8 -34q-34 17 -92 17t-91.5 -37t-33.5 -111v-49h215v-32h-215v-444h-40v525q0 92 43.5 138.5t121.5 46.5q31 0 56 -5t35 -10zM692 43l8 -33q-38 -20 -110 -20q-71 0 -110.5 40.5t-39.5 119.5v490h40v-134h220v-32h-220v-324q0 -61 29.5 -92t80.5 -31
q24 0 49.5 4t38.5 8zM130 231v-231h-40v506h35l5 -122q58 132 218 132l-1 -39h-5q-100 0 -156 -61.5t-56 -184.5z" />
    <glyph glyph-name=".notdef" horiz-adv-x="691" 
d="M20 0v700h651v-700h-651zM381 350l159 158l-36 36l-159 -158l-158 159l-36 -36l158 -159l-159 -159l36 -36l159 159l159 -159l36 36z" />
    <glyph glyph-name=".null" horiz-adv-x="0" 
 />
    <glyph glyph-name="nonmarkingreturn" horiz-adv-x="333" 
 />
    <glyph glyph-name="space" unicode=" " horiz-adv-x="232" 
 />
    <glyph glyph-name="exclam" unicode="!" horiz-adv-x="270" 
d="M122 200l-12 500h50l-12 -500h-26zM100 25q0 14 10.5 24.5t24.5 10.5t24.5 -10.5t10.5 -24.5t-10.5 -24.5t-24.5 -10.5t-24.5 10.5t-10.5 24.5z" />
    <glyph glyph-name="quotedbl" unicode="&#x22;" horiz-adv-x="260" 
d="M85 490h-35v210h35v-210zM210 490h-35v210h35v-210z" />
    <glyph glyph-name="numbersign" unicode="#" 
d="M325 0l35 177h-170l-35 -177h-35l35 177h-115v31h121l37 184h-118v31h124l36 177h35l-36 -177h170l36 177h35l-36 -177h116v-31h-122l-37 -184h119v-31h-125l-35 -177h-35zM233 392l-37 -184h170l37 184h-170z" />
    <glyph glyph-name="dollar" unicode="$" horiz-adv-x="530" 
d="M430 165q0 62 -40.5 105t-130.5 81q-179 74 -179 193q0 67 50 113.5t127 51.5v91h36v-91q35 -3 66 -14.5t50 -26.5t33 -29.5t20 -24.5l6 -10l-31 -20q-2 4 -6 10t-18.5 21t-31.5 27t-46 21.5t-61 9.5q-71 0 -112.5 -36t-41.5 -87q0 -54 39.5 -94t120.5 -73
q190 -77 190 -212q0 -74 -49.5 -123t-127.5 -57v-91h-36v90q-42 2 -78.5 15.5t-59 31.5t-39 36t-23.5 31l-7 12l32 20q2 -4 6.5 -11.5t21.5 -26.5t37 -33t53.5 -26t70.5 -12q71 0 115 39t44 99z" />
    <glyph glyph-name="percent" unicode="%" horiz-adv-x="760" 
d="M50 467q0 61 41.5 102t102.5 41t101.5 -40t40.5 -101t-41.5 -102t-102.5 -41t-101.5 40t-40.5 101zM152 0l415 600h41l-415 -600h-41zM88 468q0 -46 30 -76.5t75 -30.5t75 30.5t30 76.5t-30 76.5t-75 30.5t-75 -30.5t-30 -76.5zM424 131q0 61 41.5 102t102.5 41
t101.5 -40t40.5 -101t-41.5 -102t-102.5 -41t-101.5 40t-40.5 101zM462 132q0 -46 30 -76.5t75 -30.5t75 30.5t30 76.5t-30 76.5t-75 30.5t-75 -30.5t-30 -76.5z" />
    <glyph glyph-name="ampersand" unicode="&#x26;" horiz-adv-x="700" 
d="M634 400h46l-174 -230l174 -170h-54l-144 139l-16 -22q-96 -127 -218 -127q-86 0 -142 54.5t-56 134.5q0 141 173 212q-48 49 -73 89.5t-25 83.5q0 63 47.5 104.5t118.5 41.5q70 0 117 -42.5t47 -106.5q0 -116 -164 -182l188 -183zM249 27q56 0 99.5 27t85.5 82l22 29
l-205 199q-161 -65 -161 -184q0 -64 45 -108.5t114 -44.5zM165 565q0 -40 21.5 -72.5t76.5 -85.5q82 33 117 67.5t35 85.5q0 48 -35.5 80.5t-89.5 32.5q-56 0 -90.5 -30t-34.5 -78z" />
    <glyph glyph-name="quotesingle" unicode="'" horiz-adv-x="135" 
d="M85 490h-35v210h35v-210z" />
    <glyph glyph-name="parenleft" unicode="(" horiz-adv-x="423" 
d="M110 350q0 -83 28 -157t68 -120t80.5 -80t68.5 -49l28 -14l-14 -30q-6 2 -17 7t-42 23.5t-59 40.5t-62.5 60.5t-59.5 82t-42 105.5t-17 130t16.5 130t43 106t58 81.5t63.5 61.5t58.5 41t42.5 24l17 7l14 -30q-6 -3 -15.5 -8t-38 -23.5t-54.5 -40t-57.5 -58t-54 -77
t-38 -96.5t-15.5 -117z" />
    <glyph glyph-name="parenright" unicode=")" horiz-adv-x="423" 
d="M313 350q0 48 -9.5 93t-25 80.5t-36 68t-43.5 56.5t-45.5 44.5t-43 34.5t-36 24t-24.5 15l-10 4l14 30q6 -2 17 -7t42 -23.5t59 -40.5t62.5 -60.5t59.5 -82t42 -105.5t17 -130t-16.5 -130t-43 -106t-58 -81.5t-63.5 -61.5t-58.5 -41t-43.5 -24l-16 -7l-14 30q6 3 15.5 8
t38 23.5t54.5 40t57.5 58t54 77t38 96.5t15.5 117z" />
    <glyph glyph-name="asterisk" unicode="*" horiz-adv-x="482" 
d="M262 700l-7 -173l165 58l12 -39l-166 -49l105 -137l-32 -24l-98 142l-98 -142l-32 24l104 137l-165 49l12 39l164 -58l-6 173h42z" />
    <glyph glyph-name="plus" unicode="+" 
d="M317 615v-241h233v-34h-233v-241h-34v241h-233v34h233v241h34z" />
    <glyph glyph-name="comma" unicode="," horiz-adv-x="150" 
d="M75 -130h-35l25 210h45z" />
    <glyph glyph-name="hyphen" unicode="-" horiz-adv-x="420" 
d="M370 340h-320v35h320v-35z" />
    <glyph glyph-name="period" unicode="." horiz-adv-x="170" 
d="M50 25q0 14 10.5 24.5t24.5 10.5t24.5 -10.5t10.5 -24.5t-10.5 -24.5t-24.5 -10.5t-24.5 10.5t-10.5 24.5z" />
    <glyph glyph-name="slash" unicode="/" horiz-adv-x="450" 
d="M0 -80l410 860h40l-410 -860h-40z" />
    <glyph glyph-name="zero" unicode="0" 
d="M80 219v260q0 107 61 169t160 62t159 -61t60 -168v-260q0 -107 -61 -169t-160 -62t-159 61t-60 168zM120 485v-270q0 -87 49 -137.5t131 -50.5t131 50.5t49 137.5v270q0 87 -49 137.5t-131 50.5t-131 -50.5t-49 -137.5z" />
    <glyph glyph-name="one" unicode="1" horiz-adv-x="430" 
d="M30 530l240 170h30v-700h-40v646l-207 -144z" />
    <glyph glyph-name="two" unicode="2" horiz-adv-x="550" 
d="M365 293l-245 -258h355v-35h-415v25l280 295q55 58 77.5 103t22.5 92q0 68 -48 113t-117 45q-38 0 -70.5 -11.5t-52 -28t-34 -33.5t-20.5 -28l-5 -12l-33 15q2 5 6.5 14.5t23 32.5t41 41t61.5 32.5t85 14.5q85 0 144 -55.5t59 -137.5q0 -58 -27 -109.5t-88 -114.5z" />
    <glyph glyph-name="three" unicode="3" horiz-adv-x="540" 
d="M175 385h70q77 0 123.5 41.5t46.5 103.5t-46.5 102.5t-123.5 40.5q-32 0 -59.5 -8t-44 -19t-28.5 -22t-17 -19l-5 -8l-31 17q2 4 6.5 10.5t20.5 23t35.5 29t52.5 23t71 10.5q92 0 150.5 -50.5t58.5 -128.5q0 -57 -34.5 -100.5t-93.5 -62.5q67 -20 107.5 -68.5
t40.5 -111.5q0 -84 -67 -141t-167 -57q-41 0 -77 10.5t-58.5 25t-39.5 29.5t-24 25l-7 11l30 21q2 -3 6.5 -9t20.5 -20.5t34.5 -26t50 -20.5t65.5 -9q85 0 139 46t54 114q0 69 -54.5 116t-138.5 47h-67v35z" />
    <glyph glyph-name="four" unicode="4" 
d="M55 235l350 465h40v-465h100v-35h-100v-200h-40v200h-350v35zM94 235h311v406z" />
    <glyph glyph-name="five" unicode="5" horiz-adv-x="575" 
d="M90 335v365h385v-35h-348v-276q61 61 154 61q97 0 163 -64.5t66 -159.5q0 -100 -69.5 -168t-171.5 -68q-37 0 -72 9.5t-58 23t-40.5 27t-25.5 22.5l-8 10l29 23q2 -3 7 -8.5t22 -19t35.5 -23.5t49 -18.5t62.5 -8.5q86 0 143 56.5t57 141.5q0 81 -56 134.5t-139 53.5
q-49 0 -87.5 -19.5t-53.5 -39.5l-14 -19h-30z" />
    <glyph glyph-name="six" unicode="6" 
d="M65 219q0 84 53 160l222 321h49l-204 -286q50 36 121 36q96 0 162.5 -66t66.5 -163q0 -98 -68 -164.5t-168 -66.5t-167 65.5t-67 163.5zM105 220q0 -83 56 -138t139 -55t139 55t56 138t-56 138t-139 55t-139 -55t-56 -138z" />
    <glyph glyph-name="seven" unicode="7" horiz-adv-x="520" 
d="M108 0l327 665h-395v35h440v-25l-330 -675h-42z" />
    <glyph glyph-name="eight" unicode="8" 
d="M95 531q0 76 59.5 127.5t146.5 51.5t145.5 -50.5t58.5 -126.5q0 -53 -32 -95.5t-85 -63.5q67 -20 107 -68t40 -113q0 -88 -68 -145.5t-168 -57.5q-101 0 -167.5 56.5t-66.5 144.5q0 64 40.5 112.5t106.5 69.5q-53 21 -85 63t-32 95zM105 190q0 -71 55.5 -117t139.5 -46
t139.5 46t55.5 117q0 72 -55.5 118.5t-139.5 46.5t-139.5 -46.5t-55.5 -118.5zM135 532q0 -60 47.5 -101t117.5 -41t117.5 41t47.5 101q0 59 -47.5 100t-117.5 41t-117.5 -41t-47.5 -100z" />
    <glyph glyph-name="nine" unicode="9" 
d="M535 481q0 -84 -53 -160l-222 -321h-49l203 285q-49 -35 -120 -35q-96 0 -162.5 66t-66.5 163q0 98 68 164.5t168 66.5t167 -65.5t67 -163.5zM495 480q0 83 -56 138t-139 55t-139 -55t-56 -138t56 -138t139 -55t139 55t56 138z" />
    <glyph glyph-name="colon" unicode=":" horiz-adv-x="170" 
d="M50 25q0 14 10.5 24.5t24.5 10.5t24.5 -10.5t10.5 -24.5t-10.5 -24.5t-24.5 -10.5t-24.5 10.5t-10.5 24.5zM50 481q0 14 10.5 24.5t24.5 10.5t24.5 -10.5t10.5 -24.5t-10.5 -24.5t-24.5 -10.5t-24.5 10.5t-10.5 24.5z" />
    <glyph glyph-name="semicolon" unicode=";" horiz-adv-x="170" 
d="M75 -130h-35l25 210h45zM50 481q0 14 10.5 24.5t24.5 10.5t24.5 -10.5t10.5 -24.5t-10.5 -24.5t-24.5 -10.5t-24.5 10.5t-10.5 24.5z" />
    <glyph glyph-name="less" unicode="&#x3c;" 
d="M550 554l-451 -198l451 -198v-43l-500 225v30l500 225v-41z" />
    <glyph glyph-name="equal" unicode="=" 
d="M550 425h-500v35h500v-35zM550 230h-500v35h500v-35z" />
    <glyph glyph-name="greater" unicode="&#x3e;" 
d="M50 156l451 198l-451 198v43l500 -225v-30l-500 -225v41z" />
    <glyph glyph-name="question" unicode="?" horiz-adv-x="540" 
d="M240 200q0 41 18.5 76t45 60.5t53 50.5t45 59t18.5 74q0 68 -44.5 110.5t-110.5 42.5q-34 0 -63.5 -11.5t-47.5 -27.5t-31 -32.5t-19 -27.5l-5 -12l-34 13q2 5 6 14.5t20.5 32.5t37.5 41t58 32.5t80 14.5q84 0 138.5 -53.5t54.5 -131.5q0 -47 -18.5 -86t-45 -65.5
t-53 -51t-45 -55.5t-18.5 -67h-40zM225 25q0 14 10.5 24.5t24.5 10.5t24.5 -10.5t10.5 -24.5t-10.5 -24.5t-24.5 -10.5t-24.5 10.5t-10.5 24.5z" />
    <glyph glyph-name="at" unicode="@" horiz-adv-x="995" 
d="M628 139l2 20q-62 -84 -176 -84q-91 0 -147.5 66.5t-44.5 155.5q13 88 74.5 142t145.5 54q65 0 111.5 -30.5t67.5 -82.5l21 105h31l2 -2l-50 -352q-7 -52 13 -80.5t61 -28.5q58 0 107 71.5t49 178.5q0 165 -116.5 281.5t-281.5 116.5t-281 -116.5t-116 -281.5
q0 -154 116.5 -265.5t280.5 -111.5q49 0 92 10l6 -38q-55 -12 -98 -12q-181 0 -309 122t-128 295q0 182 128 310t309 128t309.5 -128t128.5 -310q0 -126 -62 -206.5t-137 -80.5q-61 0 -89 43.5t-19 110.5zM649 268q10 77 -38.5 132.5t-125.5 55.5q-69 0 -120.5 -44
t-61.5 -114q-11 -78 34 -132t123 -54q70 0 124 43.5t65 112.5z" />
    <glyph glyph-name="A" unicode="A" horiz-adv-x="680" 
d="M10 0l310 700h40l310 -700h-43l-101 230h-374l-101 -230h-41zM339 656l-173 -393h345z" />
    <glyph glyph-name="B" unicode="B" horiz-adv-x="690" 
d="M110 700h271q89 0 144 -49t55 -121q0 -54 -31 -97t-84 -63q68 -16 109 -65t41 -116q0 -80 -61.5 -134.5t-157.5 -54.5h-286v700zM150 351v-316h246q78 0 128.5 45.5t50.5 112.5t-50.5 112.5t-128.5 45.5h-246zM150 665v-281h229q71 0 116 40.5t45 99.5q0 60 -45 100.5
t-116 40.5h-229z" />
    <glyph glyph-name="C" unicode="C" horiz-adv-x="720" 
d="M419 -10q-151 0 -255 104t-104 255t105 256t256 105q45 0 87.5 -10.5t71 -25.5t50.5 -30t32 -26l11 -10l-26 -25q-3 4 -10 10t-29 21.5t-46.5 27.5t-63 21.5t-78.5 9.5q-135 0 -227.5 -93t-92.5 -230t92.5 -230t227.5 -93q42 0 81.5 10t66 24.5t47 29.5t30.5 24.5
t10 10.5l25 -25q-4 -5 -11 -12t-32.5 -26.5t-53.5 -34t-72.5 -26.5t-91.5 -12z" />
    <glyph glyph-name="D" unicode="D" horiz-adv-x="760" 
d="M110 700h211q166 0 272.5 -99.5t106.5 -249.5t-107.5 -250.5t-273.5 -100.5h-209v700zM150 665v-630h175q145 0 240 90.5t95 224.5t-95 224.5t-240 90.5h-175z" />
    <glyph glyph-name="E" unicode="E" horiz-adv-x="650" 
d="M590 0h-480v700h470v-35h-430v-281h380v-33h-380v-316h440v-35z" />
    <glyph glyph-name="F" unicode="F" horiz-adv-x="610" 
d="M520 315h-370v-315h-40v700h460v-35h-420v-315h370v-35z" />
    <glyph glyph-name="G" unicode="G" horiz-adv-x="815" 
d="M420 335h340q-2 -147 -102 -246t-239 -99q-151 0 -255 104t-104 255t105 256t256 105q45 0 87.5 -10t70.5 -25t50 -29.5t32 -24.5l10 -10l-27 -27q-3 4 -9.5 10t-28 21t-45.5 27t-62.5 21.5t-78.5 9.5q-135 0 -227.5 -93t-92.5 -230t92.5 -230t227.5 -93q114 0 199 76.5
t99 196.5h-298v35z" />
    <glyph glyph-name="H" unicode="H" horiz-adv-x="770" 
d="M620 0v355h-470v-355h-40v700h40v-310h470v310h40v-700h-40z" />
    <glyph glyph-name="I" unicode="I" horiz-adv-x="272" 
d="M115 0v700h42v-700h-42z" />
    <glyph glyph-name="J" unicode="J" horiz-adv-x="445" 
d="M20 14l15 33q28 -20 90 -20q77 0 128 52t51 146v475h41v-474q0 -109 -63.5 -172.5t-157.5 -63.5q-33 0 -59 6t-35 12z" />
    <glyph glyph-name="K" unicode="K" horiz-adv-x="645" 
d="M203 361l442 -361h-64l-431 356v-356h-40v700h40v-336l411 336h64z" />
    <glyph glyph-name="L" unicode="L" horiz-adv-x="590" 
d="M560 0h-450v700h40v-665h410v-35z" />
    <glyph glyph-name="M" unicode="M" horiz-adv-x="890" 
d="M434 120l-284 503v-623h-40v700h42l294 -526l294 526h40v-700h-40v623l-284 -503h-22z" />
    <glyph glyph-name="N" unicode="N" horiz-adv-x="790" 
d="M640 0l-490 644v-644h-40v700h45l485 -638v638h40v-700h-40z" />
    <glyph glyph-name="O" unicode="O" horiz-adv-x="840" 
d="M60 349q0 151 105 256t256 105t255 -104t104 -255t-105 -256t-256 -105t-255 104t-104 255zM100 350q0 -137 92.5 -230t227.5 -93t227.5 93t92.5 230t-92.5 230t-227.5 93t-227.5 -93t-92.5 -230z" />
    <glyph glyph-name="P" unicode="P" horiz-adv-x="665" 
d="M377 665h-227v-355h227q88 0 143 50t55 127t-55 127.5t-143 50.5zM110 0v700h273q102 0 167 -60.5t65 -151.5t-66 -152t-168 -61h-231v-275h-40z" />
    <glyph glyph-name="Q" unicode="Q" horiz-adv-x="840" 
d="M60 349q0 151 105 256t256 105t255 -104t104 -255q0 -113 -61 -203.5t-161 -130.5l124 -137h-52l-108 124q-51 -14 -103 -14q-151 0 -255 104t-104 255zM100 350q0 -137 92.5 -230t227.5 -93t227.5 93t92.5 230t-92.5 230t-227.5 93t-227.5 -93t-92.5 -230z" />
    <glyph glyph-name="R" unicode="R" horiz-adv-x="690" 
d="M110 0v700h281q99 0 161.5 -58t62.5 -146q0 -79 -52 -135.5t-136 -68.5l218 -292h-50l-217 290h-228v-290h-40zM385 665h-235v-340h235q85 0 137.5 48t52.5 122t-52.5 122t-137.5 48z" />
    <glyph glyph-name="S" unicode="S" horiz-adv-x="560" 
d="M110 543q0 -54 41 -91.5t130 -63.5q110 -33 164.5 -84t54.5 -127q0 -81 -60 -134t-163 -53q-45 0 -85.5 9.5t-67 22.5t-46.5 26t-29 22l-9 10l28 29l8.5 -8.5t26 -20t43.5 -25t60.5 -19.5t78.5 -9q78 0 126.5 41.5t48.5 103.5q0 65 -44.5 106.5t-154.5 75.5
q-90 28 -140.5 74.5t-50.5 109.5q0 73 58.5 122.5t154.5 49.5q62 0 114 -19t73 -37l20 -19l-28 -29q-7 8 -20.5 19t-59 29.5t-97.5 18.5q-84 0 -129.5 -39.5t-45.5 -90.5z" />
    <glyph glyph-name="T" unicode="T" horiz-adv-x="590" 
d="M560 665h-245v-665h-40v665h-245v35h530v-35z" />
    <glyph glyph-name="U" unicode="U" horiz-adv-x="740" 
d="M141 700v-423q0 -110 65 -180t165 -70t165 70t65 180v423h39v-419q0 -127 -77 -209t-194 -82t-193 81t-76 208v421h41z" />
    <glyph glyph-name="V" unicode="V" horiz-adv-x="670" 
d="M315 0l-305 700h43l283 -654l283 654h41l-305 -700h-40z" />
    <glyph glyph-name="W" unicode="W" horiz-adv-x="965" 
d="M250 0l-240 700h43l217 -640l199 640h29l198 -640l218 640h41l-240 -700h-38l-195 618l-194 -618h-38z" />
    <glyph glyph-name="X" unicode="X" horiz-adv-x="643" 
d="M582 0l-262 331l-261 -331h-49l287 359l-272 341h51l245 -312l248 312h49l-273 -340l288 -360h-51z" />
    <glyph glyph-name="Y" unicode="Y" horiz-adv-x="650" 
d="M640 700l-295 -410v-290h-40v290l-295 410h49l267 -376l267 376h47z" />
    <glyph glyph-name="Z" unicode="Z" horiz-adv-x="640" 
d="M580 0h-520v25l465 640h-445v35h500v-25l-465 -640h465v-35z" />
    <glyph glyph-name="bracketleft" unicode="[" horiz-adv-x="435" 
d="M385 -80h-275v860h275v-35h-235v-790h235v-35z" />
    <glyph glyph-name="backslash" unicode="\" horiz-adv-x="450" 
d="M40 780l410 -860h-40l-410 860h40z" />
    <glyph glyph-name="bracketright" unicode="]" horiz-adv-x="435" 
d="M325 -80h-275v35h235v790h-235v35h275v-860z" />
    <glyph glyph-name="asciicircum" unicode="^" horiz-adv-x="560" 
d="M455 320l-176 336l-176 -336h-43l205 380h30l205 -380h-45z" />
    <glyph glyph-name="underscore" unicode="_" 
d="M600 -85h-600v35h600v-35z" />
    <glyph glyph-name="grave" unicode="`" horiz-adv-x="370" 
d="M250 580h-35l-95 160h45z" />
    <glyph glyph-name="a" unicode="a" horiz-adv-x="560" 
d="M60 146q0 66 55 112.5t147 46.5q118 0 178 -68v53q0 96 -45.5 143.5t-124.5 47.5q-46 0 -85 -14t-55 -28l-15 -14l-25 26q7 7 20 18t60 29t101 18q100 0 154.5 -58t54.5 -167v-291h-30l-7 61q-59 -71 -181 -71q-92 0 -147 45t-55 111zM100 147q0 -51 45 -85.5t122 -34.5
q85 0 131.5 34t46.5 86t-46.5 86.5t-131.5 34.5q-77 0 -122 -35t-45 -86z" />
    <glyph glyph-name="b" unicode="b" horiz-adv-x="660" 
d="M90 0v700h40v-313q33 59 92.5 94t131.5 35q107 0 181.5 -75.5t74.5 -186.5t-75.5 -187.5t-182.5 -76.5q-72 0 -130.5 33.5t-91.5 92.5l-7 -116h-33zM125 253q0 -97 64 -161.5t159 -64.5t158.5 64.5t63.5 161.5t-63.5 161.5t-158.5 64.5t-159 -64.5t-64 -161.5z" />
    <glyph glyph-name="c" unicode="c" horiz-adv-x="550" 
d="M313 27q51 0 93.5 19t59.5 38l17 19l27 -23q-3 -4 -8 -10t-23 -21.5t-39 -27.5t-55.5 -21.5t-72.5 -9.5q-111 0 -186.5 75.5t-75.5 186.5t76.5 187.5t187.5 76.5q35 0 67.5 -8.5t54 -20t37.5 -23.5t23 -20l8 -9l-25 -26q-7 8 -19.5 19.5t-55.5 31t-91 19.5
q-95 0 -159 -64.5t-64 -161.5t64 -161.5t159 -64.5z" />
    <glyph glyph-name="d" unicode="d" horiz-adv-x="660" 
d="M570 700v-700h-33l-7 119q-34 -60 -93 -94.5t-131 -34.5q-107 0 -181.5 75.5t-74.5 186.5t75.5 187.5t182.5 76.5q71 0 130 -34t92 -93v311h40zM535 253q0 97 -64 161.5t-159 64.5t-158.5 -64.5t-63.5 -161.5t63.5 -161.5t158.5 -64.5t159 64.5t64 161.5z" />
    <glyph glyph-name="e" unicode="e" horiz-adv-x="606" 
d="M556 264v-4h-466v-7q0 -97 64 -161.5t159 -64.5q39 0 73 11.5t55.5 27.5t37.5 32t23 28l7 11l29 -17q-3 -5 -8 -14t-25.5 -31.5t-44 -39.5t-63.5 -31t-85 -14q-111 0 -186.5 75.5t-75.5 186.5t76.5 187.5t187.5 76.5q99 0 170.5 -73.5t71.5 -178.5zM313 479
q-83 0 -144.5 -51.5t-75.5 -132.5h421q-11 79 -68.5 131.5t-132.5 52.5z" />
    <glyph glyph-name="f" unicode="f" horiz-adv-x="405" 
d="M395 690l-8 -34q-34 17 -92 17t-91.5 -35t-33.5 -103v-59h215v-32h-215v-444h-40v444h-110v32h110v59q0 85 44 130t121 45q31 0 56 -5t35 -10z" />
    <glyph glyph-name="g" unicode="g" horiz-adv-x="660" 
d="M65 -100l20 31q9 -7 26 -17.5t72 -28.5t112 -18q114 0 174.5 64t60.5 179v39q-34 -55 -93 -87t-131 -32q-107 0 -181.5 70t-74.5 172t75.5 173t182.5 71q72 0 130.5 -31.5t91.5 -86.5l7 108h33v-390q0 -131 -73 -208.5t-203 -77.5q-62 0 -119.5 17.5t-83.5 34.5zM535 273
q0 88 -64 147t-159 59t-158.5 -59t-63.5 -147t63.5 -147t158.5 -59t159 59t64 147z" />
    <glyph glyph-name="h" unicode="h" horiz-adv-x="610" 
d="M90 0v700h40v-302q57 118 198 118q86 0 144 -61.5t58 -180.5v-274h-40v261q0 110 -48 164t-120 54q-82 0 -135.5 -54.5t-56.5 -170.5v-254h-40z" />
    <glyph glyph-name="i" unicode="i" horiz-adv-x="232" 
d="M95 0v506h42v-506h-42zM81 655q0 14 10.5 24.5t24.5 10.5t24.5 -10.5t10.5 -24.5t-10.5 -24.5t-24.5 -10.5t-24.5 10.5t-10.5 24.5z" />
    <glyph glyph-name="j" unicode="j" horiz-adv-x="232" 
d="M95 506h42v-525q0 -73 -38 -112t-100 -39q-16 0 -32 4t-24 8l-8 3l12 32q25 -10 53 -10q95 0 95 108v531zM81 655q0 14 10.5 24.5t24.5 10.5t24.5 -10.5t10.5 -24.5t-10.5 -24.5t-24.5 -10.5t-24.5 10.5t-10.5 24.5z" />
    <glyph glyph-name="k" unicode="k" horiz-adv-x="530" 
d="M90 0v700h40v-424l313 230h67l-326 -233l346 -273h-66l-334 269v-269h-40z" />
    <glyph glyph-name="l" unicode="l" horiz-adv-x="232" 
d="M95 0v700h42v-700h-42z" />
    <glyph glyph-name="m" unicode="m" horiz-adv-x="990" 
d="M90 0v506h35l5 -105q57 115 193 115q64 0 114 -36t71 -107q25 72 79.5 107.5t125.5 35.5q84 0 140.5 -60.5t56.5 -176.5v-279h-40v266q0 107 -47 160t-116 53q-80 0 -132 -53.5t-55 -167.5v-258h-40v266q0 107 -47 160t-116 53q-80 0 -132 -53.5t-55 -167.5v-258h-40z
" />
    <glyph glyph-name="n" unicode="n" horiz-adv-x="610" 
d="M130 241v-241h-40v506h35l5 -108q57 118 198 118q86 0 144 -61.5t58 -180.5v-274h-40v261q0 110 -48 164t-120 54q-84 0 -138 -58t-54 -180z" />
    <glyph glyph-name="o" unicode="o" horiz-adv-x="626" 
d="M50 252q0 111 76.5 187.5t187.5 76.5t186.5 -75.5t75.5 -186.5t-76.5 -187.5t-187.5 -76.5t-186.5 75.5t-75.5 186.5zM90 253q0 -97 64 -161.5t159 -64.5t159 64.5t64 161.5t-64 161.5t-159 64.5t-159 -64.5t-64 -161.5z" />
    <glyph glyph-name="p" unicode="p" horiz-adv-x="660" 
d="M90 -160v666h33l7 -119q33 59 92.5 94t131.5 35q107 0 181.5 -75.5t74.5 -186.5t-75.5 -187.5t-182.5 -76.5q-72 0 -130.5 33.5t-91.5 92.5v-276h-40zM125 253q0 -97 64 -161.5t159 -64.5t158.5 64.5t63.5 161.5t-63.5 161.5t-158.5 64.5t-159 -64.5t-64 -161.5z" />
    <glyph glyph-name="q" unicode="q" horiz-adv-x="660" 
d="M570 506v-666h-40v279q-34 -60 -93 -94.5t-131 -34.5q-107 0 -181.5 75.5t-74.5 186.5t75.5 187.5t182.5 76.5q71 0 130 -34t92 -93l7 117h33zM535 253q0 97 -64 161.5t-159 64.5t-158.5 -64.5t-63.5 -161.5t63.5 -161.5t158.5 -64.5t159 64.5t64 161.5z" />
    <glyph glyph-name="r" unicode="r" horiz-adv-x="373" 
d="M130 231v-231h-40v506h35l5 -122q58 132 218 132l-1 -39h-5q-100 0 -156 -61.5t-56 -184.5z" />
    <glyph glyph-name="s" unicode="s" horiz-adv-x="440" 
d="M95 394q0 -37 29 -64.5t101 -45.5q165 -41 165 -149q0 -60 -48 -102.5t-129 -42.5q-50 0 -94.5 15t-64.5 30l-19 15l22 31q7 -6 20.5 -15t54.5 -24t83 -15q63 0 99 28.5t36 69.5q0 43 -30.5 73t-114.5 50q-70 18 -110 53t-40 84q0 54 43.5 92.5t121.5 38.5q43 0 82 -12.5
t56 -25.5l17 -12l-22 -32q-6 5 -16 12.5t-44.5 20t-70.5 12.5q-60 0 -93.5 -26t-33.5 -59z" />
    <glyph glyph-name="t" unicode="t" horiz-adv-x="420" 
d="M20 474v32h110v134h40v-134h220v-32h-220v-324q0 -61 29.5 -92t80.5 -31q24 0 49.5 4t38.5 8l14 4l8 -33q-38 -20 -110 -20q-71 0 -110.5 40.5t-39.5 119.5v324h-110z" />
    <glyph glyph-name="u" unicode="u" horiz-adv-x="610" 
d="M520 506v-506h-35l-5 108q-58 -118 -198 -118q-86 0 -144 61.5t-58 180.5v274h40v-261q0 -110 48 -164t120 -54q82 0 135 54.5t57 170.5v254h40z" />
    <glyph glyph-name="v" unicode="v" horiz-adv-x="505" 
d="M233 0l-223 506h45l198 -461l199 461h43l-223 -506h-39z" />
    <glyph glyph-name="w" unicode="w" horiz-adv-x="765" 
d="M198 0l-188 506h45l163 -449l150 449h31l150 -449l163 449h43l-188 -506h-38l-147 433l-146 -433h-38z" />
    <glyph glyph-name="x" unicode="x" horiz-adv-x="525" 
d="M505 506l-216 -247l226 -259h-54l-199 231l-200 -231h-52l226 258l-216 248h54l189 -220l190 220h52z" />
    <glyph glyph-name="y" unicode="y" horiz-adv-x="505" 
d="M233 0l-223 506h45l198 -465l199 465h43l-225 -511q-72 -165 -188 -165q-24 0 -42 4t-24 8l-6 4l14 32q19 -11 58 -11q92 0 151 133z" />
    <glyph glyph-name="z" unicode="z" horiz-adv-x="495" 
d="M50 27l339 442h-324v37h380v-27l-339 -442h339v-37h-395v27z" />
    <glyph glyph-name="braceleft" unicode="{" horiz-adv-x="475" 
d="M210 437q0 -39 -16.5 -62t-43.5 -25q27 -2 43.5 -24.5t16.5 -62.5v-218q0 -47 22 -68.5t68 -21.5h125v-35h-130q-61 0 -93 31.5t-32 93.5v218q0 40 -16 55t-54 15h-50v34h50q38 0 54 15.5t16 54.5v218q0 62 32 93.5t93 31.5h130v-35h-125q-46 0 -68 -21.5t-22 -68.5v-218
z" />
    <glyph glyph-name="bar" unicode="|" horiz-adv-x="320" 
d="M140 -100v900h40v-900h-40z" />
    <glyph glyph-name="braceright" unicode="}" horiz-adv-x="475" 
d="M265 263q0 39 16.5 62t42.5 25q-26 2 -42.5 24.5t-16.5 62.5v218q0 47 -22 68.5t-68 21.5h-125v35h130q61 0 93 -31.5t32 -93.5v-218q0 -40 16 -55t54 -15h50v-34h-50q-38 0 -54 -15.5t-16 -54.5v-218q0 -62 -32 -93.5t-93 -31.5h-130v35h125q46 0 68 21.5t22 68.5v218z
" />
    <glyph glyph-name="asciitilde" unicode="~" 
d="M78 267l-38 3q0 6 1 16t8.5 36t20 46t40 36t65.5 16q32 0 60.5 -14.5t50.5 -35.5t43 -42t46.5 -35.5t52.5 -14.5q41 0 64.5 29t26.5 57l3 29l38 -3q0 -6 -1 -16t-8.5 -36t-20 -46t-40.5 -36t-66 -16q-32 0 -60.5 14.5t-50 35.5t-42.5 42t-46.5 35.5t-52.5 14.5
q-41 0 -64.5 -29t-26.5 -57z" />
    <glyph glyph-name="exclamdown" unicode="&#xa1;" horiz-adv-x="270" 
d="M148 500l12 -500h-50l12 500h26zM170 675q0 -14 -10.5 -24.5t-24.5 -10.5t-24.5 10.5t-10.5 24.5t10.5 24.5t24.5 10.5t24.5 -10.5t10.5 -24.5z" />
    <glyph glyph-name="cent" unicode="&#xa2;" horiz-adv-x="565" 
d="M323 221q51 0 93.5 19t59.5 38l17 19l27 -23q-2 -3 -7 -9t-22.5 -21t-37.5 -27t-53 -22t-69 -11v-90h-36v91q-102 10 -168.5 83.5t-66.5 177.5q0 103 67 177t168 85v92h36v-90q53 -1 99 -21.5t65 -40.5l19 -19l-25 -26q-7 8 -19.5 19.5t-55.5 31t-91 19.5
q-95 0 -159 -64.5t-64 -161.5t64 -161.5t159 -64.5z" />
    <glyph glyph-name="sterling" unicode="&#xa3;" 
d="M525 0h-375v333h-100v34h100v122q0 103 58 162t153 59q41 0 75.5 -12t54.5 -29t34.5 -33.5t19.5 -28.5l5 -12l-34 -15q-1 4 -4 10t-15.5 22t-28 28.5t-44.5 22.5t-64 10q-77 0 -123.5 -47.5t-46.5 -130.5v-128h250v-34h-250v-298h335v-35z" />
    <glyph glyph-name="currency" unicode="&#xa4;" horiz-adv-x="670" 
d="M90 349q0 95 62 165l-92 89l27 27l93 -90q68 55 156 55q90 0 155 -54l92 89l27 -27l-92 -88q62 -68 62 -164t-62 -166l92 -88l-27 -27l-93 90q-68 -55 -156 -55q-89 0 -156 54l-91 -89l-27 27l91 87q-61 69 -61 165zM130 350q0 -87 60 -147.5t145 -60.5t145 60.5
t60 147.5t-60 147.5t-145 60.5t-145 -60.5t-60 -147.5z" />
    <glyph glyph-name="yen" unicode="&#xa5;" horiz-adv-x="620" 
d="M570 188h-240v-188h-40v188h-240v34h240v108l-6 8h-234v34h210l-230 328h49l232 -338l232 338h47l-231 -328h211v-34h-235l-5 -8v-108h240v-34z" />
    <glyph glyph-name="brokenbar" unicode="&#xa6;" horiz-adv-x="320" 
d="M180 800v-330h-40v330h40zM140 -100v330h40v-330h-40z" />
    <glyph glyph-name="section" unicode="&#xa7;" horiz-adv-x="620" 
d="M180 573q0 -91 151 -135q120 -36 174.5 -82.5t54.5 -108.5q0 -59 -43.5 -97.5t-120.5 -51.5q84 -50 84 -126q0 -60 -48.5 -101t-134.5 -41q-53 0 -97 15t-62 30l-18 15l26 27q6 -6 17.5 -14t50.5 -22t81 -14q73 0 109 29.5t36 70.5q0 91 -151 135q-120 36 -174.5 82.5
t-54.5 108.5q0 58 43.5 97t120.5 51q-84 52 -84 127q0 60 48.5 101t134.5 41q53 0 97 -15t62 -30l18 -15l-26 -27q-6 6 -17.5 14t-50.5 22t-81 14q-73 0 -109 -29.5t-36 -70.5zM309 136q38 -14 39 -14q76 3 124 35.5t48 84.5q0 51 -45 88t-164 74q-25 7 -39 13
q-77 -2 -124.5 -34t-47.5 -85q0 -51 45 -88t164 -74z" />
    <glyph glyph-name="dieresis" unicode="&#xa8;" horiz-adv-x="510" 
d="M125 655q0 14 10.5 24.5t24.5 10.5t24.5 -10.5t10.5 -24.5t-10.5 -24.5t-24.5 -10.5t-24.5 10.5t-10.5 24.5zM315 655q0 14 10.5 24.5t24.5 10.5t24.5 -10.5t10.5 -24.5t-10.5 -24.5t-24.5 -10.5t-24.5 10.5t-10.5 24.5z" />
    <glyph glyph-name="copyright" unicode="&#xa9;" horiz-adv-x="826" 
d="M50 348q0 152 105.5 257t259.5 105t257.5 -103t103.5 -255t-105.5 -257t-259.5 -105t-257.5 103t-103.5 255zM551 249l27 -22q-2 -3 -6 -8t-18 -18t-30.5 -23t-44 -18t-57.5 -8q-88 0 -144 56t-56 140t57.5 142t145.5 58q29 0 55 -7t42.5 -17t29 -20t18.5 -17l5 -7
l-29 -22q-2 2 -5 5.5t-14.5 13t-24 16.5t-33.5 12.5t-44 5.5q-68 0 -115.5 -46t-47.5 -115t47.5 -115t115.5 -46q38 0 69.5 15t43.5 30zM90 350q0 -136 93.5 -229.5t229.5 -93.5t229.5 93.5t93.5 229.5t-93.5 229.5t-229.5 93.5t-229.5 -93.5t-93.5 -229.5z" />
    <glyph glyph-name="ordfeminine" unicode="&#xaa;" horiz-adv-x="396" 
d="M60 477q0 41 36 69.5t94 28.5q68 0 106 -35v20q0 53 -28 81t-73 28q-28 0 -53 -8t-36 -16l-11 -8l-20 28q46 39 121 39q64 0 102 -38t38 -105v-175h-34l-4 32q-36 -38 -108 -38q-58 0 -94 28t-36 69zM100 476q0 -27 26 -45t68 -18q48 0 76.5 17.5t28.5 45.5t-29 47
t-76 19q-42 0 -68 -19t-26 -47zM70 280v35h266v-35h-266z" />
    <glyph glyph-name="guillemotleft" unicode="&#xab;" horiz-adv-x="750" 
d="M350 575l-248 -224l248 -224l-25 -27l-275 240v20l275 240zM670 575l-248 -224l248 -224l-25 -27l-275 240v20l275 240z" />
    <glyph glyph-name="logicalnot" unicode="&#xac;" 
d="M550 160h-35v210h-465v35h500v-245z" />
    <glyph glyph-name="registered" unicode="&#xae;" horiz-adv-x="536" 
d="M50 493q0 91 63.5 154t155.5 63t154.5 -62t62.5 -153t-63.5 -154t-155.5 -63t-154.5 62t-62.5 153zM88 494q0 -79 51 -129.5t129 -50.5t129 50.5t51 129.5t-51 129.5t-129 50.5t-129 -50.5t-51 -129.5zM191 389v210h92q32 0 53 -18.5t21 -48.5q0 -50 -51 -64l60 -79h-42
l-56 76h-43v-76h-34zM279 569h-54v-75h54q21 0 32.5 10t11.5 27t-11.5 27.5t-32.5 10.5z" />
    <glyph glyph-name="macron" unicode="&#xaf;" horiz-adv-x="460" 
d="M50 644v33h360v-33h-360z" />
    <glyph glyph-name="degree" unicode="&#xb0;" horiz-adv-x="394" 
d="M40 554q0 66 45 111t113 45t112 -44t44 -110t-45 -111t-113 -45t-112 44t-44 110zM80 555q0 -51 32.5 -84.5t84.5 -33.5t84.5 33.5t32.5 84.5t-32.5 84.5t-84.5 33.5t-84.5 -33.5t-32.5 -84.5z" />
    <glyph glyph-name="plusminus" unicode="&#xb1;" 
d="M317 650v-208h233v-34h-233v-208h-34v208h-233v34h233v208h34zM550 50h-500v35h500v-35z" />
    <glyph glyph-name="twosuperior" unicode="&#xb2;" horiz-adv-x="342" 
d="M234 454l-141 -141h206v-33h-259v27l165 165q60 60 60 117q0 35 -26 59t-65 24q-21 0 -39 -6.5t-29 -15t-19 -17.5t-11 -15l-4 -7l-32 14q2 3 5 8.5t14.5 19.5t26 24.5t38.5 19.5t51 9q54 0 90.5 -33t36.5 -83q0 -67 -68 -136z" />
    <glyph glyph-name="threesuperior" unicode="&#xb3;" horiz-adv-x="334" 
d="M109 517h42q44 0 69 21.5t25 56.5t-25 56t-69 21q-29 0 -50.5 -10t-28.5 -20l-8 -11l-29 17q4 6 12 16t38.5 26t66.5 16q57 0 93.5 -30.5t36.5 -76.5q0 -67 -66 -98q36 -15 57 -44t21 -64q0 -50 -42 -84.5t-103 -34.5q-25 0 -47 6.5t-36.5 15t-25 17.5t-15.5 15l-5 7
l28 19q3 -5 10 -12.5t33 -20.5t58 -13q49 0 78.5 24t29.5 63q0 38 -29.5 63.5t-78.5 25.5h-40v33z" />
    <glyph glyph-name="acute" unicode="&#xb4;" horiz-adv-x="370" 
d="M155 580h-35l85 160h45z" />
    <glyph glyph-name="mu" unicode="&#xb5;" horiz-adv-x="620" 
d="M90 -160v666h40v-261q0 -111 46.5 -164.5t121.5 -53.5q85 0 137 54t55 171v254h40v-506h-35l-5 105q-57 -115 -198 -115q-109 0 -162 92v-242h-40z" />
    <glyph glyph-name="mu" unicode="&#x3bc;" horiz-adv-x="620" 
d="M90 -160v666h40v-261q0 -111 46.5 -164.5t121.5 -53.5q85 0 137 54t55 171v254h40v-506h-35l-5 105q-57 -115 -198 -115q-109 0 -162 92v-242h-40z" />
    <glyph glyph-name="paragraph" unicode="&#xb6;" horiz-adv-x="705" 
d="M295 0v315h-21q-104 0 -164 53t-60 138t61 139.5t165 54.5h299v-700h-40v665h-200v-665h-40z" />
    <glyph glyph-name="periodcentered" unicode="&#xb7;" horiz-adv-x="190" 
d="M60 350q0 14 10.5 24.5t24.5 10.5t24.5 -10.5t10.5 -24.5t-10.5 -24.5t-24.5 -10.5t-24.5 10.5t-10.5 24.5z" />
    <glyph glyph-name="cedilla" unicode="&#xb8;" horiz-adv-x="355" 
d="M260 -87q0 24 -13 46t-22.5 29.5t-16.5 11.5l22 15q3 -1 7.5 -3.5t16.5 -12t21.5 -20.5t17 -29.5t7.5 -39.5q0 -49 -37 -77t-93 -28q-27 0 -52 7.5t-36 15.5l-12 7l15 30q34 -25 92 -25q39 0 61 20.5t22 52.5z" />
    <glyph glyph-name="onesuperior" unicode="&#xb9;" horiz-adv-x="258" 
d="M30 598l139 102h29v-420h-37v370l-109 -79z" />
    <glyph glyph-name="ordmasculine" unicode="&#xba;" horiz-adv-x="454" 
d="M60 540q0 69 48.5 116.5t120.5 47.5q71 0 118 -46t47 -114q0 -69 -48.5 -116.5t-120.5 -47.5q-71 0 -118 46t-47 114zM70 280v35h314v-35h-314zM100 542q0 -54 37 -90.5t90 -36.5t90 36.5t37 90.5t-37 90.5t-90 36.5t-90 -36.5t-37 -90.5z" />
    <glyph glyph-name="guillemotright" unicode="&#xbb;" horiz-adv-x="750" 
d="M80 125l247 224l-247 224l25 27l275 -240v-20l-275 -240zM400 125l247 224l-247 224l25 27l275 -240v-20l-275 -240z" />
    <glyph glyph-name="onequarter" unicode="&#xbc;" horiz-adv-x="835" 
d="M480 146l200 274h36v-274h69v-31h-69v-115h-36v115h-200v31zM130 0l520 700h40l-520 -700h-40zM70 598l139 102h29v-420h-37v370l-109 -79zM515 146h165v222z" />
    <glyph glyph-name="onehalf" unicode="&#xbd;" horiz-adv-x="886" 
d="M748 174l-141 -141h206v-33h-259v27l165 165q60 60 60 117q0 35 -26 59t-65 24q-21 0 -39 -6.5t-29 -15t-19 -17.5t-11 -15l-4 -7l-32 14q2 3 5 8.5t14.5 19.5t26 24.5t38.5 19.5t51 9q54 0 90.5 -33t36.5 -83q0 -67 -68 -136zM130 0l520 700h40l-520 -700h-40zM70 598
l139 102h29v-420h-37v370l-109 -79z" />
    <glyph glyph-name="threequarters" unicode="&#xbe;" horiz-adv-x="855" 
d="M500 146l200 274h36v-274h69v-31h-69v-115h-36v115h-200v31zM133 517h42q44 0 69 21.5t25 56.5t-25 56t-69 21q-29 0 -50.5 -10t-28.5 -20l-8 -11l-29 17q4 6 12 16t38.5 26t66.5 16q57 0 93.5 -30.5t36.5 -76.5q0 -67 -66 -98q36 -15 57 -44t21 -64q0 -50 -42 -84.5
t-103 -34.5q-25 0 -47 6.5t-36.5 15t-25 17.5t-15.5 15l-5 7l28 19q3 -5 10 -12.5t33 -20.5t58 -13q49 0 78.5 24t29.5 63q0 38 -29.5 63.5t-78.5 25.5h-40v33zM150 0l520 700h40l-520 -700h-40zM535 146h165v222z" />
    <glyph glyph-name="questiondown" unicode="&#xbf;" horiz-adv-x="540" 
d="M300 500q0 -41 -18.5 -76t-45 -60.5t-53 -50.5t-45 -59t-18.5 -74q0 -68 44.5 -110.5t110.5 -42.5q34 0 63.5 11.5t47.5 27.5t31 32.5t19 27.5l5 12l34 -13q-2 -5 -6 -14.5t-20.5 -32.5t-37.5 -41t-58 -32.5t-80 -14.5q-84 0 -138.5 53.5t-54.5 131.5q0 47 18.5 86
t45 65.5t53 51t45 55.5t18.5 67h40zM315 675q0 -14 -10.5 -24.5t-24.5 -10.5t-24.5 10.5t-10.5 24.5t10.5 24.5t24.5 10.5t24.5 -10.5t10.5 -24.5z" />
    <glyph glyph-name="Agrave" unicode="&#xc0;" horiz-adv-x="680" 
d="M10 0l310 700h40l310 -700h-43l-101 230h-374l-101 -230h-41zM339 656l-173 -393h345zM355 760h-35l-95 160h45z" />
    <glyph glyph-name="Aacute" unicode="&#xc1;" horiz-adv-x="680" 
d="M10 0l310 700h40l310 -700h-43l-101 230h-374l-101 -230h-41zM339 656l-173 -393h345zM360 760h-35l85 160h45z" />
    <glyph glyph-name="Acircumflex" unicode="&#xc2;" horiz-adv-x="680" 
d="M10 0l310 700h40l310 -700h-43l-101 230h-374l-101 -230h-41zM339 656l-173 -393h345zM205 760h-40l155 160h40l155 -160h-42l-135 127z" />
    <glyph glyph-name="Atilde" unicode="&#xc3;" horiz-adv-x="680" 
d="M10 0l310 700h40l310 -700h-43l-101 230h-374l-101 -230h-41zM339 656l-173 -393h345zM208 789l-37 4q0 4 1 11.5t6 26t14 32.5t27 25.5t42 11.5q29 0 52.5 -15t36 -33.5t31.5 -33.5t39 -15q21 0 33.5 19.5t14.5 39.5l3 20l37 -4q0 -4 -1 -11.5t-6.5 -26t-14 -33t-27 -26
t-42.5 -11.5q-28 0 -51 15t-36.5 33.5t-32.5 33.5t-39 15t-32.5 -19.5t-15.5 -39.5z" />
    <glyph glyph-name="Adieresis" unicode="&#xc4;" horiz-adv-x="680" 
d="M10 0l310 700h40l310 -700h-43l-101 230h-374l-101 -230h-41zM339 656l-173 -393h345zM210 835q0 14 10.5 24.5t24.5 10.5t24.5 -10.5t10.5 -24.5t-10.5 -24.5t-24.5 -10.5t-24.5 10.5t-10.5 24.5zM400 835q0 14 10.5 24.5t24.5 10.5t24.5 -10.5t10.5 -24.5t-10.5 -24.5
t-24.5 -10.5t-24.5 10.5t-10.5 24.5z" />
    <glyph glyph-name="Aring" unicode="&#xc5;" horiz-adv-x="680" 
d="M10 0l310 700h40l310 -700h-43l-101 230h-374l-101 -230h-41zM339 656l-173 -393h345zM235 850q0 43 30.5 71.5t74.5 28.5t74.5 -28.5t30.5 -71.5t-30.5 -71.5t-74.5 -28.5t-74.5 28.5t-30.5 71.5zM272 850q0 -29 20 -48t48 -19t48 19t20 48t-20 48t-48 19t-48 -19
t-20 -48z" />
    <glyph glyph-name="AE" unicode="&#xc6;" horiz-adv-x="1045" 
d="M975 665h-430v-281h380v-33h-380v-316h440v-35h-480v230h-300l-157 -230h-48l485 700h490v-35zM228 263h277v403z" />
    <glyph glyph-name="Ccedilla" unicode="&#xc7;" horiz-adv-x="720" 
d="M680 101q-4 -4 -10.5 -11t-29.5 -25t-49 -32t-67.5 -27t-84.5 -15q35 -33 35 -81q0 -49 -37 -77t-93 -28q-27 0 -52 7.5t-36 15.5l-12 7l15 30q34 -25 92 -25q39 0 61 20.5t22 52.5q0 45 -40 78q-143 9 -238.5 111t-95.5 247q0 151 105 256t256 105q45 0 87.5 -10.5
t71 -25.5t50.5 -30t32 -26l11 -10l-26 -25q-3 4 -10 10t-29 21.5t-46.5 27.5t-63 21.5t-78.5 9.5q-135 0 -227.5 -93t-92.5 -230t92.5 -230t227.5 -93q42 0 81.5 10t66 24.5t47 29.5t30.5 24.5t10 10.5z" />
    <glyph glyph-name="Egrave" unicode="&#xc8;" horiz-adv-x="650" 
d="M590 0h-480v700h470v-35h-430v-281h380v-33h-380v-316h440v-35zM390 760h-35l-95 160h45z" />
    <glyph glyph-name="Eacute" unicode="&#xc9;" horiz-adv-x="650" 
d="M590 0h-480v700h470v-35h-430v-281h380v-33h-380v-316h440v-35zM355 760h-35l85 160h45z" />
    <glyph glyph-name="Ecircumflex" unicode="&#xca;" horiz-adv-x="650" 
d="M590 0h-480v700h470v-35h-430v-281h380v-33h-380v-316h440v-35zM210 760h-40l155 160h40l155 -160h-42l-135 127z" />
    <glyph glyph-name="Edieresis" unicode="&#xcb;" horiz-adv-x="650" 
d="M590 0h-480v700h470v-35h-430v-281h380v-33h-380v-316h440v-35zM215 835q0 14 10.5 24.5t24.5 10.5t24.5 -10.5t10.5 -24.5t-10.5 -24.5t-24.5 -10.5t-24.5 10.5t-10.5 24.5zM405 835q0 14 10.5 24.5t24.5 10.5t24.5 -10.5t10.5 -24.5t-10.5 -24.5t-24.5 -10.5
t-24.5 10.5t-10.5 24.5z" />
    <glyph glyph-name="Igrave" unicode="&#xcc;" horiz-adv-x="272" 
d="M115 0v700h42v-700h-42zM157 760h-35l-95 160h45z" />
    <glyph glyph-name="Iacute" unicode="&#xcd;" horiz-adv-x="272" 
d="M115 0v700h42v-700h-42zM150 760h-35l85 160h45z" />
    <glyph glyph-name="Icircumflex" unicode="&#xce;" horiz-adv-x="272" 
d="M115 0v700h42v-700h-42zM1 760h-40l155 160h40l155 -160h-42l-135 127z" />
    <glyph glyph-name="Idieresis" unicode="&#xcf;" horiz-adv-x="272" 
d="M115 0v700h42v-700h-42zM6 835q0 14 10.5 24.5t24.5 10.5t24.5 -10.5t10.5 -24.5t-10.5 -24.5t-24.5 -10.5t-24.5 10.5t-10.5 24.5zM196 835q0 14 10.5 24.5t24.5 10.5t24.5 -10.5t10.5 -24.5t-10.5 -24.5t-24.5 -10.5t-24.5 10.5t-10.5 24.5z" />
    <glyph glyph-name="Eth" unicode="&#xd0;" horiz-adv-x="790" 
d="M140 700h211q166 0 272.5 -99.5t106.5 -249.5t-107.5 -250.5t-273.5 -100.5h-209v346h-110v33h110v321zM440 346h-260v-311h175q145 0 240 90.5t95 224.5t-95 224.5t-240 90.5h-175v-286h260v-33z" />
    <glyph glyph-name="Ntilde" unicode="&#xd1;" horiz-adv-x="790" 
d="M640 0l-490 644v-644h-40v700h45l485 -638v638h40v-700h-40zM263 789l-37 4q0 4 1 11.5t6 26t14 32.5t27 25.5t42 11.5q29 0 52.5 -15t36 -33.5t31.5 -33.5t39 -15q21 0 33.5 19.5t15.5 39.5l2 20l37 -4q0 -4 -1 -11.5t-6.5 -26t-14 -33t-27 -26t-42.5 -11.5
q-28 0 -51 15t-36.5 33.5t-32.5 33.5t-39 15t-32.5 -19.5t-14.5 -39.5z" />
    <glyph glyph-name="Ograve" unicode="&#xd2;" horiz-adv-x="840" 
d="M60 349q0 151 105 256t256 105t255 -104t104 -255t-105 -256t-256 -105t-255 104t-104 255zM100 350q0 -137 92.5 -230t227.5 -93t227.5 93t92.5 230t-92.5 230t-227.5 93t-227.5 -93t-92.5 -230zM445 760h-35l-95 160h45z" />
    <glyph glyph-name="Oacute" unicode="&#xd3;" horiz-adv-x="840" 
d="M60 349q0 151 105 256t256 105t255 -104t104 -255t-105 -256t-256 -105t-255 104t-104 255zM100 350q0 -137 92.5 -230t227.5 -93t227.5 93t92.5 230t-92.5 230t-227.5 93t-227.5 -93t-92.5 -230zM430 760h-35l85 160h45z" />
    <glyph glyph-name="Ocircumflex" unicode="&#xd4;" horiz-adv-x="840" 
d="M60 349q0 151 105 256t256 105t255 -104t104 -255t-105 -256t-256 -105t-255 104t-104 255zM100 350q0 -137 92.5 -230t227.5 -93t227.5 93t92.5 230t-92.5 230t-227.5 93t-227.5 -93t-92.5 -230zM285 760h-40l155 160h40l155 -160h-42l-135 127z" />
    <glyph glyph-name="Otilde" unicode="&#xd5;" horiz-adv-x="840" 
d="M60 349q0 151 105 256t256 105t255 -104t104 -255t-105 -256t-256 -105t-255 104t-104 255zM100 350q0 -137 92.5 -230t227.5 -93t227.5 93t92.5 230t-92.5 230t-227.5 93t-227.5 -93t-92.5 -230zM288 789l-37 4q0 4 1 11.5t6 26t14 32.5t27 25.5t42 11.5q29 0 52.5 -15
t36 -33.5t31.5 -33.5t39 -15q21 0 33.5 19.5t14.5 39.5l3 20l37 -4q0 -4 -1 -11.5t-6.5 -26t-14 -33t-27 -26t-42.5 -11.5q-28 0 -51 15t-36.5 33.5t-32.5 33.5t-39 15t-32.5 -19.5t-15.5 -39.5z" />
    <glyph glyph-name="Odieresis" unicode="&#xd6;" horiz-adv-x="840" 
d="M60 349q0 151 105 256t256 105t255 -104t104 -255t-105 -256t-256 -105t-255 104t-104 255zM100 350q0 -137 92.5 -230t227.5 -93t227.5 93t92.5 230t-92.5 230t-227.5 93t-227.5 -93t-92.5 -230zM290 835q0 14 10.5 24.5t24.5 10.5t24.5 -10.5t10.5 -24.5t-10.5 -24.5
t-24.5 -10.5t-24.5 10.5t-10.5 24.5zM480 835q0 14 10.5 24.5t24.5 10.5t24.5 -10.5t10.5 -24.5t-10.5 -24.5t-24.5 -10.5t-24.5 10.5t-10.5 24.5z" />
    <glyph glyph-name="multiply" unicode="&#xd7;" 
d="M502 123l-202 204l-202 -204l-25 25l204 202l-204 202l25 25l202 -204l202 204l25 -25l-204 -202l204 -202z" />
    <glyph glyph-name="Oslash" unicode="&#xd8;" horiz-adv-x="840" 
d="M780 730l-107 -121q107 -104 107 -258q0 -151 -105 -256t-256 -105q-128 0 -227 78l-87 -98h-45l107 121q-107 102 -107 258q0 151 105 256t256 105q129 0 226 -78l88 98h45zM740 350q0 137 -93 230l-429 -483q86 -70 202 -70q135 0 227.5 93t92.5 230zM100 350
q0 -136 92 -230l430 483q-88 70 -202 70q-135 0 -227.5 -93t-92.5 -230z" />
    <glyph glyph-name="Ugrave" unicode="&#xd9;" horiz-adv-x="740" 
d="M141 700v-423q0 -110 65 -180t165 -70t165 70t65 180v423h39v-419q0 -127 -77 -209t-194 -82t-193 81t-76 208v421h41zM415 760h-35l-95 160h45z" />
    <glyph glyph-name="Uacute" unicode="&#xda;" horiz-adv-x="740" 
d="M141 700v-423q0 -110 65 -180t165 -70t165 70t65 180v423h39v-419q0 -127 -77 -209t-194 -82t-193 81t-76 208v421h41zM360 760h-35l85 160h45z" />
    <glyph glyph-name="Ucircumflex" unicode="&#xdb;" horiz-adv-x="740" 
d="M141 700v-423q0 -110 65 -180t165 -70t165 70t65 180v423h39v-419q0 -127 -77 -209t-194 -82t-193 81t-76 208v421h41zM235 760h-40l155 160h40l155 -160h-42l-135 127z" />
    <glyph glyph-name="Udieresis" unicode="&#xdc;" horiz-adv-x="740" 
d="M141 700v-423q0 -110 65 -180t165 -70t165 70t65 180v423h39v-419q0 -127 -77 -209t-194 -82t-193 81t-76 208v421h41zM240 835q0 14 10.5 24.5t24.5 10.5t24.5 -10.5t10.5 -24.5t-10.5 -24.5t-24.5 -10.5t-24.5 10.5t-10.5 24.5zM430 835q0 14 10.5 24.5t24.5 10.5
t24.5 -10.5t10.5 -24.5t-10.5 -24.5t-24.5 -10.5t-24.5 10.5t-10.5 24.5z" />
    <glyph glyph-name="Yacute" unicode="&#xdd;" horiz-adv-x="650" 
d="M640 700l-295 -410v-290h-40v290l-295 410h49l267 -376l267 376h47zM345 760h-35l85 160h45z" />
    <glyph glyph-name="Thorn" unicode="&#xde;" horiz-adv-x="665" 
d="M372 540h-222v-345h222q86 0 139.5 49t53.5 123q0 75 -53.5 124t-139.5 49zM110 0v700h40v-125h228q100 0 163.5 -59t63.5 -148t-64.5 -148.5t-164.5 -59.5h-226v-160h-40z" />
    <glyph glyph-name="germandbls" unicode="&#xdf;" horiz-adv-x="595" 
d="M342 348h-47v34h7q76 0 124.5 40.5t48.5 104.5t-48.5 105t-124.5 41q-79 0 -125.5 -54t-46.5 -147v-472h-40v471q0 108 58.5 173.5t154.5 65.5q93 0 152.5 -50.5t59.5 -128.5q0 -56 -29.5 -97.5t-80.5 -62.5q69 -17 109.5 -66.5t40.5 -119.5q0 -84 -58 -139.5t-150 -55.5
q-23 0 -42 3t-27 6l-8 3l10 35q32 -10 67 -10q75 0 121.5 45t46.5 115t-48 115.5t-125 45.5z" />
    <glyph glyph-name="agrave" unicode="&#xe0;" horiz-adv-x="560" 
d="M60 146q0 66 55 112.5t147 46.5q118 0 178 -68v53q0 96 -45.5 143.5t-124.5 47.5q-46 0 -85 -14t-55 -28l-15 -14l-25 26q7 7 20 18t60 29t101 18q100 0 154.5 -58t54.5 -167v-291h-30l-7 61q-59 -71 -181 -71q-92 0 -147 45t-55 111zM100 147q0 -51 45 -85.5t122 -34.5
q85 0 131.5 34t46.5 86t-46.5 86.5t-131.5 34.5q-77 0 -122 -35t-45 -86zM321 580h-35l-95 160h45z" />
    <glyph glyph-name="aacute" unicode="&#xe1;" horiz-adv-x="560" 
d="M60 146q0 66 55 112.5t147 46.5q118 0 178 -68v53q0 96 -45.5 143.5t-124.5 47.5q-46 0 -85 -14t-55 -28l-15 -14l-25 26q7 7 20 18t60 29t101 18q100 0 154.5 -58t54.5 -167v-291h-30l-7 61q-59 -71 -181 -71q-92 0 -147 45t-55 111zM100 147q0 -51 45 -85.5t122 -34.5
q85 0 131.5 34t46.5 86t-46.5 86.5t-131.5 34.5q-77 0 -122 -35t-45 -86zM287 580h-35l85 160h45z" />
    <glyph glyph-name="acircumflex" unicode="&#xe2;" horiz-adv-x="560" 
d="M60 146q0 66 55 112.5t147 46.5q118 0 178 -68v53q0 96 -45.5 143.5t-124.5 47.5q-46 0 -85 -14t-55 -28l-15 -14l-25 26q7 7 20 18t60 29t101 18q100 0 154.5 -58t54.5 -167v-291h-30l-7 61q-59 -71 -181 -71q-92 0 -147 45t-55 111zM100 147q0 -51 45 -85.5t122 -34.5
q85 0 131.5 34t46.5 86t-46.5 86.5t-131.5 34.5q-77 0 -122 -35t-45 -86zM147 580h-40l155 160h40l155 -160h-42l-135 127z" />
    <glyph glyph-name="atilde" unicode="&#xe3;" horiz-adv-x="560" 
d="M60 146q0 66 55 112.5t147 46.5q118 0 178 -68v53q0 96 -45.5 143.5t-124.5 47.5q-46 0 -85 -14t-55 -28l-15 -14l-25 26q7 7 20 18t60 29t101 18q100 0 154.5 -58t54.5 -167v-291h-30l-7 61q-59 -71 -181 -71q-92 0 -147 45t-55 111zM100 147q0 -51 45 -85.5t122 -34.5
q85 0 131.5 34t46.5 86t-46.5 86.5t-131.5 34.5q-77 0 -122 -35t-45 -86zM156 609l-37 4q0 4 1 11.5t6 26t14 32.5t27 25.5t42 11.5q29 0 52.5 -15t36 -33.5t31.5 -33.5t39 -15q21 0 33.5 19.5t14.5 39.5l3 20l37 -4q0 -4 -1 -11.5t-6.5 -26t-14 -33t-27 -26t-42.5 -11.5
q-28 0 -51 15t-36.5 33.5t-32.5 33.5t-39 15t-32.5 -19.5t-15.5 -39.5z" />
    <glyph glyph-name="adieresis" unicode="&#xe4;" horiz-adv-x="560" 
d="M60 146q0 66 55 112.5t147 46.5q118 0 178 -68v53q0 96 -45.5 143.5t-124.5 47.5q-46 0 -85 -14t-55 -28l-15 -14l-25 26q7 7 20 18t60 29t101 18q100 0 154.5 -58t54.5 -167v-291h-30l-7 61q-59 -71 -181 -71q-92 0 -147 45t-55 111zM100 147q0 -51 45 -85.5t122 -34.5
q85 0 131.5 34t46.5 86t-46.5 86.5t-131.5 34.5q-77 0 -122 -35t-45 -86zM152 655q0 14 10.5 24.5t24.5 10.5t24.5 -10.5t10.5 -24.5t-10.5 -24.5t-24.5 -10.5t-24.5 10.5t-10.5 24.5zM342 655q0 14 10.5 24.5t24.5 10.5t24.5 -10.5t10.5 -24.5t-10.5 -24.5t-24.5 -10.5
t-24.5 10.5t-10.5 24.5z" />
    <glyph glyph-name="aring" unicode="&#xe5;" horiz-adv-x="560" 
d="M60 146q0 66 55 112.5t147 46.5q118 0 178 -68v53q0 96 -45.5 143.5t-124.5 47.5q-46 0 -85 -14t-55 -28l-15 -14l-25 26q7 7 20 18t60 29t101 18q100 0 154.5 -58t54.5 -167v-291h-30l-7 61q-59 -71 -181 -71q-92 0 -147 45t-55 111zM100 147q0 -51 45 -85.5t122 -34.5
q85 0 131.5 34t46.5 86t-46.5 86.5t-131.5 34.5q-77 0 -122 -35t-45 -86zM182 670q0 43 30.5 71.5t74.5 28.5t74.5 -28.5t30.5 -71.5t-30.5 -71.5t-74.5 -28.5t-74.5 28.5t-30.5 71.5zM219 670q0 -29 20 -48t48 -19t48 19t20 48t-20 48t-48 19t-48 -19t-20 -48z" />
    <glyph glyph-name="ae" unicode="&#xe6;" horiz-adv-x="996" 
d="M60 146q0 66 55 112.5t147 46.5q118 0 178 -68v53q0 96 -45.5 143.5t-124.5 47.5q-46 0 -85 -13.5t-55 -27.5l-15 -13l-25 26q7 7 20 17.5t60 28t101 17.5q165 0 197 -152q31 69 93.5 110.5t142.5 41.5q99 0 170.5 -73.5t71.5 -178.5v-4h-466v-7q0 -97 64 -161.5
t159 -64.5q39 0 73 11.5t55.5 27.5t37.5 32t23 28l7 11l29 -17q-3 -5 -8 -14t-25.5 -31.5t-44 -39.5t-63.5 -31t-85 -14q-76 0 -136 37t-92 100q-9 -61 -63 -99t-149 -38q-92 0 -147 45t-55 111zM100 147q0 -51 45 -85.5t122 -34.5q85 0 131.5 34t46.5 86t-46.5 86.5
t-131.5 34.5q-77 0 -122 -35t-45 -86zM703 479q-84 0 -145 -52t-75 -134h421q-11 80 -68 133t-133 53z" />
    <glyph glyph-name="ccedilla" unicode="&#xe7;" horiz-adv-x="550" 
d="M313 27q51 0 93.5 19t59.5 38l17 19l27 -23q-2 -3 -7 -8.5t-21 -20t-35 -25.5t-49.5 -21.5t-63.5 -13.5q35 -33 35 -81q0 -49 -37 -77t-93 -28q-27 0 -52 7.5t-37 15.5l-11 7l15 30q34 -25 92 -25q39 0 61 20.5t22 52.5q0 45 -40 78q-103 8 -171 82t-68 179
q0 111 76.5 187.5t187.5 76.5q35 0 67.5 -8.5t54 -20t37.5 -23.5t23 -20l8 -9l-25 -26q-7 8 -19.5 19.5t-55.5 31t-91 19.5q-95 0 -159 -64.5t-64 -161.5t64 -161.5t159 -64.5z" />
    <glyph glyph-name="egrave" unicode="&#xe8;" horiz-adv-x="606" 
d="M556 264v-4h-466v-7q0 -97 64 -161.5t159 -64.5q39 0 73 11.5t55.5 27.5t37.5 32t23 28l7 11l29 -17q-3 -5 -8 -14t-25.5 -31.5t-44 -39.5t-63.5 -31t-85 -14q-111 0 -186.5 75.5t-75.5 186.5t76.5 187.5t187.5 76.5q99 0 170.5 -73.5t71.5 -178.5zM313 479
q-83 0 -144.5 -51.5t-75.5 -132.5h421q-11 79 -68.5 131.5t-132.5 52.5zM325 580h-35l-95 160h45z" />
    <glyph glyph-name="eacute" unicode="&#xe9;" horiz-adv-x="606" 
d="M556 264v-4h-466v-7q0 -97 64 -161.5t159 -64.5q39 0 73 11.5t55.5 27.5t37.5 32t23 28l7 11l29 -17q-3 -5 -8 -14t-25.5 -31.5t-44 -39.5t-63.5 -31t-85 -14q-111 0 -186.5 75.5t-75.5 186.5t76.5 187.5t187.5 76.5q99 0 170.5 -73.5t71.5 -178.5zM313 479
q-83 0 -144.5 -51.5t-75.5 -132.5h421q-11 79 -68.5 131.5t-132.5 52.5zM320 580h-35l85 160h45z" />
    <glyph glyph-name="ecircumflex" unicode="&#xea;" horiz-adv-x="606" 
d="M556 264v-4h-466v-7q0 -97 64 -161.5t159 -64.5q39 0 73 11.5t55.5 27.5t37.5 32t23 28l7 11l29 -17q-3 -5 -8 -14t-25.5 -31.5t-44 -39.5t-63.5 -31t-85 -14q-111 0 -186.5 75.5t-75.5 186.5t76.5 187.5t187.5 76.5q99 0 170.5 -73.5t71.5 -178.5zM313 479
q-83 0 -144.5 -51.5t-75.5 -132.5h421q-11 79 -68.5 131.5t-132.5 52.5zM175 580h-40l155 160h40l155 -160h-42l-135 127z" />
    <glyph glyph-name="edieresis" unicode="&#xeb;" horiz-adv-x="606" 
d="M556 264v-4h-466v-7q0 -97 64 -161.5t159 -64.5q39 0 73 11.5t55.5 27.5t37.5 32t23 28l7 11l29 -17q-3 -5 -8 -14t-25.5 -31.5t-44 -39.5t-63.5 -31t-85 -14q-111 0 -186.5 75.5t-75.5 186.5t76.5 187.5t187.5 76.5q99 0 170.5 -73.5t71.5 -178.5zM313 479
q-83 0 -144.5 -51.5t-75.5 -132.5h421q-11 79 -68.5 131.5t-132.5 52.5zM180 655q0 14 10.5 24.5t24.5 10.5t24.5 -10.5t10.5 -24.5t-10.5 -24.5t-24.5 -10.5t-24.5 10.5t-10.5 24.5zM370 655q0 14 10.5 24.5t24.5 10.5t24.5 -10.5t10.5 -24.5t-10.5 -24.5t-24.5 -10.5
t-24.5 10.5t-10.5 24.5z" />
    <glyph glyph-name="igrave" unicode="&#xec;" horiz-adv-x="232" 
d="M137 580h-35l-95 160h45zM95 0v506h42v-506h-42z" />
    <glyph glyph-name="iacute" unicode="&#xed;" horiz-adv-x="232" 
d="M130 580h-35l85 160h45zM95 0v506h42v-506h-42z" />
    <glyph glyph-name="icircumflex" unicode="&#xee;" horiz-adv-x="232" 
d="M95 0v506h42v-506h-42zM-19 580h-40l155 160h40l155 -160h-42l-135 127z" />
    <glyph glyph-name="idieresis" unicode="&#xef;" horiz-adv-x="232" 
d="M-14 655q0 14 10.5 24.5t24.5 10.5t24.5 -10.5t10.5 -24.5t-10.5 -24.5t-24.5 -10.5t-24.5 10.5t-10.5 24.5zM176 655q0 14 10.5 24.5t24.5 10.5t24.5 -10.5t10.5 -24.5t-10.5 -24.5t-24.5 -10.5t-24.5 10.5t-10.5 24.5zM95 0v506h42v-506h-42z" />
    <glyph glyph-name="eth" unicode="&#xf0;" horiz-adv-x="626" 
d="M50 242q0 105 77 179.5t187 74.5q77 0 137 -43l-92 139l-195 -41v33l176 37l-51 79h46l45 -70l136 29v-33l-118 -25l120 -187q58 -88 58 -170q0 -105 -77 -179.5t-187 -74.5t-186 73.5t-76 178.5zM90 243q0 -90 64.5 -153t158.5 -63t158.5 63t64.5 153t-64.5 153
t-158.5 63t-158.5 -63t-64.5 -153z" />
    <glyph glyph-name="ntilde" unicode="&#xf1;" horiz-adv-x="610" 
d="M130 241v-241h-40v506h35l5 -108q57 118 198 118q86 0 144 -61.5t58 -180.5v-274h-40v261q0 110 -48 164t-120 54q-84 0 -138 -58t-54 -180zM176 609l-37 4q0 4 1 11.5t6 26t14 32.5t27 25.5t42 11.5q29 0 52.5 -15t36 -33.5t31.5 -33.5t39 -15q21 0 33.5 19.5t14.5 39.5
l3 20l37 -4q0 -4 -1 -11.5t-6.5 -26t-14 -33t-27 -26t-42.5 -11.5q-28 0 -51 15t-36.5 33.5t-32.5 33.5t-39 15t-32.5 -19.5t-15.5 -39.5z" />
    <glyph glyph-name="ograve" unicode="&#xf2;" horiz-adv-x="626" 
d="M50 252q0 111 76.5 187.5t187.5 76.5t186.5 -75.5t75.5 -186.5t-76.5 -187.5t-187.5 -76.5t-186.5 75.5t-75.5 186.5zM90 253q0 -97 64 -161.5t159 -64.5t159 64.5t64 161.5t-64 161.5t-159 64.5t-159 -64.5t-64 -161.5zM340 580h-35l-95 160h45z" />
    <glyph glyph-name="oacute" unicode="&#xf3;" horiz-adv-x="626" 
d="M50 252q0 111 76.5 187.5t187.5 76.5t186.5 -75.5t75.5 -186.5t-76.5 -187.5t-187.5 -76.5t-186.5 75.5t-75.5 186.5zM90 253q0 -97 64 -161.5t159 -64.5t159 64.5t64 161.5t-64 161.5t-159 64.5t-159 -64.5t-64 -161.5zM321 580h-35l85 160h45z" />
    <glyph glyph-name="ocircumflex" unicode="&#xf4;" horiz-adv-x="626" 
d="M50 252q0 111 76.5 187.5t187.5 76.5t186.5 -75.5t75.5 -186.5t-76.5 -187.5t-187.5 -76.5t-186.5 75.5t-75.5 186.5zM90 253q0 -97 64 -161.5t159 -64.5t159 64.5t64 161.5t-64 161.5t-159 64.5t-159 -64.5t-64 -161.5zM178 580h-40l155 160h40l155 -160h-42l-135 127z
" />
    <glyph glyph-name="otilde" unicode="&#xf5;" horiz-adv-x="626" 
d="M50 252q0 111 76.5 187.5t187.5 76.5t186.5 -75.5t75.5 -186.5t-76.5 -187.5t-187.5 -76.5t-186.5 75.5t-75.5 186.5zM90 253q0 -97 64 -161.5t159 -64.5t159 64.5t64 161.5t-64 161.5t-159 64.5t-159 -64.5t-64 -161.5zM182 609l-37 4q0 4 1 11.5t6 26t14 32.5t27 25.5
t42 11.5q29 0 52.5 -15t36 -33.5t31.5 -33.5t39 -15q21 0 33.5 19.5t14.5 39.5l3 20l37 -4q0 -4 -1 -11.5t-6.5 -26t-14 -33t-27 -26t-42.5 -11.5q-28 0 -51 15t-36.5 33.5t-32.5 33.5t-39 15t-32.5 -19.5t-15.5 -39.5z" />
    <glyph glyph-name="odieresis" unicode="&#xf6;" horiz-adv-x="626" 
d="M50 252q0 111 76.5 187.5t187.5 76.5t186.5 -75.5t75.5 -186.5t-76.5 -187.5t-187.5 -76.5t-186.5 75.5t-75.5 186.5zM90 253q0 -97 64 -161.5t159 -64.5t159 64.5t64 161.5t-64 161.5t-159 64.5t-159 -64.5t-64 -161.5zM183 655q0 14 10.5 24.5t24.5 10.5t24.5 -10.5
t10.5 -24.5t-10.5 -24.5t-24.5 -10.5t-24.5 10.5t-10.5 24.5zM373 655q0 14 10.5 24.5t24.5 10.5t24.5 -10.5t10.5 -24.5t-10.5 -24.5t-24.5 -10.5t-24.5 10.5t-10.5 24.5z" />
    <glyph glyph-name="divide" unicode="&#xf7;" 
d="M550 340h-500v35h500v-35zM265 155q0 14 10.5 24.5t24.5 10.5t24.5 -10.5t10.5 -24.5t-10.5 -24.5t-24.5 -10.5t-24.5 10.5t-10.5 24.5zM265 560q0 14 10.5 24.5t24.5 10.5t24.5 -10.5t10.5 -24.5t-10.5 -24.5t-24.5 -10.5t-24.5 10.5t-10.5 24.5z" />
    <glyph glyph-name="oslash" unicode="&#xf8;" horiz-adv-x="626" 
d="M50 252q0 111 76.5 187.5t187.5 76.5q95 0 166 -57l71 77h45l-92 -100q72 -74 72 -182q0 -111 -76.5 -187.5t-187.5 -76.5q-95 0 -166 57l-71 -77h-45l91 99q-71 76 -71 183zM536 253q0 91 -58 155l-306 -333q61 -48 141 -48q95 0 159 64.5t64 161.5zM90 253
q0 -91 58 -155l306 332q-60 49 -141 49q-95 0 -159 -64.5t-64 -161.5z" />
    <glyph glyph-name="ugrave" unicode="&#xf9;" horiz-adv-x="610" 
d="M480 265v241h40v-506h-35l-5 108q-58 -118 -198 -118q-86 0 -144 61.5t-58 180.5v274h40v-261q0 -110 48 -164t120 -54q84 0 138 58t54 180zM332 580h-35l-95 160h45z" />
    <glyph glyph-name="uacute" unicode="&#xfa;" horiz-adv-x="610" 
d="M520 506v-506h-35l-5 108q-58 -118 -198 -118q-86 0 -144 61.5t-58 180.5v274h40v-261q0 -110 48 -164t120 -54q82 0 135 54.5t57 170.5v254h40zM307 580h-35l85 160h45z" />
    <glyph glyph-name="ucircumflex" unicode="&#xfb;" horiz-adv-x="610" 
d="M480 265v241h40v-506h-35l-5 108q-58 -118 -198 -118q-86 0 -144 61.5t-58 180.5v274h40v-261q0 -110 48 -164t120 -54q84 0 138 58t54 180zM165 580h-40l155 160h40l155 -160h-42l-135 127z" />
    <glyph glyph-name="udieresis" unicode="&#xfc;" horiz-adv-x="610" 
d="M480 265v241h40v-506h-35l-5 108q-58 -118 -198 -118q-86 0 -144 61.5t-58 180.5v274h40v-261q0 -110 48 -164t120 -54q84 0 138 58t54 180zM360 655q0 14 10.5 24.5t24.5 10.5t24.5 -10.5t10.5 -24.5t-10.5 -24.5t-24.5 -10.5t-24.5 10.5t-10.5 24.5zM170 655
q0 14 10.5 24.5t24.5 10.5t24.5 -10.5t10.5 -24.5t-10.5 -24.5t-24.5 -10.5t-24.5 10.5t-10.5 24.5z" />
    <glyph glyph-name="yacute" unicode="&#xfd;" horiz-adv-x="505" 
d="M233 0l-223 506h45l198 -465l199 465h43l-225 -511q-72 -165 -188 -165q-24 0 -42 4t-24 8l-6 4l14 32q19 -11 58 -11q92 0 151 133zM257 580h-35l85 160h45z" />
    <glyph glyph-name="thorn" unicode="&#xfe;" horiz-adv-x="660" 
d="M90 -160v860h40v-313q33 59 92.5 94t131.5 35q107 0 181.5 -75.5t74.5 -186.5t-75.5 -187.5t-182.5 -76.5q-72 0 -130.5 33.5t-91.5 92.5v-276h-40zM125 253q0 -97 64 -161.5t159 -64.5t158.5 64.5t63.5 161.5t-63.5 161.5t-158.5 64.5t-159 -64.5t-64 -161.5z" />
    <glyph glyph-name="ydieresis" unicode="&#xff;" horiz-adv-x="505" 
d="M233 0l-223 506h45l198 -465l199 465h43l-225 -511q-72 -165 -188 -165q-24 0 -42 4t-24 8l-6 4l14 32q19 -11 58 -11q92 0 151 133zM313 655q0 14 10.5 24.5t24.5 10.5t24.5 -10.5t10.5 -24.5t-10.5 -24.5t-24.5 -10.5t-24.5 10.5t-10.5 24.5zM123 655q0 14 10.5 24.5
t24.5 10.5t24.5 -10.5t10.5 -24.5t-10.5 -24.5t-24.5 -10.5t-24.5 10.5t-10.5 24.5z" />
    <glyph glyph-name="Amacron" unicode="&#x100;" horiz-adv-x="680" 
d="M10 0l310 700h40l310 -700h-43l-101 230h-374l-101 -230h-41zM339 656l-173 -393h345zM160 804v33h360v-33h-360z" />
    <glyph glyph-name="amacron" unicode="&#x101;" horiz-adv-x="560" 
d="M60 146q0 66 55 112.5t147 46.5q118 0 178 -68v53q0 96 -45.5 143.5t-124.5 47.5q-46 0 -85 -14t-55 -28l-15 -14l-25 26q7 7 20 18t60 29t101 18q100 0 154.5 -58t54.5 -167v-291h-30l-7 61q-59 -71 -181 -71q-92 0 -147 45t-55 111zM100 147q0 -51 45 -85.5t122 -34.5
q85 0 131.5 34t46.5 86t-46.5 86.5t-131.5 34.5q-77 0 -122 -35t-45 -86zM107 624v33h360v-33h-360z" />
    <glyph glyph-name="Abreve" unicode="&#x102;" horiz-adv-x="680" 
d="M10 0l310 700h40l310 -700h-43l-101 230h-374l-101 -230h-41zM339 656l-173 -393h345zM184 920h38v-5q0 -53 33 -86.5t86 -33.5t85 33t32 87v5h38v-5q0 -66 -44.5 -110.5t-111.5 -44.5t-111.5 44.5t-44.5 110.5v5z" />
    <glyph glyph-name="abreve" unicode="&#x103;" horiz-adv-x="560" 
d="M60 146q0 66 55 112.5t147 46.5q118 0 178 -68v53q0 96 -45.5 143.5t-124.5 47.5q-46 0 -85 -14t-55 -28l-15 -14l-25 26q7 7 20 18t60 29t101 18q100 0 154.5 -58t54.5 -167v-291h-30l-7 61q-59 -71 -181 -71q-92 0 -147 45t-55 111zM100 147q0 -51 45 -85.5t122 -34.5
q85 0 131.5 34t46.5 86t-46.5 86.5t-131.5 34.5q-77 0 -122 -35t-45 -86zM131 740h38v-5q0 -53 33 -86.5t86 -33.5t85 33t32 87v5h38v-5q0 -66 -44.5 -110.5t-111.5 -44.5t-111.5 44.5t-44.5 110.5v5z" />
    <glyph glyph-name="Aogonek" unicode="&#x104;" horiz-adv-x="680" 
d="M10 0l310 700h40l310 -700h-9q-29 -18 -29 -67q0 -37 27.5 -60t68.5 -23q18 0 34.5 4t23.5 8l8 5l16 -27q-28 -25 -83 -25q-58 0 -95 31.5t-37 80.5q0 45 30 77l-99 226h-374l-101 -230h-41zM339 656l-173 -393h345z" />
    <glyph glyph-name="aogonek" unicode="&#x105;" horiz-adv-x="560" 
d="M60 146q0 66 55 112.5t147 46.5q118 0 178 -68v53q0 96 -45.5 143.5t-124.5 47.5q-46 0 -85 -14t-55 -28l-15 -14l-25 26q7 7 20 18t60 29t101 18q100 0 154.5 -58t54.5 -167v-291h-4q-29 -18 -29 -67q0 -37 27.5 -60t68.5 -23q18 0 34.5 4t24.5 8l7 5l16 -27
q-28 -25 -83 -25q-58 0 -95 31.5t-37 80.5q0 52 38 85l-5 49q-59 -71 -181 -71q-92 0 -147 45t-55 111zM100 147q0 -51 45 -85.5t122 -34.5q85 0 131.5 34t46.5 86t-46.5 86.5t-131.5 34.5q-77 0 -122 -35t-45 -86z" />
    <glyph glyph-name="Cacute" unicode="&#x106;" horiz-adv-x="720" 
d="M419 -10q-151 0 -255 104t-104 255t105 256t256 105q45 0 87.5 -10.5t71 -25.5t50.5 -30t32 -26l11 -10l-26 -25q-3 4 -10 10t-29 21.5t-46.5 27.5t-63 21.5t-78.5 9.5q-135 0 -227.5 -93t-92.5 -230t92.5 -230t227.5 -93q42 0 81.5 10t66 24.5t47 29.5t30.5 24.5
t10 10.5l25 -25q-4 -5 -11 -12t-32.5 -26.5t-53.5 -34t-72.5 -26.5t-91.5 -12zM426 760h-35l85 160h45z" />
    <glyph glyph-name="cacute" unicode="&#x107;" horiz-adv-x="550" 
d="M313 27q51 0 93.5 19t59.5 38l17 19l27 -23q-3 -4 -8 -10t-23 -21.5t-39 -27.5t-55.5 -21.5t-72.5 -9.5q-111 0 -186.5 75.5t-75.5 186.5t76.5 187.5t187.5 76.5q35 0 67.5 -8.5t54 -20t37.5 -23.5t23 -20l8 -9l-25 -26q-7 8 -19.5 19.5t-55.5 31t-91 19.5
q-95 0 -159 -64.5t-64 -161.5t64 -161.5t159 -64.5zM337 580h-35l85 160h45z" />
    <glyph glyph-name="Ccircumflex" unicode="&#x108;" horiz-adv-x="720" 
d="M419 -10q-151 0 -255 104t-104 255t105 256t256 105q45 0 87.5 -10.5t71 -25.5t50.5 -30t32 -26l11 -10l-26 -25q-3 4 -10 10t-29 21.5t-46.5 27.5t-63 21.5t-78.5 9.5q-135 0 -227.5 -93t-92.5 -230t92.5 -230t227.5 -93q42 0 81.5 10t66 24.5t47 29.5t30.5 24.5
t10 10.5l25 -25q-4 -5 -11 -12t-32.5 -26.5t-53.5 -34t-72.5 -26.5t-91.5 -12zM275 760h-40l155 160h40l155 -160h-42l-135 127z" />
    <glyph glyph-name="ccircumflex" unicode="&#x109;" horiz-adv-x="550" 
d="M313 27q51 0 93.5 19t59.5 38l17 19l27 -23q-3 -4 -8 -10t-23 -21.5t-39 -27.5t-55.5 -21.5t-72.5 -9.5q-111 0 -186.5 75.5t-75.5 186.5t76.5 187.5t187.5 76.5q35 0 67.5 -8.5t54 -20t37.5 -23.5t23 -20l8 -9l-25 -26q-7 8 -19.5 19.5t-55.5 31t-91 19.5
q-95 0 -159 -64.5t-64 -161.5t64 -161.5t159 -64.5zM182 580h-40l155 160h40l155 -160h-42l-135 127z" />
    <glyph glyph-name="Cdotaccent" unicode="&#x10a;" horiz-adv-x="720" 
d="M419 -10q-151 0 -255 104t-104 255t105 256t256 105q45 0 87.5 -10.5t71 -25.5t50.5 -30t32 -26l11 -10l-26 -25q-3 4 -10 10t-29 21.5t-46.5 27.5t-63 21.5t-78.5 9.5q-135 0 -227.5 -93t-92.5 -230t92.5 -230t227.5 -93q42 0 81.5 10t66 24.5t47 29.5t30.5 24.5
t10 10.5l25 -25q-4 -5 -11 -12t-32.5 -26.5t-53.5 -34t-72.5 -26.5t-91.5 -12zM374 835q0 14 10.5 24.5t24.5 10.5t24.5 -10.5t10.5 -24.5t-10.5 -24.5t-24.5 -10.5t-24.5 10.5t-10.5 24.5z" />
    <glyph glyph-name="cdotaccent" unicode="&#x10b;" horiz-adv-x="550" 
d="M313 27q51 0 93.5 19t59.5 38l17 19l27 -23q-3 -4 -8 -10t-23 -21.5t-39 -27.5t-55.5 -21.5t-72.5 -9.5q-111 0 -186.5 75.5t-75.5 186.5t76.5 187.5t187.5 76.5q35 0 67.5 -8.5t54 -20t37.5 -23.5t23 -20l8 -9l-25 -26q-7 8 -19.5 19.5t-55.5 31t-91 19.5
q-95 0 -159 -64.5t-64 -161.5t64 -161.5t159 -64.5zM281 655q0 14 10.5 24.5t24.5 10.5t24.5 -10.5t10.5 -24.5t-10.5 -24.5t-24.5 -10.5t-24.5 10.5t-10.5 24.5z" />
    <glyph glyph-name="Ccaron" unicode="&#x10c;" horiz-adv-x="720" 
d="M419 -10q-151 0 -255 104t-104 255t105 256t256 105q45 0 87.5 -10.5t71 -25.5t50.5 -30t32 -26l11 -10l-26 -25q-3 4 -10 10t-29 21.5t-46.5 27.5t-63 21.5t-78.5 9.5q-135 0 -227.5 -93t-92.5 -230t92.5 -230t227.5 -93q42 0 81.5 10t66 24.5t47 29.5t30.5 24.5
t10 10.5l25 -25q-4 -5 -11 -12t-32.5 -26.5t-53.5 -34t-72.5 -26.5t-91.5 -12zM541 920h40l-155 -160h-40l-155 160h42l134 -127z" />
    <glyph glyph-name="ccaron" unicode="&#x10d;" horiz-adv-x="550" 
d="M313 27q51 0 93.5 19t59.5 38l17 19l27 -23q-3 -4 -8 -10t-23 -21.5t-39 -27.5t-55.5 -21.5t-72.5 -9.5q-111 0 -186.5 75.5t-75.5 186.5t76.5 187.5t187.5 76.5q35 0 67.5 -8.5t54 -20t37.5 -23.5t23 -20l8 -9l-25 -26q-7 8 -19.5 19.5t-55.5 31t-91 19.5
q-95 0 -159 -64.5t-64 -161.5t64 -161.5t159 -64.5zM452 740h40l-155 -160h-40l-155 160h42l134 -127z" />
    <glyph glyph-name="Dcaron" unicode="&#x10e;" horiz-adv-x="760" 
d="M110 700h211q166 0 272.5 -99.5t106.5 -249.5t-107.5 -250.5t-273.5 -100.5h-209v700zM150 665v-630h175q145 0 240 90.5t95 224.5t-95 224.5t-240 90.5h-175zM505 920h40l-155 -160h-40l-155 160h42l134 -127z" />
    <glyph glyph-name="dcaron" unicode="&#x10f;" horiz-adv-x="745" 
d="M570 700v-700h-33l-7 119q-34 -60 -93 -94.5t-131 -34.5q-107 0 -181.5 75.5t-74.5 186.5t75.5 187.5t182.5 76.5q71 0 130 -34t92 -93v311h40zM535 253q0 97 -64 161.5t-159 64.5t-158.5 -64.5t-63.5 -161.5t63.5 -161.5t158.5 -64.5t159 64.5t64 161.5zM690 480h-30
l40 220h45z" />
    <glyph glyph-name="Dcroat" unicode="&#x110;" horiz-adv-x="790" 
d="M140 700h211q166 0 272.5 -99.5t106.5 -249.5t-107.5 -250.5t-273.5 -100.5h-209v346h-110v33h110v321zM440 346h-260v-311h175q145 0 240 90.5t95 224.5t-95 224.5t-240 90.5h-175v-286h260v-33z" />
    <glyph glyph-name="dcroat" unicode="&#x111;" horiz-adv-x="670" 
d="M570 700v-76h80v-33h-80v-591h-33l-7 119q-34 -60 -93 -94.5t-131 -34.5q-107 0 -181.5 75.5t-74.5 186.5t75.5 187.5t182.5 76.5q71 0 130 -34t92 -93v202h-185v33h185v76h40zM535 253q0 97 -64 161.5t-159 64.5t-158.5 -64.5t-63.5 -161.5t63.5 -161.5t158.5 -64.5
t159 64.5t64 161.5z" />
    <glyph glyph-name="Emacron" unicode="&#x112;" horiz-adv-x="650" 
d="M590 0h-480v700h470v-35h-430v-281h380v-33h-380v-316h440v-35zM165 804v33h360v-33h-360z" />
    <glyph glyph-name="emacron" unicode="&#x113;" horiz-adv-x="606" 
d="M556 264v-4h-466v-7q0 -97 64 -161.5t159 -64.5q39 0 73 11.5t55.5 27.5t37.5 32t23 28l7 11l29 -17q-3 -5 -8 -14t-25.5 -31.5t-44 -39.5t-63.5 -31t-85 -14q-111 0 -186.5 75.5t-75.5 186.5t76.5 187.5t187.5 76.5q99 0 170.5 -73.5t71.5 -178.5zM313 479
q-83 0 -144.5 -51.5t-75.5 -132.5h421q-11 79 -68.5 131.5t-132.5 52.5zM135 624v33h360v-33h-360z" />
    <glyph glyph-name="Ebreve" unicode="&#x114;" horiz-adv-x="650" 
d="M590 0h-480v700h470v-35h-430v-281h380v-33h-380v-316h440v-35zM189 920h38v-5q0 -53 33 -86.5t86 -33.5t85 33t32 87v5h38v-5q0 -66 -44.5 -110.5t-111.5 -44.5t-111.5 44.5t-44.5 110.5v5z" />
    <glyph glyph-name="ebreve" unicode="&#x115;" horiz-adv-x="606" 
d="M556 264v-4h-466v-7q0 -97 64 -161.5t159 -64.5q39 0 73 11.5t55.5 27.5t37.5 32t23 28l7 11l29 -17q-3 -5 -8 -14t-25.5 -31.5t-44 -39.5t-63.5 -31t-85 -14q-111 0 -186.5 75.5t-75.5 186.5t76.5 187.5t187.5 76.5q99 0 170.5 -73.5t71.5 -178.5zM313 479
q-83 0 -144.5 -51.5t-75.5 -132.5h421q-11 79 -68.5 131.5t-132.5 52.5zM154 740h38v-5q0 -53 33 -86.5t86 -33.5t85 33t32 87v5h38v-5q0 -66 -44.5 -110.5t-111.5 -44.5t-111.5 44.5t-44.5 110.5v5z" />
    <glyph glyph-name="Edotaccent" unicode="&#x116;" horiz-adv-x="650" 
d="M590 0h-480v700h470v-35h-430v-281h380v-33h-380v-316h440v-35zM309 835q0 14 10.5 24.5t24.5 10.5t24.5 -10.5t10.5 -24.5t-10.5 -24.5t-24.5 -10.5t-24.5 10.5t-10.5 24.5z" />
    <glyph glyph-name="edotaccent" unicode="&#x117;" horiz-adv-x="606" 
d="M556 264v-4h-466v-7q0 -97 64 -161.5t159 -64.5q39 0 73 11.5t55.5 27.5t37.5 32t23 28l7 11l29 -17q-3 -5 -8 -14t-25.5 -31.5t-44 -39.5t-63.5 -31t-85 -14q-111 0 -186.5 75.5t-75.5 186.5t76.5 187.5t187.5 76.5q99 0 170.5 -73.5t71.5 -178.5zM313 479
q-83 0 -144.5 -51.5t-75.5 -132.5h421q-11 79 -68.5 131.5t-132.5 52.5zM274 655q0 14 10.5 24.5t24.5 10.5t24.5 -10.5t10.5 -24.5t-10.5 -24.5t-24.5 -10.5t-24.5 10.5t-10.5 24.5z" />
    <glyph glyph-name="Eogonek" unicode="&#x118;" horiz-adv-x="650" 
d="M590 0h-129q-29 -18 -29 -67q0 -37 27.5 -60t68.5 -23q18 0 34.5 4t23.5 8l8 5l16 -27q-28 -25 -83 -25q-58 0 -95 31.5t-37 80.5q0 42 27 73h-312v700h470v-35h-430v-281h380v-33h-380v-316h440v-35z" />
    <glyph glyph-name="eogonek" unicode="&#x119;" horiz-adv-x="606" 
d="M556 264v-4h-466v-7q0 -97 64 -161.5t159 -64.5q39 0 73 11.5t55.5 27.5t37.5 32t23 28l7 11l29 -17q-2 -4 -6 -10.5t-18.5 -24t-31.5 -32.5t-45 -31t-59 -24q-26 -19 -26 -65q0 -37 27.5 -60t68.5 -23q18 0 34.5 4t23.5 8l8 5l16 -27q-28 -25 -83 -25q-58 0 -95 31.5
t-37 80.5q0 37 20 64q-4 0 -11.5 -0.5t-11.5 -0.5q-111 0 -186.5 75.5t-75.5 186.5t76.5 187.5t187.5 76.5q99 0 170.5 -73.5t71.5 -178.5zM313 479q-83 0 -144.5 -51.5t-75.5 -132.5h421q-11 79 -68.5 131.5t-132.5 52.5z" />
    <glyph glyph-name="Ecaron" unicode="&#x11a;" horiz-adv-x="650" 
d="M590 0h-480v700h470v-35h-430v-281h380v-33h-380v-316h440v-35zM480 920h40l-155 -160h-40l-155 160h42l134 -127z" />
    <glyph glyph-name="ecaron" unicode="&#x11b;" horiz-adv-x="606" 
d="M556 264v-4h-466v-7q0 -97 64 -161.5t159 -64.5q39 0 73 11.5t55.5 27.5t37.5 32t23 28l7 11l29 -17q-3 -5 -8 -14t-25.5 -31.5t-44 -39.5t-63.5 -31t-85 -14q-111 0 -186.5 75.5t-75.5 186.5t76.5 187.5t187.5 76.5q99 0 170.5 -73.5t71.5 -178.5zM313 479
q-83 0 -144.5 -51.5t-75.5 -132.5h421q-11 79 -68.5 131.5t-132.5 52.5zM445 740h40l-155 -160h-40l-155 160h42l134 -127z" />
    <glyph glyph-name="Gcircumflex" unicode="&#x11c;" horiz-adv-x="815" 
d="M420 335h340q-2 -147 -102 -246t-239 -99q-151 0 -255 104t-104 255t105 256t256 105q45 0 87.5 -10t70.5 -25t50 -29.5t32 -24.5l10 -10l-27 -27q-3 4 -9.5 10t-28 21t-45.5 27t-62.5 21.5t-78.5 9.5q-135 0 -227.5 -93t-92.5 -230t92.5 -230t227.5 -93q114 0 199 76.5
t99 196.5h-298v35zM277 760h-40l155 160h40l155 -160h-42l-135 127z" />
    <glyph glyph-name="gcircumflex" unicode="&#x11d;" horiz-adv-x="660" 
d="M65 -100l20 31q9 -7 26 -17.5t72 -28.5t112 -18q114 0 174.5 64t60.5 179v39q-34 -55 -93 -87t-131 -32q-107 0 -181.5 70t-74.5 172t75.5 173t182.5 71q72 0 130.5 -31.5t91.5 -86.5l7 108h33v-390q0 -131 -73 -208.5t-203 -77.5q-62 0 -119.5 17.5t-83.5 34.5zM535 273
q0 88 -64 147t-159 59t-158.5 -59t-63.5 -147t63.5 -147t158.5 -59t159 59t64 147zM187 580h-40l155 160h40l155 -160h-42l-135 127z" />
    <glyph glyph-name="Gbreve" unicode="&#x11e;" horiz-adv-x="815" 
d="M420 335h340q-2 -147 -102 -246t-239 -99q-151 0 -255 104t-104 255t105 256t256 105q45 0 87.5 -10t70.5 -25t50 -29.5t32 -24.5l10 -10l-27 -27q-3 4 -9.5 10t-28 21t-45.5 27t-62.5 21.5t-78.5 9.5q-135 0 -227.5 -93t-92.5 -230t92.5 -230t227.5 -93q114 0 199 76.5
t99 196.5h-298v35zM256 920h38v-5q0 -53 33 -86.5t86 -33.5t85 33t32 87v5h38v-5q0 -66 -44.5 -110.5t-111.5 -44.5t-111.5 44.5t-44.5 110.5v5z" />
    <glyph glyph-name="gbreve" unicode="&#x11f;" horiz-adv-x="660" 
d="M65 -100l20 31q9 -7 26 -17.5t72 -28.5t112 -18q114 0 174.5 64t60.5 179v39q-34 -55 -93 -87t-131 -32q-107 0 -181.5 70t-74.5 172t75.5 173t182.5 71q72 0 130.5 -31.5t91.5 -86.5l7 108h33v-390q0 -131 -73 -208.5t-203 -77.5q-62 0 -119.5 17.5t-83.5 34.5zM535 273
q0 88 -64 147t-159 59t-158.5 -59t-63.5 -147t63.5 -147t158.5 -59t159 59t64 147zM166 740h38v-5q0 -53 33 -86.5t86 -33.5t85 33t32 87v5h38v-5q0 -66 -44.5 -110.5t-111.5 -44.5t-111.5 44.5t-44.5 110.5v5z" />
    <glyph glyph-name="Gdotaccent" unicode="&#x120;" horiz-adv-x="815" 
d="M420 335h340q-2 -147 -102 -246t-239 -99q-151 0 -255 104t-104 255t105 256t256 105q45 0 87.5 -10t70.5 -25t50 -29.5t32 -24.5l10 -10l-27 -27q-3 4 -9.5 10t-28 21t-45.5 27t-62.5 21.5t-78.5 9.5q-135 0 -227.5 -93t-92.5 -230t92.5 -230t227.5 -93q114 0 199 76.5
t99 196.5h-298v35zM376 835q0 14 10.5 24.5t24.5 10.5t24.5 -10.5t10.5 -24.5t-10.5 -24.5t-24.5 -10.5t-24.5 10.5t-10.5 24.5z" />
    <glyph glyph-name="gdotaccent" unicode="&#x121;" horiz-adv-x="660" 
d="M65 -100l20 31q9 -7 26 -17.5t72 -28.5t112 -18q114 0 174.5 64t60.5 179v39q-34 -55 -93 -87t-131 -32q-107 0 -181.5 70t-74.5 172t75.5 173t182.5 71q72 0 130.5 -31.5t91.5 -86.5l7 108h33v-390q0 -131 -73 -208.5t-203 -77.5q-62 0 -119.5 17.5t-83.5 34.5zM535 273
q0 88 -64 147t-159 59t-158.5 -59t-63.5 -147t63.5 -147t158.5 -59t159 59t64 147zM286 655q0 14 10.5 24.5t24.5 10.5t24.5 -10.5t10.5 -24.5t-10.5 -24.5t-24.5 -10.5t-24.5 10.5t-10.5 24.5z" />
    <glyph glyph-name="Gcommaaccent" unicode="&#x122;" horiz-adv-x="815" 
d="M420 335h340q-2 -147 -102 -246t-239 -99q-151 0 -255 104t-104 255t105 256t256 105q45 0 87.5 -10t70.5 -25t50 -29.5t32 -24.5l10 -10l-27 -27q-3 4 -9.5 10t-28 21t-45.5 27t-62.5 21.5t-78.5 9.5q-135 0 -227.5 -93t-92.5 -230t92.5 -230t227.5 -93q114 0 199 76.5
t99 196.5h-298v35zM345 -210h-35l85 160h45z" />
    <glyph glyph-name="gcommaaccent" unicode="&#x123;" horiz-adv-x="660" 
d="M65 -100l20 31q9 -7 26 -17.5t72 -28.5t112 -18q114 0 174.5 64t60.5 179v39q-34 -55 -93 -87t-131 -32q-107 0 -181.5 70t-74.5 172t75.5 173t182.5 71q72 0 130.5 -31.5t91.5 -86.5l7 108h33v-390q0 -131 -73 -208.5t-203 -77.5q-62 0 -119.5 17.5t-83.5 34.5zM535 273
q0 88 -64 147t-159 59t-158.5 -59t-63.5 -147t63.5 -147t158.5 -59t159 59t64 147zM390 740h35l-85 -160h-45z" />
    <glyph glyph-name="Hcircumflex" unicode="&#x124;" horiz-adv-x="770" 
d="M620 0v355h-470v-355h-40v700h40v-310h470v310h40v-700h-40zM250 760h-40l155 160h40l155 -160h-42l-135 127z" />
    <glyph glyph-name="hcircumflex" unicode="&#x125;" horiz-adv-x="610" 
d="M90 0v700h40v-302q57 118 198 118q86 0 144 -61.5t58 -180.5v-274h-40v261q0 110 -48 164t-120 54q-82 0 -135.5 -54.5t-56.5 -170.5v-254h-40zM180 760h-40l155 160h40l155 -160h-42l-135 127z" />
    <glyph glyph-name="Hbar" unicode="&#x126;" horiz-adv-x="830" 
d="M140 0v526h-110v33h110v141h40v-141h470v141h40v-141h110v-33h-110v-526h-40v355h-470v-355h-40zM180 526v-136h470v136h-470z" />
    <glyph glyph-name="hbar" unicode="&#x127;" horiz-adv-x="655" 
d="M100 0v591h-80v33h80v76h40v-76h185v-33h-185v-193q57 118 198 118q86 0 144 -61.5t58 -180.5v-274h-40v261q0 110 -48 164t-120 54q-82 0 -135.5 -54.5t-56.5 -170.5v-254h-40z" />
    <glyph glyph-name="Itilde" unicode="&#x128;" horiz-adv-x="272" 
d="M115 0v700h42v-700h-42zM5 789l-37 4q0 4 1 11.5t6 26t14 32.5t27 25.5t42 11.5q29 0 52.5 -15t36 -33.5t31.5 -33.5t39 -15q21 0 33.5 19.5t15.5 39.5l2 20l37 -4q0 -4 -1 -11.5t-6.5 -26t-14 -33t-27 -26t-42.5 -11.5q-28 0 -51 15t-36.5 33.5t-32.5 33.5t-39 15
t-32.5 -19.5t-14.5 -39.5z" />
    <glyph glyph-name="itilde" unicode="&#x129;" horiz-adv-x="232" 
d="M-15 609l-37 4q0 4 1 11.5t6 26t14 32.5t27 25.5t42 11.5q29 0 52.5 -15t36 -33.5t31.5 -33.5t39 -15q21 0 33.5 19.5t15.5 39.5l2 20l37 -4q0 -4 -1 -11.5t-6.5 -26t-14 -33t-27 -26t-42.5 -11.5q-28 0 -51 15t-36.5 33.5t-32.5 33.5t-39 15t-32.5 -19.5t-14.5 -39.5z
M95 0v506h42v-506h-42z" />
    <glyph glyph-name="Imacron" unicode="&#x12a;" horiz-adv-x="272" 
d="M115 0v700h42v-700h-42zM-44 804v33h360v-33h-360z" />
    <glyph glyph-name="imacron" unicode="&#x12b;" horiz-adv-x="232" 
d="M-64 624v33h360v-33h-360zM95 0v506h42v-506h-42z" />
    <glyph glyph-name="Ibreve" unicode="&#x12c;" horiz-adv-x="272" 
d="M115 0v700h42v-700h-42zM-20 920h38v-5q0 -53 33 -86.5t86 -33.5t85 33t32 87v5h38v-5q0 -66 -44.5 -110.5t-111.5 -44.5t-111.5 44.5t-44.5 110.5v5z" />
    <glyph glyph-name="ibreve" unicode="&#x12d;" horiz-adv-x="232" 
d="M-40 740h38v-5q0 -53 33 -86.5t86 -33.5t85 33t32 87v5h38v-5q0 -66 -44.5 -110.5t-111.5 -44.5t-111.5 44.5t-44.5 110.5v5zM95 0v506h42v-506h-42z" />
    <glyph glyph-name="Iogonek" unicode="&#x12e;" horiz-adv-x="272" 
d="M157 0h-4q-29 -18 -29 -67q0 -37 27.5 -60t68.5 -23q18 0 34.5 4t23.5 8l8 5l16 -27q-28 -25 -83 -25q-58 0 -95 31.5t-37 80.5q0 46 28 74v699h42v-700z" />
    <glyph glyph-name="iogonek" unicode="&#x12f;" horiz-adv-x="232" 
d="M137 0h-9q-29 -18 -29 -67q0 -37 27.5 -60t68.5 -23q18 0 34.5 4t24.5 8l7 5l16 -27q-28 -25 -83 -25q-58 0 -95 31.5t-37 80.5q0 48 33 79v500h42v-506zM81 655q0 14 10.5 24.5t24.5 10.5t24.5 -10.5t10.5 -24.5t-10.5 -24.5t-24.5 -10.5t-24.5 10.5t-10.5 24.5z" />
    <glyph glyph-name="Idotaccent" unicode="&#x130;" horiz-adv-x="272" 
d="M115 0v700h42v-700h-42zM101 835q0 14 10.5 24.5t24.5 10.5t24.5 -10.5t10.5 -24.5t-10.5 -24.5t-24.5 -10.5t-24.5 10.5t-10.5 24.5z" />
    <glyph glyph-name="dotlessi" unicode="&#x131;" horiz-adv-x="232" 
d="M95 0v506h42v-506h-42z" />
    <glyph glyph-name="IJ" unicode="&#x132;" horiz-adv-x="717" 
d="M115 0v700h42v-700h-42zM292 14l15 33q28 -20 90 -20q77 0 128 52t51 146v475h41v-474q0 -109 -63.5 -172.5t-157.5 -63.5q-33 0 -59 6t-35 12z" />
    <glyph glyph-name="ij" unicode="&#x133;" horiz-adv-x="464" 
d="M327 506h42v-525q0 -73 -38 -112t-100 -39q-16 0 -30.5 4t-21.5 8l-7 3l12 32q22 -10 48 -10q95 0 95 108v531zM313 655q0 14 10.5 24.5t24.5 10.5t24.5 -10.5t10.5 -24.5t-10.5 -24.5t-24.5 -10.5t-24.5 10.5t-10.5 24.5zM95 0v506h42v-506h-42zM81 655q0 14 10.5 24.5
t24.5 10.5t24.5 -10.5t10.5 -24.5t-10.5 -24.5t-24.5 -10.5t-24.5 10.5t-10.5 24.5z" />
    <glyph glyph-name="Jcircumflex" unicode="&#x134;" horiz-adv-x="445" 
d="M20 14l15 33q28 -20 90 -20q77 0 128 52t51 146v475h41v-474q0 -109 -63.5 -172.5t-157.5 -63.5q-33 0 -59 6t-35 12zM189 760h-40l155 160h40l155 -160h-42l-135 127z" />
    <glyph glyph-name="jcircumflex" unicode="&#x135;" horiz-adv-x="232" 
d="M95 506h42v-525q0 -73 -38 -112t-100 -39q-16 0 -32 4t-24 8l-8 3l12 32q25 -10 53 -10q95 0 95 108v531zM-19 580h-40l155 160h40l155 -160h-42l-135 127z" />
    <glyph glyph-name="Kcommaaccent" unicode="&#x136;" horiz-adv-x="645" 
d="M203 361l442 -361h-64l-431 356v-356h-40v700h40v-336l411 336h64zM285 -210h-35l85 160h45z" />
    <glyph glyph-name="kcommaaccent" unicode="&#x137;" horiz-adv-x="530" 
d="M90 0v700h40v-424l313 230h67l-326 -233l346 -273h-66l-334 269v-269h-40zM225 -210h-35l85 160h45z" />
    <glyph glyph-name="Lacute" unicode="&#x139;" horiz-adv-x="590" 
d="M560 0h-450v700h40v-665h410v-35zM145 760h-35l85 160h45z" />
    <glyph glyph-name="lacute" unicode="&#x13a;" horiz-adv-x="232" 
d="M95 0v700h42v-700h-42zM130 760h-35l85 160h45z" />
    <glyph glyph-name="Lcommaaccent" unicode="&#x13b;" horiz-adv-x="590" 
d="M560 0h-450v700h40v-665h410v-35zM285 -210h-35l85 160h45z" />
    <glyph glyph-name="lcommaaccent" unicode="&#x13c;" horiz-adv-x="232" 
d="M95 0v700h42v-700h-42zM42 -210h-35l85 160h45z" />
    <glyph glyph-name="Lcaron" unicode="&#x13d;" horiz-adv-x="590" 
d="M560 0h-450v700h40v-665h410v-35zM427 480h-30l40 220h45z" />
    <glyph glyph-name="lcaron" unicode="&#x13e;" horiz-adv-x="312" 
d="M257 480h-30l40 220h45zM95 0v700h42v-700h-42z" />
    <glyph glyph-name="Ldot" unicode="&#x13f;" horiz-adv-x="590" 
d="M560 0h-450v700h40v-665h410v-35zM325 335q0 14 10.5 24.5t24.5 10.5t24.5 -10.5t10.5 -24.5t-10.5 -24.5t-24.5 -10.5t-24.5 10.5t-10.5 24.5z" />
    <glyph glyph-name="ldot" unicode="&#x140;" horiz-adv-x="337" 
d="M95 0v700h42v-700h-42zM237 350q0 14 10.5 24.5t24.5 10.5t24.5 -10.5t10.5 -24.5t-10.5 -24.5t-24.5 -10.5t-24.5 10.5t-10.5 24.5z" />
    <glyph glyph-name="Lslash" unicode="&#x141;" horiz-adv-x="620" 
d="M590 0h-450v336l-110 -21v35l110 21v329h40v-321l290 56v-35l-290 -56v-309h410v-35z" />
    <glyph glyph-name="lslash" unicode="&#x142;" horiz-adv-x="302" 
d="M125 0v346l-95 -21v35l95 21v319h42v-309l105 24v-35l-105 -24v-356h-42z" />
    <glyph glyph-name="Nacute" unicode="&#x143;" horiz-adv-x="790" 
d="M640 0l-490 644v-644h-40v700h45l485 -638v638h40v-700h-40zM415 760h-35l85 160h45z" />
    <glyph glyph-name="nacute" unicode="&#x144;" horiz-adv-x="610" 
d="M90 0v506h35l5 -108q57 118 198 118q86 0 144 -61.5t58 -180.5v-274h-40v261q0 110 -48 164t-120 54q-82 0 -135.5 -54.5t-56.5 -170.5v-254h-40zM307 580h-35l85 160h45z" />
    <glyph glyph-name="Ncommaaccent" unicode="&#x145;" horiz-adv-x="790" 
d="M640 0l-490 644v-644h-40v700h45l485 -638v638h40v-700h-40zM345 -210h-35l85 160h45z" />
    <glyph glyph-name="ncommaaccent" unicode="&#x146;" horiz-adv-x="610" 
d="M90 0v506h35l5 -108q57 118 198 118q86 0 144 -61.5t58 -180.5v-274h-40v261q0 110 -48 164t-120 54q-82 0 -135.5 -54.5t-56.5 -170.5v-254h-40zM245 -210h-35l85 160h45z" />
    <glyph glyph-name="Ncaron" unicode="&#x147;" horiz-adv-x="790" 
d="M640 0l-490 644v-644h-40v700h45l485 -638v638h40v-700h-40zM530 920h40l-155 -160h-40l-155 160h42l134 -127z" />
    <glyph glyph-name="ncaron" unicode="&#x148;" horiz-adv-x="610" 
d="M90 0v506h35l5 -108q57 118 198 118q86 0 144 -61.5t58 -180.5v-274h-40v261q0 110 -48 164t-120 54q-82 0 -135.5 -54.5t-56.5 -170.5v-254h-40zM442 740h40l-155 -160h-40l-155 160h42l134 -127z" />
    <glyph glyph-name="Eng" unicode="&#x14a;" horiz-adv-x="790" 
d="M155 700l485 -638v638h40v-684q0 -91 -47.5 -138.5t-123.5 -47.5q-26 0 -47 5t-29 9l-8 5l15 33q25 -15 70 -15q54 0 89.5 33.5t39.5 99.5l-489 644v-644h-40v700h45z" />
    <glyph glyph-name="eng" unicode="&#x14b;" horiz-adv-x="610" 
d="M90 0v506h35l5 -106q55 116 198 116q90 0 146 -61t56 -181v-293q0 -73 -38 -112t-100 -39q-13 0 -25 2.5t-18 5.5l-6 2l9 34q18 -7 43 -7q95 0 95 108v286q0 111 -46.5 164.5t-121.5 53.5q-85 0 -137 -54t-55 -171v-254h-40z" />
    <glyph glyph-name="Omacron" unicode="&#x14c;" horiz-adv-x="840" 
d="M60 349q0 151 105 256t256 105t255 -104t104 -255t-105 -256t-256 -105t-255 104t-104 255zM100 350q0 -137 92.5 -230t227.5 -93t227.5 93t92.5 230t-92.5 230t-227.5 93t-227.5 -93t-92.5 -230zM230 804v33h360v-33h-360z" />
    <glyph glyph-name="omacron" unicode="&#x14d;" horiz-adv-x="626" 
d="M50 252q0 111 76.5 187.5t187.5 76.5t186.5 -75.5t75.5 -186.5t-76.5 -187.5t-187.5 -76.5t-186.5 75.5t-75.5 186.5zM90 253q0 -97 64 -161.5t159 -64.5t159 64.5t64 161.5t-64 161.5t-159 64.5t-159 -64.5t-64 -161.5zM133 624v33h360v-33h-360z" />
    <glyph glyph-name="Obreve" unicode="&#x14e;" horiz-adv-x="840" 
d="M60 349q0 151 105 256t256 105t255 -104t104 -255t-105 -256t-256 -105t-255 104t-104 255zM100 350q0 -137 92.5 -230t227.5 -93t227.5 93t92.5 230t-92.5 230t-227.5 93t-227.5 -93t-92.5 -230zM254 920h38v-5q0 -53 33 -86.5t86 -33.5t85 33t32 87v5h38v-5
q0 -66 -44.5 -110.5t-111.5 -44.5t-111.5 44.5t-44.5 110.5v5z" />
    <glyph glyph-name="obreve" unicode="&#x14f;" horiz-adv-x="626" 
d="M50 252q0 111 76.5 187.5t187.5 76.5t186.5 -75.5t75.5 -186.5t-76.5 -187.5t-187.5 -76.5t-186.5 75.5t-75.5 186.5zM90 253q0 -97 64 -161.5t159 -64.5t159 64.5t64 161.5t-64 161.5t-159 64.5t-159 -64.5t-64 -161.5zM157 740h38v-5q0 -53 33 -86.5t86 -33.5t85 33
t32 87v5h38v-5q0 -66 -44.5 -110.5t-111.5 -44.5t-111.5 44.5t-44.5 110.5v5z" />
    <glyph glyph-name="Ohungarumlaut" unicode="&#x150;" horiz-adv-x="840" 
d="M60 349q0 151 105 256t256 105t255 -104t104 -255t-105 -256t-256 -105t-255 104t-104 255zM100 350q0 -137 92.5 -230t227.5 -93t227.5 93t92.5 230t-92.5 230t-227.5 93t-227.5 -93t-92.5 -230zM355 760h-35l65 160h45zM525 760h-35l65 160h45z" />
    <glyph glyph-name="ohungarumlaut" unicode="&#x151;" horiz-adv-x="626" 
d="M50 252q0 111 76.5 187.5t187.5 76.5t186.5 -75.5t75.5 -186.5t-76.5 -187.5t-187.5 -76.5t-186.5 75.5t-75.5 186.5zM90 253q0 -97 64 -161.5t159 -64.5t159 64.5t64 161.5t-64 161.5t-159 64.5t-159 -64.5t-64 -161.5zM250 580h-35l65 160h45zM420 580h-35l65 160h45z
" />
    <glyph glyph-name="OE" unicode="&#x152;" horiz-adv-x="1130" 
d="M1070 0h-631q-166 0 -272.5 99.5t-106.5 249.5t107.5 250.5t273.5 100.5h619v-35h-430v-281h380v-33h-380v-316h440v-35zM590 35v630h-155q-145 0 -240 -90.5t-95 -224.5t95 -224.5t240 -90.5h155z" />
    <glyph glyph-name="oe" unicode="&#x153;" horiz-adv-x="1092" 
d="M1042 264v-4h-466v-7q0 -97 64 -161.5t159 -64.5q39 0 73 11.5t55.5 27.5t37.5 32t23 28l7 11l29 -17q-3 -5 -8 -14t-25.5 -31.5t-44 -39.5t-63.5 -31t-85 -14q-86 0 -151.5 47.5t-91.5 124.5q-27 -78 -92.5 -125t-150.5 -47q-111 0 -186.5 75.5t-75.5 186.5t76.5 187.5
t187.5 76.5q86 0 151 -47t91 -125q28 77 93.5 124.5t150.5 47.5q99 0 170.5 -73.5t71.5 -178.5zM90 253q0 -97 64 -161.5t159 -64.5t159 64.5t64 161.5t-64 161.5t-159 64.5t-159 -64.5t-64 -161.5zM799 479q-84 0 -145 -52t-75 -134h421q-11 80 -68 133t-133 53z" />
    <glyph glyph-name="Racute" unicode="&#x154;" horiz-adv-x="690" 
d="M110 0v700h281q99 0 161.5 -58t62.5 -146q0 -79 -52 -135.5t-136 -68.5l218 -292h-50l-217 290h-228v-290h-40zM385 665h-235v-340h235q85 0 137.5 48t52.5 122t-52.5 122t-137.5 48zM360 760h-35l85 160h45z" />
    <glyph glyph-name="racute" unicode="&#x155;" horiz-adv-x="373" 
d="M90 0v506h35l5 -122q58 132 218 132l-1 -39h-5q-97 0 -153 -58.5t-59 -175.5v-243h-40zM234 580h-35l85 160h45z" />
    <glyph glyph-name="Rcommaaccent" unicode="&#x156;" horiz-adv-x="690" 
d="M110 0v700h281q99 0 161.5 -58t62.5 -146q0 -79 -52 -135.5t-136 -68.5l218 -292h-50l-217 290h-228v-290h-40zM385 665h-235v-340h235q85 0 137.5 48t52.5 122t-52.5 122t-137.5 48zM295 -210h-35l85 160h45z" />
    <glyph glyph-name="rcommaaccent" unicode="&#x157;" horiz-adv-x="373" 
d="M130 231v-231h-40v506h35l5 -122q58 132 218 132l-1 -39h-5q-100 0 -156 -61.5t-56 -184.5zM42 -210h-35l85 160h45z" />
    <glyph glyph-name="Rcaron" unicode="&#x158;" horiz-adv-x="690" 
d="M110 0v700h281q99 0 161.5 -58t62.5 -146q0 -79 -52 -135.5t-136 -68.5l218 -292h-50l-217 290h-228v-290h-40zM385 665h-235v-340h235q85 0 137.5 48t52.5 122t-52.5 122t-137.5 48zM475 920h40l-155 -160h-40l-155 160h42l134 -127z" />
    <glyph glyph-name="rcaron" unicode="&#x159;" horiz-adv-x="373" 
d="M90 0v506h35l5 -122q58 132 218 132l-1 -39h-5q-97 0 -153 -58.5t-59 -175.5v-243h-40zM339 740h40l-155 -160h-40l-155 160h42l134 -127z" />
    <glyph glyph-name="Sacute" unicode="&#x15a;" horiz-adv-x="560" 
d="M110 543q0 -54 41 -91.5t130 -63.5q110 -33 164.5 -84t54.5 -127q0 -81 -60 -134t-163 -53q-45 0 -85.5 9.5t-67 22.5t-46.5 26t-29 22l-9 10l28 29l8.5 -8.5t26 -20t43.5 -25t60.5 -19.5t78.5 -9q78 0 126.5 41.5t48.5 103.5q0 65 -44.5 106.5t-154.5 75.5
q-90 28 -140.5 74.5t-50.5 109.5q0 73 58.5 122.5t154.5 49.5q62 0 114 -19t73 -37l20 -19l-28 -29q-7 8 -20.5 19t-59 29.5t-97.5 18.5q-84 0 -129.5 -39.5t-45.5 -90.5zM315 760h-35l85 160h45z" />
    <glyph glyph-name="sacute" unicode="&#x15b;" horiz-adv-x="440" 
d="M95 394q0 -37 29 -64.5t101 -45.5q165 -41 165 -149q0 -60 -48 -102.5t-129 -42.5q-50 0 -94.5 15t-64.5 30l-19 15l22 31q7 -6 20.5 -15t54.5 -24t83 -15q63 0 99 28.5t36 69.5q0 43 -30.5 73t-114.5 50q-70 18 -110 53t-40 84q0 54 43.5 92.5t121.5 38.5q43 0 82 -12.5
t56 -25.5l17 -12l-22 -32q-6 5 -16 12.5t-44.5 20t-70.5 12.5q-60 0 -93.5 -26t-33.5 -59zM250 580h-35l85 160h45z" />
    <glyph glyph-name="Scircumflex" unicode="&#x15c;" horiz-adv-x="560" 
d="M110 543q0 -54 41 -91.5t130 -63.5q110 -33 164.5 -84t54.5 -127q0 -81 -60 -134t-163 -53q-45 0 -85.5 9.5t-67 22.5t-46.5 26t-29 22l-9 10l28 29l8.5 -8.5t26 -20t43.5 -25t60.5 -19.5t78.5 -9q78 0 126.5 41.5t48.5 103.5q0 65 -44.5 106.5t-154.5 75.5
q-90 28 -140.5 74.5t-50.5 109.5q0 73 58.5 122.5t154.5 49.5q62 0 114 -19t73 -37l20 -19l-28 -29q-7 8 -20.5 19t-59 29.5t-97.5 18.5q-84 0 -129.5 -39.5t-45.5 -90.5zM150 760h-40l155 160h40l155 -160h-42l-135 127z" />
    <glyph glyph-name="scircumflex" unicode="&#x15d;" horiz-adv-x="440" 
d="M95 394q0 -37 29 -64.5t101 -45.5q165 -41 165 -149q0 -60 -48 -102.5t-129 -42.5q-50 0 -94.5 15t-64.5 30l-19 15l22 31q7 -6 20.5 -15t54.5 -24t83 -15q63 0 99 28.5t36 69.5q0 43 -30.5 73t-114.5 50q-70 18 -110 53t-40 84q0 54 43.5 92.5t121.5 38.5q43 0 82 -12.5
t56 -25.5l17 -12l-22 -32q-6 5 -16 12.5t-44.5 20t-70.5 12.5q-60 0 -93.5 -26t-33.5 -59zM95 580h-40l155 160h40l155 -160h-42l-135 127z" />
    <glyph glyph-name="Scedilla" unicode="&#x15e;" horiz-adv-x="560" 
d="M110 543q0 -54 41 -91.5t130 -63.5q110 -33 164.5 -84t54.5 -127t-54.5 -128.5t-148.5 -57.5q35 -33 35 -81q0 -49 -37 -77t-93 -28q-27 0 -52 7.5t-36 15.5l-12 7l15 30q34 -25 92 -25q39 0 61 20.5t22 52.5q0 44 -39 78q-40 2 -76.5 12t-60.5 23t-42 25t-26 21l-8 8
l28 29l8.5 -8.5t26 -20t43.5 -25t60.5 -19.5t78.5 -9q78 0 126.5 41.5t48.5 103.5q0 65 -44.5 106.5t-154.5 75.5q-90 28 -140.5 74.5t-50.5 109.5q0 73 58.5 122.5t154.5 49.5q62 0 114 -19t73 -37l20 -19l-28 -29q-7 8 -20.5 19t-59 29.5t-97.5 18.5q-84 0 -129.5 -39.5
t-45.5 -90.5z" />
    <glyph glyph-name="scedilla" unicode="&#x15f;" horiz-adv-x="440" 
d="M95 394q0 -37 29 -64.5t101 -45.5q165 -41 165 -149q0 -56 -42 -97t-114 -47q36 -34 36 -81q0 -49 -37 -77t-93 -28q-27 0 -52 7.5t-36 15.5l-12 7l15 30q34 -25 92 -25q39 0 61 20.5t22 52.5q0 45 -40 78q-44 3 -83 18t-55 28l-17 13l22 31q7 -6 20.5 -15t54.5 -24
t83 -15q63 0 99 28.5t36 69.5q0 43 -30.5 73t-114.5 50q-70 18 -110 53t-40 84q0 54 43.5 92.5t121.5 38.5q43 0 82 -12.5t56 -25.5l17 -12l-22 -32q-6 5 -16 12.5t-44.5 20t-70.5 12.5q-60 0 -93.5 -26t-33.5 -59z" />
    <glyph glyph-name="Scaron" unicode="&#x160;" horiz-adv-x="560" 
d="M110 543q0 -54 41 -91.5t130 -63.5q110 -33 164.5 -84t54.5 -127q0 -81 -60 -134t-163 -53q-45 0 -85.5 9.5t-67 22.5t-46.5 26t-29 22l-9 10l28 29l8.5 -8.5t26 -20t43.5 -25t60.5 -19.5t78.5 -9q78 0 126.5 41.5t48.5 103.5q0 65 -44.5 106.5t-154.5 75.5
q-90 28 -140.5 74.5t-50.5 109.5q0 73 58.5 122.5t154.5 49.5q62 0 114 -19t73 -37l20 -19l-28 -29q-7 8 -20.5 19t-59 29.5t-97.5 18.5q-84 0 -129.5 -39.5t-45.5 -90.5zM420 920h40l-155 -160h-40l-155 160h42l134 -127z" />
    <glyph glyph-name="scaron" unicode="&#x161;" horiz-adv-x="440" 
d="M95 394q0 -37 29 -64.5t101 -45.5q165 -41 165 -149q0 -60 -48 -102.5t-129 -42.5q-50 0 -94.5 15t-64.5 30l-19 15l22 31q7 -6 20.5 -15t54.5 -24t83 -15q63 0 99 28.5t36 69.5q0 43 -30.5 73t-114.5 50q-70 18 -110 53t-40 84q0 54 43.5 92.5t121.5 38.5q43 0 82 -12.5
t56 -25.5l17 -12l-22 -32q-6 5 -16 12.5t-44.5 20t-70.5 12.5q-60 0 -93.5 -26t-33.5 -59zM355 740h40l-155 -160h-40l-155 160h42l134 -127z" />
    <glyph glyph-name="Tcommaaccent" unicode="&#x162;" horiz-adv-x="590" 
d="M560 665h-245v-665h-40v665h-245v35h530v-35zM220 -210h-35l85 160h45z" />
    <glyph glyph-name="tcommaaccent" unicode="&#x163;" horiz-adv-x="420" 
d="M20 474v32h110v134h40v-134h220v-32h-220v-324q0 -61 29.5 -92t80.5 -31q24 0 49.5 4t38.5 8l14 4l8 -33q-38 -20 -110 -20q-71 0 -110.5 40.5t-39.5 119.5v324h-110zM205 -210h-35l85 160h45z" />
    <glyph glyph-name="Tcaron" unicode="&#x164;" horiz-adv-x="590" 
d="M560 665h-245v-665h-40v665h-245v35h530v-35zM430 920h40l-155 -160h-40l-155 160h42l134 -127z" />
    <glyph glyph-name="tcaron" unicode="&#x165;" horiz-adv-x="420" 
d="M20 474v32h110v134h40v-134h220v-32h-220v-324q0 -61 29.5 -92t80.5 -31q24 0 49.5 4t38.5 8l14 4l8 -33q-38 -20 -110 -20q-71 0 -110.5 40.5t-39.5 119.5v324h-110zM305 570h-30l40 220h45z" />
    <glyph glyph-name="Tbar" unicode="&#x166;" horiz-adv-x="590" 
d="M560 665h-245v-277h215v-33h-215v-355h-40v355h-215v33h215v277h-245v35h530v-35z" />
    <glyph glyph-name="tbar" unicode="&#x167;" horiz-adv-x="420" 
d="M20 474v32h110v134h40v-134h220v-32h-220v-191h220v-33h-220v-100q0 -61 29.5 -92t80.5 -31q24 0 49.5 4t38.5 8l14 4l8 -33q-38 -20 -110 -20q-71 0 -110.5 40.5t-39.5 119.5v100h-110v33h110v191h-110z" />
    <glyph glyph-name="Utilde" unicode="&#x168;" horiz-adv-x="740" 
d="M141 700v-423q0 -110 65 -180t165 -70t165 70t65 180v423h39v-419q0 -127 -77 -209t-194 -82t-193 81t-76 208v421h41zM238 789l-37 4q0 4 1 11.5t6 26t14 32.5t27 25.5t42 11.5q29 0 52.5 -15t36 -33.5t31.5 -33.5t39 -15q21 0 33.5 19.5t14.5 39.5l3 20l37 -4
q0 -4 -1 -11.5t-6.5 -26t-14 -33t-27 -26t-42.5 -11.5q-28 0 -51 15t-36.5 33.5t-32.5 33.5t-39 15t-32.5 -19.5t-15.5 -39.5z" />
    <glyph glyph-name="utilde" unicode="&#x169;" horiz-adv-x="610" 
d="M480 265v241h40v-506h-35l-5 108q-58 -118 -198 -118q-86 0 -144 61.5t-58 180.5v274h40v-261q0 -110 48 -164t120 -54q84 0 138 58t54 180zM169 609l-37 4q0 4 1 11.5t6 26t14 32.5t27 25.5t42 11.5q29 0 52.5 -15t36 -33.5t31.5 -33.5t39 -15q21 0 33.5 19.5t15.5 39.5
l2 20l37 -4q0 -4 -1 -11.5t-6.5 -26t-14 -33t-27 -26t-42.5 -11.5q-28 0 -51 15t-36.5 33.5t-32.5 33.5t-39 15t-32.5 -19.5t-14.5 -39.5z" />
    <glyph glyph-name="Umacron" unicode="&#x16a;" horiz-adv-x="740" 
d="M141 700v-423q0 -110 65 -180t165 -70t165 70t65 180v423h39v-419q0 -127 -77 -209t-194 -82t-193 81t-76 208v421h41zM190 804v33h360v-33h-360z" />
    <glyph glyph-name="umacron" unicode="&#x16b;" horiz-adv-x="610" 
d="M480 265v241h40v-506h-35l-5 108q-58 -118 -198 -118q-86 0 -144 61.5t-58 180.5v274h40v-261q0 -110 48 -164t120 -54q84 0 138 58t54 180zM120 624v33h360v-33h-360z" />
    <glyph glyph-name="Ubreve" unicode="&#x16c;" horiz-adv-x="740" 
d="M141 700v-423q0 -110 65 -180t165 -70t165 70t65 180v423h39v-419q0 -127 -77 -209t-194 -82t-193 81t-76 208v421h41zM214 920h38v-5q0 -53 33 -86.5t86 -33.5t85 33t32 87v5h38v-5q0 -66 -44.5 -110.5t-111.5 -44.5t-111.5 44.5t-44.5 110.5v5z" />
    <glyph glyph-name="ubreve" unicode="&#x16d;" horiz-adv-x="610" 
d="M480 265v241h40v-506h-35l-5 108q-58 -118 -198 -118q-86 0 -144 61.5t-58 180.5v274h40v-261q0 -110 48 -164t120 -54q84 0 138 58t54 180zM144 740h38v-5q0 -53 33 -86.5t86 -33.5t85 33t32 87v5h38v-5q0 -66 -44.5 -110.5t-111.5 -44.5t-111.5 44.5t-44.5 110.5v5z
" />
    <glyph glyph-name="Uring" unicode="&#x16e;" horiz-adv-x="740" 
d="M141 700v-423q0 -110 65 -180t165 -70t165 70t65 180v423h39v-419q0 -127 -77 -209t-194 -82t-193 81t-76 208v421h41zM265 850q0 43 30.5 71.5t74.5 28.5t74.5 -28.5t30.5 -71.5t-30.5 -71.5t-74.5 -28.5t-74.5 28.5t-30.5 71.5zM302 850q0 -29 20 -48t48 -19t48 19
t20 48t-20 48t-48 19t-48 -19t-20 -48z" />
    <glyph glyph-name="uring" unicode="&#x16f;" horiz-adv-x="610" 
d="M480 265v241h40v-506h-35l-5 108q-58 -118 -198 -118q-86 0 -144 61.5t-58 180.5v274h40v-261q0 -110 48 -164t120 -54q84 0 138 58t54 180zM195 670q0 43 30.5 71.5t74.5 28.5t74.5 -28.5t30.5 -71.5t-30.5 -71.5t-74.5 -28.5t-74.5 28.5t-30.5 71.5zM232 670
q0 -29 20 -48t48 -19t48 19t20 48t-20 48t-48 19t-48 -19t-20 -48z" />
    <glyph glyph-name="Uhungarumlaut" unicode="&#x170;" horiz-adv-x="740" 
d="M141 700v-423q0 -110 65 -180t165 -70t165 70t65 180v423h39v-419q0 -127 -77 -209t-194 -82t-193 81t-76 208v421h41zM310 760h-35l65 160h45zM480 760h-35l65 160h45z" />
    <glyph glyph-name="uhungarumlaut" unicode="&#x171;" horiz-adv-x="610" 
d="M520 506v-506h-35l-5 108q-58 -118 -198 -118q-86 0 -144 61.5t-58 180.5v274h40v-261q0 -110 48 -164t120 -54q82 0 135 54.5t57 170.5v254h40zM402 580h-35l65 160h45zM232 580h-35l65 160h45z" />
    <glyph glyph-name="Uogonek" unicode="&#x172;" horiz-adv-x="740" 
d="M141 700v-423q0 -110 65 -180t165 -70t165 70t65 180v423h39v-419q0 -107 -56 -183t-146 -99q-26 -22 -26 -66q0 -37 27.5 -60t68.5 -23q18 0 34.5 4t23.5 8l8 5l16 -27q-28 -25 -83 -25q-58 0 -95 31.5t-37 80.5q0 38 20 65q-16 -2 -26 -2q-117 0 -193 81t-76 208v421
h41z" />
    <glyph glyph-name="uogonek" unicode="&#x173;" horiz-adv-x="610" 
d="M520 506v-506h-4q-29 -18 -29 -67q0 -37 27.5 -60t68.5 -23q18 0 34.5 4t24.5 8l7 5l16 -27q-28 -25 -83 -25q-58 0 -95 31.5t-37 80.5q0 47 34 81l-4 100q-58 -118 -198 -118q-86 0 -144 61.5t-58 180.5v274h40v-261q0 -110 48 -164t120 -54q82 0 135 54.5t57 170.5v254
h40z" />
    <glyph glyph-name="Wcircumflex" unicode="&#x174;" horiz-adv-x="965" 
d="M250 0l-240 700h43l217 -640l199 640h29l198 -640l218 640h41l-240 -700h-38l-195 618l-194 -618h-38zM347 760h-40l155 160h40l155 -160h-42l-135 127z" />
    <glyph glyph-name="wcircumflex" unicode="&#x175;" horiz-adv-x="765" 
d="M198 0l-188 506h45l163 -449l150 449h31l150 -449l163 449h43l-188 -506h-38l-147 433l-146 -433h-38zM247 580h-40l155 160h40l155 -160h-42l-135 127z" />
    <glyph glyph-name="Ycircumflex" unicode="&#x176;" horiz-adv-x="650" 
d="M640 700l-295 -410v-290h-40v290l-295 410h49l267 -376l267 376h47zM190 760h-40l155 160h40l155 -160h-42l-135 127z" />
    <glyph glyph-name="ycircumflex" unicode="&#x177;" horiz-adv-x="505" 
d="M233 0l-223 506h45l198 -465l199 465h43l-225 -511q-72 -165 -188 -165q-24 0 -42 4t-24 8l-6 4l14 32q19 -11 58 -11q92 0 151 133zM117 580h-40l155 160h40l155 -160h-42l-135 127z" />
    <glyph glyph-name="Ydieresis" unicode="&#x178;" horiz-adv-x="650" 
d="M640 700l-295 -410v-290h-40v290l-295 410h49l267 -376l267 376h47zM385 835q0 14 10.5 24.5t24.5 10.5t24.5 -10.5t10.5 -24.5t-10.5 -24.5t-24.5 -10.5t-24.5 10.5t-10.5 24.5zM195 835q0 14 10.5 24.5t24.5 10.5t24.5 -10.5t10.5 -24.5t-10.5 -24.5t-24.5 -10.5
t-24.5 10.5t-10.5 24.5z" />
    <glyph glyph-name="Zacute" unicode="&#x179;" horiz-adv-x="640" 
d="M580 0h-520v25l465 640h-445v35h500v-25l-465 -640h465v-35zM350 760h-35l85 160h45z" />
    <glyph glyph-name="zacute" unicode="&#x17a;" horiz-adv-x="495" 
d="M50 27l339 442h-324v37h380v-27l-339 -442h339v-37h-395v27zM267 580h-35l85 160h45z" />
    <glyph glyph-name="Zdotaccent" unicode="&#x17b;" horiz-adv-x="640" 
d="M580 0h-520v25l465 640h-445v35h500v-25l-465 -640h465v-35zM294 835q0 14 10.5 24.5t24.5 10.5t24.5 -10.5t10.5 -24.5t-10.5 -24.5t-24.5 -10.5t-24.5 10.5t-10.5 24.5z" />
    <glyph glyph-name="zdotaccent" unicode="&#x17c;" horiz-adv-x="495" 
d="M50 27l339 442h-324v37h380v-27l-339 -442h339v-37h-395v27zM221 655q0 14 10.5 24.5t24.5 10.5t24.5 -10.5t10.5 -24.5t-10.5 -24.5t-24.5 -10.5t-24.5 10.5t-10.5 24.5z" />
    <glyph glyph-name="Zcaron" unicode="&#x17d;" horiz-adv-x="640" 
d="M580 0h-520v25l465 640h-445v35h500v-25l-465 -640h465v-35zM465 920h40l-155 -160h-40l-155 160h42l134 -127z" />
    <glyph glyph-name="zcaron" unicode="&#x17e;" horiz-adv-x="495" 
d="M50 27l339 442h-324v37h380v-27l-339 -442h339v-37h-395v27zM392 740h40l-155 -160h-40l-155 160h42l134 -127z" />
    <glyph glyph-name="florin" unicode="&#x192;" 
d="M460 323h-231l-39 -483h-40l39 483h-139v34h142l13 162q7 92 56.5 141.5t129.5 49.5q38 0 69.5 -12t49 -29t30 -33.5t16.5 -28.5l4 -12l-34 -15q-1 4 -3 10t-12.5 22t-24 28.5t-39 22.5t-57.5 10q-63 0 -101 -38t-44 -110l-14 -168h229v-34z" />
    <glyph glyph-name="Aringacute" unicode="&#x1fa;" horiz-adv-x="680" 
d="M235 771q0 43 30.5 71.5t74.5 28.5q2 0 5 -0.5t4 -0.5l41 80h45l-52 -88q28 -12 45 -36t17 -55q0 -35 -20.5 -61t-53.5 -35l299 -675h-43l-101 230h-374l-101 -230h-41l299 675q-33 9 -53.5 35t-20.5 61zM339 656l-173 -393h345zM272 771q0 -29 20 -48t48 -19t48 19
t20 48t-20 48t-48 19t-48 -19t-20 -48z" />
    <glyph glyph-name="aringacute" unicode="&#x1fb;" horiz-adv-x="560" 
d="M182 587q0 43 30.5 71.5t74.5 28.5q3 0 8 -0.5t7 -0.5l45 84h45l-56 -94q25 -12 40.5 -36t15.5 -53q0 -54 -44 -82q64 -20 98 -74.5t34 -139.5v-291h-30l-7 61q-59 -71 -181 -71q-92 0 -147 45t-55 111t55 112.5t147 46.5q118 0 178 -68v53q0 96 -45.5 143.5t-124.5 47.5
q-46 0 -85 -14t-55 -28l-15 -14l-25 26q5 5 14 13t42 24t71 23q-35 29 -35 76zM100 147q0 -51 45 -85.5t122 -34.5q85 0 131.5 34t46.5 86t-46.5 86.5t-131.5 34.5q-77 0 -122 -35t-45 -86zM219 587q0 -29 20 -48t48 -19t48 19t20 48t-20 48t-48 19t-48 -19t-20 -48z" />
    <glyph glyph-name="AEacute" unicode="&#x1fc;" horiz-adv-x="1055" 
d="M985 665h-430v-281h380v-33h-380v-316h440v-35h-480v230h-300l-157 -230h-48l485 700h490v-35zM238 263h277v403zM726 760h-35l85 160h45z" />
    <glyph glyph-name="aeacute" unicode="&#x1fd;" horiz-adv-x="996" 
d="M60 146q0 66 55 112.5t147 46.5q118 0 178 -68v53q0 96 -45.5 143.5t-124.5 47.5q-46 0 -85 -13.5t-55 -27.5l-15 -13l-25 26q7 7 20 17.5t60 28t101 17.5q165 0 197 -152q31 69 93.5 110.5t142.5 41.5q99 0 170.5 -73.5t71.5 -178.5v-4h-466v-7q0 -97 64 -161.5
t159 -64.5q39 0 73 11.5t55.5 27.5t37.5 32t23 28l7 11l29 -17q-3 -5 -8 -14t-25.5 -31.5t-44 -39.5t-63.5 -31t-85 -14q-76 0 -136 37t-92 100q-9 -61 -63 -99t-149 -38q-92 0 -147 45t-55 111zM100 147q0 -51 45 -85.5t122 -34.5q85 0 131.5 34t46.5 86t-46.5 86.5
t-131.5 34.5q-77 0 -122 -35t-45 -86zM703 479q-84 0 -145 -52t-75 -134h421q-11 80 -68 133t-133 53zM507 580h-35l85 160h45z" />
    <glyph glyph-name="Oslashacute" unicode="&#x1fe;" horiz-adv-x="840" 
d="M780 730l-107 -121q107 -104 107 -258q0 -151 -105 -256t-256 -105q-128 0 -227 78l-87 -98h-45l107 121q-107 102 -107 258q0 151 105 256t256 105q129 0 226 -78l88 98h45zM740 350q0 137 -93 230l-429 -483q86 -70 202 -70q135 0 227.5 93t92.5 230zM100 350
q0 -136 92 -230l430 483q-88 70 -202 70q-135 0 -227.5 -93t-92.5 -230zM430 760h-35l85 160h45z" />
    <glyph glyph-name="oslashacute" unicode="&#x1ff;" horiz-adv-x="626" 
d="M50 252q0 111 76.5 187.5t187.5 76.5q95 0 166 -57l71 77h45l-92 -100q72 -74 72 -182q0 -111 -76.5 -187.5t-187.5 -76.5q-95 0 -166 57l-71 -77h-45l91 99q-71 76 -71 183zM536 253q0 91 -58 155l-306 -333q61 -48 141 -48q95 0 159 64.5t64 161.5zM90 253
q0 -91 58 -155l306 332q-60 49 -141 49q-95 0 -159 -64.5t-64 -161.5zM321 580h-35l85 160h45z" />
    <glyph glyph-name="Scommaaccent" unicode="&#x218;" horiz-adv-x="560" 
d="M110 543q0 -54 41 -91.5t130 -63.5q110 -33 164.5 -84t54.5 -127q0 -81 -60 -134t-163 -53q-45 0 -85.5 9.5t-67 22.5t-46.5 26t-29 22l-9 10l28 29l8.5 -8.5t26 -20t43.5 -25t60.5 -19.5t78.5 -9q78 0 126.5 41.5t48.5 103.5q0 65 -44.5 106.5t-154.5 75.5
q-90 28 -140.5 74.5t-50.5 109.5q0 73 58.5 122.5t154.5 49.5q62 0 114 -19t73 -37l20 -19l-28 -29q-7 8 -20.5 19t-59 29.5t-97.5 18.5q-84 0 -129.5 -39.5t-45.5 -90.5zM215 -210h-35l85 160h45z" />
    <glyph glyph-name="scommaaccent" unicode="&#x219;" horiz-adv-x="440" 
d="M95 394q0 -37 29 -64.5t101 -45.5q165 -41 165 -149q0 -60 -48 -102.5t-129 -42.5q-50 0 -94.5 15t-64.5 30l-19 15l22 31q7 -6 20.5 -15t54.5 -24t83 -15q63 0 99 28.5t36 69.5q0 43 -30.5 73t-114.5 50q-70 18 -110 53t-40 84q0 54 43.5 92.5t121.5 38.5q43 0 82 -12.5
t56 -25.5l17 -12l-22 -32q-6 5 -16 12.5t-44.5 20t-70.5 12.5q-60 0 -93.5 -26t-33.5 -59zM145 -210h-35l85 160h45z" />
    <glyph glyph-name="circumflex" unicode="&#x2c6;" horiz-adv-x="530" 
d="M130 580h-40l155 160h40l155 -160h-42l-135 127z" />
    <glyph glyph-name="caron" unicode="&#x2c7;" horiz-adv-x="530" 
d="M400 740h40l-155 -160h-40l-155 160h42l134 -127z" />
    <glyph glyph-name="breve" unicode="&#x2d8;" horiz-adv-x="452" 
d="M70 740h38v-5q0 -53 33 -86.5t86 -33.5t85 33t32 87v5h38v-5q0 -66 -44.5 -110.5t-111.5 -44.5t-111.5 44.5t-44.5 110.5v5z" />
    <glyph glyph-name="dotaccent" unicode="&#x2d9;" horiz-adv-x="279" 
d="M104 655q0 14 10.5 24.5t24.5 10.5t24.5 -10.5t10.5 -24.5t-10.5 -24.5t-24.5 -10.5t-24.5 10.5t-10.5 24.5z" />
    <glyph glyph-name="ring" unicode="&#x2da;" horiz-adv-x="320" 
d="M55 670q0 43 30.5 71.5t74.5 28.5t74.5 -28.5t30.5 -71.5t-30.5 -71.5t-74.5 -28.5t-74.5 28.5t-30.5 71.5zM92 670q0 -29 20 -48t48 -19t48 19t20 48t-20 48t-48 19t-48 -19t-20 -48z" />
    <glyph glyph-name="ogonek" unicode="&#x2db;" horiz-adv-x="345" 
d="M110 20l16 -20q-29 -18 -29 -67q0 -37 27.5 -60t68.5 -23q18 0 34.5 4t24.5 8l7 5l16 -27q-28 -25 -83 -25q-58 0 -95 31.5t-37 80.5q0 28 12.5 51.5t25.5 32.5z" />
    <glyph glyph-name="tilde" unicode="&#x2dc;" horiz-adv-x="467" 
d="M102 609l-37 4q0 4 1 11.5t6 26t14 32.5t27 25.5t42 11.5q29 0 52.5 -15t36 -33.5t31.5 -33.5t39 -15q21 0 33.5 19.5t14.5 39.5l3 20l37 -4q0 -4 -1 -11.5t-6.5 -26t-14 -33t-27 -26t-42.5 -11.5q-28 0 -51 15t-36.5 33.5t-32.5 33.5t-39 15t-32.5 -19.5t-15.5 -39.5z
" />
    <glyph glyph-name="hungarumlaut" unicode="&#x2dd;" horiz-adv-x="570" 
d="M180 580h-35l65 160h45zM350 580h-35l65 160h45z" />
    <glyph glyph-name="Delta" unicode="&#x394;" horiz-adv-x="690" 
d="M10 0l315 700h40l315 -700h-670zM344 657l-278 -622h555z" />
    <glyph glyph-name="Delta" unicode="&#x2206;" horiz-adv-x="690" 
d="M10 0l315 700h40l315 -700h-670zM344 657l-278 -622h555z" />
    <glyph glyph-name="pi" unicode="&#x3c0;" horiz-adv-x="680" 
d="M20 474v32h630v-32h-170v-354q0 -47 22.5 -70t60.5 -23q21 0 40 3.5t28 7.5l9 3l10 -32q-26 -19 -87 -19q-57 0 -90 32.5t-33 97.5v354h-260v-474h-40v474h-120z" />
    <glyph glyph-name="Wgrave" unicode="&#x1e80;" horiz-adv-x="965" 
d="M250 0l-240 700h43l217 -640l199 640h29l198 -640l218 640h41l-240 -700h-38l-195 618l-194 -618h-38zM487 760h-35l-95 160h45z" />
    <glyph glyph-name="wgrave" unicode="&#x1e81;" horiz-adv-x="765" 
d="M198 0l-188 506h45l163 -449l150 449h31l150 -449l163 449h43l-188 -506h-38l-147 433l-146 -433h-38zM392 580h-35l-95 160h45z" />
    <glyph glyph-name="Wacute" unicode="&#x1e82;" horiz-adv-x="965" 
d="M250 0l-240 700h43l217 -640l199 640h29l198 -640l218 640h41l-240 -700h-38l-195 618l-194 -618h-38zM517 760h-35l85 160h45z" />
    <glyph glyph-name="wacute" unicode="&#x1e83;" horiz-adv-x="765" 
d="M198 0l-188 506h45l163 -449l150 449h31l150 -449l163 449h43l-188 -506h-38l-147 433l-146 -433h-38zM417 580h-35l85 160h45z" />
    <glyph glyph-name="Wdieresis" unicode="&#x1e84;" horiz-adv-x="965" 
d="M250 0l-240 700h43l217 -640l199 640h29l198 -640l218 640h41l-240 -700h-38l-195 618l-194 -618h-38zM352 835q0 14 10.5 24.5t24.5 10.5t24.5 -10.5t10.5 -24.5t-10.5 -24.5t-24.5 -10.5t-24.5 10.5t-10.5 24.5zM542 835q0 14 10.5 24.5t24.5 10.5t24.5 -10.5
t10.5 -24.5t-10.5 -24.5t-24.5 -10.5t-24.5 10.5t-10.5 24.5z" />
    <glyph glyph-name="wdieresis" unicode="&#x1e85;" horiz-adv-x="765" 
d="M198 0l-188 506h45l163 -449l150 449h31l150 -449l163 449h43l-188 -506h-38l-147 433l-146 -433h-38zM252 655q0 14 10.5 24.5t24.5 10.5t24.5 -10.5t10.5 -24.5t-10.5 -24.5t-24.5 -10.5t-24.5 10.5t-10.5 24.5zM442 655q0 14 10.5 24.5t24.5 10.5t24.5 -10.5
t10.5 -24.5t-10.5 -24.5t-24.5 -10.5t-24.5 10.5t-10.5 24.5z" />
    <glyph glyph-name="uni1E9E" unicode="&#x1e9e;" horiz-adv-x="715" 
d="M610 605l-181 -169q99 -4 165 -68t66 -156q0 -95 -70 -158.5t-173 -63.5q-29 0 -52 3t-31 5l-9 3l10 33q27 -9 77 -9q90 0 149 54t59 134t-59 135t-149 55h-42v25l188 176q-69 69 -188 69q-100 0 -165 -70t-65 -180v-423h-40v419q0 127 77 209t194 82q43 0 84 -11
t67.5 -26t47.5 -30.5t30 -26.5z" />
    <glyph glyph-name="Ygrave" unicode="&#x1ef2;" horiz-adv-x="650" 
d="M640 700l-295 -410v-290h-40v290l-295 410h49l267 -376l267 376h47zM370 760h-35l-95 160h45z" />
    <glyph glyph-name="ygrave" unicode="&#x1ef3;" horiz-adv-x="505" 
d="M233 0l-223 506h45l198 -465l199 465h43l-225 -511q-72 -165 -188 -165q-24 0 -42 4t-24 8l-6 4l14 32q19 -11 58 -11q92 0 151 133zM292 580h-35l-95 160h45z" />
    <glyph glyph-name="endash" unicode="&#x2013;" horiz-adv-x="570" 
d="M520 340h-470v35h470v-35z" />
    <glyph glyph-name="emdash" unicode="&#x2014;" horiz-adv-x="900" 
d="M850 340h-800v35h800v-35z" />
    <glyph glyph-name="quoteleft" unicode="&#x2018;" horiz-adv-x="150" 
d="M75 700h35l-25 -210h-45z" />
    <glyph glyph-name="quoteright" unicode="&#x2019;" horiz-adv-x="150" 
d="M75 490h-35l25 210h45z" />
    <glyph glyph-name="quotesinglbase" unicode="&#x201a;" horiz-adv-x="150" 
d="M75 -130h-35l25 210h45z" />
    <glyph glyph-name="quotedblleft" unicode="&#x201c;" horiz-adv-x="280" 
d="M75 700h35l-25 -210h-45zM205 700h35l-25 -210h-45z" />
    <glyph glyph-name="quotedblright" unicode="&#x201d;" horiz-adv-x="280" 
d="M75 490h-35l25 210h45zM205 490h-35l25 210h45z" />
    <glyph glyph-name="quotedblbase" unicode="&#x201e;" horiz-adv-x="280" 
d="M75 -130h-35l25 210h45zM205 -130h-35l25 210h45z" />
    <glyph glyph-name="dagger" unicode="&#x2020;" horiz-adv-x="400" 
d="M360 520h-140v-260h-40v260h-140v35h140v145h40v-145h140v-35z" />
    <glyph glyph-name="daggerdbl" unicode="&#x2021;" horiz-adv-x="400" 
d="M360 520h-140v-190h140v-35h-140v-145h-40v145h-140v35h140v190h-140v35h140v145h40v-145h140v-35z" />
    <glyph glyph-name="bullet" unicode="&#x2022;" horiz-adv-x="290" 
d="M60 349q0 37 24.5 61.5t60.5 24.5q37 0 61 -24t24 -61q0 -36 -24.5 -60.5t-61.5 -24.5q-36 0 -60 24t-24 60z" />
    <glyph glyph-name="perthousand" unicode="&#x2030;" horiz-adv-x="1110" 
d="M50 468q0 61 40.5 101.5t101.5 40.5t101.5 -40.5t40.5 -101.5t-40.5 -101.5t-101.5 -40.5t-101.5 40.5t-40.5 101.5zM152 0l415 600h41l-415 -600h-41zM88 468q0 -46 29.5 -76.5t74.5 -30.5t74.5 30.5t29.5 76.5t-29.5 76.5t-74.5 30.5t-74.5 -30.5t-29.5 -76.5zM426 132
q0 61 40.5 101.5t101.5 40.5t101.5 -40.5t40.5 -101.5t-40.5 -101.5t-101.5 -40.5t-101.5 40.5t-40.5 101.5zM464 132q0 -46 29.5 -76.5t74.5 -30.5t74.5 30.5t29.5 76.5t-29.5 76.5t-74.5 30.5t-74.5 -30.5t-29.5 -76.5zM776 132q0 61 40.5 101.5t101.5 40.5t101.5 -40.5
t40.5 -101.5t-40.5 -101.5t-101.5 -40.5t-101.5 40.5t-40.5 101.5zM814 132q0 -46 29.5 -76.5t74.5 -30.5t74.5 30.5t29.5 76.5t-29.5 76.5t-74.5 30.5t-74.5 -30.5t-29.5 -76.5z" />
    <glyph glyph-name="guilsinglleft" unicode="&#x2039;" horiz-adv-x="430" 
d="M350 575l-248 -224l248 -224l-25 -27l-275 240v20l275 240z" />
    <glyph glyph-name="guilsinglright" unicode="&#x203a;" horiz-adv-x="430" 
d="M80 125l247 224l-247 224l25 27l275 -240v-20l-275 -240z" />
    <glyph glyph-name="fraction" unicode="&#x2044;" horiz-adv-x="180" 
d="M-190 0l520 700h40l-520 -700h-40z" />
    <glyph glyph-name="zerosuperior" unicode="&#x2070;" horiz-adv-x="374" 
d="M50 414v150q0 65 38.5 103.5t99.5 38.5t98.5 -37.5t37.5 -102.5v-150q0 -65 -38.5 -103.5t-99.5 -38.5t-98.5 37.5t-37.5 102.5zM87 568v-156q0 -48 27 -76t73 -28t73 28t27 76v156q0 48 -27 76t-73 28t-73 -28t-27 -76z" />
    <glyph glyph-name="foursuperior" unicode="&#x2074;" horiz-adv-x="365" 
d="M30 426l200 274h36v-274h69v-31h-69v-115h-36v115h-200v31zM65 426h165v222z" />
    <glyph glyph-name="fivesuperior" unicode="&#x2075;" horiz-adv-x="357" 
d="M55 473v227h241v-33h-206v-149q34 32 85 32q61 0 101.5 -38.5t40.5 -95.5q0 -60 -43 -101t-107 -41q-37 0 -68.5 14.5t-44.5 29.5l-14 14l26 23q4 -5 11 -13t33.5 -21t57.5 -13q48 0 80 30.5t32 76.5q0 44 -31 72.5t-78 28.5q-28 0 -50 -11t-29 -21l-8 -11h-29z" />
    <glyph glyph-name="sixsuperior" unicode="&#x2076;" horiz-adv-x="372" 
d="M40 411q0 51 32 96l4 6l129 187h43l-117 -165q24 15 59 15q60 0 101 -39.5t41 -97.5q0 -59 -42.5 -99t-104.5 -40t-103.5 39.5t-41.5 97.5zM77 412q0 -44 31 -74t78 -30t78 30t31 74t-31 74t-78 30t-78 -30t-31 -74z" />
    <glyph glyph-name="sevensuperior" unicode="&#x2077;" horiz-adv-x="339" 
d="M68 280l196 387h-229v33h269v-27l-198 -393h-38z" />
    <glyph glyph-name="eightsuperior" unicode="&#x2078;" horiz-adv-x="372" 
d="M58 597q0 45 37.5 77t91.5 32t90.5 -31.5t36.5 -76.5q0 -61 -64 -93q38 -14 60 -42t22 -65q0 -53 -42.5 -88.5t-104.5 -35.5t-103.5 35t-41.5 88q0 36 22 64.5t59 42.5q-29 14 -46 38.5t-17 54.5zM77 397q0 -38 30 -64.5t79 -26.5t79 26.5t30 64.5t-30 64.5t-79 26.5
t-79 -26.5t-30 -64.5zM95 596q0 -32 25 -54.5t66 -22.5t66 22.5t25 54.5q0 33 -25 55.5t-66 22.5t-66 -22.5t-25 -55.5z" />
    <glyph glyph-name="ninesuperior" unicode="&#x2079;" horiz-adv-x="372" 
d="M332 569q0 -51 -32 -96l-5 -7l-128 -186h-43l117 165q-24 -15 -59 -15q-60 0 -101 39.5t-41 97.5q0 59 42.5 99t104.5 40t103.5 -39.5t41.5 -97.5zM295 568q0 44 -31 74t-78 30t-78 -30t-31 -74t31 -74t78 -30t78 30t31 74z" />
    <glyph glyph-name="zeroinferior" unicode="&#x2080;" horiz-adv-x="374" 
d="M50 134v150q0 65 38.5 103.5t99.5 38.5t98.5 -37.5t37.5 -102.5v-150q0 -65 -38.5 -103.5t-99.5 -38.5t-98.5 37.5t-37.5 102.5zM87 288v-156q0 -48 27 -76t73 -28t73 28t27 76v156q0 48 -27 76t-73 28t-73 -28t-27 -76z" />
    <glyph glyph-name="oneinferior" unicode="&#x2081;" horiz-adv-x="258" 
d="M30 318l139 102h29v-420h-37v370l-109 -79z" />
    <glyph glyph-name="twoinferior" unicode="&#x2082;" horiz-adv-x="342" 
d="M234 174l-141 -141h206v-33h-259v27l165 165q60 60 60 117q0 35 -26 59t-65 24q-21 0 -39 -6.5t-29 -15t-19 -17.5t-11 -15l-4 -7l-32 14q2 3 5 8.5t14.5 19.5t26 24.5t38.5 19.5t51 9q54 0 90.5 -33t36.5 -83q0 -67 -68 -136z" />
    <glyph glyph-name="threeinferior" unicode="&#x2083;" horiz-adv-x="334" 
d="M109 237h42q44 0 69 21.5t25 56.5t-25 56t-69 21q-29 0 -50.5 -10t-28.5 -20l-8 -11l-29 17q4 6 12 16t38.5 26t66.5 16q57 0 93.5 -30.5t36.5 -76.5q0 -67 -66 -98q36 -15 57 -44t21 -64q0 -50 -42 -84.5t-103 -34.5q-25 0 -47 6.5t-36.5 15t-25 17.5t-15.5 15l-5 7
l28 19q3 -5 10 -12.5t33 -20.5t58 -13q49 0 78.5 24t29.5 63q0 38 -29.5 63.5t-78.5 25.5h-40v33z" />
    <glyph glyph-name="fourinferior" unicode="&#x2084;" horiz-adv-x="365" 
d="M30 146l200 274h36v-274h69v-31h-69v-115h-36v115h-200v31zM65 146h165v222z" />
    <glyph glyph-name="fiveinferior" unicode="&#x2085;" horiz-adv-x="357" 
d="M55 193v227h241v-33h-206v-149q34 32 85 32q61 0 101.5 -38.5t40.5 -95.5q0 -60 -43 -101t-107 -41q-37 0 -68.5 14.5t-44.5 29.5l-14 14l26 23q4 -5 11 -13t33.5 -21t57.5 -13q48 0 80 30.5t32 76.5q0 44 -31 72.5t-78 28.5q-28 0 -50 -11t-29 -21l-8 -11h-29z" />
    <glyph glyph-name="sixinferior" unicode="&#x2086;" horiz-adv-x="372" 
d="M40 131q0 51 32 96l4 6l129 187h43l-117 -165q24 15 59 15q60 0 101 -39.5t41 -97.5q0 -59 -42.5 -99t-104.5 -40t-103.5 39.5t-41.5 97.5zM77 132q0 -44 31 -74t78 -30t78 30t31 74t-31 74t-78 30t-78 -30t-31 -74z" />
    <glyph glyph-name="seveninferior" unicode="&#x2087;" horiz-adv-x="339" 
d="M68 0l196 387h-229v33h269v-27l-198 -393h-38z" />
    <glyph glyph-name="eightinferior" unicode="&#x2088;" horiz-adv-x="372" 
d="M58 317q0 45 37.5 77t91.5 32t90.5 -31.5t36.5 -76.5q0 -61 -64 -93q38 -14 60 -42t22 -65q0 -53 -42.5 -88.5t-104.5 -35.5t-103.5 35t-41.5 88q0 36 22 64.5t59 42.5q-29 14 -46 38.5t-17 54.5zM77 117q0 -38 30 -64.5t79 -26.5t79 26.5t30 64.5t-30 64.5t-79 26.5
t-79 -26.5t-30 -64.5zM95 316q0 -32 25 -54.5t66 -22.5t66 22.5t25 54.5q0 33 -25 55.5t-66 22.5t-66 -22.5t-25 -55.5z" />
    <glyph glyph-name="nineinferior" unicode="&#x2089;" horiz-adv-x="372" 
d="M332 289q0 -51 -32 -96l-5 -7l-128 -186h-43l117 165q-24 -15 -59 -15q-60 0 -101 39.5t-41 97.5q0 59 42.5 99t104.5 40t103.5 -39.5t41.5 -97.5zM295 288q0 44 -31 74t-78 30t-78 -30t-31 -74t31 -74t78 -30t78 30t31 74z" />
    <glyph glyph-name="Euro" unicode="&#x20ac;" 
d="M460 251h-270v-36q0 -87 49 -137.5t131 -50.5q35 0 64 9t45 22t27.5 26t15.5 22l4 9l34 -14q-2 -5 -5 -12t-18 -26.5t-34.5 -34t-55 -26.5t-78.5 -12q-99 0 -159 61t-60 168v32h-100v33h100v132h-100v33h100v30q0 107 61 169t160 62q43 0 78 -11t55 -27t33.5 -32.5
t18.5 -27.5l4 -11l-34 -16q-1 4 -4 9.5t-15 21t-28 27t-45 21t-64 9.5q-82 0 -131 -50.5t-49 -137.5v-36h290v-33h-290v-132h270v-33z" />
    <glyph glyph-name="trademark" unicode="&#x2122;" horiz-adv-x="763" 
d="M536 442l-110 193v-250h-38v315h40l118 -209l119 209h38v-315h-38v250l-110 -193h-19zM315 667h-108v-282h-38v282h-109v33h255v-33z" />
    <glyph glyph-name="minus" unicode="&#x2212;" 
d="M550 340h-500v35h500v-35z" />
    <glyph glyph-name="fi" unicode="&#xfb01;" horiz-adv-x="637" 
d="M395 690l-8 -34q-34 17 -92 17t-91.5 -35t-33.5 -103v-59h215v-32h-215v-444h-40v444h-110v32h110v59q0 85 44 130t121 45q31 0 56 -5t35 -10zM500 0v506h42v-506h-42zM486 655q0 14 10.5 24.5t24.5 10.5t24.5 -10.5t10.5 -24.5t-10.5 -24.5t-24.5 -10.5t-24.5 10.5
t-10.5 24.5z" />
    <glyph glyph-name="fl" unicode="&#xfb02;" horiz-adv-x="637" 
d="M395 690l-8 -34q-34 17 -92 17t-91.5 -35t-33.5 -103v-59h215v-32h-215v-444h-40v444h-110v32h110v59q0 85 44 130t121 45q31 0 56 -5t35 -10zM500 0v700h42v-700h-42z" />
    <glyph glyph-name="one.onum" horiz-adv-x="410" 
d="M30 475l230 165h30v-640h-40v586l-197 -139z" />
    <glyph glyph-name="two.onum" horiz-adv-x="510" 
d="M340 258l-228 -223h333v-35h-395v25l265 260q54 52 74.5 93t20.5 87q0 65 -45 106.5t-110 41.5q-37 0 -68 -11.5t-49.5 -27.5t-31.5 -32t-18 -28l-5 -11l-33 12q2 5 6 14.5t21 32.5t38 41t59 32.5t83 14.5q81 0 137 -52t56 -131q0 -56 -25 -103.5t-85 -105.5z" />
    <glyph glyph-name="three.onum" horiz-adv-x="510" 
d="M165 355h70q73 0 116.5 36.5t43.5 93.5t-43.5 92.5t-116.5 35.5q-30 0 -55.5 -7.5t-41 -18.5t-27 -22.5t-15.5 -18.5l-5 -8l-31 16q2 4 6 10.5t19.5 23t34 29t50 23t66.5 10.5q88 0 143.5 -45.5t55.5 -118.5q0 -52 -31.5 -91t-85.5 -57q62 -19 99.5 -63t37.5 -102
q0 -79 -64 -131t-160 -52q-39 0 -73.5 10.5t-56 25t-37.5 29.5t-22 25l-7 11l30 20l6 -9t19 -20.5t32.5 -25.5t47 -20t62.5 -9q81 0 132 41t51 104q0 64 -51.5 106t-131.5 42h-67v35z" />
    <glyph glyph-name="four.onum" horiz-adv-x="560" 
d="M45 205l330 435h40v-435h100v-35h-100v-170h-40v170h-330v35zM84 205h291v377z" />
    <glyph glyph-name="five.onum" horiz-adv-x="535" 
d="M80 305v335h365v-35h-328v-243q54 58 144 58q93 0 156 -59.5t63 -149.5q0 -95 -66.5 -158t-164.5 -63q-37 0 -70.5 9.5t-55 23t-37.5 27t-24 22.5l-7 10l29 23q2 -3 6.5 -8.5t19.5 -19t32.5 -23.5t46.5 -18.5t61 -8.5q82 0 136 51.5t54 131.5q0 76 -53 124.5t-132 48.5
q-30 0 -56 -8t-41.5 -19.5t-27 -23t-16.5 -19.5l-4 -8h-30z" />
    <glyph glyph-name="six.onum" horiz-adv-x="560" 
d="M55 204q0 79 54 150l211 286h47l-189 -249q46 29 108 29q92 0 155.5 -61t63.5 -153q0 -93 -65 -154.5t-161 -61.5t-160 60.5t-64 153.5zM95 205q0 -78 53 -128t132 -50t132 50t53 128t-53 128t-132 50t-132 -50t-53 -128z" />
    <glyph glyph-name="seven.onum" horiz-adv-x="480" 
d="M113 0l292 605h-375v35h420v-25l-295 -615h-42z" />
    <glyph glyph-name="eight.onum" horiz-adv-x="560" 
d="M85 486q0 69 56 116.5t140 47.5t139 -46.5t55 -115.5q0 -47 -29 -85.5t-77 -58.5q62 -19 99 -63t37 -103q0 -82 -64 -135t-162 -53t-161 52t-63 134q0 58 37 102.5t99 64.5q-49 19 -77.5 57t-28.5 86zM95 175q0 -65 52 -106.5t133 -41.5t133 41.5t52 106.5t-52 107.5
t-133 42.5t-133 -42.5t-52 -107.5zM125 487q0 -53 44 -90t111 -37t111 37t44 90t-44 89.5t-111 36.5t-111 -36.5t-44 -89.5z" />
    <glyph glyph-name="nine.onum" horiz-adv-x="560" 
d="M505 436q0 -79 -54 -150l-211 -286h-47l188 248q-45 -28 -107 -28q-92 0 -155.5 61t-63.5 153q0 93 65 154.5t161 61.5t160 -60.5t64 -153.5zM465 435q0 78 -53 128t-132 50t-132 -50t-53 -128t53 -128t132 -50t132 50t53 128z" />
    <glyph glyph-name="zero.onum" horiz-adv-x="560" 
d="M70 209v220q0 103 58 162t153 59t152 -58t57 -161v-220q0 -103 -58 -162t-153 -59t-152 58t-57 161zM110 435v-230q0 -83 46.5 -130.5t123.5 -47.5t123.5 47.5t46.5 130.5v230q0 83 -46.5 130.5t-123.5 47.5t-123.5 -47.5t-46.5 -130.5z" />
    <glyph glyph-name="numbersign.onum" horiz-adv-x="590" 
d="M320 0l34 162h-170l-34 -162h-35l34 162h-114v31h121l37 174h-118v31h125l35 162h35l-35 -162h170l35 162h35l-35 -162h115v-31h-122l-37 -174h119v-31h-126l-34 -162h-35zM228 367l-37 -174h170l37 174h-170z" />
    <glyph glyph-name="cent.onum" horiz-adv-x="525" 
d="M303 181q32 0 60 7.5t45.5 17.5t30.5 20.5t19 17.5l5 8l27 -23q-2 -3 -6.5 -8.5t-20.5 -20t-35 -25.5t-50.5 -20.5t-66.5 -10.5v-90h-36v91q-97 10 -161 81t-64 170t64.5 170t160.5 82v92h36v-90q33 -1 63 -9t49 -19t33.5 -22t21.5 -18l6 -8l-25 -26q-6 7 -17 18
t-51.5 29t-87.5 18q-90 0 -151.5 -62t-61.5 -154t61.5 -154t151.5 -62z" />
    <glyph glyph-name="dollar.onum" horiz-adv-x="490" 
d="M400 151q0 56 -37.5 94t-124.5 74q-170 69 -170 178q0 62 47 104.5t119 47.5v91h36v-91q33 -3 62 -13.5t47.5 -24t32.5 -27t20 -22.5l6 -9l-31 -19q-2 3 -6 8.5t-17.5 19t-30 24t-44 19t-57.5 8.5q-67 0 -105.5 -32.5t-38.5 -77.5q0 -50 36 -85t113 -66q91 -37 137 -83.5
t46 -112.5q0 -68 -47.5 -113t-122.5 -52v-91h-36v90q-39 2 -73 14.5t-55 29t-37 33t-23 27.5l-6 12l32 18q2 -4 6.5 -10.5t20 -23t34.5 -29.5t50 -23.5t66 -10.5q67 0 109 35t42 89z" />
    <glyph glyph-name="sterling.onum" horiz-adv-x="560" 
d="M495 0h-355v303h-100v34h100v102q0 98 55.5 154.5t145.5 56.5q40 0 73.5 -11.5t52 -27.5t31.5 -32t18 -27l4 -12l-34 -15q-1 4 -3.5 9.5t-13.5 21t-25.5 27t-42 21t-61.5 9.5q-73 0 -116.5 -45t-43.5 -123v-108h230v-34h-230v-268h315v-35z" />
    <glyph glyph-name="Euro.onum" horiz-adv-x="570" 
d="M430 226h-250v-21q0 -83 46.5 -130.5t123.5 -47.5q34 0 61 8.5t42.5 20.5t25.5 24.5t13 21.5l4 8l34 -14q-1 -4 -4 -11.5t-17 -25.5t-32 -32t-52 -25.5t-76 -11.5q-95 0 -152 58t-57 161v17h-100v33h100v122h-100v33h100v15q0 103 58 162t153 59q42 0 75.5 -10.5t52 -26
t31 -31t16.5 -26.5l4 -10l-34 -16q-1 3 -3.5 9t-13.5 20t-25.5 25t-42 20t-61.5 9q-77 0 -123.5 -47.5t-46.5 -130.5v-21h270v-33h-270v-122h250v-33z" />
    <glyph glyph-name="yen.onum" 
d="M550 158h-230v-158h-40v158h-230v34h230v108l-6 8h-224v34h199l-219 298h49l222 -309l222 309h47l-219 -298h199v-34h-224l-6 -8v-108h230v-34z" />
    <glyph glyph-name="florin.onum" horiz-adv-x="570" 
d="M440 273h-222l-38 -433h-40l38 433h-138v34h141l14 152q8 92 55 141.5t121 49.5q37 0 67 -12t46.5 -29t27.5 -33.5t14 -28.5l4 -12l-34 -15l-2.5 10t-10.5 22t-21.5 28.5t-36.5 22.5t-55 10q-57 0 -93 -38.5t-42 -109.5l-14 -158h219v-34z" />
    <glyph glyph-name="percent.onum" horiz-adv-x="760" 
d="M50 429q0 60 41 100.5t101 40.5t100 -39.5t40 -99.5t-41 -100.5t-101 -40.5t-100 39.5t-40 99.5zM152 0l415 560h41l-415 -560h-41zM88 430q0 -46 29.5 -75.5t73.5 -29.5t73.5 29.5t29.5 75.5t-29.5 75.5t-73.5 29.5t-73.5 -29.5t-29.5 -75.5zM428 129q0 60 41 100.5
t101 40.5t100 -39.5t40 -99.5t-41 -100.5t-101 -40.5t-100 39.5t-40 99.5zM466 130q0 -46 29.5 -75.5t73.5 -29.5t73.5 29.5t29.5 75.5t-29.5 75.5t-73.5 29.5t-73.5 -29.5t-29.5 -75.5z" />
    <glyph glyph-name="perthousand.onum" horiz-adv-x="1110" 
d="M50 429q0 60 41 100.5t101 40.5t100 -39.5t40 -99.5t-41 -100.5t-101 -40.5t-100 39.5t-40 99.5zM152 0l415 560h41l-415 -560h-41zM88 430q0 -46 29.5 -75.5t73.5 -29.5t73.5 29.5t29.5 75.5t-29.5 75.5t-73.5 29.5t-73.5 -29.5t-29.5 -75.5zM428 129q0 60 41 100.5
t101 40.5t100 -39.5t40 -99.5t-41 -100.5t-101 -40.5t-100 39.5t-40 99.5zM466 130q0 -46 29.5 -75.5t73.5 -29.5t73.5 29.5t29.5 75.5t-29.5 75.5t-73.5 29.5t-73.5 -29.5t-29.5 -75.5zM778 129q0 60 41 100.5t101 40.5t100 -39.5t40 -99.5t-41 -100.5t-101 -40.5
t-100 39.5t-40 99.5zM816 130q0 -46 29.5 -75.5t73.5 -29.5t73.5 29.5t29.5 75.5t-29.5 75.5t-73.5 29.5t-73.5 -29.5t-29.5 -75.5z" />
    <glyph glyph-name="one.lnum" 
d="M540 0h-450v35h220v611l-207 -144l-23 28l240 170h30v-665h190v-35z" />
    <glyph glyph-name="two.lnum" 
d="M380 278l-243 -243h363v-35h-425v25l280 280q60 60 85 107.5t25 97.5q0 70 -50 116.5t-125 46.5q-38 0 -70.5 -11.5t-52 -28t-34 -33.5t-19.5 -28l-6 -12l-33 15q2 5 6.5 14.5t23 32.5t41 41t61.5 32.5t85 14.5q91 0 152 -56.5t61 -141.5q0 -61 -29 -114t-96 -120z" />
    <glyph glyph-name="three.lnum" 
d="M215 385h65q83 0 131.5 41t48.5 104q0 62 -48.5 102.5t-131.5 40.5q-33 0 -62 -9t-47 -21.5t-31 -25t-18 -21.5l-6 -9l-31 17q2 4 7 11.5t22 25.5t37.5 32t55.5 25.5t74 11.5q99 0 159 -50.5t60 -128.5q0 -57 -35.5 -100.5t-97.5 -62.5q70 -20 111.5 -68.5t41.5 -111.5
q0 -85 -69 -141.5t-175 -56.5q-42 0 -79.5 11.5t-61.5 27.5t-42 32.5t-25 28.5l-8 11l30 21q2 -4 7 -10.5t22 -22.5t37 -28.5t52.5 -23t68.5 -10.5q91 0 147 45.5t56 114.5t-56.5 116t-146.5 47h-62v35z" />
    <glyph glyph-name="four.lnum" 
d="M55 235l350 465h40v-465h100v-35h-100v-200h-40v200h-350v35zM94 235h311v406z" />
    <glyph glyph-name="five.lnum" 
d="M100 335v365h395v-35h-358v-277q64 62 159 62q100 0 167 -64.5t67 -159.5q0 -100 -71 -168t-175 -68q-38 0 -73 9.5t-58.5 23t-42 27t-26.5 22.5l-9 10l29 23q3 -3 8 -8.5t22.5 -19t37 -23.5t50.5 -18.5t63 -8.5q88 0 146.5 56.5t58.5 141.5q0 81 -57 134.5t-143 53.5
q-49 0 -89 -19.5t-55 -39.5l-16 -19h-30z" />
    <glyph glyph-name="six.lnum" 
d="M65 219q0 84 53 160l222 321h47l-206 -289q51 39 125 39q98 0 163.5 -66t65.5 -163q0 -98 -68 -164.5t-168 -66.5t-167 65.5t-67 163.5zM105 220q0 -83 56 -138t139 -55t139 55t56 138t-56 138t-139 55t-139 -55t-56 -138z" />
    <glyph glyph-name="seven.lnum" 
d="M148 0l356 665h-444v35h490v-25l-360 -675h-42z" />
    <glyph glyph-name="eight.lnum" 
d="M95 531q0 76 59.5 127.5t146.5 51.5t145.5 -50.5t58.5 -126.5q0 -53 -32 -95.5t-85 -63.5q67 -20 107 -68t40 -113q0 -88 -68 -145.5t-168 -57.5q-101 0 -167.5 56.5t-66.5 144.5q0 64 40.5 112.5t106.5 69.5q-53 21 -85 63t-32 95zM105 190q0 -71 55.5 -117t139.5 -46
t139.5 46t55.5 117q0 72 -55.5 118.5t-139.5 46.5t-139.5 -46.5t-55.5 -118.5zM135 532q0 -60 47.5 -101t117.5 -41t117.5 41t47.5 101q0 59 -47.5 100t-117.5 41t-117.5 -41t-47.5 -100z" />
    <glyph glyph-name="nine.lnum" 
d="M535 481q0 -84 -53 -160l-222 -321h-47l205 288q-50 -38 -124 -38q-98 0 -163.5 66t-65.5 163q0 98 68 164.5t168 66.5t167 -65.5t67 -163.5zM495 480q0 83 -56 138t-139 55t-139 -55t-56 -138t56 -138t139 -55t139 55t56 138z" />
    <glyph glyph-name="zero.lnum" 
d="M80 219v260q0 107 61 169t160 62t159 -61t60 -168v-260q0 -107 -61 -169t-160 -62t-159 61t-60 168zM120 485v-270q0 -87 49 -137.5t131 -50.5t131 50.5t49 137.5v270q0 87 -49 137.5t-131 50.5t-131 -50.5t-49 -137.5z" />
    <glyph glyph-name="numbersign.lnum" 
d="M325 0l38 222h-170l-38 -222h-35l38 222h-118v31h123l33 194h-116v31h122l38 222h35l-38 -222h170l38 222h35l-38 -222h118v-31h-124l-33 -194h117v-31h-122l-38 -222h-35zM231 447l-33 -194h170l33 194h-170z" />
    <glyph glyph-name="cent.lnum" 
d="M338 201q33 0 63 7.5t49.5 17.5t34.5 20.5t21 17.5l7 8l27 -23q-3 -3 -8 -8.5t-23 -20t-38.5 -25.5t-54.5 -20.5t-70 -10.5v-90h-36v91q-110 10 -180 85t-70 186q0 110 70.5 186t179.5 86v92h36v-90q54 -1 101 -21.5t67 -40.5l20 -19l-25 -26q-7 8 -20 19.5t-57.5 31
t-93.5 19.5q-104 0 -171 -66.5t-67 -169.5t67 -169.5t171 -66.5z" />
    <glyph glyph-name="dollar.lnum" 
d="M465 165q0 62 -40.5 105t-130.5 81q-179 74 -179 193q0 67 50 113.5t127 51.5v91h36v-91q35 -3 66 -14.5t50 -26.5t33 -29.5t20 -24.5l6 -10l-31 -20q-2 4 -6 10t-18.5 21t-31.5 27t-46 21.5t-61 9.5q-71 0 -112.5 -36t-41.5 -87q0 -54 39.5 -94t120.5 -73
q190 -77 190 -212q0 -74 -49.5 -123t-127.5 -57v-91h-36v90q-42 2 -78.5 15.5t-59 31.5t-39 36t-23.5 31l-7 12l32 20q2 -4 6.5 -11.5t21.5 -26.5t37 -33t53.5 -26t70.5 -12q71 0 115 39t44 99z" />
    <glyph glyph-name="sterling.lnum" 
d="M525 0h-375v333h-100v34h100v122q0 103 58 162t153 59q41 0 75.5 -12t54.5 -29t34.5 -33.5t19.5 -28.5l5 -12l-34 -15q-1 4 -4 10t-15.5 22t-28 28.5t-44.5 22.5t-64 10q-77 0 -123.5 -47.5t-46.5 -130.5v-128h250v-34h-250v-298h335v-35z" />
    <glyph glyph-name="Euro.lnum" 
d="M460 251h-270v-36q0 -87 49 -137.5t131 -50.5q35 0 64 9t45 22t27.5 26t15.5 22l4 9l34 -14q-2 -5 -5 -12t-18 -26.5t-34.5 -34t-55 -26.5t-78.5 -12q-99 0 -159 61t-60 168v32h-100v33h100v132h-100v33h100v30q0 107 61 169t160 62q43 0 78 -11t55 -27t33.5 -32.5
t18.5 -27.5l4 -11l-34 -16q-1 4 -4 9.5t-15 21t-28 27t-45 21t-64 9.5q-82 0 -131 -50.5t-49 -137.5v-36h290v-33h-290v-132h270v-33z" />
    <glyph glyph-name="yen.lnum" 
d="M540 188h-220v-188h-40v188h-220v34h220v108l-5 8h-215v34h193l-213 328h49l212 -336l212 336h47l-213 -328h193v-34h-215l-5 -8v-108h220v-34z" />
    <glyph glyph-name="florin.lnum" 
d="M460 323h-231l-39 -483h-40l39 483h-139v34h142l13 162q7 92 56.5 141.5t129.5 49.5q38 0 69.5 -12t49 -29t30 -33.5t16.5 -28.5l4 -12l-34 -15q-1 4 -3 10t-12.5 22t-24 28.5t-39 22.5t-57.5 10q-63 0 -101 -38t-44 -110l-14 -168h229v-34z" />
    <glyph glyph-name="percent.lnum" horiz-adv-x="840" 
d="M157 0l485 700h41l-485 -700h-41zM50 547q0 69 47.5 116t116.5 47t115.5 -46t46.5 -115t-47.5 -116t-116.5 -47t-115.5 46t-46.5 115zM88 548q0 -55 36 -91t89 -36t89 36t36 91t-36 91t-89 36t-89 -36t-36 -91zM464 151q0 69 47.5 116t116.5 47t115.5 -46t46.5 -115
t-47.5 -116t-116.5 -47t-115.5 46t-46.5 115zM502 152q0 -55 36 -91t89 -36t89 36t36 91t-36 91t-89 36t-89 -36t-36 -91z" />
    <glyph glyph-name="perthousand.lnum" horiz-adv-x="1230" 
d="M157 0l485 700h41l-485 -700h-41zM50 547q0 69 47.5 116t116.5 47t115.5 -46t46.5 -115t-47.5 -116t-116.5 -47t-115.5 46t-46.5 115zM88 548q0 -55 36 -91t89 -36t89 36t36 91t-36 91t-89 36t-89 -36t-36 -91zM464 151q0 69 47.5 116t116.5 47t115.5 -46t46.5 -115
t-47.5 -116t-116.5 -47t-115.5 46t-46.5 115zM502 152q0 -55 36 -91t89 -36t89 36t36 91t-36 91t-89 36t-89 -36t-36 -91zM854 151q0 69 47.5 116t116.5 47t115.5 -46t46.5 -115t-47.5 -116t-116.5 -47t-115.5 46t-46.5 115zM892 152q0 -55 36 -91t89 -36t89 36t36 91
t-36 91t-89 36t-89 -36t-36 -91z" />
    <glyph glyph-name="numbersignsuperior" horiz-adv-x="382" 
d="M200 280l22 128h-90l-22 -128h-32l22 128h-65v29h70l18 106h-64v29h69l22 128h32l-22 -128h90l22 128h32l-22 -128h65v-29h-70l-18 -106h64v-29h-69l-22 -128h-32zM155 543l-18 -106h90l18 106h-90z" />
    <glyph glyph-name="centsuperior" horiz-adv-x="346" 
d="M203 425q29 0 54 10.5t35 20.5l10 10l24 -22q-4 -5 -12.5 -13.5t-38 -23t-63.5 -16.5v-54h-30v55q-62 7 -102 50.5t-40 105.5q0 60 40.5 104.5t101.5 52.5v55h30v-55q32 -1 59.5 -13t38.5 -24l12 -11l-23 -23q-4 4 -11.5 10.5t-32 17t-52.5 10.5q-55 0 -90.5 -35
t-35.5 -89q0 -53 35.5 -88t90.5 -35z" />
    <glyph glyph-name="dollarsuperior" horiz-adv-x="332" 
d="M255 379q0 34 -21.5 59t-73.5 47t-82 53t-30 68q0 40 30 67.5t77 31.5v55h30v-55q33 -4 59.5 -19.5t36.5 -29.5l10 -14l-30 -19q-3 5 -9.5 13.5t-30 22t-52.5 13.5q-40 0 -62 -18t-22 -44q0 -57 88 -94q119 -49 119 -133q0 -44 -30 -73.5t-77 -34.5v-55h-30v54
q-40 3 -71 22t-42 36l-12 18l30 19q4 -7 11 -17t35 -27t62 -17q40 0 63.5 20t23.5 51z" />
    <glyph glyph-name="sterlingsuperior" horiz-adv-x="380" 
d="M335 280h-235v195h-60v30h60v68q0 62 36.5 97.5t95.5 35.5q25 0 46.5 -7t34 -17t21.5 -20.5t12 -17.5l4 -7l-30 -14q-1 2 -2.5 5.5t-8.5 11.5t-16 14.5t-25.5 12t-36.5 5.5q-44 0 -69 -25t-25 -70v-72h147v-30h-147v-162h198v-33z" />
    <glyph glyph-name="Eurosuperior" horiz-adv-x="386" 
d="M296 425h-159v-16q0 -48 26.5 -74.5t73.5 -26.5q31 0 53 12t28 24l6 11l32 -14q-1 -3 -3.5 -7.5t-12 -16t-21.5 -20.5t-34.5 -16t-48.5 -7q-62 0 -99 36.5t-37 100.5v14h-60v30h60v70h-60v30h60v12q0 64 38 101.5t100 37.5q26 0 48 -6.5t34 -16t21 -19.5t12 -16l3 -7
l-32 -16l-2.5 5t-8 11t-15.5 14.5t-25 11.5t-36 5q-47 0 -73.5 -26.5t-26.5 -74.5v-16h171v-30h-171v-70h159v-30z" />
    <glyph glyph-name="yensuperior" horiz-adv-x="389" 
d="M357 388h-144v-108h-37v108h-144v30h144v60l-4 5h-140v30h119l-131 187h42l133 -193l130 193h44l-132 -187h120v-30h-141l-3 -5v-60h144v-30z" />
    <glyph glyph-name="florinsuperior" horiz-adv-x="371" 
d="M286 470h-136l-23 -286h-37l23 286h-83v30h85l8 91q4 56 35 85.5t82 29.5q23 0 42.5 -7t31 -17t19 -20.5t10.5 -17.5l3 -7l-32 -15q-1 2 -2.5 5.5t-7.5 12t-13.5 15t-21.5 12t-30 5.5q-34 0 -55 -19.5t-24 -57.5l-8 -95h134v-30z" />
    <glyph glyph-name="percentsuperior" horiz-adv-x="524" 
d="M98 280l291 420h37l-291 -420h-37zM40 608q0 41 29.5 69.5t70.5 28.5q42 0 71 -27.5t29 -69.5q0 -41 -29.5 -69t-71.5 -28t-70.5 27.5t-28.5 68.5zM75 609q0 -28 19.5 -46.5t45.5 -18.5t45.5 18.5t19.5 46.5t-19.5 46.5t-45.5 18.5t-45.5 -18.5t-19.5 -46.5zM284 370
q0 41 29.5 69.5t71.5 28.5t70.5 -27.5t28.5 -69.5q0 -41 -29 -69t-71 -28t-71 27.5t-29 68.5zM319 371q0 -28 19.5 -46.5t45.5 -18.5t45.5 18.5t19.5 46.5t-19.5 46.5t-45.5 18.5t-45.5 -18.5t-19.5 -46.5z" />
    <glyph glyph-name="perthousandsuperior" horiz-adv-x="762" 
d="M98 280l291 420h37l-291 -420h-37zM40 608q0 41 29.5 69.5t70.5 28.5q42 0 71 -27.5t29 -69.5q0 -41 -29.5 -69t-71.5 -28t-70.5 27.5t-28.5 68.5zM75 609q0 -28 19.5 -46.5t45.5 -18.5t45.5 18.5t19.5 46.5t-19.5 46.5t-45.5 18.5t-45.5 -18.5t-19.5 -46.5zM284 370
q0 41 29.5 69.5t70.5 28.5q42 0 71 -27.5t29 -69.5q0 -41 -29.5 -69t-71.5 -28t-70.5 27.5t-28.5 68.5zM319 371q0 -28 19.5 -46.5t45.5 -18.5t45.5 18.5t19.5 46.5t-19.5 46.5t-45.5 18.5t-45.5 -18.5t-19.5 -46.5zM522 370q0 41 29.5 69.5t70.5 28.5q42 0 71 -27.5
t29 -69.5q0 -41 -29.5 -69t-71.5 -28t-70.5 27.5t-28.5 68.5zM557 371q0 -28 19.5 -46.5t45.5 -18.5t45.5 18.5t19.5 46.5t-19.5 46.5t-45.5 18.5t-45.5 -18.5t-19.5 -46.5z" />
    <glyph glyph-name="G.ss01" horiz-adv-x="775" 
d="M675 135v165h-255v35h295v-210q-4 -5 -11 -14.5t-34 -32.5t-58 -41t-83.5 -32.5t-109.5 -14.5q-151 0 -255 104t-104 255t105 256t256 105q45 0 87.5 -10t70.5 -25t50 -29.5t32 -24.5l10 -10l-27 -27q-3 4 -9.5 10t-28 21t-45.5 27t-62.5 21.5t-78.5 9.5
q-135 0 -227.5 -93t-92.5 -230t92.5 -230t227.5 -93q49 0 93.5 11t72.5 27t49 32t31 27z" />
    <glyph glyph-name="Gbreve.ss01" horiz-adv-x="775" 
d="M675 135v165h-255v35h295v-210q-4 -5 -11 -14.5t-34 -32.5t-58 -41t-83.5 -32.5t-109.5 -14.5q-151 0 -255 104t-104 255t105 256t256 105q45 0 87.5 -10t70.5 -25t50 -29.5t32 -24.5l10 -10l-27 -27q-3 4 -9.5 10t-28 21t-45.5 27t-62.5 21.5t-78.5 9.5
q-135 0 -227.5 -93t-92.5 -230t92.5 -230t227.5 -93q49 0 93.5 11t72.5 27t49 32t31 27zM256 920h38v-5q0 -53 33 -86.5t86 -33.5t85 33t32 87v5h38v-5q0 -66 -44.5 -110.5t-111.5 -44.5t-111.5 44.5t-44.5 110.5v5z" />
    <glyph glyph-name="Gcommaaccent.ss01" horiz-adv-x="775" 
d="M675 135v165h-255v35h295v-210q-4 -5 -11 -14.5t-34 -32.5t-58 -41t-83.5 -32.5t-109.5 -14.5q-151 0 -255 104t-104 255t105 256t256 105q45 0 87.5 -10t70.5 -25t50 -29.5t32 -24.5l10 -10l-27 -27q-3 4 -9.5 10t-28 21t-45.5 27t-62.5 21.5t-78.5 9.5
q-135 0 -227.5 -93t-92.5 -230t92.5 -230t227.5 -93q49 0 93.5 11t72.5 27t49 32t31 27zM345 -210h-35l85 160h45z" />
    <glyph glyph-name="Gdotaccent.ss01" horiz-adv-x="775" 
d="M675 135v165h-255v35h295v-210q-4 -5 -11 -14.5t-34 -32.5t-58 -41t-83.5 -32.5t-109.5 -14.5q-151 0 -255 104t-104 255t105 256t256 105q45 0 87.5 -10t70.5 -25t50 -29.5t32 -24.5l10 -10l-27 -27q-3 4 -9.5 10t-28 21t-45.5 27t-62.5 21.5t-78.5 9.5
q-135 0 -227.5 -93t-92.5 -230t92.5 -230t227.5 -93q49 0 93.5 11t72.5 27t49 32t31 27zM376 835q0 14 10.5 24.5t24.5 10.5t24.5 -10.5t10.5 -24.5t-10.5 -24.5t-24.5 -10.5t-24.5 10.5t-10.5 24.5z" />
    <glyph glyph-name="Gcircumflex.ss01" horiz-adv-x="775" 
d="M675 135v165h-255v35h295v-210q-4 -5 -11 -14.5t-34 -32.5t-58 -41t-83.5 -32.5t-109.5 -14.5q-151 0 -255 104t-104 255t105 256t256 105q45 0 87.5 -10t70.5 -25t50 -29.5t32 -24.5l10 -10l-27 -27q-3 4 -9.5 10t-28 21t-45.5 27t-62.5 21.5t-78.5 9.5
q-135 0 -227.5 -93t-92.5 -230t92.5 -230t227.5 -93q49 0 93.5 11t72.5 27t49 32t31 27zM277 760h-40l155 160h40l155 -160h-42l-135 127z" />
    <glyph glyph-name="a.ss01" horiz-adv-x="660" 
d="M570 506v-506h-33l-7 119q-34 -60 -93 -94.5t-131 -34.5q-107 0 -181.5 75.5t-74.5 186.5t75.5 187.5t182.5 76.5q71 0 130 -34t92 -93l7 117h33zM535 253q0 97 -64 161.5t-159 64.5t-158.5 -64.5t-63.5 -161.5t63.5 -161.5t158.5 -64.5t159 64.5t64 161.5z" />
    <glyph glyph-name="agrave.ss01" horiz-adv-x="660" 
d="M570 506v-506h-33l-7 119q-34 -60 -93 -94.5t-131 -34.5q-107 0 -181.5 75.5t-74.5 186.5t75.5 187.5t182.5 76.5q71 0 130 -34t92 -93l7 117h33zM535 253q0 97 -64 161.5t-159 64.5t-158.5 -64.5t-63.5 -161.5t63.5 -161.5t158.5 -64.5t159 64.5t64 161.5zM351 580h-35
l-95 160h45z" />
    <glyph glyph-name="aacute.ss01" horiz-adv-x="660" 
d="M570 506v-506h-33l-7 119q-34 -60 -93 -94.5t-131 -34.5q-107 0 -181.5 75.5t-74.5 186.5t75.5 187.5t182.5 76.5q71 0 130 -34t92 -93l7 117h33zM535 253q0 97 -64 161.5t-159 64.5t-158.5 -64.5t-63.5 -161.5t63.5 -161.5t158.5 -64.5t159 64.5t64 161.5zM317 580h-35
l85 160h45z" />
    <glyph glyph-name="acircumflex.ss01" horiz-adv-x="660" 
d="M570 506v-506h-33l-7 119q-34 -60 -93 -94.5t-131 -34.5q-107 0 -181.5 75.5t-74.5 186.5t75.5 187.5t182.5 76.5q71 0 130 -34t92 -93l7 117h33zM535 253q0 97 -64 161.5t-159 64.5t-158.5 -64.5t-63.5 -161.5t63.5 -161.5t158.5 -64.5t159 64.5t64 161.5zM192 580h-40
l155 160h40l155 -160h-42l-135 127z" />
    <glyph glyph-name="atilde.ss01" horiz-adv-x="660" 
d="M570 506v-506h-33l-7 119q-34 -60 -93 -94.5t-131 -34.5q-107 0 -181.5 75.5t-74.5 186.5t75.5 187.5t182.5 76.5q71 0 130 -34t92 -93l7 117h33zM535 253q0 97 -64 161.5t-159 64.5t-158.5 -64.5t-63.5 -161.5t63.5 -161.5t158.5 -64.5t159 64.5t64 161.5zM206 609
l-37 4q0 4 1 11.5t6 26t14 32.5t27 25.5t42 11.5q29 0 52.5 -15t36 -33.5t31.5 -33.5t39 -15q21 0 33.5 19.5t14.5 39.5l3 20l37 -4q0 -4 -1 -11.5t-6.5 -26t-14 -33t-27 -26t-42.5 -11.5q-28 0 -51 15t-36.5 33.5t-32.5 33.5t-39 15t-32.5 -19.5t-15.5 -39.5z" />
    <glyph glyph-name="adieresis.ss01" horiz-adv-x="660" 
d="M570 506v-506h-33l-7 119q-34 -60 -93 -94.5t-131 -34.5q-107 0 -181.5 75.5t-74.5 186.5t75.5 187.5t182.5 76.5q71 0 130 -34t92 -93l7 117h33zM535 253q0 97 -64 161.5t-159 64.5t-158.5 -64.5t-63.5 -161.5t63.5 -161.5t158.5 -64.5t159 64.5t64 161.5zM387 655
q0 14 10.5 24.5t24.5 10.5t24.5 -10.5t10.5 -24.5t-10.5 -24.5t-24.5 -10.5t-24.5 10.5t-10.5 24.5zM197 655q0 14 10.5 24.5t24.5 10.5t24.5 -10.5t10.5 -24.5t-10.5 -24.5t-24.5 -10.5t-24.5 10.5t-10.5 24.5z" />
    <glyph glyph-name="aring.ss01" horiz-adv-x="660" 
d="M570 506v-506h-33l-7 119q-34 -60 -93 -94.5t-131 -34.5q-107 0 -181.5 75.5t-74.5 186.5t75.5 187.5t182.5 76.5q71 0 130 -34t92 -93l7 117h33zM535 253q0 97 -64 161.5t-159 64.5t-158.5 -64.5t-63.5 -161.5t63.5 -161.5t158.5 -64.5t159 64.5t64 161.5zM222 670
q0 43 30.5 71.5t74.5 28.5t74.5 -28.5t30.5 -71.5t-30.5 -71.5t-74.5 -28.5t-74.5 28.5t-30.5 71.5zM259 670q0 -29 20 -48t48 -19t48 19t20 48t-20 48t-48 19t-48 -19t-20 -48z" />
    <glyph glyph-name="abreve.ss01" horiz-adv-x="660" 
d="M570 506v-506h-33l-7 119q-34 -60 -93 -94.5t-131 -34.5q-107 0 -181.5 75.5t-74.5 186.5t75.5 187.5t182.5 76.5q71 0 130 -34t92 -93l7 117h33zM535 253q0 97 -64 161.5t-159 64.5t-158.5 -64.5t-63.5 -161.5t63.5 -161.5t158.5 -64.5t159 64.5t64 161.5zM171 740h38
v-5q0 -53 33 -86.5t86 -33.5t85 33t32 87v5h38v-5q0 -66 -44.5 -110.5t-111.5 -44.5t-111.5 44.5t-44.5 110.5v5z" />
    <glyph glyph-name="amacron.ss01" horiz-adv-x="661" 
d="M570 506v-506h-33l-7 119q-34 -60 -93 -94.5t-131 -34.5q-107 0 -181.5 75.5t-74.5 186.5t75.5 187.5t182.5 76.5q71 0 130 -34t92 -93l7 117h33zM535 253q0 97 -64 161.5t-159 64.5t-158.5 -64.5t-63.5 -161.5t63.5 -161.5t158.5 -64.5t159 64.5t64 161.5zM147 624v33
h360v-33h-360z" />
    <glyph glyph-name="aogonek.ss01" horiz-adv-x="660" 
d="M570 506v-506h-4q-29 -18 -29 -67q0 -37 27.5 -60t68.5 -23q18 0 34.5 4t24.5 8l7 5l16 -27q-28 -25 -83 -25q-58 0 -95 31.5t-37 80.5q0 51 36 82l-6 110q-34 -60 -93 -94.5t-131 -34.5q-107 0 -181.5 75.5t-74.5 186.5t75.5 187.5t182.5 76.5q71 0 130 -34t92 -93
l7 117h33zM535 253q0 97 -64 161.5t-159 64.5t-158.5 -64.5t-63.5 -161.5t63.5 -161.5t158.5 -64.5t159 64.5t64 161.5z" />
    <glyph glyph-name="aringacute.ss01" horiz-adv-x="660" 
d="M222 587q0 43 30.5 71.5t74.5 28.5q3 0 8 -0.5t8 -0.5l44 84h45l-57 -94q57 -27 57 -89q0 -55 -45 -83q93 -29 143 -115l7 117h33v-506h-33l-7 119q-34 -60 -93 -94.5t-131 -34.5q-107 0 -181.5 75.5t-74.5 186.5q0 96 58.5 168.5t148.5 90.5q-35 29 -35 76zM535 253
q0 97 -64 161.5t-159 64.5t-158.5 -64.5t-63.5 -161.5t63.5 -161.5t158.5 -64.5t159 64.5t64 161.5zM259 587q0 -29 20 -48t48 -19t48 19t20 48t-20 48t-48 19t-48 -19t-20 -48z" />
    <glyph glyph-name="K.ss01" horiz-adv-x="695" 
d="M641 0l-340 368l-151 -133v-235h-40v700h40v-420l468 420h57l-347 -307l367 -393h-54z" />
    <glyph glyph-name="Kcommaaccent.ss01" horiz-adv-x="695" 
d="M641 0l-340 368l-151 -133v-235h-40v700h40v-420l468 420h57l-347 -307l367 -393h-54zM305 -210h-35l85 160h45z" />
    <glyph glyph-name="k.ss01" horiz-adv-x="580" 
d="M525 0l-258 280l-137 -102v-178h-40v700h40v-476l376 282h64l-272 -203l282 -303h-55z" />
    <glyph glyph-name="kcommaaccent.ss01" horiz-adv-x="550" 
d="M525 0l-258 280l-137 -102v-178h-40v700h40v-476l376 282h64l-272 -203l282 -303h-55zM245 -210h-35l85 160h45z" />
    <glyph glyph-name="Sarcasm" horiz-adv-x="528" 
d="M229 25q0 14 10.5 24.5t24.5 10.5t24.5 -10.5t10.5 -24.5t-10.5 -24.5t-24.5 -10.5t-24.5 10.5t-10.5 24.5zM206 197l-146 500l48 13l123 -506zM468 697l-146 -500l-25 7l123 506z" />
    </font>
</defs>
</svg>
