<?xml version="1.0" standalone="no"?>
<!DOCTYPE svg PUBLIC "-//W3C//DTD SVG 1.1//EN" "http://www.w3.org/Graphics/SVG/1.1/DTD/svg11.dtd" >
<svg xmlns="http://www.w3.org/2000/svg" xmlns:xlink="http://www.w3.org/1999/xlink" version="1.1">
<metadata>
Created by FontForge 20170731 at Sun Mar  1 19:24:09 2015
 By Aleksey,,,
Copyright (c) 2014 by Richard Miller. All rights reserved.
</metadata>
<defs>
<font id="Uniform-ExtraCondensed5" horiz-adv-x="430" >
  <font-face 
    font-family="Uniform ExtCond 2"
    font-weight="400"
    font-stretch="extra-condensed"
    units-per-em="1000"
    panose-1="2 0 0 0 0 0 0 0 0 0"
    ascent="811"
    descent="-189"
    x-height="520"
    cap-height="700"
    bbox="-190 -220 890 920"
    underline-thickness="50"
    underline-position="-150"
    unicode-range="U+0020-FB02"
  />
<missing-glyph horiz-adv-x="691" 
d="M20 0v700h651v-700h-651zM381 350l159 158l-36 36l-159 -158l-158 159l-36 -36l158 -159l-159 -159l36 -36l159 159l159 -159l36 36z" />
    <glyph glyph-name="ellipsis" unicode="&#x2e;&#x2e;&#x2e;" horiz-adv-x="790" 
d="M35 75q0 35 25 60t60 25t60 -25t25 -60t-25 -60t-60 -25t-60 25t-25 60zM310 75q0 35 25 60t60 25t60 -25t25 -60t-25 -60t-60 -25t-60 25t-25 60zM585 75q0 35 25 60t60 25t60 -25t25 -60t-25 -60t-60 -25t-60 25t-25 60z" />
    <glyph glyph-name="ff" unicode="ff" horiz-adv-x="535" 
d="M10 405v115h50v57q0 66 37.5 99.5t102.5 33.5q17 0 34.5 -2t26.5 -4l9 -1v-120q-19 2 -33 2q-20 0 -28.5 -9t-8.5 -31v-25h70v-115h-70v-405h-140v405h-50zM520 703v-120q-19 2 -33 2q-20 0 -28.5 -9t-8.5 -31v-25h70v-115h-70v-405h-140v572q0 68 39 103t106 35
q17 0 33.5 -2t23.5 -4z" />
    <glyph glyph-name="ft" unicode="ft" horiz-adv-x="545" 
d="M10 405v115h50v57q0 66 37.5 99.5t102.5 33.5q17 0 34.5 -2t26.5 -4l9 -1v-120q-19 2 -33 2q-20 0 -28.5 -9t-8.5 -31v-25h70v-115h-70v-405h-140v405h-50zM520 122v-125q-32 -7 -70 -7q-65 0 -102.5 33.5t-37.5 99.5v517h140v-120h75v-115h-75v-245q0 -22 8.5 -31
t28.5 -9z" />
    <glyph glyph-name="rf" unicode="rf" horiz-adv-x="542" 
d="M527 703v-120q-19 2 -33 2q-20 0 -28.5 -9t-8.5 -31v-25h70v-115h-70v-405h-140v572q0 68 39 103t106 35q17 0 33.5 -2t24.5 -4zM35 0v520h120l8 -77q30 87 114 87v-165h-31q-36 0 -53 -15.5t-18 -50.5v-299h-140z" />
    <glyph glyph-name="rt" unicode="rt" horiz-adv-x="552" 
d="M527 122v-125q-32 -7 -70 -7q-65 0 -102.5 33.5t-37.5 99.5v517h140v-120h75v-115h-75v-245q0 -22 8.5 -31t28.5 -9zM35 0v520h120l8 -77q30 87 114 87v-165h-31q-36 0 -53 -15.5t-18 -50.5v-299h-140z" />
    <glyph glyph-name="tf" unicode="tf" horiz-adv-x="540" 
d="M525 703v-120q-19 2 -33 2q-20 0 -28.5 -9t-8.5 -31v-25h70v-115h-70v-405h-140v572q0 68 39 103t106 35q17 0 33.5 -2t24.5 -4zM10 405v115h50v120h140v-120h75v-115h-75v-245q0 -22 8.5 -31t28.5 -9l33 2v-125q-32 -7 -70 -7q-65 0 -102.5 33.5t-37.5 99.5v282h-50z
" />
    <glyph glyph-name="tt" unicode="tt" horiz-adv-x="550" 
d="M10 405v115h50v120h140v-120h75v-115h-75v-245q0 -22 8.5 -31t28.5 -9l33 2v-125q-32 -7 -70 -7q-65 0 -102.5 33.5t-37.5 99.5v282h-50zM525 122v-125q-32 -7 -70 -7q-65 0 -102.5 33.5t-37.5 99.5v517h140v-120h75v-115h-75v-245q0 -22 8.5 -31t28.5 -9z" />
    <glyph glyph-name="rtf" unicode="rtf" horiz-adv-x="797" 
d="M782 703v-120q-19 2 -33 2q-20 0 -28.5 -9t-8.5 -31v-25h70v-115h-70v-405h-140v572q0 68 39 103t106 35q17 0 33.5 -2t23.5 -4zM527 122v-125q-32 -7 -70 -7q-65 0 -102.5 33.5t-37.5 99.5v517h140v-120h75v-115h-75v-245q0 -22 8.5 -31t28.5 -9zM35 0v520h120l8 -77
q30 87 114 87v-165h-31q-36 0 -53 -15.5t-18 -50.5v-299h-140z" />
    <glyph glyph-name=".notdef" horiz-adv-x="691" 
d="M20 0v700h651v-700h-651zM381 350l159 158l-36 36l-159 -158l-158 159l-36 -36l158 -159l-159 -159l36 -36l159 159l159 -159l36 36z" />
    <glyph glyph-name=".null" horiz-adv-x="0" 
 />
    <glyph glyph-name="nonmarkingreturn" horiz-adv-x="333" 
 />
    <glyph glyph-name="space" unicode=" " horiz-adv-x="222" 
 />
    <glyph glyph-name="exclam" unicode="!" horiz-adv-x="240" 
d="M70 230l-30 470h160l-30 -470h-100zM35 75q0 35 25 60t60 25t60 -25t25 -60t-25 -60t-60 -25t-60 25t-25 60z" />
    <glyph glyph-name="quotedbl" unicode="&#x22;" horiz-adv-x="380" 
d="M160 410h-120v290h120v-290zM340 410h-120v290h120v-290z" />
    <glyph glyph-name="numbersign" unicode="#" horiz-adv-x="410" 
d="M209 0l12 150h-58l-12 -150h-91l12 150h-52v85h59l11 130h-55v85h62l13 150h91l-13 -150h58l13 150h91l-13 -150h53v-85h-60l-11 -130h56v-85h-63l-12 -150h-91zM181 365l-11 -130h58l11 130h-58z" />
    <glyph glyph-name="dollar" unicode="$" horiz-adv-x="395" 
d="M162 225v-59q0 -43 33 -43q15 0 24 10.5t9 28.5q0 67 -86 152q-112 111 -112 224q0 64 34.5 106.5t90.5 55.5v80h84v-78q57 -10 91.5 -50.5t34.5 -104.5v-57h-137v49q0 38 -28 38t-28 -34q0 -56 88 -144q110 -111 110 -232q0 -66 -36 -110t-95 -57v-80h-84v78
q-59 10 -94.5 51.5t-35.5 108.5v67h137z" />
    <glyph glyph-name="percent" unicode="%" horiz-adv-x="560" 
d="M50 0l370 600h90l-370 -600h-90zM20 478q0 57 39 94.5t96 37.5t95 -36.5t38 -93.5t-39 -94.5t-96 -37.5t-95 36.5t-38 93.5zM117 479q0 -17 10.5 -28t26.5 -11t26.5 11t10.5 28t-10.5 28t-26.5 11t-26.5 -11t-10.5 -28zM272 120q0 57 39 94.5t96 37.5t95 -36.5t38 -93.5
t-39 -94.5t-96 -37.5t-95 36.5t-38 93.5zM369 121q0 -17 10.5 -28t26.5 -11t26.5 11t10.5 28t-10.5 28t-26.5 11t-26.5 -11t-10.5 -28z" />
    <glyph glyph-name="ampersand" unicode="&#x26;" horiz-adv-x="515" 
d="M377 556q0 -82 -98 -186l55 -87l56 117h125l-111 -226l111 -174h-145l-36 55q-53 -65 -139 -65q-77 0 -126 47.5t-49 125.5q0 55 25 107t78 115q-32 51 -45 86.5t-13 80.5q0 71 46 114.5t112 43.5t110 -41.5t44 -112.5zM215 120q32 0 56 35l-77 120q-34 -50 -34 -90
q0 -65 55 -65zM195 555q0 -46 21 -87q41 47 41 87t-31 40t-31 -40z" />
    <glyph glyph-name="quotesingle" unicode="'" horiz-adv-x="200" 
d="M160 410h-120v290h120v-290z" />
    <glyph glyph-name="parenleft" unicode="(" horiz-adv-x="300" 
d="M170 350q0 -64 12.5 -126t30 -105t35 -77t30.5 -50l12 -17l-101 -75q-6 6 -17 18.5t-38.5 55t-48.5 90.5t-38 125t-17 158t16.5 158t40 128t46.5 90.5t39 58.5l17 18l101 -75q-5 -6 -13 -17.5t-28.5 -49t-36.5 -78t-29 -103.5t-13 -127z" />
    <glyph glyph-name="parenright" unicode=")" horiz-adv-x="300" 
d="M130 350q0 64 -12.5 126t-30 105t-35 77t-30.5 50l-12 17l101 75q6 -6 17 -18.5t38.5 -55t48.5 -90.5t38 -125t17 -158t-16.5 -158t-40 -128t-46.5 -90.5t-39 -58.5l-17 -18l-101 75q5 6 13 17.5t28.5 49t36.5 78t29 103.5t13 127z" />
    <glyph glyph-name="asterisk" unicode="*" horiz-adv-x="384" 
d="M244 700l-11 -108l99 44l32 -98l-106 -24l72 -80l-84 -61l-54 94l-54 -94l-84 61l71 80l-105 24l32 98l99 -44l-11 108h104z" />
    <glyph glyph-name="plus" unicode="+" horiz-adv-x="410" 
d="M150 160v140h-120v110h120v140h110v-140h120v-110h-120v-140h-110z" />
    <glyph glyph-name="comma" unicode="," horiz-adv-x="235" 
d="M145 -130h-110l10 290h155z" />
    <glyph glyph-name="hyphen" unicode="-" horiz-adv-x="300" 
d="M270 290h-240v130h240v-130z" />
    <glyph glyph-name="period" unicode="." horiz-adv-x="240" 
d="M35 75q0 35 25 60t60 25t60 -25t25 -60t-25 -60t-60 -25t-60 25t-25 60z" />
    <glyph glyph-name="slash" unicode="/" horiz-adv-x="400" 
d="M0 -80l280 860h120l-280 -860h-120z" />
    <glyph glyph-name="zero" unicode="0" horiz-adv-x="410" 
d="M30 158v380q0 75 52.5 123.5t124.5 48.5t122.5 -46.5t50.5 -121.5v-380q0 -75 -52.5 -123.5t-124.5 -48.5t-122.5 46.5t-50.5 121.5zM172 532v-364q0 -40 33 -40t33 40v364q0 40 -33 40t-33 -40z" />
    <glyph glyph-name="one" unicode="1" horiz-adv-x="360" 
d="M5 559l183 141h122v-700h-142v531l-93 -67z" />
    <glyph glyph-name="two" unicode="2" horiz-adv-x="390" 
d="M365 0h-340v103l175 332q23 42 23 92q0 45 -31 45q-30 0 -30 -45v-67h-137v78q0 74 51 123t121 49q71 0 119.5 -47t48.5 -122t-50 -166l-132 -242h182v-133z" />
    <glyph glyph-name="three" unicode="3" horiz-adv-x="395" 
d="M197 710q69 0 117 -44.5t48 -115.5v-78q0 -66 -44 -112q52 -47 52 -123v-75q0 -75 -51.5 -123.5t-125.5 -48.5q-71 0 -119.5 46.5t-48.5 121.5v77h137v-72q0 -40 33 -40t33 40v97q0 40 -33 40h-45v115h45q25 0 25 32v98q0 32 -25 32t-25 -32v-65h-137v66q0 71 48.5 117.5
t115.5 46.5z" />
    <glyph glyph-name="four" unicode="4" horiz-adv-x="410" 
d="M207 0v150h-187v120l180 430h135v-435h55v-115h-55v-150h-128zM131 265h76v204z" />
    <glyph glyph-name="five" unicode="5" horiz-adv-x="399" 
d="M40 305v395h314v-133h-187v-115q30 28 72 28q55 0 92.5 -37.5t37.5 -97.5v-186q0 -72 -52 -120.5t-122 -48.5q-67 0 -116 45t-49 115v80h137v-65q0 -17 8.5 -27t21.5 -10t21.5 10t8.5 27v155q0 17 -8.5 27t-21.5 10t-21.5 -10t-8.5 -27v-15h-127z" />
    <glyph glyph-name="six" unicode="6" horiz-adv-x="410" 
d="M27 160v91q0 118 38 209l93 240h142l-101 -250q18 10 38 10q70 0 108 -43t38 -117v-136q0 -75 -53.5 -124.5t-126.5 -49.5t-124.5 47.5t-51.5 122.5zM169 297v-129q0 -18 10 -29t26 -11t26 11t10 29v129q0 18 -10 29t-26 11t-26 -11t-10 -29z" />
    <glyph glyph-name="seven" unicode="7" horiz-adv-x="360" 
d="M40 0l152 562h-172v138h320v-108l-155 -592h-145z" />
    <glyph glyph-name="eight" unicode="8" horiz-adv-x="410" 
d="M33 489v52q0 74 51.5 121.5t122.5 47.5t120.5 -45.5t49.5 -119.5v-52q0 -70 -50 -120q58 -50 58 -130v-76q0 -77 -53 -127t-129 -50t-127 48t-51 125v76q0 81 57 131q-49 46 -49 119zM167 271v-108q0 -45 38 -45t38 45v108q0 45 -38 45t-38 -45zM175 545v-84
q0 -37 30 -37t30 37v84q0 37 -30 37t-30 -37z" />
    <glyph glyph-name="nine" unicode="9" horiz-adv-x="410" 
d="M383 540v-91q0 -118 -38 -209l-93 -240h-142l101 249q-17 -9 -38 -9q-70 0 -108 43t-38 117v136q0 75 53.5 124.5t126.5 49.5t124.5 -47.5t51.5 -122.5zM241 403v129q0 18 -10 29t-26 11t-26 -11t-10 -29v-129q0 -18 10 -29t26 -11t26 11t10 29z" />
    <glyph glyph-name="colon" unicode=":" horiz-adv-x="240" 
d="M35 75q0 35 25 60t60 25t60 -25t25 -60t-25 -60t-60 -25t-60 25t-25 60zM35 445q0 35 25 60t60 25t60 -25t25 -60t-25 -60t-60 -25t-60 25t-25 60z" />
    <glyph glyph-name="semicolon" unicode=";" horiz-adv-x="240" 
d="M145 -130h-110l10 290h155zM35 445q0 35 25 60t60 25t60 -25t25 -60t-25 -60t-60 -25t-60 25t-25 60z" />
    <glyph glyph-name="less" unicode="&#x3c;" horiz-adv-x="410" 
d="M30 420l350 185v-138l-233 -110l233 -109v-143l-350 185v130z" />
    <glyph glyph-name="equal" unicode="=" horiz-adv-x="410" 
d="M380 190h-350v115h350v-115zM380 385h-350v115h350v-115z" />
    <glyph glyph-name="greater" unicode="&#x3e;" horiz-adv-x="410" 
d="M30 243l232 109l-232 110v143l350 -185v-130l-350 -185v138z" />
    <glyph glyph-name="question" unicode="?" horiz-adv-x="385" 
d="M197 710q71 0 119.5 -47t48.5 -122q0 -47 -16.5 -90.5t-36.5 -70.5t-36.5 -62t-16.5 -68v-20h-128v30q0 46 23 91.5t46 89.5t23 86q0 45 -31 45q-30 0 -30 -45v-57h-137v58q0 82 50.5 132t121.5 50zM110 75q0 35 25 60t60 25t60 -25t25 -60t-25 -60t-60 -25t-60 25
t-25 60z" />
    <glyph glyph-name="at" unicode="@" horiz-adv-x="896" 
d="M499 -45l16 -91q-16 -8 -69 -8q-186 0 -306 120t-120 300q0 183 123 308.5t307 125.5q185 0 305.5 -123t120.5 -307q0 -137 -72 -225t-183 -88q-77 0 -119.5 39.5t-46.5 105.5q-29 -37 -82 -37q-48 0 -74 31t-19 83l28 195q7 52 38 80.5t77 28.5q55 0 77 -42l9 34h96
l7 -12l-44 -313q-7 -45 10 -69.5t52 -24.5q57 0 99.5 57.5t42.5 145.5q0 156 -89 248.5t-235 92.5q-139 0 -231.5 -96t-92.5 -236q0 -138 92 -232.5t232 -94.5zM453 201l23 164q3 28 -22 28q-23 0 -28 -26l-23 -164q-3 -28 22 -28q23 0 28 26z" />
    <glyph glyph-name="A" unicode="A" horiz-adv-x="415" 
d="M280 700l135 -700h-155l-15 115h-85l-15 -115h-145l135 700h145zM229 235l-27 202l-26 -202h53z" />
    <glyph glyph-name="B" unicode="B" 
d="M40 0v700h187q79 0 126 -43.5t47 -124.5v-25q0 -95 -66 -140q76 -42 76 -145v-50q0 -81 -49 -126.5t-128 -45.5h-193zM190 300v-175h25q45 0 45 50v75q0 50 -45 50h-25zM190 575v-160h15q45 0 45 50v60q0 50 -45 50h-15z" />
    <glyph glyph-name="C" unicode="C" horiz-adv-x="415" 
d="M385 435h-145v100q0 35 -30 35t-30 -35v-370q0 -35 30 -35t30 35v110h145v-113q0 -77 -51.5 -124.5t-125.5 -47.5q-76 0 -127 47t-51 126v370q0 79 53 128t129 49q74 0 123.5 -45.5t49.5 -122.5v-107z" />
    <glyph glyph-name="D" unicode="D" horiz-adv-x="435" 
d="M40 0v700h182q86 0 134.5 -45t48.5 -133v-340q0 -88 -50.5 -135t-136.5 -47h-178zM190 560v-420h20q45 0 45 50v320q0 50 -45 50h-20z" />
    <glyph glyph-name="E" unicode="E" horiz-adv-x="355" 
d="M335 0h-295v700h290v-150h-140v-123h110v-140h-110v-137h145v-150z" />
    <glyph glyph-name="F" unicode="F" horiz-adv-x="335" 
d="M295 252h-105v-252h-150v700h285v-150h-135v-153h105v-145z" />
    <glyph glyph-name="G" unicode="G" 
d="M215 270v115h185v-213q0 -81 -54 -131.5t-133 -50.5t-131 48.5t-52 129.5v360q0 81 54 131.5t133 50.5t131 -48.5t52 -129.5v-87h-150v85q0 40 -35 40t-35 -40v-363q0 -42 37 -42q17 0 27.5 11.5t10.5 30.5v103h-40z" />
    <glyph glyph-name="H" unicode="H" horiz-adv-x="445" 
d="M255 0v285h-65v-285h-150v700h150v-265h65v265h150v-700h-150z" />
    <glyph glyph-name="I" unicode="I" horiz-adv-x="243" 
d="M45 0v700h153v-700h-153z" />
    <glyph glyph-name="J" unicode="J" horiz-adv-x="261" 
d="M10 -6v142q8 -1 18 -1q24 0 34.5 12t10.5 38v515h153v-548q0 -79 -45.5 -120.5t-115.5 -41.5z" />
    <glyph glyph-name="K" unicode="K" horiz-adv-x="445" 
d="M280 0l-90 324v-324h-150v700h150v-302l80 302h165l-110 -330l120 -370h-165z" />
    <glyph glyph-name="L" unicode="L" horiz-adv-x="325" 
d="M315 0h-275v700h150v-550h125v-150z" />
    <glyph glyph-name="M" unicode="M" horiz-adv-x="560" 
d="M247 100l-70 267v-367h-137v700h150l95 -358l95 358h140v-700h-137v367l-70 -267h-66z" />
    <glyph glyph-name="N" unicode="N" horiz-adv-x="455" 
d="M285 0l-115 374v-374h-130v700h140l105 -342v342h130v-700h-130z" />
    <glyph glyph-name="O" unicode="O" 
d="M30 168v360q0 81 54 131.5t133 50.5t131 -48.5t52 -129.5v-360q0 -81 -54 -131.5t-133 -50.5t-131 48.5t-52 129.5zM180 530v-360q0 -40 35 -40t35 40v360q0 40 -35 40t-35 -40z" />
    <glyph glyph-name="P" unicode="P" horiz-adv-x="425" 
d="M40 0v700h172q92 0 142.5 -46.5t50.5 -141.5v-85q0 -95 -52.5 -143.5t-144.5 -48.5h-18v-235h-150zM190 560v-190h20q45 0 45 50v90q0 50 -45 50h-20z" />
    <glyph glyph-name="Q" unicode="Q" 
d="M250 -120l-29 110h-8q-79 0 -131 48.5t-52 129.5v360q0 81 54 131.5t133 50.5t131 -48.5t52 -129.5v-360q0 -85 -60 -137l48 -155h-138zM180 530v-360q0 -40 35 -40t35 40v360q0 40 -35 40t-35 -40z" />
    <glyph glyph-name="R" unicode="R" horiz-adv-x="435" 
d="M40 0v700h172q92 0 142.5 -46.5t50.5 -141.5v-80q0 -88 -56 -128l86 -304h-155l-62 255h-28v-255h-150zM190 560v-180h20q45 0 45 50v80q0 50 -45 50h-20z" />
    <glyph glyph-name="S" unicode="S" horiz-adv-x="405" 
d="M165 225v-55q0 -45 35 -45q16 0 25.5 11.5t9.5 29.5q0 30 -18 60t-77 87q-115 112 -115 220q0 79 53 128t129 49q74 0 123.5 -45.5t49.5 -122.5v-52h-145v45q0 40 -30 40t-30 -36q0 -25 18.5 -54t76.5 -85q60 -58 87.5 -112t27.5 -116q0 -81 -54 -131.5t-133 -50.5
q-76 0 -127 47t-51 126v62h145z" />
    <glyph glyph-name="T" unicode="T" horiz-adv-x="370" 
d="M360 550h-100v-550h-150v550h-100v150h350v-150z" />
    <glyph glyph-name="U" unicode="U" 
d="M35 700h151v-535q0 -35 30 -35t30 35v535h149v-533q0 -79 -53 -128t-129 -49t-127 47t-51 126v537z" />
    <glyph glyph-name="V" unicode="V" horiz-adv-x="405" 
d="M130 0l-130 700h160l47 -382l48 382h150l-130 -700h-145z" />
    <glyph glyph-name="W" unicode="W" horiz-adv-x="580" 
d="M332 0l-42 323l-42 -323h-133l-115 700h160l33 -375l44 375h116l44 -375l33 375h150l-115 -700h-133z" />
    <glyph glyph-name="X" unicode="X" horiz-adv-x="435" 
d="M425 700l-127 -334l137 -366h-165l-55 197l-55 -197h-160l136 360l-126 340h165l44 -170l46 170h160z" />
    <glyph glyph-name="Y" unicode="Y" horiz-adv-x="395" 
d="M122 0v250l-122 450h160l42 -250l43 250h150l-123 -450v-250h-150z" />
    <glyph glyph-name="Z" unicode="Z" horiz-adv-x="370" 
d="M350 0h-330v120l170 440h-155v140h315v-120l-170 -440h170v-140z" />
    <glyph glyph-name="bracketleft" unicode="[" horiz-adv-x="325" 
d="M305 -80h-255v860h255v-125h-115v-610h115v-125z" />
    <glyph glyph-name="backslash" unicode="\" horiz-adv-x="400" 
d="M120 780l280 -860h-120l-280 860h120z" />
    <glyph glyph-name="bracketright" unicode="]" horiz-adv-x="325" 
d="M275 -80h-255v125h115v610h-115v125h255v-860z" />
    <glyph glyph-name="asciicircum" unicode="^" horiz-adv-x="425" 
d="M275 700l130 -340h-142l-49 185l-49 -185h-145l130 340h125z" />
    <glyph glyph-name="underscore" unicode="_" horiz-adv-x="400" 
d="M400 -150h-400v100h400v-100z" />
    <glyph glyph-name="grave" unicode="`" horiz-adv-x="370" 
d="M235 740l40 -170h-105l-80 170h145z" />
    <glyph glyph-name="a" unicode="a" horiz-adv-x="400" 
d="M370 0h-120l-5 46q-31 -56 -97 -56q-58 0 -93 39t-35 109v20q0 70 37 111t95 41q49 0 78 -31v101q0 30 -27 30t-27 -30v-35h-135v23q0 70 48.5 116t115.5 46q69 0 117 -44t48 -114v-372zM230 140v30q0 40 -35 40t-35 -40v-30q0 -40 35 -40t35 40z" />
    <glyph glyph-name="b" unicode="b" horiz-adv-x="404" 
d="M35 0v700h140v-203q30 33 79 33q56 0 90.5 -37.5t34.5 -105.5v-250q0 -68 -36.5 -107.5t-92.5 -39.5q-64 0 -91 50l-4 -40h-120zM175 365v-210q0 -16 9 -25.5t23 -9.5t23 9.5t9 25.5v210q0 16 -9 25.5t-23 9.5t-23 -9.5t-9 -25.5z" />
    <glyph glyph-name="c" unicode="c" horiz-adv-x="381" 
d="M221 225h135v-72q0 -71 -48.5 -117t-116.5 -46q-70 0 -118 44t-48 115v218q0 71 50 117t120 46q68 0 114.5 -44t46.5 -115v-71h-135v69q0 31 -28 31t-28 -31v-218q0 -31 28 -31t28 31v74z" />
    <glyph glyph-name="d" unicode="d" horiz-adv-x="404" 
d="M369 700v-700h-120l-5 44q-29 -54 -94 -54q-56 0 -90.5 37.5t-34.5 105.5v250q0 68 36.5 107.5t92.5 39.5q48 0 75 -29v199h140zM229 155v210q0 16 -9 25.5t-23 9.5t-23 -9.5t-9 -25.5v-210q0 -16 9 -25.5t23 -9.5t23 9.5t9 25.5z" />
    <glyph glyph-name="e" unicode="e" horiz-adv-x="384" 
d="M359 235h-194v-80q0 -16 9 -25.5t23 -9.5t23 9.5t9 25.5v40h130v-43q0 -70 -50 -116t-119 -46t-117 44t-48 114v220q0 70 50 116t119 46t117 -44t48 -114v-137zM165 380v-55h64v55q0 16 -9 25.5t-23 9.5t-23 -9.5t-9 -25.5z" />
    <glyph glyph-name="f" unicode="f" horiz-adv-x="285" 
d="M10 405v115h50v57q0 66 37.5 99.5t102.5 33.5q17 0 34.5 -2t26.5 -4l9 -1v-120q-19 2 -33 2q-20 0 -28.5 -9t-8.5 -31v-25h70v-115h-70v-405h-140v405h-50z" />
    <glyph glyph-name="g" unicode="g" horiz-adv-x="404" 
d="M154 530q63 0 90 -50l5 40h120v-523q0 -73 -51 -120t-123 -47q-69 0 -117 45t-48 118v22h135v-30q0 -16 9 -25.5t23 -9.5t23 9.5t9 25.5v97q-29 -32 -79 -32q-56 0 -90.5 37.5t-34.5 105.5v190q0 68 36.5 107.5t92.5 39.5zM229 205v160q0 16 -9 25.5t-23 9.5t-23 -9.5
t-9 -25.5v-160q0 -16 9 -25.5t23 -9.5t23 9.5t9 25.5z" />
    <glyph glyph-name="h" unicode="h" horiz-adv-x="405" 
d="M175 367v-367h-140v700h140v-225q30 55 87 55q52 0 82.5 -35.5t30.5 -107.5v-387h-140v367q0 33 -29 33q-31 0 -31 -33z" />
    <glyph glyph-name="i" unicode="i" horiz-adv-x="222" 
d="M40 0v520h142v-520h-142zM26 645q0 35 25 60t60 25t60 -25t25 -60t-25 -60t-60 -25t-60 25t-25 60z" />
    <glyph glyph-name="j" unicode="j" horiz-adv-x="222" 
d="M-5 -164v120q9 -1 18 -1q27 0 27 30v535h142v-552q0 -65 -37 -101.5t-95 -36.5q-16 0 -29.5 1.5t-19.5 2.5zM26 645q0 35 25 60t60 25t60 -25t25 -60t-25 -60t-60 -25t-60 25t-25 60z" />
    <glyph glyph-name="k" unicode="k" horiz-adv-x="405" 
d="M35 0v700h140v-396l75 216h155l-105 -235l115 -285h-160l-80 244v-244h-140z" />
    <glyph glyph-name="l" unicode="l" horiz-adv-x="222" 
d="M40 0v700h142v-700h-142z" />
    <glyph glyph-name="m" unicode="m" horiz-adv-x="593" 
d="M175 367v-367h-140v520h120l6 -53q29 63 98 63q70 0 96 -63q29 63 98 63q51 0 80.5 -35.5t29.5 -107.5v-387h-140v367q0 33 -26 33q-28 0 -28 -33v-367h-140v367q0 33 -26 33q-28 0 -28 -33z" />
    <glyph glyph-name="n" unicode="n" horiz-adv-x="405" 
d="M175 367v-367h-140v520h120l6 -54q30 64 101 64q52 0 82.5 -35.5t30.5 -107.5v-387h-140v367q0 33 -29 33q-31 0 -31 -33z" />
    <glyph glyph-name="o" unicode="o" horiz-adv-x="394" 
d="M25 153v210q0 73 51 120t123 47t121 -45t49 -118v-210q0 -73 -51 -120t-123 -47t-121 45t-49 118zM165 365v-210q0 -16 9 -25.5t23 -9.5t23 9.5t9 25.5v210q0 16 -9 25.5t-23 9.5t-23 -9.5t-9 -25.5z" />
    <glyph glyph-name="p" unicode="p" horiz-adv-x="404" 
d="M35 -160v680h120l5 -45q29 55 94 55q56 0 90.5 -37.5t34.5 -105.5v-250q0 -68 -36.5 -107.5t-92.5 -39.5q-47 0 -75 28v-178h-140zM175 365v-210q0 -16 9 -25.5t23 -9.5t23 9.5t9 25.5v210q0 16 -9 25.5t-23 9.5t-23 -9.5t-9 -25.5z" />
    <glyph glyph-name="q" unicode="q" horiz-adv-x="404" 
d="M369 520v-680h-140v182q-29 -32 -79 -32q-56 0 -90.5 37.5t-34.5 105.5v250q0 68 36.5 107.5t92.5 39.5q63 0 90 -50l5 40h120zM229 155v210q0 16 -9 25.5t-23 9.5t-23 -9.5t-9 -25.5v-210q0 -16 9 -25.5t23 -9.5t23 9.5t9 25.5z" />
    <glyph glyph-name="r" unicode="r" horiz-adv-x="287" 
d="M35 0v520h120l8 -77q30 87 114 87v-165h-31q-36 0 -53 -15.5t-18 -50.5v-299h-140z" />
    <glyph glyph-name="s" unicode="s" horiz-adv-x="379" 
d="M219 355v20q0 35 -27 35t-27 -25q0 -16 15 -30t62 -38q117 -60 117 -165q0 -69 -49.5 -115.5t-119.5 -46.5q-72 0 -121 45t-49 118v22h135v-25q0 -19 9 -29.5t23 -10.5t23 9.5t9 25.5q0 18 -15 32.5t-66 40.5q-56 30 -84.5 68.5t-28.5 96.5q0 62 48 104.5t116 42.5
q69 0 117 -44t48 -114v-17h-135z" />
    <glyph glyph-name="t" unicode="t" horiz-adv-x="295" 
d="M10 405v115h50v120h140v-120h75v-115h-75v-245q0 -22 8.5 -31t28.5 -9l33 2v-125q-32 -7 -70 -7q-65 0 -102.5 33.5t-37.5 99.5v282h-50z" />
    <glyph glyph-name="u" unicode="u" horiz-adv-x="405" 
d="M230 153v367h140v-520h-120l-6 54q-30 -64 -101 -64q-52 0 -82.5 35.5t-30.5 107.5v387h140v-367q0 -33 29 -33q31 0 31 33z" />
    <glyph glyph-name="v" unicode="v" horiz-adv-x="360" 
d="M360 520l-115 -520h-130l-115 520h145l40 -297l40 297h135z" />
    <glyph glyph-name="w" unicode="w" horiz-adv-x="515" 
d="M291 0l-34 256l-33 -256h-119l-105 520h145l28 -266l39 266h101l39 -266l28 266h135l-105 -520h-119z" />
    <glyph glyph-name="x" unicode="x" horiz-adv-x="405" 
d="M395 520l-121 -248l131 -272h-146l-58 146l-59 -146h-142l130 268l-120 252h146l48 -126l49 126h142z" />
    <glyph glyph-name="y" unicode="y" horiz-adv-x="360" 
d="M115 0l-115 520h145l40 -320l40 320h135l-118 -532q-35 -158 -157 -158q-21 0 -37 2t-22 4l-6 3v110q14 -4 35 -4q51 0 60 55z" />
    <glyph glyph-name="z" unicode="z" horiz-adv-x="340" 
d="M20 100l150 300h-135v120h285v-100l-150 -300h150v-120h-300v100z" />
    <glyph glyph-name="braceleft" unicode="{" horiz-adv-x="355" 
d="M240 230v-140q0 -26 12 -38t38 -12h45v-120h-55q-94 0 -137 43t-43 137v148q0 40 -40 40h-40v124h40q40 0 40 40v148q0 94 43 137t137 43h55v-120h-45q-26 0 -38 -12t-12 -38v-140q0 -117 -96 -120q96 -3 96 -120z" />
    <glyph glyph-name="bar" unicode="|" horiz-adv-x="255" 
d="M70 -100v900h115v-900h-115z" />
    <glyph glyph-name="braceright" unicode="}" horiz-adv-x="355" 
d="M115 470v140q0 26 -12 38t-38 12h-45v120h55q94 0 137 -43t43 -137v-148q0 -40 40 -40h40v-124h-40q-40 0 -40 -40v-148q0 -94 -43 -137t-137 -43h-55v120h45q26 0 38 12t12 38v140q0 117 95 120q-95 3 -95 120z" />
    <glyph glyph-name="asciitilde" unicode="~" horiz-adv-x="410" 
d="M115 253h-95q0 7 1 17.5t7.5 38.5t17.5 49.5t35.5 39t57.5 17.5q38 0 74.5 -27t54.5 -27q12 0 18.5 11.5t7.5 23.5l1 11h95q0 -7 -1 -17.5t-7.5 -38.5t-18 -49.5t-35.5 -39t-57 -17.5q-39 0 -75.5 27t-53.5 27q-12 0 -18.5 -11.5t-7.5 -23.5z" />
    <glyph glyph-name="exclamdown" unicode="&#xa1;" horiz-adv-x="240" 
d="M170 470l30 -470h-160l30 470h100zM205 625q0 -35 -25 -60t-60 -25t-60 25t-25 60t25 60t60 25t60 -25t25 -60z" />
    <glyph glyph-name="cent" unicode="&#xa2;" horiz-adv-x="391" 
d="M159 100v78q-57 11 -93 51.5t-36 99.5v218q0 57 36.5 99t92.5 54v80h84v-80q52 -13 85 -53t33 -96v-71h-135v69q0 31 -28 31t-28 -31v-218q0 -31 28 -31t28 31v74h135v-72q0 -55 -33 -96t-85 -56v-81h-84z" />
    <glyph glyph-name="sterling" unicode="&#xa3;" horiz-adv-x="429" 
d="M325 294h-113v-161h188v-133h-330v294h-60v82h60v165q0 74 51.5 121.5t122.5 47.5q69 0 117 -44.5t48 -115.5v-80h-137v70q0 37 -30 37t-30 -37v-164h113v-82z" />
    <glyph glyph-name="currency" unicode="&#xa4;" horiz-adv-x="512" 
d="M54 349q0 61 36 111l-70 67l59 59l72 -70q50 29 106 29q57 0 104 -28l72 69l59 -59l-70 -66q36 -50 36 -110q0 -61 -36 -111l70 -67l-59 -59l-73 69q-47 -28 -105 -28t-105 28l-71 -69l-59 59l69 66q-35 47 -35 110zM181 350q0 -32 21.5 -53.5t53.5 -21.5t53.5 21.5
t21.5 53.5t-21.5 53.5t-53.5 21.5t-53.5 -21.5t-21.5 -53.5z" />
    <glyph glyph-name="yen" unicode="&#xa5;" horiz-adv-x="415" 
d="M132 0v209h-102v72h102v19l-8 24h-94v72h72l-92 304h158l43 -238l46 238h148l-94 -304h74v-72h-96l-7 -24v-19h103v-72h-103v-209h-150z" />
    <glyph glyph-name="brokenbar" unicode="&#xa6;" horiz-adv-x="255" 
d="M185 800v-340h-115v340h115zM70 -100v340h115v-340h-115z" />
    <glyph glyph-name="section" unicode="&#xa7;" horiz-adv-x="500" 
d="M470 252q0 -105 -95 -142q45 -54 45 -123q0 -72 -51 -114.5t-126 -42.5q-73 0 -120.5 39t-47.5 109v37h140v-35q0 -15 8 -25t22 -10q30 0 30 31q0 45 -84 103q-89 62 -125 107t-36 102q0 106 94 141q-44 54 -44 124q0 72 51 114.5t126 42.5q73 0 120.5 -39t47.5 -109v-37
h-140v35q0 15 -8 25t-22 10q-30 0 -30 -31q0 -45 84 -103q89 -62 125 -107t36 -102zM325 234q0 22 -20.5 45t-85.5 70q-44 -5 -44 -43q0 -22 20.5 -46t85.5 -70q44 7 44 44z" />
    <glyph glyph-name="dieresis" unicode="&#xa8;" horiz-adv-x="510" 
d="M94 647q0 32 20.5 52.5t52.5 20.5t52.5 -20.5t20.5 -52.5t-20.5 -52.5t-52.5 -20.5t-52.5 20.5t-20.5 52.5zM270 647q0 32 20.5 52.5t52.5 20.5t52.5 -20.5t20.5 -52.5t-20.5 -52.5t-52.5 -20.5t-52.5 20.5t-20.5 52.5z" />
    <glyph glyph-name="copyright" unicode="&#xa9;" horiz-adv-x="786" 
d="M30 348q0 152 105.5 257t259.5 105t257.5 -103t103.5 -255t-105.5 -257t-259.5 -105t-257.5 103t-103.5 255zM116 350q0 -120 79.5 -200t197.5 -80t197.5 80t79.5 200t-79.5 200t-197.5 80t-197.5 -80t-79.5 -200zM485 294l74 -68q-2 -3 -6 -8t-18.5 -18t-31.5 -22.5
t-45 -17.5t-59 -8q-86 0 -141.5 56t-55.5 140t57 142t143 58q48 0 86.5 -17t53.5 -33l14 -17l-77 -69q-2 4 -7 10t-24 15.5t-43 9.5q-40 0 -66.5 -28t-26.5 -69t26.5 -69t66.5 -28q25 0 45 10.5t28 20.5z" />
    <glyph glyph-name="ordfeminine" unicode="&#xaa;" horiz-adv-x="278" 
d="M248 386h-76l-4 29q-18 -35 -57 -35q-37 0 -59 24t-22 69v4q0 44 23 69.5t60 25.5q29 0 45 -18v62q0 16 -14 16t-14 -16v-23h-87v10q0 44 30 72.5t72 28.5q44 0 73.5 -27t29.5 -72v-219zM40 276v64h208v-64h-208zM158 468v22q0 22 -19 22t-19 -22v-22q0 -22 19 -22t19 22
z" />
    <glyph glyph-name="guillemotleft" unicode="&#xab;" horiz-adv-x="600" 
d="M295 475l-110 -123l110 -122l-75 -80l-190 180v40l190 180zM550 475l-110 -123l110 -122l-75 -80l-190 180v40l190 180z" />
    <glyph glyph-name="logicalnot" unicode="&#xac;" horiz-adv-x="410" 
d="M260 205v125h-230v110h350v-235h-120z" />
    <glyph glyph-name="registered" unicode="&#xae;" horiz-adv-x="408" 
d="M30 536q0 73 50.5 123.5t124.5 50.5q73 0 123 -49.5t50 -122.5t-50.5 -123.5t-124.5 -50.5q-73 0 -123 49.5t-50 122.5zM76 537q0 -55 37.5 -92.5t90.5 -37.5t90.5 37.5t37.5 92.5t-37.5 92.5t-90.5 37.5t-90.5 -37.5t-37.5 -92.5zM138 453v168h78q29 0 46 -15.5
t17 -41.5q0 -37 -33 -51l40 -60h-52l-34 54h-16v-54h-46zM210 583h-26v-41h26q24 0 24 20q0 21 -24 21z" />
    <glyph glyph-name="macron" unicode="&#xaf;" horiz-adv-x="460" 
d="M90 614v96h280v-96h-280z" />
    <glyph glyph-name="degree" unicode="&#xb0;" horiz-adv-x="386" 
d="M30 549q0 67 48 114t116 47t115 -46t47 -113t-48 -114t-116 -47t-115 46t-47 113zM133 550q0 -26 17.5 -44.5t42.5 -18.5t42.5 18.5t17.5 44.5t-17.5 44.5t-42.5 18.5t-42.5 -18.5t-17.5 -44.5z" />
    <glyph glyph-name="plusminus" unicode="&#xb1;" horiz-adv-x="410" 
d="M150 250v125h-120v110h120v125h111v-125h119v-110h-119v-125h-111zM380 90h-350v110h350v-110z" />
    <glyph glyph-name="twosuperior" unicode="&#xb2;" horiz-adv-x="252" 
d="M232 280h-212v64l107 197q14 25 14 55q0 25 -17 25q-16 0 -16 -25v-40h-88v43q0 47 31.5 77t75.5 30q45 0 75 -29t30 -76q0 -41 -30 -96l-81 -143h111v-82z" />
    <glyph glyph-name="threesuperior" unicode="&#xb3;" horiz-adv-x="255" 
d="M127 706q44 0 73.5 -27.5t29.5 -72.5v-39q0 -43 -28 -71q33 -31 33 -78v-37q0 -47 -32 -77t-78 -30q-45 0 -75 29t-30 76v42h88v-43q0 -22 18 -22t18 22v58q0 24 -18 24h-27v69h27q13 0 13 19v59q0 17 -13 17t-13 -17v-39h-88v36q0 45 30 73.5t72 28.5z" />
    <glyph glyph-name="acute" unicode="&#xb4;" horiz-adv-x="370" 
d="M90 570l40 170h145l-80 -170h-105z" />
    <glyph glyph-name="mu" unicode="&#xb5;" horiz-adv-x="410" 
d="M235 153v367h140v-520h-120l-5 46q-26 -56 -67 -56q-2 0 -4.5 0.5t-3.5 0.5v-151h-140v680h140v-367q0 -33 29 -33q31 0 31 33z" />
    <glyph glyph-name="mu" unicode="&#x3bc;" horiz-adv-x="410" 
d="M235 153v367h140v-520h-120l-5 46q-26 -56 -67 -56q-2 0 -4.5 0.5t-3.5 0.5v-151h-140v680h140v-367q0 -33 29 -33q31 0 31 33z" />
    <glyph glyph-name="paragraph" unicode="&#xb6;" horiz-adv-x="620" 
d="M210 0v325h-6q-84 0 -134 55t-50 131q0 80 50.5 134.5t135.5 54.5h344v-700h-140v575h-60v-575h-140z" />
    <glyph glyph-name="periodcentered" unicode="&#xb7;" horiz-adv-x="240" 
d="M35 350q0 35 25 60t60 25t60 -25t25 -60t-25 -60t-60 -25t-60 25t-25 60z" />
    <glyph glyph-name="cedilla" unicode="&#xb8;" horiz-adv-x="355" 
d="M158 0l57 50q3 -1 7.5 -4t16.5 -13t21.5 -22t17 -32.5t7.5 -43.5q0 -58 -40.5 -94t-104.5 -36q-13 0 -25.5 1.5t-18.5 3.5l-6 1v89q8 -3 29 -3q27 0 43.5 15.5t16.5 40.5q0 14 -5.5 26t-10.5 17z" />
    <glyph glyph-name="onesuperior" unicode="&#xb9;" horiz-adv-x="222" 
d="M0 615l110 85h77v-420h-91v312l-51 -37z" />
    <glyph glyph-name="ordmasculine" unicode="&#xba;" horiz-adv-x="274" 
d="M40 276v64h194v-64h-194zM30 482v118q0 46 31.5 75t76.5 29t75.5 -28t30.5 -74v-118q0 -46 -31.5 -75t-76.5 -29t-75.5 28t-30.5 74zM120 607v-130q0 -19 17 -19t17 19v130q0 19 -17 19t-17 -19z" />
    <glyph glyph-name="guillemotright" unicode="&#xbb;" horiz-adv-x="600" 
d="M50 225l109 122l-109 123l75 80l190 -180v-40l-190 -180zM305 225l109 122l-109 123l75 80l190 -180v-40l-190 -180z" />
    <glyph glyph-name="onequarter" unicode="&#xbc;" horiz-adv-x="604" 
d="M75 0l400 700h90l-400 -700h-90zM465 0v88h-116v74l112 258h85v-261h33v-71h-33v-88h-81zM5 615l110 85h77v-420h-91v312l-51 -37zM420 159h45v116z" />
    <glyph glyph-name="onehalf" unicode="&#xbd;" horiz-adv-x="651" 
d="M75 0l400 700h90l-400 -700h-90zM621 0h-212v64l107 197q14 24 14 55q0 25 -17 25q-16 0 -16 -25v-40h-88v43q0 47 31.5 77t75.5 30q45 0 75 -29t30 -76q0 -41 -30 -96l-81 -143h111v-82zM5 615l110 85h77v-420h-91v312l-51 -37z" />
    <glyph glyph-name="threequarters" unicode="&#xbe;" horiz-adv-x="609" 
d="M80 0l400 700h90l-400 -700h-90zM127 706q44 0 73.5 -27.5t29.5 -72.5v-39q0 -43 -28 -71q33 -31 33 -78v-37q0 -47 -32 -77t-78 -30q-45 0 -75 29t-30 76v42h88v-43q0 -22 18 -22t18 22v58q0 24 -18 24h-27v69h27q13 0 13 19v59q0 17 -13 17t-13 -17v-39h-88v36
q0 45 30 73.5t72 28.5zM470 0v88h-116v74l112 258h85v-261h33v-71h-33v-88h-81zM425 159h45v116z" />
    <glyph glyph-name="questiondown" unicode="&#xbf;" horiz-adv-x="385" 
d="M188 -10q-71 0 -119.5 47t-48.5 122q0 47 16.5 90.5t36.5 70.5t36.5 62t16.5 68v20h128v-30q0 -46 -23 -91.5t-46 -89.5t-23 -86q0 -45 31 -45q30 0 30 45v57h137v-58q0 -82 -50.5 -132t-121.5 -50zM275 625q0 -35 -25 -60t-60 -25t-60 25t-25 60t25 60t60 25t60 -25
t25 -60z" />
    <glyph glyph-name="Agrave" unicode="&#xc0;" horiz-adv-x="415" 
d="M280 700l135 -700h-155l-15 115h-85l-15 -115h-145l135 700h145zM220 920l40 -170h-105l-80 170h145zM202 437l-26 -202h53z" />
    <glyph glyph-name="Aacute" unicode="&#xc1;" horiz-adv-x="415" 
d="M280 700l135 -700h-155l-15 115h-85l-15 -115h-145l135 700h145zM155 750l40 170h145l-80 -170h-105zM202 437l-26 -202h53z" />
    <glyph glyph-name="Acircumflex" unicode="&#xc2;" horiz-adv-x="415" 
d="M280 700l135 -700h-155l-15 115h-85l-15 -115h-145l135 700h145zM58 750l100 170h100l100 -170h-106l-47 72l-47 -72h-100zM229 235l-27 202l-26 -202h53z" />
    <glyph glyph-name="Atilde" unicode="&#xc3;" horiz-adv-x="415" 
d="M280 700l135 -700h-155l-15 115h-85l-15 -115h-145l135 700h145zM137 754h-73q0 5 0.5 12.5t5.5 27.5t14 35.5t28 28t44 12.5q30 0 58.5 -20.5t41.5 -20.5q9 0 14.5 8.5t6.5 17.5l1 9h73q0 -5 -0.5 -12.5t-5.5 -27.5t-14 -35.5t-28 -28t-44 -12.5q-30 0 -58.5 20.5
t-41.5 20.5q-9 0 -14.5 -8.5t-6.5 -17.5zM229 235l-27 202l-26 -202h53z" />
    <glyph glyph-name="Adieresis" unicode="&#xc4;" horiz-adv-x="415" 
d="M280 700l135 -700h-155l-15 115h-85l-15 -115h-145l135 700h145zM47 817q0 32 20.5 52.5t52.5 20.5t52.5 -20.5t20.5 -52.5t-20.5 -52.5t-52.5 -20.5t-52.5 20.5t-20.5 52.5zM223 817q0 32 20.5 52.5t52.5 20.5t52.5 -20.5t20.5 -52.5t-20.5 -52.5t-52.5 -20.5
t-52.5 20.5t-20.5 52.5zM229 235l-27 202l-26 -202h53z" />
    <glyph glyph-name="Aring" unicode="&#xc5;" horiz-adv-x="415" 
d="M280 700l135 -700h-155l-15 115h-85l-15 -115h-145l135 700h145zM113 830q0 39 27 64.5t68 25.5t68 -25.5t27 -64.5t-27 -64.5t-68 -25.5t-68 25.5t-27 64.5zM229 235l-27 202l-26 -202h53zM174 830q0 -14 9.5 -23.5t24.5 -9.5t24.5 9.5t9.5 23.5t-9.5 23.5t-24.5 9.5
t-24.5 -9.5t-9.5 -23.5z" />
    <glyph glyph-name="AE" unicode="&#xc6;" horiz-adv-x="570" 
d="M550 0h-295v115h-92l-23 -115h-145l165 700h385v-150h-140v-123h110v-140h-110v-137h145v-150zM187 235h68v340z" />
    <glyph glyph-name="Ccedilla" unicode="&#xc7;" horiz-adv-x="415" 
d="M385 435h-145v100q0 35 -30 35t-30 -35v-370q0 -35 30 -35t30 35v110h145v-113q0 -63 -35 -106.5t-91 -58.5q16 -26 16 -62q0 -58 -40.5 -94t-104.5 -36q-13 0 -25.5 1.5t-18.5 3.5l-6 1v89q8 -3 29 -3q27 0 43.5 15.5t16.5 40.5q0 23 -18 45q-55 15 -88 58.5t-33 106.5
v370q0 79 53 128t129 49q74 0 123.5 -45.5t49.5 -122.5v-107z" />
    <glyph glyph-name="Egrave" unicode="&#xc8;" horiz-adv-x="355" 
d="M335 0h-295v700h290v-150h-140v-123h110v-140h-110v-137h145v-150zM205 920l40 -170h-105l-80 170h145z" />
    <glyph glyph-name="Eacute" unicode="&#xc9;" horiz-adv-x="355" 
d="M335 0h-295v700h290v-150h-140v-123h110v-140h-110v-137h145v-150zM140 750l40 170h145l-80 -170h-105z" />
    <glyph glyph-name="Ecircumflex" unicode="&#xca;" horiz-adv-x="355" 
d="M335 0h-295v700h290v-150h-140v-123h110v-140h-110v-137h145v-150zM35 750l100 170h100l100 -170h-106l-47 72l-47 -72h-100z" />
    <glyph glyph-name="Edieresis" unicode="&#xcb;" horiz-adv-x="355" 
d="M335 0h-295v700h290v-150h-140v-123h110v-140h-110v-137h145v-150zM23 817q0 32 20.5 52.5t52.5 20.5t52.5 -20.5t20.5 -52.5t-20.5 -52.5t-52.5 -20.5t-52.5 20.5t-20.5 52.5zM199 817q0 32 20.5 52.5t52.5 20.5t52.5 -20.5t20.5 -52.5t-20.5 -52.5t-52.5 -20.5
t-52.5 20.5t-20.5 52.5z" />
    <glyph glyph-name="Igrave" unicode="&#xcc;" horiz-adv-x="243" 
d="M45 0v700h153v-700h-153zM140 920l40 -170h-105l-80 170h145z" />
    <glyph glyph-name="Iacute" unicode="&#xcd;" horiz-adv-x="243" 
d="M45 0v700h153v-700h-153zM63 750l40 170h145l-80 -170h-105z" />
    <glyph glyph-name="Icircumflex" unicode="&#xce;" horiz-adv-x="243" 
d="M45 0v700h153v-700h-153zM-29 750l100 170h100l100 -170h-106l-47 72l-47 -72h-100z" />
    <glyph glyph-name="Idieresis" unicode="&#xcf;" horiz-adv-x="243" 
d="M45 0v700h153v-700h-153zM-39 817q0 32 20.5 52.5t52.5 20.5t52.5 -20.5t20.5 -52.5t-20.5 -52.5t-52.5 -20.5t-52.5 20.5t-20.5 52.5zM137 817q0 32 20.5 52.5t52.5 20.5t52.5 -20.5t20.5 -52.5t-20.5 -52.5t-52.5 -20.5t-52.5 20.5t-20.5 52.5z" />
    <glyph glyph-name="Eth" unicode="&#xd0;" horiz-adv-x="465" 
d="M70 0v305h-60v90h60v305h182q86 0 134.5 -45t48.5 -133v-340q0 -88 -50.5 -135t-136.5 -47h-178zM220 560v-165h45v-90h-45v-165h20q45 0 45 50v320q0 50 -45 50h-20z" />
    <glyph glyph-name="Ntilde" unicode="&#xd1;" horiz-adv-x="455" 
d="M285 0l-115 374v-374h-130v700h140l105 -342v342h130v-700h-130zM157 754h-73q0 5 0.5 12.5t5.5 27.5t14 35.5t28 28t44 12.5q30 0 58.5 -20.5t41.5 -20.5q9 0 14.5 8.5t6.5 17.5l1 9h73q0 -5 -0.5 -12.5t-5.5 -27.5t-14 -35.5t-28 -28t-44 -12.5q-30 0 -58.5 20.5
t-41.5 20.5q-9 0 -14.5 -8.5t-6.5 -17.5z" />
    <glyph glyph-name="Ograve" unicode="&#xd2;" 
d="M30 168v360q0 81 54 131.5t133 50.5t131 -48.5t52 -129.5v-360q0 -81 -54 -131.5t-133 -50.5t-131 48.5t-52 129.5zM180 530v-360q0 -40 35 -40t35 40v360q0 40 -35 40t-35 -40zM232 920l40 -170h-105l-80 170h145z" />
    <glyph glyph-name="Oacute" unicode="&#xd3;" 
d="M30 168v360q0 81 54 131.5t133 50.5t131 -48.5t52 -129.5v-360q0 -81 -54 -131.5t-133 -50.5t-131 48.5t-52 129.5zM180 530v-360q0 -40 35 -40t35 40v360q0 40 -35 40t-35 -40zM158 750l40 170h145l-80 -170h-105z" />
    <glyph glyph-name="Ocircumflex" unicode="&#xd4;" 
d="M30 168v360q0 81 54 131.5t133 50.5t131 -48.5t52 -129.5v-360q0 -81 -54 -131.5t-133 -50.5t-131 48.5t-52 129.5zM65 750l100 170h100l100 -170h-106l-47 72l-47 -72h-100zM180 530v-360q0 -40 35 -40t35 40v360q0 40 -35 40t-35 -40z" />
    <glyph glyph-name="Otilde" unicode="&#xd5;" 
d="M30 168v360q0 81 54 131.5t133 50.5t131 -48.5t52 -129.5v-360q0 -81 -54 -131.5t-133 -50.5t-131 48.5t-52 129.5zM180 530v-360q0 -40 35 -40t35 40v360q0 40 -35 40t-35 -40zM145 754h-73q0 5 0.5 12.5t5.5 27.5t14 35.5t28 28t44 12.5q30 0 58.5 -20.5t41.5 -20.5
q9 0 14.5 8.5t6.5 17.5l1 9h73q0 -5 -0.5 -12.5t-5.5 -27.5t-14 -35.5t-28 -28t-44 -12.5q-30 0 -58.5 20.5t-41.5 20.5q-9 0 -14.5 -8.5t-6.5 -17.5z" />
    <glyph glyph-name="Odieresis" unicode="&#xd6;" 
d="M30 168v360q0 81 54 131.5t133 50.5t131 -48.5t52 -129.5v-360q0 -81 -54 -131.5t-133 -50.5t-131 48.5t-52 129.5zM180 530v-360q0 -40 35 -40t35 40v360q0 40 -35 40t-35 -40zM54 817q0 32 20.5 52.5t52.5 20.5t52.5 -20.5t20.5 -52.5t-20.5 -52.5t-52.5 -20.5
t-52.5 20.5t-20.5 52.5zM230 817q0 32 20.5 52.5t52.5 20.5t52.5 -20.5t20.5 -52.5t-20.5 -52.5t-52.5 -20.5t-52.5 20.5t-20.5 52.5z" />
    <glyph glyph-name="multiply" unicode="&#xd7;" horiz-adv-x="410" 
d="M307 171l-102 104l-102 -104l-78 78l104 101l-104 101l78 78l102 -104l102 104l78 -78l-105 -101l105 -101z" />
    <glyph glyph-name="Oslash" unicode="&#xd8;" 
d="M410 730l-40 -94q30 -44 30 -104v-360q0 -81 -54 -131.5t-133 -50.5q-61 0 -107 29l-21 -49h-65l40 94q-30 44 -30 104v360q0 81 54 131.5t133 50.5q62 0 107 -30l21 50h65zM215 130q35 0 35 40v186l-70 -164v-22q0 -40 35 -40zM180 530v-186l70 164v22q0 40 -35 40
t-35 -40z" />
    <glyph glyph-name="Ugrave" unicode="&#xd9;" 
d="M35 700h151v-535q0 -35 30 -35t30 35v535h149v-533q0 -79 -53 -128t-129 -49t-127 47t-51 126v537zM239 920l40 -170h-105l-80 170h145z" />
    <glyph glyph-name="Uacute" unicode="&#xda;" 
d="M35 700h151v-535q0 -35 30 -35t30 35v535h149v-533q0 -79 -53 -128t-129 -49t-127 47t-51 126v537zM154 750l40 170h145l-80 -170h-105z" />
    <glyph glyph-name="Ucircumflex" unicode="&#xdb;" 
d="M35 700h151v-535q0 -35 30 -35t30 35v535h149v-533q0 -79 -53 -128t-129 -49t-127 47t-51 126v537zM65 750l100 170h100l100 -170h-106l-47 72l-47 -72h-100z" />
    <glyph glyph-name="Udieresis" unicode="&#xdc;" 
d="M35 700h151v-535q0 -35 30 -35t30 35v535h149v-533q0 -79 -53 -128t-129 -49t-127 47t-51 126v537zM54 817q0 32 20.5 52.5t52.5 20.5t52.5 -20.5t20.5 -52.5t-20.5 -52.5t-52.5 -20.5t-52.5 20.5t-20.5 52.5zM230 817q0 32 20.5 52.5t52.5 20.5t52.5 -20.5t20.5 -52.5
t-20.5 -52.5t-52.5 -20.5t-52.5 20.5t-20.5 52.5z" />
    <glyph glyph-name="Yacute" unicode="&#xdd;" horiz-adv-x="395" 
d="M122 0v250l-122 450h160l42 -250l43 250h150l-123 -450v-250h-150zM153 750l40 170h145l-80 -170h-105z" />
    <glyph glyph-name="Thorn" unicode="&#xde;" horiz-adv-x="425" 
d="M40 0v700h150v-110h22q92 0 142.5 -46.5t50.5 -141.5v-70q0 -95 -52.5 -143.5t-144.5 -48.5h-18v-140h-150zM190 455v-180h20q45 0 45 50v80q0 50 -45 50h-20z" />
    <glyph glyph-name="germandbls" unicode="&#xdf;" horiz-adv-x="413" 
d="M221 295h-21v130h4q29 0 29 32v91q0 32 -29 32t-29 -32v-548h-140v546q0 72 50 118t121 46t119 -44t48 -116v-66q0 -63 -41 -109q61 -48 61 -128v-105q0 -66 -46 -109t-113 -43l-34 3v129q7 -2 21 -2t23 9.5t9 25.5v105q0 16 -9 25.5t-23 9.5z" />
    <glyph glyph-name="agrave" unicode="&#xe0;" horiz-adv-x="400" 
d="M370 0h-120l-5 46q-31 -56 -97 -56q-58 0 -93 39t-35 109v20q0 70 37 111t95 41q49 0 78 -31v101q0 30 -27 30t-27 -30v-35h-135v23q0 70 48.5 116t115.5 46q69 0 117 -44t48 -114v-372zM229 740l40 -170h-105l-80 170h145zM230 140v30q0 40 -35 40t-35 -40v-30
q0 -40 35 -40t35 40z" />
    <glyph glyph-name="aacute" unicode="&#xe1;" horiz-adv-x="400" 
d="M370 0h-120l-5 46q-31 -56 -97 -56q-58 0 -93 39t-35 109v20q0 70 37 111t95 41q49 0 78 -31v101q0 30 -27 30t-27 -30v-35h-135v23q0 70 48.5 116t115.5 46q69 0 117 -44t48 -114v-372zM148 570l40 170h145l-80 -170h-105zM230 140v30q0 40 -35 40t-35 -40v-30
q0 -40 35 -40t35 40z" />
    <glyph glyph-name="acircumflex" unicode="&#xe2;" horiz-adv-x="400" 
d="M370 0h-120l-5 46q-31 -56 -97 -56q-58 0 -93 39t-35 109v20q0 70 37 111t95 41q49 0 78 -31v101q0 30 -27 30t-27 -30v-35h-135v23q0 70 48.5 116t115.5 46q69 0 117 -44t48 -114v-372zM62 570l100 170h100l100 -170h-106l-47 72l-47 -72h-100zM230 140v30q0 40 -35 40
t-35 -40v-30q0 -40 35 -40t35 40z" />
    <glyph glyph-name="atilde" unicode="&#xe3;" horiz-adv-x="400" 
d="M370 0h-120l-5 46q-31 -56 -97 -56q-58 0 -93 39t-35 109v20q0 70 37 111t95 41q49 0 78 -31v101q0 30 -27 30t-27 -30v-35h-135v23q0 70 48.5 116t115.5 46q69 0 117 -44t48 -114v-372zM142 574h-73q0 5 0.5 12.5t5.5 27.5t14 35.5t28 28t44 12.5q30 0 58.5 -20.5
t41.5 -20.5q9 0 14.5 8.5t6.5 17.5l1 9h73q0 -5 -0.5 -12.5t-5.5 -27.5t-14 -35.5t-28 -28t-44 -12.5q-30 0 -58.5 20.5t-41.5 20.5q-9 0 -14.5 -8.5t-6.5 -17.5zM230 140v30q0 40 -35 40t-35 -40v-30q0 -40 35 -40t35 40z" />
    <glyph glyph-name="adieresis" unicode="&#xe4;" horiz-adv-x="400" 
d="M370 0h-120l-5 46q-31 -56 -97 -56q-58 0 -93 39t-35 109v20q0 70 37 111t95 41q49 0 78 -31v101q0 30 -27 30t-27 -30v-35h-135v23q0 70 48.5 116t115.5 46q69 0 117 -44t48 -114v-372zM225 637q0 32 20.5 52.5t52.5 20.5t52.5 -20.5t20.5 -52.5t-20.5 -52.5
t-52.5 -20.5t-52.5 20.5t-20.5 52.5zM49 637q0 32 20.5 52.5t52.5 20.5t52.5 -20.5t20.5 -52.5t-20.5 -52.5t-52.5 -20.5t-52.5 20.5t-20.5 52.5zM230 140v30q0 40 -35 40t-35 -40v-30q0 -40 35 -40t35 40z" />
    <glyph glyph-name="aring" unicode="&#xe5;" horiz-adv-x="400" 
d="M370 0h-120l-5 46q-31 -56 -97 -56q-58 0 -93 39t-35 109v20q0 70 37 111t95 41q49 0 78 -31v101q0 30 -27 30t-27 -30v-35h-135v23q0 70 48.5 116t115.5 46q69 0 117 -44t48 -114v-372zM117 650q0 39 27 64.5t68 25.5t68 -25.5t27 -64.5t-27 -64.5t-68 -25.5t-68 25.5
t-27 64.5zM230 140v30q0 40 -35 40t-35 -40v-30q0 -40 35 -40t35 40zM178 650q0 -14 9.5 -23.5t24.5 -9.5t24.5 9.5t9.5 23.5t-9.5 23.5t-24.5 9.5t-24.5 -9.5t-9.5 -23.5z" />
    <glyph glyph-name="ae" unicode="&#xe6;" horiz-adv-x="589" 
d="M564 235h-194v-80q0 -16 9 -25.5t23 -9.5t23 9.5t9 25.5v40h130v-43q0 -70 -50 -116t-119 -46q-71 0 -110 47q-38 -47 -127 -47q-64 0 -101 38.5t-37 109.5v20q0 70 37 111t95 41q49 0 78 -31v101q0 30 -27 30t-27 -30v-35h-135v23q0 70 48.5 116t115.5 46q58 0 97 -34
q40 34 97 34q69 0 117 -44t48 -114v-137zM230 140v30q0 40 -35 40t-35 -40v-30q0 -40 35 -40t35 40zM370 385v-60h64v60q0 16 -9 25.5t-23 9.5t-23 -9.5t-9 -25.5z" />
    <glyph glyph-name="ccedilla" unicode="&#xe7;" horiz-adv-x="381" 
d="M221 225h135v-72q0 -56 -31.5 -98t-80.5 -57q16 -28 16 -63q0 -58 -40.5 -94t-104.5 -36q-13 0 -25.5 1.5t-18.5 3.5l-6 1v89q8 -3 29 -3q27 0 43.5 15.5t16.5 40.5q0 29 -19 45q-49 15 -79.5 55t-30.5 96v218q0 71 50 117t120 46q68 0 114.5 -44t46.5 -115v-71h-135v69
q0 31 -28 31t-28 -31v-218q0 -31 28 -31t28 31v74z" />
    <glyph glyph-name="egrave" unicode="&#xe8;" horiz-adv-x="384" 
d="M359 235h-194v-80q0 -16 9 -25.5t23 -9.5t23 9.5t9 25.5v40h130v-43q0 -70 -50 -116t-119 -46t-117 44t-48 114v220q0 70 50 116t119 46t117 -44t48 -114v-137zM218 740l40 -170h-105l-80 170h145zM165 380v-55h64v55q0 16 -9 25.5t-23 9.5t-23 -9.5t-9 -25.5z" />
    <glyph glyph-name="eacute" unicode="&#xe9;" horiz-adv-x="384" 
d="M359 235h-194v-80q0 -16 9 -25.5t23 -9.5t23 9.5t9 25.5v40h130v-43q0 -70 -50 -116t-119 -46t-117 44t-48 114v220q0 70 50 116t119 46t117 -44t48 -114v-137zM137 570l40 170h145l-80 -170h-105zM165 380v-55h64v55q0 16 -9 25.5t-23 9.5t-23 -9.5t-9 -25.5z" />
    <glyph glyph-name="ecircumflex" unicode="&#xea;" horiz-adv-x="384" 
d="M359 235h-194v-80q0 -16 9 -25.5t23 -9.5t23 9.5t9 25.5v40h130v-43q0 -70 -50 -116t-119 -46t-117 44t-48 114v220q0 70 50 116t119 46t117 -44t48 -114v-137zM42 570l100 170h100l100 -170h-106l-47 72l-47 -72h-100zM165 380v-55h64v55q0 16 -9 25.5t-23 9.5t-23 -9.5
t-9 -25.5z" />
    <glyph glyph-name="edieresis" unicode="&#xeb;" horiz-adv-x="384" 
d="M359 235h-194v-80q0 -16 9 -25.5t23 -9.5t23 9.5t9 25.5v40h130v-43q0 -70 -50 -116t-119 -46t-117 44t-48 114v220q0 70 50 116t119 46t117 -44t48 -114v-137zM207 637q0 32 20.5 52.5t52.5 20.5t52.5 -20.5t20.5 -52.5t-20.5 -52.5t-52.5 -20.5t-52.5 20.5t-20.5 52.5z
M31 637q0 32 20.5 52.5t52.5 20.5t52.5 -20.5t20.5 -52.5t-20.5 -52.5t-52.5 -20.5t-52.5 20.5t-20.5 52.5zM165 380v-55h64v55q0 16 -9 25.5t-23 9.5t-23 -9.5t-9 -25.5z" />
    <glyph glyph-name="igrave" unicode="&#xec;" horiz-adv-x="222" 
d="M130 740l40 -170h-105l-80 170h145zM40 0v520h142v-520h-142z" />
    <glyph glyph-name="iacute" unicode="&#xed;" horiz-adv-x="222" 
d="M52 570l40 170h145l-80 -170h-105zM40 0v520h142v-520h-142z" />
    <glyph glyph-name="icircumflex" unicode="&#xee;" horiz-adv-x="222" 
d="M40 0v520h142v-520h-142zM-39 570l100 170h100l100 -170h-106l-47 72l-47 -72h-100z" />
    <glyph glyph-name="idieresis" unicode="&#xef;" horiz-adv-x="222" 
d="M-50 637q0 32 20.5 52.5t52.5 20.5t52.5 -20.5t20.5 -52.5t-20.5 -52.5t-52.5 -20.5t-52.5 20.5t-20.5 52.5zM126 637q0 32 20.5 52.5t52.5 20.5t52.5 -20.5t20.5 -52.5t-20.5 -52.5t-52.5 -20.5t-52.5 20.5t-20.5 52.5zM40 0v520h142v-520h-142z" />
    <glyph glyph-name="eth" unicode="&#xf0;" horiz-adv-x="394" 
d="M25 153v210q0 66 44.5 106.5t109.5 40.5q7 0 19 -2l-30 66l-98 -24v70l69 17l-29 63h140l13 -32l106 27v-70l-80 -20l53 -132l4 -8q23 -55 23 -143v-165q0 -73 -51 -120t-123 -47t-121 45t-49 118zM165 365v-210q0 -16 9 -25.5t23 -9.5t23 9.5t9 25.5v210q0 16 -9 25.5
t-23 9.5t-23 -9.5t-9 -25.5z" />
    <glyph glyph-name="ntilde" unicode="&#xf1;" horiz-adv-x="405" 
d="M175 367v-367h-140v520h120l6 -54q30 64 101 64q52 0 82.5 -35.5t30.5 -107.5v-387h-140v367q0 33 -29 33q-31 0 -31 -33zM137 574h-73q0 5 0.5 12.5t5.5 27.5t14 35.5t28 28t44 12.5q30 0 58.5 -20.5t41.5 -20.5q9 0 14.5 8.5t6.5 17.5l1 9h73q0 -5 -0.5 -12.5
t-5.5 -27.5t-14 -35.5t-28 -28t-44 -12.5q-30 0 -58.5 20.5t-41.5 20.5q-9 0 -14.5 -8.5t-6.5 -17.5z" />
    <glyph glyph-name="ograve" unicode="&#xf2;" horiz-adv-x="394" 
d="M25 153v210q0 73 51 120t123 47t121 -45t49 -118v-210q0 -73 -51 -120t-123 -47t-121 45t-49 118zM165 365v-210q0 -16 9 -25.5t23 -9.5t23 9.5t9 25.5v210q0 16 -9 25.5t-23 9.5t-23 -9.5t-9 -25.5zM218 740l40 -170h-105l-80 170h145z" />
    <glyph glyph-name="oacute" unicode="&#xf3;" horiz-adv-x="394" 
d="M25 153v210q0 73 51 120t123 47t121 -45t49 -118v-210q0 -73 -51 -120t-123 -47t-121 45t-49 118zM165 365v-210q0 -16 9 -25.5t23 -9.5t23 9.5t9 25.5v210q0 16 -9 25.5t-23 9.5t-23 -9.5t-9 -25.5zM137 570l40 170h145l-80 -170h-105z" />
    <glyph glyph-name="ocircumflex" unicode="&#xf4;" horiz-adv-x="394" 
d="M25 153v210q0 73 51 120t123 47t121 -45t49 -118v-210q0 -73 -51 -120t-123 -47t-121 45t-49 118zM47 570l100 170h100l100 -170h-106l-47 72l-47 -72h-100zM165 365v-210q0 -16 9 -25.5t23 -9.5t23 9.5t9 25.5v210q0 16 -9 25.5t-23 9.5t-23 -9.5t-9 -25.5z" />
    <glyph glyph-name="otilde" unicode="&#xf5;" horiz-adv-x="394" 
d="M25 153v210q0 73 51 120t123 47t121 -45t49 -118v-210q0 -73 -51 -120t-123 -47t-121 45t-49 118zM165 365v-210q0 -16 9 -25.5t23 -9.5t23 9.5t9 25.5v210q0 16 -9 25.5t-23 9.5t-23 -9.5t-9 -25.5zM127 574h-73q0 5 0.5 12.5t5.5 27.5t14 35.5t28 28t44 12.5
q30 0 58.5 -20.5t41.5 -20.5q9 0 14.5 8.5t6.5 17.5l1 9h73q0 -5 -0.5 -12.5t-5.5 -27.5t-14 -35.5t-28 -28t-44 -12.5q-30 0 -58.5 20.5t-41.5 20.5q-9 0 -14.5 -8.5t-6.5 -17.5z" />
    <glyph glyph-name="odieresis" unicode="&#xf6;" horiz-adv-x="394" 
d="M25 153v210q0 73 51 120t123 47t121 -45t49 -118v-210q0 -73 -51 -120t-123 -47t-121 45t-49 118zM165 365v-210q0 -16 9 -25.5t23 -9.5t23 9.5t9 25.5v210q0 16 -9 25.5t-23 9.5t-23 -9.5t-9 -25.5zM36 637q0 32 20.5 52.5t52.5 20.5t52.5 -20.5t20.5 -52.5t-20.5 -52.5
t-52.5 -20.5t-52.5 20.5t-20.5 52.5zM212 637q0 32 20.5 52.5t52.5 20.5t52.5 -20.5t20.5 -52.5t-20.5 -52.5t-52.5 -20.5t-52.5 20.5t-20.5 52.5z" />
    <glyph glyph-name="divide" unicode="&#xf7;" horiz-adv-x="410" 
d="M380 295h-350v120h350v-120zM130 179q0 31 22 53t53 22t53 -22t22 -53t-22 -53t-53 -22t-53 22t-22 53zM130 531q0 31 22 53t53 22t53 -22t22 -53t-22 -53t-53 -22t-53 22t-22 53z" />
    <glyph glyph-name="oslash" unicode="&#xf8;" horiz-adv-x="394" 
d="M25 153v210q0 73 51 120t123 47q45 0 85 -21l20 41h70l-40 -81q35 -43 35 -102v-210q0 -73 -51 -120t-123 -47q-43 0 -85 20l-20 -40h-70l39 81q-34 44 -34 102zM160 365v-109l66 135q-9 14 -29 14q-17 0 -27 -10.5t-10 -29.5zM197 115q17 0 27 10.5t10 29.5v108
l-66 -135q10 -13 29 -13z" />
    <glyph glyph-name="ugrave" unicode="&#xf9;" horiz-adv-x="405" 
d="M230 153v367h140v-520h-120l-6 54q-30 -64 -101 -64q-52 0 -82.5 35.5t-30.5 107.5v387h140v-367q0 -33 29 -33q31 0 31 33zM213 740l40 -170h-105l-80 170h145z" />
    <glyph glyph-name="uacute" unicode="&#xfa;" horiz-adv-x="405" 
d="M230 153v367h140v-520h-120l-6 54q-30 -64 -101 -64q-52 0 -82.5 35.5t-30.5 107.5v387h140v-367q0 -33 29 -33q31 0 31 33zM148 570l40 170h145l-80 -170h-105z" />
    <glyph glyph-name="ucircumflex" unicode="&#xfb;" horiz-adv-x="405" 
d="M230 153v367h140v-520h-120l-6 54q-30 -64 -101 -64q-52 0 -82.5 35.5t-30.5 107.5v387h140v-367q0 -33 29 -33q31 0 31 33zM50 570l100 170h100l100 -170h-106l-47 72l-47 -72h-100z" />
    <glyph glyph-name="udieresis" unicode="&#xfc;" horiz-adv-x="405" 
d="M230 153v367h140v-520h-120l-6 54q-30 -64 -101 -64q-52 0 -82.5 35.5t-30.5 107.5v387h140v-367q0 -33 29 -33q31 0 31 33zM215 637q0 32 20.5 52.5t52.5 20.5t52.5 -20.5t20.5 -52.5t-20.5 -52.5t-52.5 -20.5t-52.5 20.5t-20.5 52.5zM39 637q0 32 20.5 52.5t52.5 20.5
t52.5 -20.5t20.5 -52.5t-20.5 -52.5t-52.5 -20.5t-52.5 20.5t-20.5 52.5z" />
    <glyph glyph-name="yacute" unicode="&#xfd;" horiz-adv-x="360" 
d="M115 0l-115 520h145l40 -320l40 320h135l-118 -532q-35 -158 -157 -158q-21 0 -37 2t-22 4l-6 3v110q14 -4 35 -4q51 0 60 55zM133 570l40 170h145l-80 -170h-105z" />
    <glyph glyph-name="thorn" unicode="&#xfe;" horiz-adv-x="404" 
d="M35 -160v860h140v-203q30 33 79 33q56 0 90.5 -37.5t34.5 -105.5v-250q0 -68 -36.5 -107.5t-92.5 -39.5q-47 0 -75 28v-178h-140zM175 365v-210q0 -16 9 -25.5t23 -9.5t23 9.5t9 25.5v210q0 16 -9 25.5t-23 9.5t-23 -9.5t-9 -25.5z" />
    <glyph glyph-name="ydieresis" unicode="&#xff;" horiz-adv-x="360" 
d="M115 0l-115 520h145l40 -320l40 320h135l-118 -532q-35 -158 -157 -158q-21 0 -37 2t-22 4l-6 3v110q14 -4 35 -4q51 0 60 55zM200 637q0 32 20.5 52.5t52.5 20.5t52.5 -20.5t20.5 -52.5t-20.5 -52.5t-52.5 -20.5t-52.5 20.5t-20.5 52.5zM24 637q0 32 20.5 52.5
t52.5 20.5t52.5 -20.5t20.5 -52.5t-20.5 -52.5t-52.5 -20.5t-52.5 20.5t-20.5 52.5z" />
    <glyph glyph-name="Amacron" unicode="&#x100;" horiz-adv-x="415" 
d="M280 700l135 -700h-155l-15 115h-85l-15 -115h-145l135 700h145zM68 764v96h280v-96h-280zM202 437l-26 -202h53z" />
    <glyph glyph-name="amacron" unicode="&#x101;" horiz-adv-x="400" 
d="M370 0h-120l-5 46q-31 -56 -97 -56q-58 0 -93 39t-35 109v20q0 70 37 111t95 41q49 0 78 -31v101q0 30 -27 30t-27 -30v-35h-135v23q0 70 48.5 116t115.5 46q69 0 117 -44t48 -114v-372zM70 584v96h280v-96h-280zM230 140v30q0 40 -35 40t-35 -40v-30q0 -40 35 -40t35 40
z" />
    <glyph glyph-name="Abreve" unicode="&#x102;" horiz-adv-x="415" 
d="M280 700l135 -700h-155l-15 115h-85l-15 -115h-145l135 700h145zM82 920h91v-50q0 -40 35 -40t35 40v50h91v-44q0 -57 -35 -91.5t-91 -34.5q-57 0 -91.5 33.5t-34.5 90.5v46zM229 235l-27 202l-26 -202h53z" />
    <glyph glyph-name="abreve" unicode="&#x103;" horiz-adv-x="400" 
d="M370 0h-120l-5 46q-31 -56 -97 -56q-58 0 -93 39t-35 109v20q0 70 37 111t95 41q49 0 78 -31v101q0 30 -27 30t-27 -30v-35h-135v23q0 70 48.5 116t115.5 46q69 0 117 -44t48 -114v-372zM84 740h91v-50q0 -40 35 -40t35 40v50h91v-44q0 -57 -35 -91.5t-91 -34.5
q-57 0 -91.5 33.5t-34.5 90.5v46zM230 140v30q0 40 -35 40t-35 -40v-30q0 -40 35 -40t35 40z" />
    <glyph glyph-name="Aogonek" unicode="&#x104;" horiz-adv-x="415" 
d="M280 700l135 -700h-64q-1 0 -5.5 -4t-9.5 -14.5t-5 -23.5q0 -23 15 -37t40 -14l29 3v-89q-15 -6 -45 -6q-58 0 -96.5 33.5t-38.5 86.5q0 42 24 71l-14 109h-85l-15 -115h-145l135 700h145zM229 235l-27 202l-26 -202h53z" />
    <glyph glyph-name="aogonek" unicode="&#x105;" horiz-adv-x="400" 
d="M370 0h-44q-1 0 -5.5 -4t-9.5 -14.5t-5 -23.5q0 -23 15 -37t40 -14l29 3v-89q-15 -6 -45 -6q-58 0 -96.5 33.5t-38.5 86.5q0 51 37 86l-2 25q-31 -56 -97 -56q-58 0 -93 39t-35 109v20q0 70 37 111t95 41q49 0 78 -31v101q0 30 -27 30t-27 -30v-35h-135v23q0 70 48.5 116
t115.5 46q69 0 117 -44t48 -114v-372zM230 140v30q0 40 -35 40t-35 -40v-30q0 -40 35 -40t35 40z" />
    <glyph glyph-name="Cacute" unicode="&#x106;" horiz-adv-x="415" 
d="M385 435h-145v100q0 35 -30 35t-30 -35v-370q0 -35 30 -35t30 35v110h145v-113q0 -77 -51.5 -124.5t-125.5 -47.5q-76 0 -127 47t-51 126v370q0 79 53 128t129 49q74 0 123.5 -45.5t49.5 -122.5v-107zM158 750l40 170h145l-80 -170h-105z" />
    <glyph glyph-name="cacute" unicode="&#x107;" horiz-adv-x="381" 
d="M221 225h135v-72q0 -71 -48.5 -117t-116.5 -46q-70 0 -118 44t-48 115v218q0 71 50 117t120 46q68 0 114.5 -44t46.5 -115v-71h-135v69q0 31 -28 31t-28 -31v-218q0 -31 28 -31t28 31v74zM149 570l40 170h145l-80 -170h-105z" />
    <glyph glyph-name="Ccircumflex" unicode="&#x108;" horiz-adv-x="415" 
d="M385 435h-145v100q0 35 -30 35t-30 -35v-370q0 -35 30 -35t30 35v110h145v-113q0 -77 -51.5 -124.5t-125.5 -47.5q-76 0 -127 47t-51 126v370q0 79 53 128t129 49q74 0 123.5 -45.5t49.5 -122.5v-107zM58 750l100 170h100l100 -170h-106l-47 72l-47 -72h-100z" />
    <glyph glyph-name="ccircumflex" unicode="&#x109;" horiz-adv-x="381" 
d="M221 225h135v-72q0 -71 -48.5 -117t-116.5 -46q-70 0 -118 44t-48 115v218q0 71 50 117t120 46q68 0 114.5 -44t46.5 -115v-71h-135v69q0 31 -28 31t-28 -31v-218q0 -31 28 -31t28 31v74zM41 570l100 170h100l100 -170h-106l-47 72l-47 -72h-100z" />
    <glyph glyph-name="Cdotaccent" unicode="&#x10a;" horiz-adv-x="415" 
d="M385 435h-145v100q0 35 -30 35t-30 -35v-370q0 -35 30 -35t30 35v110h145v-113q0 -77 -51.5 -124.5t-125.5 -47.5q-76 0 -127 47t-51 126v370q0 79 53 128t129 49q74 0 123.5 -45.5t49.5 -122.5v-107zM134 827q0 32 20.5 52.5t52.5 20.5t52.5 -20.5t20.5 -52.5
t-20.5 -52.5t-52.5 -20.5t-52.5 20.5t-20.5 52.5z" />
    <glyph glyph-name="cdotaccent" unicode="&#x10b;" horiz-adv-x="381" 
d="M221 225h135v-72q0 -71 -48.5 -117t-116.5 -46q-70 0 -118 44t-48 115v218q0 71 50 117t120 46q68 0 114.5 -44t46.5 -115v-71h-135v69q0 31 -28 31t-28 -31v-218q0 -31 28 -31t28 31v74zM117 647q0 32 20.5 52.5t52.5 20.5t52.5 -20.5t20.5 -52.5t-20.5 -52.5
t-52.5 -20.5t-52.5 20.5t-20.5 52.5z" />
    <glyph glyph-name="Ccaron" unicode="&#x10c;" horiz-adv-x="415" 
d="M385 435h-145v100q0 35 -30 35t-30 -35v-370q0 -35 30 -35t30 35v110h145v-113q0 -77 -51.5 -124.5t-125.5 -47.5q-76 0 -127 47t-51 126v370q0 79 53 128t129 49q74 0 123.5 -45.5t49.5 -122.5v-107zM358 920l-100 -170h-100l-100 170h106l47 -73l47 73h100z" />
    <glyph glyph-name="ccaron" unicode="&#x10d;" horiz-adv-x="381" 
d="M221 225h135v-72q0 -71 -48.5 -117t-116.5 -46q-70 0 -118 44t-48 115v218q0 71 50 117t120 46q68 0 114.5 -44t46.5 -115v-71h-135v69q0 31 -28 31t-28 -31v-218q0 -31 28 -31t28 31v74zM341 740l-100 -170h-100l-100 170h106l47 -73l47 73h100z" />
    <glyph glyph-name="Dcaron" unicode="&#x10e;" horiz-adv-x="435" 
d="M40 0v700h182q86 0 134.5 -45t48.5 -133v-340q0 -88 -50.5 -135t-136.5 -47h-178zM368 920l-100 -170h-100l-100 170h106l47 -73l47 73h100zM190 560v-420h20q45 0 45 50v320q0 50 -45 50h-20z" />
    <glyph glyph-name="dcaron" unicode="&#x10f;" horiz-adv-x="544" 
d="M369 700v-700h-120l-5 44q-29 -54 -94 -54q-56 0 -90.5 37.5t-34.5 105.5v250q0 68 36.5 107.5t92.5 39.5q48 0 75 -29v199h140zM499 470h-100l10 230h145zM229 155v210q0 16 -9 25.5t-23 9.5t-23 -9.5t-9 -25.5v-210q0 -16 9 -25.5t23 -9.5t23 9.5t9 25.5z" />
    <glyph glyph-name="Dcroat" unicode="&#x110;" horiz-adv-x="465" 
d="M70 0v305h-60v90h60v305h182q86 0 134.5 -45t48.5 -133v-340q0 -88 -50.5 -135t-136.5 -47h-178zM220 560v-165h45v-90h-45v-165h20q45 0 45 50v320q0 50 -45 50h-20z" />
    <glyph glyph-name="dcroat" unicode="&#x111;" horiz-adv-x="429" 
d="M369 700v-45h50v-90h-50v-565h-120l-5 44q-29 -54 -94 -54q-56 0 -90.5 37.5t-34.5 105.5v250q0 68 36.5 107.5t92.5 39.5q48 0 75 -29v64h-80v90h80v45h140zM229 155v210q0 16 -9 25.5t-23 9.5t-23 -9.5t-9 -25.5v-210q0 -16 9 -25.5t23 -9.5t23 9.5t9 25.5z" />
    <glyph glyph-name="Emacron" unicode="&#x112;" horiz-adv-x="355" 
d="M335 0h-295v700h290v-150h-140v-123h110v-140h-110v-137h145v-150zM45 764v96h280v-96h-280z" />
    <glyph glyph-name="emacron" unicode="&#x113;" horiz-adv-x="384" 
d="M359 235h-194v-80q0 -16 9 -25.5t23 -9.5t23 9.5t9 25.5v40h130v-43q0 -70 -50 -116t-119 -46t-117 44t-48 114v220q0 70 50 116t119 46t117 -44t48 -114v-137zM52 584v96h280v-96h-280zM165 380v-55h64v55q0 16 -9 25.5t-23 9.5t-23 -9.5t-9 -25.5z" />
    <glyph glyph-name="Ebreve" unicode="&#x114;" horiz-adv-x="355" 
d="M335 0h-295v700h290v-150h-140v-123h110v-140h-110v-137h145v-150zM59 920h91v-50q0 -40 35 -40t35 40v50h91v-44q0 -57 -35 -91.5t-91 -34.5q-57 0 -91.5 33.5t-34.5 90.5v46z" />
    <glyph glyph-name="ebreve" unicode="&#x115;" horiz-adv-x="384" 
d="M359 235h-194v-80q0 -16 9 -25.5t23 -9.5t23 9.5t9 25.5v40h130v-43q0 -70 -50 -116t-119 -46t-117 44t-48 114v220q0 70 50 116t119 46t117 -44t48 -114v-137zM66 740h91v-50q0 -40 35 -40t35 40v50h91v-44q0 -57 -35 -91.5t-91 -34.5q-57 0 -91.5 33.5t-34.5 90.5v46z
M165 380v-55h64v55q0 16 -9 25.5t-23 9.5t-23 -9.5t-9 -25.5z" />
    <glyph glyph-name="Edotaccent" unicode="&#x116;" horiz-adv-x="355" 
d="M335 0h-295v700h290v-150h-140v-123h110v-140h-110v-137h145v-150zM111 827q0 32 20.5 52.5t52.5 20.5t52.5 -20.5t20.5 -52.5t-20.5 -52.5t-52.5 -20.5t-52.5 20.5t-20.5 52.5z" />
    <glyph glyph-name="edotaccent" unicode="&#x117;" horiz-adv-x="384" 
d="M359 235h-194v-80q0 -16 9 -25.5t23 -9.5t23 9.5t9 25.5v40h130v-43q0 -70 -50 -116t-119 -46t-117 44t-48 114v220q0 70 50 116t119 46t117 -44t48 -114v-137zM119 647q0 32 20.5 52.5t52.5 20.5t52.5 -20.5t20.5 -52.5t-20.5 -52.5t-52.5 -20.5t-52.5 20.5t-20.5 52.5z
M165 380v-55h64v55q0 16 -9 25.5t-23 9.5t-23 -9.5t-9 -25.5z" />
    <glyph glyph-name="Eogonek" unicode="&#x118;" horiz-adv-x="355" 
d="M335 0h-64q-1 0 -5.5 -4t-9.5 -14.5t-5 -23.5q0 -23 15 -37t40 -14l29 3v-89q-15 -6 -45 -6q-58 0 -96.5 33.5t-38.5 86.5q0 36 19 65h-134v700h290v-150h-140v-123h110v-140h-110v-137h145v-150z" />
    <glyph glyph-name="eogonek" unicode="&#x119;" horiz-adv-x="384" 
d="M359 235h-194v-80q0 -16 9 -25.5t23 -9.5t23 9.5t9 25.5v40h130v-43q0 -56 -32.5 -97.5t-83.5 -56.5q-18 -12 -18 -40q0 -23 15 -37t40 -14l29 3v-89q-15 -6 -45 -6q-58 0 -96.5 33.5t-38.5 86.5q0 32 16 60q-53 13 -86.5 54t-33.5 99v220q0 70 50 116t119 46t117 -44
t48 -114v-137zM165 380v-55h64v55q0 16 -9 25.5t-23 9.5t-23 -9.5t-9 -25.5z" />
    <glyph glyph-name="Ecaron" unicode="&#x11a;" horiz-adv-x="355" 
d="M335 0h-295v700h290v-150h-140v-123h110v-140h-110v-137h145v-150zM335 920l-100 -170h-100l-100 170h106l47 -73l47 73h100z" />
    <glyph glyph-name="ecaron" unicode="&#x11b;" horiz-adv-x="384" 
d="M359 235h-194v-80q0 -16 9 -25.5t23 -9.5t23 9.5t9 25.5v40h130v-43q0 -70 -50 -116t-119 -46t-117 44t-48 114v220q0 70 50 116t119 46t117 -44t48 -114v-137zM342 740l-100 -170h-100l-100 170h106l47 -73l47 73h100zM165 380v-55h64v55q0 16 -9 25.5t-23 9.5t-23 -9.5
t-9 -25.5z" />
    <glyph glyph-name="Gcircumflex" unicode="&#x11c;" 
d="M215 270v115h185v-213q0 -81 -54 -131.5t-133 -50.5t-131 48.5t-52 129.5v360q0 81 54 131.5t133 50.5t131 -48.5t52 -129.5v-87h-150v85q0 40 -35 40t-35 -40v-363q0 -42 37 -42q17 0 27.5 11.5t10.5 30.5v103h-40zM65 750l100 170h100l100 -170h-106l-47 72l-47 -72
h-100z" />
    <glyph glyph-name="gcircumflex" unicode="&#x11d;" horiz-adv-x="404" 
d="M154 530q63 0 90 -50l5 40h120v-523q0 -73 -51 -120t-123 -47q-69 0 -117 45t-48 118v22h135v-30q0 -16 9 -25.5t23 -9.5t23 9.5t9 25.5v97q-29 -32 -79 -32q-56 0 -90.5 37.5t-34.5 105.5v190q0 68 36.5 107.5t92.5 39.5zM62 570l100 170h100l100 -170h-106l-47 72
l-47 -72h-100zM229 205v160q0 16 -9 25.5t-23 9.5t-23 -9.5t-9 -25.5v-160q0 -16 9 -25.5t23 -9.5t23 9.5t9 25.5z" />
    <glyph glyph-name="Gbreve" unicode="&#x11e;" 
d="M215 270v115h185v-213q0 -81 -54 -131.5t-133 -50.5t-131 48.5t-52 129.5v360q0 81 54 131.5t133 50.5t131 -48.5t52 -129.5v-87h-150v85q0 40 -35 40t-35 -40v-363q0 -42 37 -42q17 0 27.5 11.5t10.5 30.5v103h-40zM89 920h91v-50q0 -40 35 -40t35 40v50h91v-44
q0 -57 -35 -91.5t-91 -34.5q-57 0 -91.5 33.5t-34.5 90.5v46z" />
    <glyph glyph-name="gbreve" unicode="&#x11f;" horiz-adv-x="404" 
d="M154 530q63 0 90 -50l5 40h120v-523q0 -73 -51 -120t-123 -47q-69 0 -117 45t-48 118v22h135v-30q0 -16 9 -25.5t23 -9.5t23 9.5t9 25.5v97q-29 -32 -79 -32q-56 0 -90.5 37.5t-34.5 105.5v190q0 68 36.5 107.5t92.5 39.5zM86 740h91v-50q0 -40 35 -40t35 40v50h91v-44
q0 -57 -35 -91.5t-91 -34.5q-57 0 -91.5 33.5t-34.5 90.5v46zM229 205v160q0 16 -9 25.5t-23 9.5t-23 -9.5t-9 -25.5v-160q0 -16 9 -25.5t23 -9.5t23 9.5t9 25.5z" />
    <glyph glyph-name="Gdotaccent" unicode="&#x120;" 
d="M215 270v115h185v-213q0 -81 -54 -131.5t-133 -50.5t-131 48.5t-52 129.5v360q0 81 54 131.5t133 50.5t131 -48.5t52 -129.5v-87h-150v85q0 40 -35 40t-35 -40v-363q0 -42 37 -42q17 0 27.5 11.5t10.5 30.5v103h-40zM142 827q0 32 20.5 52.5t52.5 20.5t52.5 -20.5
t20.5 -52.5t-20.5 -52.5t-52.5 -20.5t-52.5 20.5t-20.5 52.5z" />
    <glyph glyph-name="gdotaccent" unicode="&#x121;" horiz-adv-x="404" 
d="M154 530q63 0 90 -50l5 40h120v-523q0 -73 -51 -120t-123 -47q-69 0 -117 45t-48 118v22h135v-30q0 -16 9 -25.5t23 -9.5t23 9.5t9 25.5v97q-29 -32 -79 -32q-56 0 -90.5 37.5t-34.5 105.5v190q0 68 36.5 107.5t92.5 39.5zM139 647q0 32 20.5 52.5t52.5 20.5t52.5 -20.5
t20.5 -52.5t-20.5 -52.5t-52.5 -20.5t-52.5 20.5t-20.5 52.5zM229 205v160q0 16 -9 25.5t-23 9.5t-23 -9.5t-9 -25.5v-160q0 -16 9 -25.5t23 -9.5t23 9.5t9 25.5z" />
    <glyph glyph-name="Gcommaaccent" unicode="&#x122;" 
d="M215 270v115h185v-213q0 -81 -54 -131.5t-133 -50.5t-131 48.5t-52 129.5v360q0 81 54 131.5t133 50.5t131 -48.5t52 -129.5v-87h-150v85q0 40 -35 40t-35 -40v-363q0 -42 37 -42q17 0 27.5 11.5t10.5 30.5v103h-40zM103 -220l40 170h145l-80 -170h-105z" />
    <glyph glyph-name="gcommaaccent" unicode="&#x123;" horiz-adv-x="404" 
d="M154 530q63 0 90 -50l5 40h120v-523q0 -73 -51 -120t-123 -47q-69 0 -117 45t-48 118v22h135v-30q0 -16 9 -25.5t23 -9.5t23 9.5t9 25.5v97q-29 -32 -79 -32q-56 0 -90.5 37.5t-34.5 105.5v190q0 68 36.5 107.5t92.5 39.5zM310 740l-40 -170h-145l80 170h105zM229 205
v160q0 16 -9 25.5t-23 9.5t-23 -9.5t-9 -25.5v-160q0 -16 9 -25.5t23 -9.5t23 9.5t9 25.5z" />
    <glyph glyph-name="Hcircumflex" unicode="&#x124;" horiz-adv-x="445" 
d="M255 0v285h-65v-285h-150v700h150v-265h65v265h150v-700h-150zM73 750l100 170h100l100 -170h-106l-47 72l-47 -72h-100z" />
    <glyph glyph-name="hcircumflex" unicode="&#x125;" horiz-adv-x="405" 
d="M175 367v-367h-140v700h140v-225q30 55 87 55q52 0 82.5 -35.5t30.5 -107.5v-387h-140v367q0 33 -29 33q-31 0 -31 -33zM53 750l100 170h100l100 -170h-106l-47 72l-47 -72h-100z" />
    <glyph glyph-name="Hbar" unicode="&#x126;" horiz-adv-x="505" 
d="M70 0v525h-60v90h60v85h150v-85h65v85h150v-85h60v-90h-60v-525h-150v285h-65v-285h-150zM220 525v-90h65v90h-65z" />
    <glyph glyph-name="hbar" unicode="&#x127;" 
d="M60 0v565h-50v90h50v45h140v-45h80v-90h-80v-90q30 55 87 55q52 0 82.5 -35.5t30.5 -107.5v-387h-140v367q0 33 -29 33q-31 0 -31 -33v-367h-140z" />
    <glyph glyph-name="Itilde" unicode="&#x128;" horiz-adv-x="243" 
d="M45 0v700h153v-700h-153zM51 754h-73q0 5 0.5 12.5t5.5 27.5t14 35.5t28 28t44 12.5q30 0 58.5 -20.5t41.5 -20.5q9 0 14.5 8.5t6.5 17.5l1 9h73q0 -5 -0.5 -12.5t-5.5 -27.5t-14 -35.5t-28 -28t-44 -12.5q-30 0 -58.5 20.5t-41.5 20.5q-9 0 -14.5 -8.5t-6.5 -17.5z" />
    <glyph glyph-name="itilde" unicode="&#x129;" horiz-adv-x="222" 
d="M40 0v520h142v-520h-142zM41 574h-73q0 5 0.5 12.5t5.5 27.5t14 35.5t28 28t44 12.5q30 0 58.5 -20.5t41.5 -20.5q9 0 14.5 8.5t6.5 17.5l1 9h73q0 -5 -0.5 -12.5t-5.5 -27.5t-14 -35.5t-28 -28t-44 -12.5q-30 0 -58.5 20.5t-41.5 20.5q-9 0 -14.5 -8.5t-6.5 -17.5z" />
    <glyph glyph-name="Imacron" unicode="&#x12a;" horiz-adv-x="243" 
d="M45 0v700h153v-700h-153zM-18 764v96h280v-96h-280z" />
    <glyph glyph-name="imacron" unicode="&#x12b;" horiz-adv-x="222" 
d="M40 0v520h142v-520h-142zM-29 584v96h280v-96h-280z" />
    <glyph glyph-name="Ibreve" unicode="&#x12c;" horiz-adv-x="243" 
d="M45 0v700h153v-700h-153zM-4 920h91v-50q0 -40 35 -40t35 40v50h91v-44q0 -57 -35 -91.5t-91 -34.5q-57 0 -91.5 33.5t-34.5 90.5v46z" />
    <glyph glyph-name="ibreve" unicode="&#x12d;" horiz-adv-x="222" 
d="M40 0v520h142v-520h-142zM-15 740h91v-50q0 -40 35 -40t35 40v50h91v-44q0 -57 -35 -91.5t-91 -34.5q-57 0 -91.5 33.5t-34.5 90.5v46z" />
    <glyph glyph-name="Iogonek" unicode="&#x12e;" horiz-adv-x="243" 
d="M198 0h-64q-1 0 -5.5 -4t-9.5 -14.5t-5 -23.5q0 -23 15 -37t40 -14l29 3v-89q-15 -6 -45 -6q-58 0 -96.5 33.5t-38.5 86.5q0 43 27 75v690h153v-700z" />
    <glyph glyph-name="iogonek" unicode="&#x12f;" horiz-adv-x="222" 
d="M182 0h-64q-1 0 -5.5 -4t-9.5 -14.5t-5 -23.5q0 -23 15 -37t40 -14l29 3v-89q-15 -6 -45 -6q-58 0 -96.5 33.5t-38.5 86.5q0 51 38 87v498h142v-520zM26 645q0 35 25 60t60 25t60 -25t25 -60t-25 -60t-60 -25t-60 25t-25 60z" />
    <glyph glyph-name="Idotaccent" unicode="&#x130;" horiz-adv-x="243" 
d="M45 0v700h153v-700h-153zM49 827q0 32 20.5 52.5t52.5 20.5t52.5 -20.5t20.5 -52.5t-20.5 -52.5t-52.5 -20.5t-52.5 20.5t-20.5 52.5z" />
    <glyph glyph-name="dotlessi" unicode="&#x131;" horiz-adv-x="222" 
d="M40 0v520h142v-520h-142z" />
    <glyph glyph-name="IJ" unicode="&#x132;" horiz-adv-x="504" 
d="M45 0v700h153v-700h-153zM253 -6v142q8 -1 18 -1q24 0 34.5 12t10.5 38v515h153v-548q0 -79 -45.5 -120.5t-115.5 -41.5z" />
    <glyph glyph-name="ij" unicode="&#x133;" horiz-adv-x="444" 
d="M40 0v520h142v-520h-142zM26 645q0 35 25 60t60 25t60 -25t25 -60t-25 -60t-60 -25t-60 25t-25 60zM217 -164v120q9 -1 18 -1q27 0 27 30v535h142v-552q0 -65 -37 -101.5t-95 -36.5q-16 0 -29.5 1.5t-19.5 2.5zM248 645q0 35 25 60t60 25t60 -25t25 -60t-25 -60t-60 -25
t-60 25t-25 60z" />
    <glyph glyph-name="Jcircumflex" unicode="&#x134;" horiz-adv-x="261" 
d="M10 -6v142q8 -1 18 -1q24 0 34.5 12t10.5 38v515h153v-548q0 -79 -45.5 -120.5t-115.5 -41.5zM-1 750l100 170h100l100 -170h-106l-47 72l-47 -72h-100z" />
    <glyph glyph-name="jcircumflex" unicode="&#x135;" horiz-adv-x="222" 
d="M-5 -164v120q9 -1 18 -1q27 0 27 30v535h142v-552q0 -65 -37 -101.5t-95 -36.5q-16 0 -29.5 1.5t-19.5 2.5zM-39 570l100 170h100l100 -170h-106l-47 72l-47 -72h-100z" />
    <glyph glyph-name="Kcommaaccent" unicode="&#x136;" horiz-adv-x="445" 
d="M280 0l-90 324v-324h-150v700h150v-302l80 302h165l-110 -330l120 -370h-165zM123 -220l40 170h145l-80 -170h-105z" />
    <glyph glyph-name="kcommaaccent" unicode="&#x137;" horiz-adv-x="405" 
d="M35 0v700h140v-396l75 216h155l-105 -235l115 -285h-160l-80 244v-244h-140zM103 -220l40 170h145l-80 -170h-105z" />
    <glyph glyph-name="Lacute" unicode="&#x139;" horiz-adv-x="325" 
d="M315 0h-275v700h150v-550h125v-150zM60 750l40 170h145l-80 -170h-105z" />
    <glyph glyph-name="lacute" unicode="&#x13a;" horiz-adv-x="222" 
d="M40 0v700h142v-700h-142zM54 750l40 170h145l-80 -170h-105z" />
    <glyph glyph-name="Lcommaaccent" unicode="&#x13b;" horiz-adv-x="325" 
d="M315 0h-275v700h150v-550h125v-150zM68 -220l40 170h145l-80 -170h-105z" />
    <glyph glyph-name="lcommaaccent" unicode="&#x13c;" horiz-adv-x="222" 
d="M40 0v700h142v-700h-142zM-2 -220l40 170h145l-80 -170h-105z" />
    <glyph glyph-name="Lcaron" unicode="&#x13d;" horiz-adv-x="375" 
d="M315 0h-275v700h150v-550h125v-150zM330 470h-100l10 230h145z" />
    <glyph glyph-name="lcaron" unicode="&#x13e;" horiz-adv-x="357" 
d="M312 470h-100l10 230h145zM40 0v700h142v-700h-142z" />
    <glyph glyph-name="Ldot" unicode="&#x13f;" horiz-adv-x="390" 
d="M315 0h-275v700h150v-550h125v-150zM220 410q0 35 25 60t60 25t60 -25t25 -60t-25 -60t-60 -25t-60 25t-25 60z" />
    <glyph glyph-name="ldot" unicode="&#x140;" horiz-adv-x="392" 
d="M40 0v700h142v-700h-142zM222 335q0 35 25 60t60 25t60 -25t25 -60t-25 -60t-60 -25t-60 25t-25 60z" />
    <glyph glyph-name="Lslash" unicode="&#x141;" horiz-adv-x="355" 
d="M345 0h-275v312l-60 -12v90l60 12v298h150v-269l95 19v-90l-95 -19v-191h125v-150z" />
    <glyph glyph-name="lslash" unicode="&#x142;" horiz-adv-x="272" 
d="M60 0v312l-50 -12v90l50 12v298h142v-265l60 15v-90l-60 -15v-345h-142z" />
    <glyph glyph-name="Nacute" unicode="&#x143;" horiz-adv-x="455" 
d="M285 0l-115 374v-374h-130v700h140l105 -342v342h130v-700h-130zM185 750l40 170h145l-80 -170h-105z" />
    <glyph glyph-name="nacute" unicode="&#x144;" horiz-adv-x="405" 
d="M175 367v-367h-140v520h120l6 -54q30 64 101 64q52 0 82.5 -35.5t30.5 -107.5v-387h-140v367q0 33 -29 33q-31 0 -31 -33zM143 570l40 170h145l-80 -170h-105z" />
    <glyph glyph-name="Ncommaaccent" unicode="&#x145;" horiz-adv-x="455" 
d="M285 0l-115 374v-374h-130v700h140l105 -342v342h130v-700h-130zM113 -220l40 170h145l-80 -170h-105z" />
    <glyph glyph-name="ncommaaccent" unicode="&#x146;" horiz-adv-x="405" 
d="M175 367v-367h-140v520h120l6 -54q30 64 101 64q52 0 82.5 -35.5t30.5 -107.5v-387h-140v367q0 33 -29 33q-31 0 -31 -33zM93 -220l40 170h145l-80 -170h-105z" />
    <glyph glyph-name="Ncaron" unicode="&#x147;" horiz-adv-x="455" 
d="M285 0l-115 374v-374h-130v700h140l105 -342v342h130v-700h-130zM378 920l-100 -170h-100l-100 170h106l47 -73l47 73h100z" />
    <glyph glyph-name="ncaron" unicode="&#x148;" horiz-adv-x="405" 
d="M175 367v-367h-140v520h120l6 -54q30 64 101 64q52 0 82.5 -35.5t30.5 -107.5v-387h-140v367q0 33 -29 33q-31 0 -31 -33zM353 740l-100 -170h-100l-100 170h106l47 -73l47 73h100z" />
    <glyph glyph-name="Eng" unicode="&#x14a;" horiz-adv-x="455" 
d="M222 -166v107q8 -1 18 -1q24 0 34.5 12t10.5 38v10l-115 374v-374h-130v700h140l105 -342v342h130v-713q0 -78 -38.5 -117.5t-104.5 -39.5z" />
    <glyph glyph-name="eng" unicode="&#x14b;" horiz-adv-x="405" 
d="M190 -164v120q9 -1 18 -1q27 0 27 30v382q0 33 -29 33q-30 0 -31 -28v-372h-140v520h120l6 -54q30 64 101 64q52 0 82.5 -35.5t30.5 -107.5v-419q0 -66 -36.5 -102t-93.5 -36q-16 0 -29.5 1.5t-19.5 2.5z" />
    <glyph glyph-name="Omacron" unicode="&#x14c;" 
d="M30 168v360q0 81 54 131.5t133 50.5t131 -48.5t52 -129.5v-360q0 -81 -54 -131.5t-133 -50.5t-131 48.5t-52 129.5zM180 530v-360q0 -40 35 -40t35 40v360q0 40 -35 40t-35 -40zM75 764v96h280v-96h-280z" />
    <glyph glyph-name="omacron" unicode="&#x14d;" horiz-adv-x="394" 
d="M25 153v210q0 73 51 120t123 47t121 -45t49 -118v-210q0 -73 -51 -120t-123 -47t-121 45t-49 118zM165 365v-210q0 -16 9 -25.5t23 -9.5t23 9.5t9 25.5v210q0 16 -9 25.5t-23 9.5t-23 -9.5t-9 -25.5zM57 584v96h280v-96h-280z" />
    <glyph glyph-name="Obreve" unicode="&#x14e;" 
d="M30 168v360q0 81 54 131.5t133 50.5t131 -48.5t52 -129.5v-360q0 -81 -54 -131.5t-133 -50.5t-131 48.5t-52 129.5zM180 530v-360q0 -40 35 -40t35 40v360q0 40 -35 40t-35 -40zM89 920h91v-50q0 -40 35 -40t35 40v50h91v-44q0 -57 -35 -91.5t-91 -34.5q-57 0 -91.5 33.5
t-34.5 90.5v46z" />
    <glyph glyph-name="obreve" unicode="&#x14f;" horiz-adv-x="394" 
d="M25 153v210q0 73 51 120t123 47t121 -45t49 -118v-210q0 -73 -51 -120t-123 -47t-121 45t-49 118zM165 365v-210q0 -16 9 -25.5t23 -9.5t23 9.5t9 25.5v210q0 16 -9 25.5t-23 9.5t-23 -9.5t-9 -25.5zM71 740h91v-50q0 -40 35 -40t35 40v50h91v-44q0 -57 -35 -91.5
t-91 -34.5q-57 0 -91.5 33.5t-34.5 90.5v46z" />
    <glyph glyph-name="Ohungarumlaut" unicode="&#x150;" 
d="M30 168v360q0 81 54 131.5t133 50.5t131 -48.5t52 -129.5v-360q0 -81 -54 -131.5t-133 -50.5t-131 48.5t-52 129.5zM180 530v-360q0 -40 35 -40t35 40v360q0 40 -35 40t-35 -40zM75 750l30 170h140l-70 -170h-100zM255 750l30 170h140l-70 -170h-100z" />
    <glyph glyph-name="ohungarumlaut" unicode="&#x151;" horiz-adv-x="394" 
d="M25 153v210q0 73 51 120t123 47t121 -45t49 -118v-210q0 -73 -51 -120t-123 -47t-121 45t-49 118zM165 365v-210q0 -16 9 -25.5t23 -9.5t23 9.5t9 25.5v210q0 16 -9 25.5t-23 9.5t-23 -9.5t-9 -25.5zM54 570l30 170h140l-70 -170h-100zM234 570l30 170h140l-70 -170h-100
z" />
    <glyph glyph-name="OE" unicode="&#x152;" horiz-adv-x="560" 
d="M540 0h-327q-86 0 -134.5 45t-48.5 133v340q0 88 50.5 135t136.5 47h318v-150h-140v-123h110v-140h-110v-137h145v-150zM245 140v420h-20q-45 0 -45 -50v-320q0 -50 45 -50h20z" />
    <glyph glyph-name="oe" unicode="&#x153;" horiz-adv-x="588" 
d="M25 153v210q0 73 51 120t123 47q60 0 101 -35q40 35 98 35q69 0 117 -44t48 -114v-137h-194v-80q0 -16 9 -25.5t23 -9.5t23 9.5t9 25.5v40h130v-43q0 -70 -50 -116t-119 -46q-61 0 -99 35q-40 -35 -100 -35q-72 0 -121 45t-49 118zM165 365v-210q0 -16 9 -25.5t23 -9.5
t23 9.5t9 25.5v210q0 16 -9 25.5t-23 9.5t-23 -9.5t-9 -25.5zM369 385v-60h64v60q0 16 -9 25.5t-23 9.5t-23 -9.5t-9 -25.5z" />
    <glyph glyph-name="Racute" unicode="&#x154;" horiz-adv-x="435" 
d="M40 0v700h172q92 0 142.5 -46.5t50.5 -141.5v-80q0 -88 -56 -128l86 -304h-155l-62 255h-28v-255h-150zM155 750l40 170h145l-80 -170h-105zM190 560v-180h20q45 0 45 50v80q0 50 -45 50h-20z" />
    <glyph glyph-name="racute" unicode="&#x155;" horiz-adv-x="287" 
d="M35 0v520h120l8 -77q30 87 114 87v-165h-31q-36 0 -53 -15.5t-18 -50.5v-299h-140zM111 570l40 170h145l-80 -170h-105z" />
    <glyph glyph-name="Rcommaaccent" unicode="&#x156;" horiz-adv-x="435" 
d="M40 0v700h172q92 0 142.5 -46.5t50.5 -141.5v-80q0 -88 -56 -128l86 -304h-155l-62 255h-28v-255h-150zM123 -220l40 170h145l-80 -170h-105zM190 560v-180h20q45 0 45 50v80q0 50 -45 50h-20z" />
    <glyph glyph-name="rcommaaccent" unicode="&#x157;" horiz-adv-x="287" 
d="M175 292v-292h-140v520h120l8 -77q30 87 114 87v-165h-31q-37 0 -54 -17t-17 -56zM-7 -220l40 170h145l-80 -170h-105z" />
    <glyph glyph-name="Rcaron" unicode="&#x158;" horiz-adv-x="435" 
d="M40 0v700h172q92 0 142.5 -46.5t50.5 -141.5v-80q0 -88 -56 -128l86 -304h-155l-62 255h-28v-255h-150zM368 920l-100 -170h-100l-100 170h106l47 -73l47 73h100zM190 560v-180h20q45 0 45 50v80q0 50 -45 50h-20z" />
    <glyph glyph-name="rcaron" unicode="&#x159;" horiz-adv-x="287" 
d="M35 0v520h120l8 -77q30 87 114 87v-165h-31q-36 0 -53 -15.5t-18 -50.5v-299h-140zM309 740l-100 -170h-100l-100 170h106l47 -73l47 73h100z" />
    <glyph glyph-name="Sacute" unicode="&#x15a;" horiz-adv-x="405" 
d="M165 225v-55q0 -45 35 -45q16 0 25.5 11.5t9.5 29.5q0 30 -18 60t-77 87q-115 112 -115 220q0 79 53 128t129 49q74 0 123.5 -45.5t49.5 -122.5v-52h-145v45q0 40 -30 40t-30 -36q0 -25 18.5 -54t76.5 -85q60 -58 87.5 -112t27.5 -116q0 -81 -54 -131.5t-133 -50.5
q-76 0 -127 47t-51 126v62h145zM150 750l40 170h145l-80 -170h-105z" />
    <glyph glyph-name="sacute" unicode="&#x15b;" horiz-adv-x="379" 
d="M219 355v20q0 35 -27 35t-27 -25q0 -16 15 -30t62 -38q117 -60 117 -165q0 -69 -49.5 -115.5t-119.5 -46.5q-72 0 -121 45t-49 118v22h135v-25q0 -19 9 -29.5t23 -10.5t23 9.5t9 25.5q0 18 -15 32.5t-66 40.5q-56 30 -84.5 68.5t-28.5 96.5q0 62 48 104.5t116 42.5
q69 0 117 -44t48 -114v-17h-135zM142 570l40 170h145l-80 -170h-105z" />
    <glyph glyph-name="Scircumflex" unicode="&#x15c;" horiz-adv-x="405" 
d="M165 225v-55q0 -45 35 -45q16 0 25.5 11.5t9.5 29.5q0 30 -18 60t-77 87q-115 112 -115 220q0 79 53 128t129 49q74 0 123.5 -45.5t49.5 -122.5v-52h-145v45q0 40 -30 40t-30 -36q0 -25 18.5 -54t76.5 -85q60 -58 87.5 -112t27.5 -116q0 -81 -54 -131.5t-133 -50.5
q-76 0 -127 47t-51 126v62h145zM58 750l100 170h100l100 -170h-106l-47 72l-47 -72h-100z" />
    <glyph glyph-name="scircumflex" unicode="&#x15d;" horiz-adv-x="379" 
d="M219 355v20q0 35 -27 35t-27 -25q0 -16 15 -30t62 -38q117 -60 117 -165q0 -69 -49.5 -115.5t-119.5 -46.5q-72 0 -121 45t-49 118v22h135v-25q0 -19 9 -29.5t23 -10.5t23 9.5t9 25.5q0 18 -15 32.5t-66 40.5q-56 30 -84.5 68.5t-28.5 96.5q0 62 48 104.5t116 42.5
q69 0 117 -44t48 -114v-17h-135zM45 570l100 170h100l100 -170h-106l-47 72l-47 -72h-100z" />
    <glyph glyph-name="Scedilla" unicode="&#x15e;" horiz-adv-x="405" 
d="M165 225v-55q0 -45 35 -45q16 0 25.5 11.5t9.5 29.5q0 30 -18 60t-77 87q-115 112 -115 220q0 79 53 128t129 49q74 0 123.5 -45.5t49.5 -122.5v-52h-145v45q0 40 -30 40t-30 -36q0 -25 18.5 -54t76.5 -85q60 -58 87.5 -112t27.5 -116q0 -66 -37 -113t-97 -62
q16 -26 16 -62q0 -58 -40.5 -94t-104.5 -36q-13 0 -25.5 1.5t-18.5 3.5l-6 1v89q8 -3 29 -3q27 0 43.5 15.5t16.5 40.5q0 29 -18 44q-56 15 -89.5 58.5t-33.5 107.5v62h145z" />
    <glyph glyph-name="scedilla" unicode="&#x15f;" horiz-adv-x="379" 
d="M219 355v20q0 35 -27 35t-27 -25q0 -16 15 -30t62 -38q117 -60 117 -165q0 -55 -32.5 -97t-83.5 -57q16 -28 16 -63q0 -58 -40.5 -94t-104.5 -36q-13 0 -25.5 1.5t-18.5 3.5l-6 1v89q8 -3 29 -3q27 0 43.5 15.5t16.5 40.5q0 29 -19 45q-51 15 -82.5 56t-31.5 99v22h135
v-25q0 -19 9 -29.5t23 -10.5t23 9.5t9 25.5q0 18 -15 32.5t-66 40.5q-56 30 -84.5 68.5t-28.5 96.5q0 62 48 104.5t116 42.5q69 0 117 -44t48 -114v-17h-135z" />
    <glyph glyph-name="Scaron" unicode="&#x160;" horiz-adv-x="405" 
d="M165 225v-55q0 -45 35 -45q16 0 25.5 11.5t9.5 29.5q0 30 -18 60t-77 87q-115 112 -115 220q0 79 53 128t129 49q74 0 123.5 -45.5t49.5 -122.5v-52h-145v45q0 40 -30 40t-30 -36q0 -25 18.5 -54t76.5 -85q60 -58 87.5 -112t27.5 -116q0 -81 -54 -131.5t-133 -50.5
q-76 0 -127 47t-51 126v62h145zM356 920l-100 -170h-100l-100 170h106l47 -73l47 73h100z" />
    <glyph glyph-name="scaron" unicode="&#x161;" horiz-adv-x="379" 
d="M219 355v20q0 35 -27 35t-27 -25q0 -16 15 -30t62 -38q117 -60 117 -165q0 -69 -49.5 -115.5t-119.5 -46.5q-72 0 -121 45t-49 118v22h135v-25q0 -19 9 -29.5t23 -10.5t23 9.5t9 25.5q0 18 -15 32.5t-66 40.5q-56 30 -84.5 68.5t-28.5 96.5q0 62 48 104.5t116 42.5
q69 0 117 -44t48 -114v-17h-135zM342 740l-100 -170h-100l-100 170h106l47 -73l47 73h100z" />
    <glyph glyph-name="Tcommaaccent" unicode="&#x162;" horiz-adv-x="370" 
d="M360 550h-100v-550h-150v550h-100v150h350v-150zM73 -220l40 170h145l-80 -170h-105z" />
    <glyph glyph-name="tcommaaccent" unicode="&#x163;" horiz-adv-x="295" 
d="M10 405v115h50v120h140v-120h75v-115h-75v-245q0 -22 8.5 -31t28.5 -9l33 2v-125q-32 -7 -70 -7q-65 0 -102.5 33.5t-37.5 99.5v282h-50zM63 -220l40 170h145l-80 -170h-105z" />
    <glyph glyph-name="Tcaron" unicode="&#x164;" horiz-adv-x="370" 
d="M360 550h-100v-550h-150v550h-100v150h350v-150zM335 920l-100 -170h-100l-100 170h106l47 -73l47 73h100z" />
    <glyph glyph-name="tcaron" unicode="&#x165;" horiz-adv-x="350" 
d="M10 405v115h50v120h140v-120h75v-115h-75v-245q0 -22 8.5 -31t28.5 -9l33 2v-125q-32 -7 -70 -7q-65 0 -102.5 33.5t-37.5 99.5v282h-50zM330 570h-100l10 220h145z" />
    <glyph glyph-name="Tbar" unicode="&#x166;" horiz-adv-x="370" 
d="M360 550h-100v-165h80v-90h-80v-295h-150v295h-80v90h80v165h-100v150h350v-150z" />
    <glyph glyph-name="tbar" unicode="&#x167;" horiz-adv-x="295" 
d="M10 410v110h50v120h140v-120h75v-110h-75v-97h75v-90h-75v-68q0 -22 8.5 -31t28.5 -9l33 2v-120q-32 -7 -70 -7q-65 0 -102.5 33.5t-37.5 99.5v100h-50v90h50v97h-50z" />
    <glyph glyph-name="Utilde" unicode="&#x168;" 
d="M35 700h151v-535q0 -35 30 -35t30 35v535h149v-533q0 -79 -53 -128t-129 -49t-127 47t-51 126v537zM145 754h-73q0 5 0.5 12.5t5.5 27.5t14 35.5t28 28t44 12.5q30 0 58.5 -20.5t41.5 -20.5q9 0 14.5 8.5t6.5 17.5l1 9h73q0 -5 -0.5 -12.5t-5.5 -27.5t-14 -35.5t-28 -28
t-44 -12.5q-30 0 -58.5 20.5t-41.5 20.5q-9 0 -14.5 -8.5t-6.5 -17.5z" />
    <glyph glyph-name="utilde" unicode="&#x169;" horiz-adv-x="405" 
d="M230 153v367h140v-520h-120l-6 54q-30 -64 -101 -64q-52 0 -82.5 35.5t-30.5 107.5v387h140v-367q0 -33 29 -33q31 0 31 33zM132 574h-73q0 5 0.5 12.5t5.5 27.5t14 35.5t28 28t44 12.5q30 0 58.5 -20.5t41.5 -20.5q9 0 14.5 8.5t6.5 17.5l1 9h73q0 -5 -0.5 -12.5
t-5.5 -27.5t-14 -35.5t-28 -28t-44 -12.5q-30 0 -58.5 20.5t-41.5 20.5q-9 0 -14.5 -8.5t-6.5 -17.5z" />
    <glyph glyph-name="Umacron" unicode="&#x16a;" 
d="M35 700h151v-535q0 -35 30 -35t30 35v535h149v-533q0 -79 -53 -128t-129 -49t-127 47t-51 126v537zM75 764v96h280v-96h-280z" />
    <glyph glyph-name="umacron" unicode="&#x16b;" horiz-adv-x="405" 
d="M230 153v367h140v-520h-120l-6 54q-30 -64 -101 -64q-52 0 -82.5 35.5t-30.5 107.5v387h140v-367q0 -33 29 -33q31 0 31 33zM63 584v96h280v-96h-280z" />
    <glyph glyph-name="Ubreve" unicode="&#x16c;" 
d="M35 700h151v-535q0 -35 30 -35t30 35v535h149v-533q0 -79 -53 -128t-129 -49t-127 47t-51 126v537zM89 920h91v-50q0 -40 35 -40t35 40v50h91v-44q0 -57 -35 -91.5t-91 -34.5q-57 0 -91.5 33.5t-34.5 90.5v46z" />
    <glyph glyph-name="ubreve" unicode="&#x16d;" horiz-adv-x="405" 
d="M230 153v367h140v-520h-120l-6 54q-30 -64 -101 -64q-52 0 -82.5 35.5t-30.5 107.5v387h140v-367q0 -33 29 -33q31 0 31 33zM77 740h91v-50q0 -40 35 -40t35 40v50h91v-44q0 -57 -35 -91.5t-91 -34.5q-57 0 -91.5 33.5t-34.5 90.5v46z" />
    <glyph glyph-name="Uring" unicode="&#x16e;" 
d="M35 700h151v-535q0 -35 30 -35t30 35v535h149v-533q0 -79 -53 -128t-129 -49t-127 47t-51 126v537zM120 830q0 39 27 64.5t68 25.5t68 -25.5t27 -64.5t-27 -64.5t-68 -25.5t-68 25.5t-27 64.5zM181 830q0 -14 9.5 -23.5t24.5 -9.5t24.5 9.5t9.5 23.5t-9.5 23.5t-24.5 9.5
t-24.5 -9.5t-9.5 -23.5z" />
    <glyph glyph-name="uring" unicode="&#x16f;" horiz-adv-x="405" 
d="M230 153v367h140v-520h-120l-6 54q-30 -64 -101 -64q-52 0 -82.5 35.5t-30.5 107.5v387h140v-367q0 -33 29 -33q31 0 31 33zM107 650q0 39 27 64.5t68 25.5t68 -25.5t27 -64.5t-27 -64.5t-68 -25.5t-68 25.5t-27 64.5zM168 650q0 -14 9.5 -23.5t24.5 -9.5t24.5 9.5
t9.5 23.5t-9.5 23.5t-24.5 9.5t-24.5 -9.5t-9.5 -23.5z" />
    <glyph glyph-name="Uhungarumlaut" unicode="&#x170;" 
d="M35 700h151v-535q0 -35 30 -35t30 35v535h149v-533q0 -79 -53 -128t-129 -49t-127 47t-51 126v537zM80 750l30 170h140l-70 -170h-100zM260 750l30 170h140l-70 -170h-100z" />
    <glyph glyph-name="uhungarumlaut" unicode="&#x171;" horiz-adv-x="405" 
d="M230 153v367h140v-520h-120l-6 54q-30 -64 -101 -64q-52 0 -82.5 35.5t-30.5 107.5v387h140v-367q0 -33 29 -33q31 0 31 33zM240 570l30 170h140l-70 -170h-100zM60 570l30 170h140l-70 -170h-100z" />
    <glyph glyph-name="Uogonek" unicode="&#x172;" 
d="M35 700h151v-535q0 -35 30 -35t30 35v535h149v-533q0 -64 -35.5 -109t-91.5 -60q-17 -14 -17 -40q0 -23 15 -37t40 -14l29 3v-89q-15 -6 -45 -6q-58 0 -96.5 33.5t-38.5 86.5q0 34 16 60q-61 12 -98.5 56.5t-37.5 111.5v537z" />
    <glyph glyph-name="uogonek" unicode="&#x173;" horiz-adv-x="405" 
d="M230 153v367h140v-520h-53q-21 -12 -21 -42q0 -23 15 -37t40 -14l29 3v-89q-15 -6 -45 -6q-58 0 -96.5 33.5t-38.5 86.5q0 56 46 94l-2 25q-30 -64 -101 -64q-52 0 -82.5 35.5t-30.5 107.5v387h140v-367q0 -33 29 -33q31 0 31 33z" />
    <glyph glyph-name="Wcircumflex" unicode="&#x174;" horiz-adv-x="580" 
d="M332 0l-42 323l-42 -323h-133l-115 700h160l33 -375l44 375h116l44 -375l33 375h150l-115 -700h-133zM143 750l100 170h100l100 -170h-106l-47 72l-47 -72h-100z" />
    <glyph glyph-name="wcircumflex" unicode="&#x175;" horiz-adv-x="515" 
d="M291 0l-34 256l-33 -256h-119l-105 520h145l28 -266l39 266h101l39 -266l28 266h135l-105 -520h-119zM108 570l100 170h100l100 -170h-106l-47 72l-47 -72h-100z" />
    <glyph glyph-name="Ycircumflex" unicode="&#x176;" horiz-adv-x="395" 
d="M122 0v250l-122 450h160l42 -250l43 250h150l-123 -450v-250h-150zM51 750l100 170h100l100 -170h-106l-47 72l-47 -72h-100z" />
    <glyph glyph-name="ycircumflex" unicode="&#x177;" horiz-adv-x="360" 
d="M115 0l-115 520h145l40 -320l40 320h135l-118 -532q-35 -158 -157 -158q-21 0 -37 2t-22 4l-6 3v110q14 -4 35 -4q51 0 60 55zM35 570l100 170h100l100 -170h-106l-47 72l-47 -72h-100z" />
    <glyph glyph-name="Ydieresis" unicode="&#x178;" horiz-adv-x="395" 
d="M122 0v250l-122 450h160l42 -250l43 250h150l-123 -450v-250h-150zM217 817q0 32 20.5 52.5t52.5 20.5t52.5 -20.5t20.5 -52.5t-20.5 -52.5t-52.5 -20.5t-52.5 20.5t-20.5 52.5zM41 817q0 32 20.5 52.5t52.5 20.5t52.5 -20.5t20.5 -52.5t-20.5 -52.5t-52.5 -20.5
t-52.5 20.5t-20.5 52.5z" />
    <glyph glyph-name="Zacute" unicode="&#x179;" horiz-adv-x="370" 
d="M350 0h-330v120l170 440h-155v140h315v-120l-170 -440h170v-140zM142 750l40 170h145l-80 -170h-105z" />
    <glyph glyph-name="zacute" unicode="&#x17a;" horiz-adv-x="340" 
d="M20 0v100l150 300h-135v120h285v-100l-150 -300h150v-120h-300zM128 570l40 170h145l-80 -170h-105z" />
    <glyph glyph-name="Zdotaccent" unicode="&#x17b;" horiz-adv-x="370" 
d="M350 0h-330v120l170 440h-155v140h315v-120l-170 -440h170v-140zM122 827q0 32 20.5 52.5t52.5 20.5t52.5 -20.5t20.5 -52.5t-20.5 -52.5t-52.5 -20.5t-52.5 20.5t-20.5 52.5z" />
    <glyph glyph-name="zdotaccent" unicode="&#x17c;" horiz-adv-x="340" 
d="M20 100l150 300h-135v120h285v-100l-150 -300h150v-120h-300v100zM107 647q0 32 20.5 52.5t52.5 20.5t52.5 -20.5t20.5 -52.5t-20.5 -52.5t-52.5 -20.5t-52.5 20.5t-20.5 52.5z" />
    <glyph glyph-name="Zcaron" unicode="&#x17d;" horiz-adv-x="370" 
d="M350 0h-330v120l170 440h-155v140h315v-120l-170 -440h170v-140zM343 920l-100 -170h-100l-100 170h106l47 -73l47 73h100z" />
    <glyph glyph-name="zcaron" unicode="&#x17e;" horiz-adv-x="340" 
d="M20 0v100l150 300h-135v120h285v-100l-150 -300h150v-120h-300zM328 740l-100 -170h-100l-100 170h106l47 -73l47 73h100z" />
    <glyph glyph-name="florin" unicode="&#x192;" horiz-adv-x="360" 
d="M192 -160h-142l34 439h-74v87h81l15 190q6 75 47 114.5t111 39.5q20 0 39 -2t28 -4l9 -1v-131q-15 5 -43 5q-46 0 -51 -57l-12 -154h91v-87h-98z" />
    <glyph glyph-name="Aringacute" unicode="&#x1fa;" horiz-adv-x="415" 
d="M112 735q0 30 16.5 52.5t43.5 31.5l23 101h145l-65 -121q27 -25 27 -64q0 -30 -18 -55l131 -680h-155l-15 115h-85l-15 -115h-145l131 679q-19 24 -19 56zM202 437l-26 -202h53zM173 735q0 -14 9.5 -23.5t24.5 -9.5t24.5 9.5t9.5 23.5t-9.5 23.5t-24.5 9.5t-24.5 -9.5
t-9.5 -23.5z" />
    <glyph glyph-name="aringacute" unicode="&#x1fb;" horiz-adv-x="400" 
d="M122 565q0 29 15.5 51t41.5 32l21 92h145l-60 -111q27 -25 27 -64q0 -32 -20 -57q78 -44 78 -136v-372h-120l-5 46q-31 -56 -97 -56q-58 0 -93 39t-35 109v20q0 70 37 111t95 41q49 0 78 -31v101q0 30 -27 30t-27 -30v-35h-135v23q0 50 26 89t69 58q-14 22 -14 50z
M230 140v30q0 40 -35 40t-35 -40v-30q0 -40 35 -40t35 40zM183 565q0 -14 9.5 -23.5t24.5 -9.5t24.5 9.5t9.5 23.5t-9.5 23.5t-24.5 9.5t-24.5 -9.5t-9.5 -23.5z" />
    <glyph glyph-name="AEacute" unicode="&#x1fc;" horiz-adv-x="570" 
d="M550 0h-295v115h-92l-23 -115h-145l165 700h385v-150h-140v-123h110v-140h-110v-137h145v-150zM282 750l40 170h145l-80 -170h-105zM187 235h68v340z" />
    <glyph glyph-name="aeacute" unicode="&#x1fd;" horiz-adv-x="589" 
d="M564 235h-194v-80q0 -16 9 -25.5t23 -9.5t23 9.5t9 25.5v40h130v-43q0 -70 -50 -116t-119 -46q-71 0 -110 47q-38 -47 -127 -47q-64 0 -101 38.5t-37 109.5v20q0 70 37 111t95 41q49 0 78 -31v101q0 30 -27 30t-27 -30v-35h-135v23q0 70 48.5 116t115.5 46q58 0 97 -34
q40 34 97 34q69 0 117 -44t48 -114v-137zM252 570l40 170h145l-80 -170h-105zM230 140v30q0 40 -35 40t-35 -40v-30q0 -40 35 -40t35 40zM370 385v-60h64v60q0 16 -9 25.5t-23 9.5t-23 -9.5t-9 -25.5z" />
    <glyph glyph-name="Oslashacute" unicode="&#x1fe;" 
d="M410 730l-40 -94q30 -44 30 -104v-360q0 -81 -54 -131.5t-133 -50.5q-61 0 -107 29l-21 -49h-65l40 94q-30 44 -30 104v360q0 81 54 131.5t133 50.5q62 0 107 -30l21 50h65zM158 750l40 170h145l-80 -170h-105zM215 130q35 0 35 40v186l-70 -164v-22q0 -40 35 -40z
M180 530v-186l70 164v22q0 40 -35 40t-35 -40z" />
    <glyph glyph-name="oslashacute" unicode="&#x1ff;" horiz-adv-x="394" 
d="M25 153v210q0 73 51 120t123 47q45 0 85 -21l20 41h70l-40 -81q35 -43 35 -102v-210q0 -73 -51 -120t-123 -47q-43 0 -85 20l-20 -40h-70l39 81q-34 44 -34 102zM137 570l40 170h145l-80 -170h-105zM160 365v-109l66 135q-9 14 -29 14q-17 0 -27 -10.5t-10 -29.5z
M197 115q17 0 27 10.5t10 29.5v108l-66 -135q10 -13 29 -13z" />
    <glyph glyph-name="Scommaaccent" unicode="&#x218;" horiz-adv-x="405" 
d="M165 225v-55q0 -45 35 -45q16 0 25.5 11.5t9.5 29.5q0 30 -18 60t-77 87q-115 112 -115 220q0 79 53 128t129 49q74 0 123.5 -45.5t49.5 -122.5v-52h-145v45q0 40 -30 40t-30 -36q0 -25 18.5 -54t76.5 -85q60 -58 87.5 -112t27.5 -116q0 -81 -54 -131.5t-133 -50.5
q-76 0 -127 47t-51 126v62h145zM83 -220l40 170h145l-80 -170h-105z" />
    <glyph glyph-name="scommaaccent" unicode="&#x219;" horiz-adv-x="379" 
d="M219 355v20q0 35 -27 35t-27 -25q0 -16 15 -30t62 -38q117 -60 117 -165q0 -69 -49.5 -115.5t-119.5 -46.5q-72 0 -121 45t-49 118v22h135v-25q0 -19 9 -29.5t23 -10.5t23 9.5t9 25.5q0 18 -15 32.5t-66 40.5q-56 30 -84.5 68.5t-28.5 96.5q0 62 48 104.5t116 42.5
q69 0 117 -44t48 -114v-17h-135zM73 -220l40 170h145l-80 -170h-105z" />
    <glyph glyph-name="circumflex" unicode="&#x2c6;" horiz-adv-x="530" 
d="M115 570l100 170h100l100 -170h-106l-47 72l-47 -72h-100z" />
    <glyph glyph-name="caron" unicode="&#x2c7;" horiz-adv-x="530" 
d="M415 740l-100 -170h-100l-100 170h106l47 -73l47 73h100z" />
    <glyph glyph-name="breve" unicode="&#x2d8;" horiz-adv-x="452" 
d="M100 740h91v-50q0 -40 35 -40t35 40v50h91v-44q0 -57 -35 -91.5t-91 -34.5q-57 0 -91.5 33.5t-34.5 90.5v46z" />
    <glyph glyph-name="dotaccent" unicode="&#x2d9;" horiz-adv-x="279" 
d="M68 647q0 32 20.5 52.5t52.5 20.5t52.5 -20.5t20.5 -52.5t-20.5 -52.5t-52.5 -20.5t-52.5 20.5t-20.5 52.5z" />
    <glyph glyph-name="ring" unicode="&#x2da;" horiz-adv-x="320" 
d="M65 680q0 39 27 64.5t68 25.5t68 -25.5t27 -64.5t-27 -64.5t-68 -25.5t-68 25.5t-27 64.5zM126 680q0 -14 9.5 -23.5t24.5 -9.5t24.5 9.5t9.5 23.5t-9.5 23.5t-24.5 9.5t-24.5 -9.5t-9.5 -23.5z" />
    <glyph glyph-name="ogonek" unicode="&#x2db;" horiz-adv-x="345" 
d="M160 50l37 -50q-21 -12 -21 -42q0 -23 15 -37t40 -14l29 3v-89q-15 -6 -45 -6q-58 0 -96.5 33.5t-38.5 86.5q0 37 20 65.5t40 39.5z" />
    <glyph glyph-name="tilde" unicode="&#x2dc;" horiz-adv-x="467" 
d="M168 595h-73q0 5 0.5 12.5t5.5 27.5t14 35.5t28 28t44 12.5q30 0 58.5 -20.5t41.5 -20.5q9 0 14.5 8.5t6.5 17.5l1 9h73q0 -5 -0.5 -12.5t-5.5 -27.5t-14 -35.5t-28 -28t-44 -12.5q-30 0 -58.5 20.5t-41.5 20.5q-9 0 -14.5 -8.5t-6.5 -17.5z" />
    <glyph glyph-name="hungarumlaut" unicode="&#x2dd;" horiz-adv-x="570" 
d="M110 570l30 170h140l-70 -170h-100zM290 570l30 170h140l-70 -170h-100z" />
    <glyph glyph-name="Delta" unicode="&#x394;" horiz-adv-x="425" 
d="M285 700l140 -700h-425l140 700h145zM207 451l-43 -311h86z" />
    <glyph glyph-name="Delta" unicode="&#x2206;" horiz-adv-x="425" 
d="M285 700l140 -700h-425l140 700h145zM207 451l-43 -311h86z" />
    <glyph glyph-name="pi" unicode="&#x3c0;" horiz-adv-x="485" 
d="M210 0h-140v400h-60v120h450v-120h-60v-245q0 -22 8.5 -31t28.5 -9l18 1v-120q-29 -6 -65 -6q-60 0 -95 31.5t-35 91.5v287h-50v-400z" />
    <glyph glyph-name="Wgrave" unicode="&#x1e80;" horiz-adv-x="580" 
d="M332 0l-42 323l-42 -323h-133l-115 700h160l33 -375l44 375h116l44 -375l33 375h150l-115 -700h-133zM302 920l40 -170h-105l-80 170h145z" />
    <glyph glyph-name="wgrave" unicode="&#x1e81;" horiz-adv-x="515" 
d="M105 0l-105 520h145l28 -266l39 266h101l39 -266l28 266h135l-105 -520h-119l-34 256l-33 -256h-119zM260 740l40 -170h-105l-80 170h145z" />
    <glyph glyph-name="Wacute" unicode="&#x1e82;" horiz-adv-x="580" 
d="M332 0l-42 323l-42 -323h-133l-115 700h160l33 -375l44 375h116l44 -375l33 375h150l-115 -700h-133zM247 750l40 170h145l-80 -170h-105z" />
    <glyph glyph-name="wacute" unicode="&#x1e83;" horiz-adv-x="515" 
d="M291 0l-34 256l-33 -256h-119l-105 520h145l28 -266l39 266h101l39 -266l28 266h135l-105 -520h-119zM225 570l40 170h145l-80 -170h-105z" />
    <glyph glyph-name="Wdieresis" unicode="&#x1e84;" horiz-adv-x="580" 
d="M115 0l-115 700h160l33 -375l44 375h116l44 -375l33 375h150l-115 -700h-133l-42 323l-42 -323h-133zM132 817q0 32 20.5 52.5t52.5 20.5t52.5 -20.5t20.5 -52.5t-20.5 -52.5t-52.5 -20.5t-52.5 20.5t-20.5 52.5zM308 817q0 32 20.5 52.5t52.5 20.5t52.5 -20.5
t20.5 -52.5t-20.5 -52.5t-52.5 -20.5t-52.5 20.5t-20.5 52.5z" />
    <glyph glyph-name="wdieresis" unicode="&#x1e85;" horiz-adv-x="515" 
d="M105 0l-105 520h145l28 -266l39 266h101l39 -266l28 266h135l-105 -520h-119l-34 256l-33 -256h-119zM96 637q0 32 20.5 52.5t52.5 20.5t52.5 -20.5t20.5 -52.5t-20.5 -52.5t-52.5 -20.5t-52.5 20.5t-20.5 52.5zM272 637q0 32 20.5 52.5t52.5 20.5t52.5 -20.5t20.5 -52.5
t-20.5 -52.5t-52.5 -20.5t-52.5 20.5t-20.5 52.5z" />
    <glyph glyph-name="uni1E9E" unicode="&#x1e9e;" horiz-adv-x="435" 
d="M205 -7v139q8 -2 25 -2q35 0 35 40v130q0 40 -35 40h-20v100l39 118q-8 12 -30 12q-16 0 -25.5 -11t-9.5 -29v-530h-149v533q0 79 53 128t129 49q39 0 71.5 -11t51 -26t32 -30.5t18.5 -26.5l5 -11l-62 -161q82 -48 82 -152v-135q0 -76 -49.5 -121.5t-122.5 -45.5z" />
    <glyph glyph-name="Ygrave" unicode="&#x1ef2;" horiz-adv-x="395" 
d="M122 0v250l-122 450h160l42 -250l43 250h150l-123 -450v-250h-150zM213 920l40 -170h-105l-80 170h145z" />
    <glyph glyph-name="ygrave" unicode="&#x1ef3;" horiz-adv-x="360" 
d="M115 0l-115 520h145l40 -320l40 320h135l-118 -532q-35 -158 -157 -158q-21 0 -37 2t-22 4l-6 3v110q14 -4 35 -4q51 0 60 55zM199 740l40 -170h-105l-80 170h145z" />
    <glyph glyph-name="endash" unicode="&#x2013;" horiz-adv-x="450" 
d="M420 290h-390v130h390v-130z" />
    <glyph glyph-name="emdash" unicode="&#x2014;" horiz-adv-x="520" 
d="M490 290h-460v130h460v-130z" />
    <glyph glyph-name="quoteleft" unicode="&#x2018;" horiz-adv-x="235" 
d="M90 700h110l-10 -290h-155z" />
    <glyph glyph-name="quoteright" unicode="&#x2019;" horiz-adv-x="235" 
d="M145 410h-110l10 290h155z" />
    <glyph glyph-name="quotesinglbase" unicode="&#x201a;" horiz-adv-x="235" 
d="M145 -130h-110l10 290h155z" />
    <glyph glyph-name="quotedblleft" unicode="&#x201c;" horiz-adv-x="435" 
d="M90 700h110l-10 -290h-155zM290 700h110l-10 -290h-155z" />
    <glyph glyph-name="quotedblright" unicode="&#x201d;" horiz-adv-x="435" 
d="M145 410h-110l10 290h155zM345 410h-110l10 290h155z" />
    <glyph glyph-name="quotedblbase" unicode="&#x201e;" horiz-adv-x="435" 
d="M145 -130h-110l10 290h155zM345 -130h-110l10 290h155z" />
    <glyph glyph-name="dagger" unicode="&#x2020;" horiz-adv-x="350" 
d="M320 510h-90v-200h-110v200h-90v100h90v90h110v-90h90v-100z" />
    <glyph glyph-name="daggerdbl" unicode="&#x2021;" horiz-adv-x="350" 
d="M30 420h90v90h-90v100h90v90h110v-90h90v-100h-90v-90h90v-100h-90v-90h-110v90h-90v100z" />
    <glyph glyph-name="bullet" unicode="&#x2022;" horiz-adv-x="340" 
d="M30 349q0 58 41.5 99.5t99.5 41.5t98.5 -40.5t40.5 -98.5t-41.5 -99.5t-99.5 -41.5t-98.5 40.5t-40.5 98.5z" />
    <glyph glyph-name="perthousand" unicode="&#x2030;" horiz-adv-x="855" 
d="M20 478q0 57 39 94.5t96 37.5t95 -36.5t38 -93.5t-39 -94.5t-96 -37.5t-95 36.5t-38 93.5zM117 479q0 -17 10.5 -28t26.5 -11t26.5 11t10.5 28t-10.5 28t-26.5 11t-26.5 -11t-10.5 -28zM272 120q0 57 39 94.5t96 37.5t95 -36.5t38 -93.5t-39 -94.5t-96 -37.5t-95 36.5
t-38 93.5zM369 121q0 -17 10.5 -28t26.5 -11t26.5 11t10.5 28t-10.5 28t-26.5 11t-26.5 -11t-10.5 -28zM567 120q0 57 39 94.5t96 37.5t95 -36.5t38 -93.5t-39 -94.5t-96 -37.5t-95 36.5t-38 93.5zM664 121q0 -17 10.5 -28t26.5 -11t26.5 11t10.5 28t-10.5 28t-26.5 11
t-26.5 -11t-10.5 -28zM50 0l370 600h90l-370 -600h-90z" />
    <glyph glyph-name="guilsinglleft" unicode="&#x2039;" horiz-adv-x="345" 
d="M295 475l-110 -123l110 -122l-75 -80l-190 180v40l190 180z" />
    <glyph glyph-name="guilsinglright" unicode="&#x203a;" horiz-adv-x="345" 
d="M50 225l109 122l-109 123l75 80l190 -180v-40l-190 -180z" />
    <glyph glyph-name="fraction" unicode="&#x2044;" horiz-adv-x="110" 
d="M-190 0l400 700h90l-400 -700h-90z" />
    <glyph glyph-name="zerosuperior" unicode="&#x2070;" horiz-adv-x="268" 
d="M25 379v220q0 47 32.5 77t77.5 30t76.5 -29t31.5 -76v-220q0 -47 -32.5 -77t-77.5 -30t-76.5 29t-31.5 76zM116 599v-218q0 -22 18 -22t18 22v218q0 22 -18 22t-18 -22z" />
    <glyph glyph-name="foursuperior" unicode="&#x2074;" horiz-adv-x="260" 
d="M131 280v88h-116v74l112 258h85v-261h33v-71h-33v-88h-81zM86 439h45v116z" />
    <glyph glyph-name="fivesuperior" unicode="&#x2075;" horiz-adv-x="261" 
d="M31 463v237h196v-82h-114v-64q18 15 41 15q35 0 58.5 -23.5t23.5 -61.5v-105q0 -45 -32 -75t-76 -30q-43 0 -73 28t-30 72v44h88v-39q0 -20 16 -20t16 20v94q0 20 -16 20t-16 -20v-10h-82z" />
    <glyph glyph-name="sixsuperior" unicode="&#x2076;" horiz-adv-x="272" 
d="M25 380v47q0 73 23 129l56 144h91l-61 -149q10 5 21 5q44 0 68 -26.5t24 -73.5v-74q0 -47 -33 -77.5t-79 -30.5t-78 29.5t-32 76.5zM116 458v-77q0 -22 20 -22t20 22v77q0 22 -20 22t-20 -22z" />
    <glyph glyph-name="sevensuperior" unicode="&#x2077;" horiz-adv-x="230" 
d="M29 280l91 335h-105v85h200v-67l-93 -353h-93z" />
    <glyph glyph-name="eightsuperior" unicode="&#x2078;" horiz-adv-x="264" 
d="M25 577v24q0 46 31.5 75.5t76.5 29.5t75.5 -28t30.5 -75v-23q0 -47 -31 -76q36 -31 36 -82v-38q0 -49 -32.5 -79.5t-80.5 -30.5t-79.5 29.5t-31.5 78.5v37q0 50 36 83q-31 29 -31 75zM111 444v-66q0 -25 21 -25t21 25v66q0 25 -21 25t-21 -25zM116 607v-51q0 -21 16 -21
t16 21v51q0 20 -16 20t-16 -20z" />
    <glyph glyph-name="ninesuperior" unicode="&#x2079;" horiz-adv-x="272" 
d="M247 600v-47q0 -73 -23 -129l-56 -144h-91l60 148q-8 -4 -20 -4q-44 0 -68 26.5t-24 73.5v74q0 47 33 77.5t79 30.5t78 -29.5t32 -76.5zM156 522v77q0 22 -20 22t-20 -22v-77q0 -22 20 -22t20 22z" />
    <glyph glyph-name="zeroinferior" unicode="&#x2080;" horiz-adv-x="268" 
d="M25 99v220q0 47 32.5 77t77.5 30t76.5 -29t31.5 -76v-220q0 -47 -32.5 -77t-77.5 -30t-76.5 29t-31.5 76zM116 319v-218q0 -22 18 -22t18 22v218q0 22 -18 22t-18 -22z" />
    <glyph glyph-name="oneinferior" unicode="&#x2081;" horiz-adv-x="222" 
d="M0 335l110 85h77v-420h-91v312l-51 -37z" />
    <glyph glyph-name="twoinferior" unicode="&#x2082;" horiz-adv-x="252" 
d="M232 0h-212v64l107 197q14 25 14 55q0 25 -17 25q-16 0 -16 -25v-40h-88v43q0 47 31.5 77t75.5 30q45 0 75 -29t30 -76q0 -41 -30 -96l-81 -143h111v-82z" />
    <glyph glyph-name="threeinferior" unicode="&#x2083;" horiz-adv-x="255" 
d="M127 426q44 0 73.5 -27.5t29.5 -72.5v-39q0 -43 -28 -71q33 -31 33 -78v-37q0 -47 -32 -77t-78 -30q-45 0 -75 29t-30 76v42h88v-43q0 -22 18 -22t18 22v58q0 24 -18 24h-27v69h27q13 0 13 19v59q0 17 -13 17t-13 -17v-39h-88v36q0 45 30 73.5t72 28.5z" />
    <glyph glyph-name="fourinferior" unicode="&#x2084;" horiz-adv-x="260" 
d="M131 0v88h-116v74l112 258h85v-261h33v-71h-33v-88h-81zM86 159h45v116z" />
    <glyph glyph-name="fiveinferior" unicode="&#x2085;" horiz-adv-x="261" 
d="M31 183v237h196v-82h-114v-64q18 15 41 15q35 0 58.5 -23.5t23.5 -61.5v-105q0 -45 -32 -75t-76 -30q-43 0 -73 28t-30 72v44h88v-39q0 -20 16 -20t16 20v94q0 20 -16 20t-16 -20v-10h-82z" />
    <glyph glyph-name="sixinferior" unicode="&#x2086;" horiz-adv-x="272" 
d="M25 100v47q0 73 23 129l56 144h91l-61 -149q10 5 21 5q44 0 68 -26.5t24 -73.5v-74q0 -47 -33 -77.5t-79 -30.5t-78 29.5t-32 76.5zM116 178v-77q0 -22 20 -22t20 22v77q0 22 -20 22t-20 -22z" />
    <glyph glyph-name="seveninferior" unicode="&#x2087;" horiz-adv-x="230" 
d="M29 0l91 335h-105v85h200v-67l-93 -353h-93z" />
    <glyph glyph-name="eightinferior" unicode="&#x2088;" horiz-adv-x="264" 
d="M25 297v24q0 46 31.5 75.5t76.5 29.5t75.5 -28t30.5 -75v-23q0 -47 -31 -76q36 -31 36 -82v-38q0 -49 -32.5 -79.5t-80.5 -30.5t-79.5 29.5t-31.5 78.5v37q0 50 36 83q-31 29 -31 75zM111 164v-66q0 -25 21 -25t21 25v66q0 25 -21 25t-21 -25zM116 327v-51q0 -21 16 -21
t16 21v51q0 20 -16 20t-16 -20z" />
    <glyph glyph-name="nineinferior" unicode="&#x2089;" horiz-adv-x="272" 
d="M247 320v-47q0 -73 -23 -129l-56 -144h-91l60 148q-8 -4 -20 -4q-44 0 -68 26.5t-24 73.5v74q0 47 33 77.5t79 30.5t78 -29.5t32 -76.5zM156 242v77q0 22 -20 22t-20 -22v-77q0 -22 20 -22t20 22z" />
    <glyph glyph-name="Euro" unicode="&#x20ac;" horiz-adv-x="429" 
d="M272 160v60h137v-66q0 -72 -50 -118t-119 -46q-71 0 -120.5 45.5t-49.5 119.5v104h-60v72h60v38h-60v72h60v100q0 74 51.5 121.5t122.5 47.5q69 0 117 -44.5t48 -115.5v-70h-137v60q0 37 -30 37t-30 -37v-99h152v-72h-152v-38h132v-72h-132v-99q0 -37 30 -37t30 37z" />
    <glyph glyph-name="trademark" unicode="&#x2122;" horiz-adv-x="546" 
d="M371 436l-37 106v-157h-78v315h83l48 -142l49 142h80v-315h-80v154l-36 -103h-29zM219 622h-51v-237h-87v237h-51v78h189v-78z" />
    <glyph glyph-name="minus" unicode="&#x2212;" horiz-adv-x="410" 
d="M380 290h-350v130h350v-130z" />
    <glyph glyph-name="fi" unicode="&#xfb01;" horiz-adv-x="507" 
d="M10 405v115h50v57q0 66 37.5 99.5t102.5 33.5q17 0 34.5 -2t26.5 -4l9 -1v-120q-19 2 -33 2q-20 0 -28.5 -9t-8.5 -31v-25h70v-115h-70v-405h-140v405h-50zM325 0v520h142v-520h-142zM311 645q0 35 25 60t60 25t60 -25t25 -60t-25 -60t-60 -25t-60 25t-25 60z" />
    <glyph glyph-name="fl" unicode="&#xfb02;" horiz-adv-x="507" 
d="M10 405v115h50v57q0 66 37.5 99.5t102.5 33.5q17 0 34.5 -2t26.5 -4l9 -1v-120q-19 2 -33 2q-20 0 -28.5 -9t-8.5 -31v-25h70v-115h-70v-405h-140v405h-50zM325 0v700h142v-700h-142z" />
    <glyph glyph-name="one.onum" horiz-adv-x="354" 
d="M5 501l177 139h122v-640h-142v470l-87 -64z" />
    <glyph glyph-name="two.onum" horiz-adv-x="384" 
d="M357 0h-332v103l164 265q29 46 29 101q0 43 -29 43q-28 0 -28 -43v-59h-136v71q0 74 50 121.5t119 47.5q71 0 118 -46t47 -120q0 -79 -56 -169l-114 -182h168v-133z" />
    <glyph glyph-name="three.onum" horiz-adv-x="389" 
d="M194 650q68 0 115 -44.5t47 -115.5v-48q0 -64 -43 -112q51 -48 51 -123v-45q0 -75 -50.5 -123.5t-123.5 -48.5q-70 0 -117.5 47t-47.5 121v67h136v-61q0 -41 31 -41t31 41v65q0 41 -31 41h-42v115h42q23 0 23 33v66q0 33 -23 33t-23 -33v-54h-136v56q0 71 47.5 117.5
t113.5 46.5z" />
    <glyph glyph-name="four.onum" horiz-adv-x="404" 
d="M201 0v120h-181v120l174 400h135v-405h55v-115h-55v-120h-128zM131 235h70v180z" />
    <glyph glyph-name="five.onum" horiz-adv-x="393" 
d="M40 275v365h308v-133h-182v-93q29 26 70 26q54 0 90.5 -36.5t36.5 -95.5v-152q0 -72 -51 -119t-120 -47q-66 0 -114 45t-48 115v70h136v-57q0 -35 28 -35t28 35v119q0 35 -28 35t-28 -35v-7h-126z" />
    <glyph glyph-name="six.onum" horiz-adv-x="404" 
d="M27 160v81q0 104 38 189l90 210h142l-100 -223q23 13 47 13q63 0 98 -41.5t35 -108.5v-116q0 -75 -52 -124.5t-125 -49.5t-123 47.5t-50 122.5zM168 269v-103q0 -18 9.5 -28t24.5 -10t24.5 10t9.5 28v103q0 18 -9.5 28t-24.5 10t-24.5 -10t-9.5 -28z" />
    <glyph glyph-name="seven.onum" horiz-adv-x="354" 
d="M37 0l148 502h-165v138h314v-108l-152 -532h-145z" />
    <glyph glyph-name="eight.onum" horiz-adv-x="404" 
d="M33 456v28q0 73 50.5 119.5t120.5 46.5t118.5 -44.5t48.5 -117.5v-28q0 -69 -47 -116q55 -49 55 -128v-52q0 -76 -52 -125t-127 -49t-125 47t-50 123v52q0 78 55 128q-47 45 -47 116zM166 243v-82q0 -43 36 -43t36 43v82q0 43 -36 43t-36 -43zM174 487v-58q0 -35 28 -35
t28 35v58q0 35 -28 35t-28 -35z" />
    <glyph glyph-name="nine.onum" horiz-adv-x="404" 
d="M377 480v-81q0 -104 -38 -189l-90 -210h-142l99 223q-19 -13 -46 -13q-63 0 -98 41.5t-35 108.5v116q0 75 52 124.5t125 49.5t123 -47.5t50 -122.5zM236 371v103q0 18 -9.5 28t-24.5 10t-24.5 -10t-9.5 -28v-103q0 -18 9.5 -28t24.5 -10t24.5 10t9.5 28z" />
    <glyph glyph-name="zero.onum" horiz-adv-x="404" 
d="M30 155v326q0 74 51.5 121.5t122.5 47.5t120.5 -45.5t49.5 -119.5v-326q0 -74 -51.5 -121.5t-122.5 -47.5t-120.5 45.5t-49.5 119.5zM171 474v-308q0 -38 31 -38t31 38v308q0 38 -31 38t-31 -38z" />
    <glyph glyph-name="numbersign.onum" horiz-adv-x="404" 
d="M206 0l12 135h-58l-12 -135h-91l12 135h-52v85h59l11 120h-55v85h63l12 135h91l-12 -135h58l12 135h91l-12 -135h52v-85h-60l-11 -120h56v-85h-63l-12 -135h-91zM178 340l-11 -120h58l11 120h-58z" />
    <glyph glyph-name="cent.onum" horiz-adv-x="385" 
d="M156 60v78q-56 11 -91 51.5t-35 99.5v198q0 58 35 99.5t91 53.5v80h84v-80q52 -13 83.5 -53t31.5 -96v-61h-134v61q0 29 -26 29t-26 -29v-202q0 -29 26 -29t26 29v66h134v-62q0 -56 -32 -96.5t-83 -55.5v-81h-84z" />
    <glyph glyph-name="dollar.onum" horiz-adv-x="389" 
d="M161 215v-54q0 -40 31 -40q14 0 22.5 10.5t8.5 25.5q0 26 -15.5 51t-67.5 76q-60 59 -85 104.5t-25 94.5q0 62 33.5 103t88.5 53v81h84v-78q56 -10 89.5 -49t33.5 -101v-52h-136v44q0 35 -26 35t-26 -31q0 -20 17 -44t68 -75q59 -59 83.5 -105.5t24.5 -101.5
q0 -64 -35 -107t-93 -55v-80h-84v78q-58 10 -92.5 50t-34.5 105v62h136z" />
    <glyph glyph-name="sterling.onum" horiz-adv-x="423" 
d="M319 264h-108v-131h183v-133h-324v264h-60v82h60v138q0 73 50.5 119.5t120.5 46.5q68 0 115 -43t47 -114v-73h-136v62q0 35 -28 35t-28 -35v-136h108v-82z" />
    <glyph glyph-name="Euro.onum" horiz-adv-x="423" 
d="M267 158v42h136v-49q0 -71 -49 -116t-117 -45q-70 0 -118.5 44.5t-48.5 117.5v82h-60v72h60v28h-60v72h60v78q0 73 50.5 119.5t120.5 46.5q68 0 115 -43t47 -114v-53h-136v42q0 35 -28 35t-28 -35v-76h147v-72h-147v-28h127v-72h-127v-76q0 -35 28 -35t28 35z" />
    <glyph glyph-name="yen.onum" horiz-adv-x="409" 
d="M129 0v179h-99v72h99v19l-8 24h-91v72h68l-88 274h157l41 -218l44 218h147l-89 -274h69v-72h-92l-8 -24v-19h100v-72h-100v-179h-150z" />
    <glyph glyph-name="florin.onum" horiz-adv-x="354" 
d="M192 -160h-142l32 409h-72v87h79l13 160q6 75 47.5 114.5t111.5 39.5q20 0 38 -2t27 -4l8 -1v-130q-14 4 -40 4q-48 0 -53 -57l-10 -124h91v-87h-98z" />
    <glyph glyph-name="percent.onum" horiz-adv-x="560" 
d="M20 440q0 57 38 93.5t95 36.5t94 -35.5t37 -92.5t-38 -93.5t-95 -36.5t-94 35.5t-37 92.5zM115 441q0 -17 10.5 -28t26.5 -11t26.5 11t10.5 28t-10.5 28t-26.5 11t-26.5 -11t-10.5 -28zM276 118q0 57 38 93.5t95 36.5t94 -35.5t37 -92.5t-38 -93.5t-95 -36.5t-94 35.5
t-37 92.5zM371 119q0 -17 10.5 -28t26.5 -11t26.5 11t10.5 28t-10.5 28t-26.5 11t-26.5 -11t-10.5 -28zM50 0l370 560h90l-370 -560h-90z" />
    <glyph glyph-name="perthousand.onum" horiz-adv-x="855" 
d="M20 440q0 57 38 93.5t95 36.5t94 -35.5t37 -92.5t-38 -93.5t-95 -36.5t-94 35.5t-37 92.5zM115 441q0 -17 10.5 -28t26.5 -11t26.5 11t10.5 28t-10.5 28t-26.5 11t-26.5 -11t-10.5 -28zM276 118q0 57 38 93.5t95 36.5t94 -35.5t37 -92.5t-38 -93.5t-95 -36.5t-94 35.5
t-37 92.5zM371 119q0 -17 10.5 -28t26.5 -11t26.5 11t10.5 28t-10.5 28t-26.5 11t-26.5 -11t-10.5 -28zM571 118q0 57 38 93.5t95 36.5t94 -35.5t37 -92.5t-38 -93.5t-95 -36.5t-94 35.5t-37 92.5zM666 119q0 -17 10.5 -28t26.5 -11t26.5 11t10.5 28t-10.5 28t-26.5 11
t-26.5 -11t-10.5 -28zM50 0l370 560h90l-370 -560h-90z" />
    <glyph glyph-name="one.lnum" horiz-adv-x="410" 
d="M5 564l173 136h122v-577h100v-123h-362v123h120v407l-83 -61z" />
    <glyph glyph-name="two.lnum" horiz-adv-x="410" 
d="M380 0h-350v103l180 322q28 52 28 97q0 50 -36 50q-35 0 -35 -50v-62h-137v73q0 77 52.5 127t124.5 50q74 0 123.5 -48.5t49.5 -125.5q0 -75 -55 -171l-132 -232h187v-133z" />
    <glyph glyph-name="three.lnum" horiz-adv-x="410" 
d="M202 710q71 0 120.5 -45.5t49.5 -119.5v-68q0 -70 -47 -117q55 -49 55 -128v-65q0 -77 -53 -127t-129 -50q-74 0 -123.5 48t-49.5 125v72h137v-67q0 -45 38 -45t38 45v87q0 45 -38 45h-50v115h50q13 0 21.5 11t8.5 26v88q0 37 -30 37t-30 -37v-60h-137v61q0 74 50 121.5
t119 47.5z" />
    <glyph glyph-name="four.lnum" horiz-adv-x="410" 
d="M207 0v150h-187v120l180 430h135v-435h55v-115h-55v-150h-128zM131 265h76v204z" />
    <glyph glyph-name="five.lnum" horiz-adv-x="410" 
d="M40 305v395h324v-133h-197v-117q32 30 77 30q57 0 96 -39t39 -101v-176q0 -75 -53.5 -124.5t-125.5 -49.5q-70 0 -120 46.5t-50 118.5v75h137v-60q0 -19 9.5 -30.5t25.5 -11.5t25.5 12t9.5 30v145q0 19 -9.5 30.5t-25.5 11.5t-25.5 -11.5t-9.5 -30.5v-10h-127z" />
    <glyph glyph-name="six.lnum" horiz-adv-x="410" 
d="M27 160v91q0 118 38 209l93 240h142l-101 -250q18 10 38 10q70 0 108 -43t38 -117v-136q0 -75 -53.5 -124.5t-126.5 -49.5t-124.5 47.5t-51.5 122.5zM169 297v-129q0 -18 10 -29t26 -11t26 11t10 29v129q0 18 -10 29t-26 11t-26 -11t-10 -29z" />
    <glyph glyph-name="seven.lnum" horiz-adv-x="410" 
d="M65 0l166 562h-201v138h350v-108l-170 -592h-145z" />
    <glyph glyph-name="eight.lnum" horiz-adv-x="410" 
d="M33 489v52q0 74 51.5 121.5t122.5 47.5t120.5 -45.5t49.5 -119.5v-52q0 -70 -50 -120q58 -50 58 -130v-76q0 -77 -53 -127t-129 -50t-127 48t-51 125v76q0 81 57 131q-49 46 -49 119zM167 271v-108q0 -45 38 -45t38 45v108q0 45 -38 45t-38 -45zM175 545v-84
q0 -37 30 -37t30 37v84q0 37 -30 37t-30 -37z" />
    <glyph glyph-name="nine.lnum" horiz-adv-x="410" 
d="M383 540v-91q0 -118 -38 -209l-93 -240h-142l101 249q-17 -9 -38 -9q-70 0 -108 43t-38 117v136q0 75 53.5 124.5t126.5 49.5t124.5 -47.5t51.5 -122.5zM241 403v129q0 18 -10 29t-26 11t-26 -11t-10 -29v-129q0 -18 10 -29t26 -11t26 11t10 29z" />
    <glyph glyph-name="zero.lnum" horiz-adv-x="410" 
d="M30 158v380q0 75 52.5 123.5t124.5 48.5t122.5 -46.5t50.5 -121.5v-380q0 -75 -52.5 -123.5t-124.5 -48.5t-122.5 46.5t-50.5 121.5zM172 532v-364q0 -40 33 -40t33 40v364q0 40 -33 40t-33 -40z" />
    <glyph glyph-name="numbersign.lnum" horiz-adv-x="410" 
d="M209 0l14 195h-58l-14 -195h-91l14 195h-54v85h60l10 140h-55v85h61l14 195h91l-14 -195h58l14 195h91l-14 -195h54v-85h-60l-10 -140h55v-85h-61l-14 -195h-91zM181 420l-10 -140h58l10 140h-58z" />
    <glyph glyph-name="cent.lnum" horiz-adv-x="410" 
d="M169 100v78q-57 11 -93 51.5t-36 99.5v218q0 57 36.5 99t92.5 54v80h84v-80q52 -13 85 -53t33 -96v-71h-135v69q0 31 -28 31t-28 -31v-218q0 -31 28 -31t28 31v74h135v-72q0 -55 -33 -96t-85 -56v-81h-84z" />
    <glyph glyph-name="dollar.lnum" horiz-adv-x="410" 
d="M167 225v-59q0 -43 33 -43q15 0 24 10.5t9 28.5q0 67 -86 152q-112 111 -112 224q0 64 34.5 106.5t90.5 55.5v80h84v-78q57 -10 91.5 -50.5t34.5 -104.5v-57h-137v49q0 38 -28 38t-28 -34q0 -56 88 -144q110 -111 110 -232q0 -66 -36 -110t-95 -57v-80h-84v78
q-59 10 -94.5 51.5t-35.5 108.5v67h137z" />
    <glyph glyph-name="sterling.lnum" horiz-adv-x="410" 
d="M310 294h-113v-161h188v-133h-330v294h-45v82h45v165q0 74 51.5 121.5t122.5 47.5q69 0 117 -44.5t48 -115.5v-80h-137v70q0 37 -30 37t-30 -37v-164h113v-82z" />
    <glyph glyph-name="Euro.lnum" horiz-adv-x="410" 
d="M257 160v60h137v-66q0 -72 -50 -118t-119 -46q-71 0 -120.5 45.5t-49.5 119.5v104h-45v72h45v38h-45v72h45v100q0 74 51.5 121.5t122.5 47.5q69 0 117 -44.5t48 -115.5v-70h-137v60q0 37 -30 37t-30 -37v-99h152v-72h-152v-38h132v-72h-132v-99q0 -37 30 -37t30 37z" />
    <glyph glyph-name="yen.lnum" horiz-adv-x="410" 
d="M130 0v209h-100v72h100v19l-7 24h-93v72h71l-91 304h158l41 -232l43 232h148l-92 -304h72v-72h-94l-7 -24v-19h101v-72h-101v-209h-149z" />
    <glyph glyph-name="florin.lnum" horiz-adv-x="410" 
d="M222 -160h-142l34 439h-84v87h91l15 185q6 77 48.5 118t114.5 41q22 0 42.5 -3t29.5 -6l9 -3v-127q-16 6 -48 6q-51 0 -56 -62l-12 -149h101v-87h-108z" />
    <glyph glyph-name="percent.lnum" horiz-adv-x="590" 
d="M50 0l395 700h95l-395 -700h-95zM20 568q0 62 41.5 102t103.5 40t102.5 -39t40.5 -101t-41.5 -102t-103.5 -40t-102.5 39t-40.5 101zM122 569q0 -20 11.5 -32t30.5 -12t30.5 12t11.5 32t-11.5 32t-30.5 12t-30.5 -12t-11.5 -32zM282 130q0 62 41.5 102t103.5 40
t102.5 -39t40.5 -101t-41.5 -102t-103.5 -40t-102.5 39t-40.5 101zM384 131q0 -20 11.5 -32t30.5 -12t30.5 12t11.5 32t-11.5 32t-30.5 12t-30.5 -12t-11.5 -32z" />
    <glyph glyph-name="perthousand.lnum" horiz-adv-x="910" 
d="M20 568q0 62 41.5 102t103.5 40t102.5 -39t40.5 -101t-41.5 -102t-103.5 -40t-102.5 39t-40.5 101zM122 569q0 -20 11.5 -32t30.5 -12t30.5 12t11.5 32t-11.5 32t-30.5 12t-30.5 -12t-11.5 -32zM282 130q0 62 41.5 102t103.5 40t102.5 -39t40.5 -101t-41.5 -102
t-103.5 -40t-102.5 39t-40.5 101zM384 131q0 -20 11.5 -32t30.5 -12t30.5 12t11.5 32t-11.5 32t-30.5 12t-30.5 -12t-11.5 -32zM602 130q0 62 41.5 102t103.5 40t102.5 -39t40.5 -101t-41.5 -102t-103.5 -40t-102.5 39t-40.5 101zM704 131q0 -20 11.5 -32t30.5 -12t30.5 12
t11.5 32t-11.5 32t-30.5 12t-30.5 -12t-11.5 -32zM50 0l395 700h95l-395 -700h-95z" />
    <glyph glyph-name="numbersignsuperior" horiz-adv-x="260" 
d="M132 280l8 115h-34l-8 -115h-59l8 115h-32v55h36l6 80h-33v55h37l8 115h59l-8 -115h34l8 115h59l-8 -115h32v-55h-36l-6 -80h33v-55h-37l-8 -115h-59zM116 530l-6 -80h34l6 80h-34z" />
    <glyph glyph-name="centsuperior" horiz-adv-x="257" 
d="M102 340v48q-35 8 -56 32.5t-21 60.5v123q0 36 21.5 61t55.5 34v49h59v-49q32 -8 51.5 -33t19.5 -59v-39h-87v41q0 17 -15 17t-15 -17v-130q0 -17 15 -17t15 17v44h87v-39q0 -34 -20 -60t-51 -35v-49h-59z" />
    <glyph glyph-name="dollarsuperior" horiz-adv-x="255" 
d="M108 415v-33q0 -26 18 -26t18 23q0 22 -10 40.5t-41 47.5q-70 63 -70 136q0 37 20.5 62t54.5 34v49h59v-48q34 -7 54.5 -32t20.5 -64v-30h-88v27q0 23 -15 23t-15 -20q0 -36 52 -84q69 -66 69 -140q0 -39 -21 -65t-57 -35v-48h-59v47q-78 17 -78 100v36h88z" />
    <glyph glyph-name="sterlingsuperior" horiz-adv-x="277" 
d="M207 452h-70v-90h115v-82h-206v172h-36v58h36v91q0 46 31.5 75.5t76.5 29.5q44 0 73.5 -27.5t29.5 -72.5v-44h-88v42q0 20 -16 20t-16 -20v-94h70v-58z" />
    <glyph glyph-name="Eurosuperior" horiz-adv-x="277" 
d="M169 376v36h88v-36q0 -45 -31 -73.5t-74 -28.5q-45 0 -75.5 28t-30.5 75v55h-36v46h36v24h-36v46h36v53q0 46 31.5 75.5t76.5 29.5q44 0 73.5 -27.5t29.5 -72.5v-38h-88v36q0 20 -16 20t-16 -20v-56h93v-46h-93v-24h81v-46h-81v-56q0 -20 16 -20t16 20z" />
    <glyph glyph-name="yensuperior" horiz-adv-x="265" 
d="M83 280v122h-61v46h61v12l-5 15h-56v46h42l-54 179h101l24 -138l25 138h95l-56 -179h44v-46h-58l-4 -15v-12h62v-46h-62v-122h-98z" />
    <glyph glyph-name="florinsuperior" horiz-adv-x="232" 
d="M125 184h-91l20 261h-44v57h49l9 112q8 92 98 92l46 -4v-81q-11 3 -26 3q-25 0 -28 -32l-8 -90h55v-57h-59z" />
    <glyph glyph-name="percentsuperior" horiz-adv-x="380" 
d="M41 280l237 420h61l-237 -420h-61zM20 619q0 38 25.5 62.5t63.5 24.5t63 -24t25 -62t-25.5 -62.5t-63.5 -24.5t-63 24t-25 62zM83 619q0 -11 7 -18.5t18 -7.5t18.5 7.5t7.5 18.5q0 12 -7.5 19.5t-18.5 7.5t-18 -7.5t-7 -19.5zM183 360q0 38 25.5 62.5t63.5 24.5t63 -24
t25 -62t-25.5 -62.5t-63.5 -24.5t-63 24t-25 62zM246 360q0 -11 7 -18.5t18 -7.5t18.5 7.5t7.5 18.5q0 12 -7.5 19.5t-18.5 7.5t-18 -7.5t-7 -19.5z" />
    <glyph glyph-name="perthousandsuperior" horiz-adv-x="577" 
d="M20 619q0 38 25.5 62.5t63.5 24.5t63 -24t25 -62t-25.5 -62.5t-63.5 -24.5t-63 24t-25 62zM83 619q0 -11 7 -18.5t18 -7.5t18.5 7.5t7.5 18.5q0 12 -7.5 19.5t-18.5 7.5t-18 -7.5t-7 -19.5zM183 360q0 38 25.5 62.5t63.5 24.5t63 -24t25 -62t-25.5 -62.5t-63.5 -24.5
t-63 24t-25 62zM246 360q0 -11 7 -18.5t18 -7.5t18.5 7.5t7.5 18.5q0 12 -7.5 19.5t-18.5 7.5t-18 -7.5t-7 -19.5zM380 360q0 38 25.5 62.5t63.5 24.5t63 -24t25 -62t-25.5 -62.5t-63.5 -24.5t-63 24t-25 62zM443 360q0 -11 7 -18.5t18 -7.5t18.5 7.5t7.5 18.5
q0 12 -7.5 19.5t-18.5 7.5t-18 -7.5t-7 -19.5zM41 280l237 420h61l-237 -420h-61z" />
    <glyph glyph-name="G.ss01" 
d="M215 270v115h185v-343q0 -2 -23 -14t-68.5 -25t-90.5 -13q-83 0 -135.5 48t-52.5 130v360q0 81 54 131.5t133 50.5t131 -48.5t52 -129.5v-87h-150v85q0 40 -35 40t-35 -40v-363q0 -42 42 -42q11 0 20.5 3t13.5 6l4 3v133h-45z" />
    <glyph glyph-name="Gbreve.ss01" 
d="M215 270v115h185v-343q0 -2 -23 -14t-68.5 -25t-90.5 -13q-83 0 -135.5 48t-52.5 130v360q0 81 54 131.5t133 50.5t131 -48.5t52 -129.5v-87h-150v85q0 40 -35 40t-35 -40v-363q0 -42 42 -42q11 0 20.5 3t13.5 6l4 3v133h-45zM89 920h91v-50q0 -40 35 -40t35 40v50h91
v-44q0 -57 -35 -91.5t-91 -34.5q-57 0 -91.5 33.5t-34.5 90.5v46z" />
    <glyph glyph-name="Gcommaaccent.ss01" 
d="M215 270v115h185v-343q0 -2 -23 -14t-68.5 -25t-90.5 -13q-83 0 -135.5 48t-52.5 130v360q0 81 54 131.5t133 50.5t131 -48.5t52 -129.5v-87h-150v85q0 40 -35 40t-35 -40v-363q0 -42 42 -42q11 0 20.5 3t13.5 6l4 3v133h-45zM103 -220l40 170h145l-80 -170h-105z" />
    <glyph glyph-name="Gdotaccent.ss01" 
d="M215 270v115h185v-343q0 -2 -23 -14t-68.5 -25t-90.5 -13q-83 0 -135.5 48t-52.5 130v360q0 81 54 131.5t133 50.5t131 -48.5t52 -129.5v-87h-150v85q0 40 -35 40t-35 -40v-363q0 -42 42 -42q11 0 20.5 3t13.5 6l4 3v133h-45zM142 827q0 32 20.5 52.5t52.5 20.5
t52.5 -20.5t20.5 -52.5t-20.5 -52.5t-52.5 -20.5t-52.5 20.5t-20.5 52.5z" />
    <glyph glyph-name="Gcircumflex.ss01" 
d="M215 270v115h185v-343q0 -2 -23 -14t-68.5 -25t-90.5 -13q-83 0 -135.5 48t-52.5 130v360q0 81 54 131.5t133 50.5t131 -48.5t52 -129.5v-87h-150v85q0 40 -35 40t-35 -40v-363q0 -42 42 -42q11 0 20.5 3t13.5 6l4 3v133h-45zM65 750l100 170h100l100 -170h-106l-47 72
l-47 -72h-100z" />
    <glyph glyph-name="a.ss01" horiz-adv-x="404" 
d="M369 520v-520h-120l-5 44q-29 -54 -94 -54q-56 0 -90.5 37.5t-34.5 105.5v250q0 68 36.5 107.5t92.5 39.5q63 0 90 -50l5 40h120zM229 155v210q0 16 -9 25.5t-23 9.5t-23 -9.5t-9 -25.5v-210q0 -16 9 -25.5t23 -9.5t23 9.5t9 25.5z" />
    <glyph glyph-name="agrave.ss01" horiz-adv-x="404" 
d="M369 520v-520h-120l-5 44q-29 -54 -94 -54q-56 0 -90.5 37.5t-34.5 105.5v250q0 68 36.5 107.5t92.5 39.5q63 0 90 -50l5 40h120zM229 740l40 -170h-105l-80 170h145zM229 155v210q0 16 -9 25.5t-23 9.5t-23 -9.5t-9 -25.5v-210q0 -16 9 -25.5t23 -9.5t23 9.5t9 25.5z
" />
    <glyph glyph-name="aacute.ss01" horiz-adv-x="404" 
d="M369 520v-520h-120l-5 44q-29 -54 -94 -54q-56 0 -90.5 37.5t-34.5 105.5v250q0 68 36.5 107.5t92.5 39.5q63 0 90 -50l5 40h120zM148 570l40 170h145l-80 -170h-105zM229 155v210q0 16 -9 25.5t-23 9.5t-23 -9.5t-9 -25.5v-210q0 -16 9 -25.5t23 -9.5t23 9.5t9 25.5z
" />
    <glyph glyph-name="acircumflex.ss01" horiz-adv-x="404" 
d="M369 520v-520h-120l-5 44q-29 -54 -94 -54q-56 0 -90.5 37.5t-34.5 105.5v250q0 68 36.5 107.5t92.5 39.5q63 0 90 -50l5 40h120zM62 570l100 170h100l100 -170h-106l-47 72l-47 -72h-100zM229 155v210q0 16 -9 25.5t-23 9.5t-23 -9.5t-9 -25.5v-210q0 -16 9 -25.5
t23 -9.5t23 9.5t9 25.5z" />
    <glyph glyph-name="atilde.ss01" horiz-adv-x="404" 
d="M369 520v-520h-120l-5 44q-29 -54 -94 -54q-56 0 -90.5 37.5t-34.5 105.5v250q0 68 36.5 107.5t92.5 39.5q63 0 90 -50l5 40h120zM142 574h-73q0 5 0.5 12.5t5.5 27.5t14 35.5t28 28t44 12.5q30 0 58.5 -20.5t41.5 -20.5q9 0 14.5 8.5t6.5 17.5l1 9h73q0 -5 -0.5 -12.5
t-5.5 -27.5t-14 -35.5t-28 -28t-44 -12.5q-30 0 -58.5 20.5t-41.5 20.5q-9 0 -14.5 -8.5t-6.5 -17.5zM229 155v210q0 16 -9 25.5t-23 9.5t-23 -9.5t-9 -25.5v-210q0 -16 9 -25.5t23 -9.5t23 9.5t9 25.5z" />
    <glyph glyph-name="adieresis.ss01" horiz-adv-x="404" 
d="M369 520v-520h-120l-5 44q-29 -54 -94 -54q-56 0 -90.5 37.5t-34.5 105.5v250q0 68 36.5 107.5t92.5 39.5q63 0 90 -50l5 40h120zM229 155v210q0 16 -9 25.5t-23 9.5t-23 -9.5t-9 -25.5v-210q0 -16 9 -25.5t23 -9.5t23 9.5t9 25.5zM49 637q0 32 20.5 52.5t52.5 20.5
t52.5 -20.5t20.5 -52.5t-20.5 -52.5t-52.5 -20.5t-52.5 20.5t-20.5 52.5zM225 637q0 32 20.5 52.5t52.5 20.5t52.5 -20.5t20.5 -52.5t-20.5 -52.5t-52.5 -20.5t-52.5 20.5t-20.5 52.5z" />
    <glyph glyph-name="aring.ss01" horiz-adv-x="404" 
d="M369 520v-520h-120l-5 44q-29 -54 -94 -54q-56 0 -90.5 37.5t-34.5 105.5v250q0 68 36.5 107.5t92.5 39.5q63 0 90 -50l5 40h120zM117 650q0 39 27 64.5t68 25.5t68 -25.5t27 -64.5t-27 -64.5t-68 -25.5t-68 25.5t-27 64.5zM229 155v210q0 16 -9 25.5t-23 9.5t-23 -9.5
t-9 -25.5v-210q0 -16 9 -25.5t23 -9.5t23 9.5t9 25.5zM178 650q0 -14 9.5 -23.5t24.5 -9.5t24.5 9.5t9.5 23.5t-9.5 23.5t-24.5 9.5t-24.5 -9.5t-9.5 -23.5z" />
    <glyph glyph-name="abreve.ss01" horiz-adv-x="404" 
d="M369 520v-520h-120l-5 44q-29 -54 -94 -54q-56 0 -90.5 37.5t-34.5 105.5v250q0 68 36.5 107.5t92.5 39.5q63 0 90 -50l5 40h120zM84 740h91v-50q0 -40 35 -40t35 40v50h91v-44q0 -57 -35 -91.5t-91 -34.5q-57 0 -91.5 33.5t-34.5 90.5v46zM229 155v210q0 16 -9 25.5
t-23 9.5t-23 -9.5t-9 -25.5v-210q0 -16 9 -25.5t23 -9.5t23 9.5t9 25.5z" />
    <glyph glyph-name="amacron.ss01" horiz-adv-x="404" 
d="M369 520v-520h-120l-5 44q-29 -54 -94 -54q-56 0 -90.5 37.5t-34.5 105.5v250q0 68 36.5 107.5t92.5 39.5q63 0 90 -50l5 40h120zM70 584v96h280v-96h-280zM229 155v210q0 16 -9 25.5t-23 9.5t-23 -9.5t-9 -25.5v-210q0 -16 9 -25.5t23 -9.5t23 9.5t9 25.5z" />
    <glyph glyph-name="aogonek.ss01" horiz-adv-x="404" 
d="M369 520v-520h-44q-1 0 -5.5 -4t-9.5 -14.5t-5 -23.5q0 -23 15 -37t40 -14l29 3v-89q-15 -6 -45 -6q-58 0 -96.5 33.5t-38.5 86.5q0 51 37 86l-2 23q-29 -54 -94 -54q-56 0 -90.5 37.5t-34.5 105.5v250q0 68 36.5 107.5t92.5 39.5q63 0 90 -50l5 40h120zM229 155v210
q0 16 -9 25.5t-23 9.5t-23 -9.5t-9 -25.5v-210q0 -16 9 -25.5t23 -9.5t23 9.5t9 25.5z" />
    <glyph glyph-name="aringacute.ss01" horiz-adv-x="404" 
d="M57 565q0 58 51 81l22 94h145l-58 -108q30 -27 30 -67q0 -35 -22 -60q13 -13 19 -25l5 40h120v-520h-120l-5 44q-29 -54 -94 -54q-56 0 -90.5 37.5t-34.5 105.5v250q0 82 53 123q-21 24 -21 59zM229 155v210q0 16 -9 25.5t-23 9.5t-23 -9.5t-9 -25.5v-210q0 -16 9 -25.5
t23 -9.5t23 9.5t9 25.5zM118 565q0 -14 9.5 -23.5t24.5 -9.5t24.5 9.5t9.5 23.5t-9.5 23.5t-24.5 9.5t-24.5 -9.5t-9.5 -23.5z" />
    <glyph glyph-name="K.ss01" horiz-adv-x="445" 
d="M280 0l-63 238l-27 -71v-167h-150v700h150v-275l80 275h165l-115 -296l125 -404h-165z" />
    <glyph glyph-name="Kcommaaccent.ss01" horiz-adv-x="445" 
d="M280 0l-63 238l-27 -71v-167h-150v700h150v-275l80 275h165l-115 -296l125 -404h-165zM123 -220l40 170h145l-80 -170h-105z" />
    <glyph glyph-name="k.ss01" horiz-adv-x="405" 
d="M35 0v700h140v-361l75 181h158l-103 -209l110 -311h-160l-52 179l-28 -57v-122h-140z" />
    <glyph glyph-name="kcommaaccent.ss01" horiz-adv-x="405" 
d="M35 0v700h140v-361l75 181h158l-103 -209l110 -311h-160l-52 179l-28 -57v-122h-140zM103 -220l40 170h145l-80 -170h-105z" />
    <glyph glyph-name="Sarcasm" horiz-adv-x="493" 
d="M463 682l-111 -462l-99 18l53 472zM162 75q0 35 25 60t60 25t60 -25t25 -60t-25 -60t-60 -25t-60 25t-25 60zM142 220l-112 462l157 28l53 -472z" />
    </font>
</defs>
</svg>
