<?xml version="1.0" encoding="UTF-8"?>
<svg id="Capa_1" data-name="Capa 1" xmlns="http://www.w3.org/2000/svg" viewBox="0 0 129.99 39.86">
  <defs>
    <style>
      .cls-1 {
        fill: #fff;
      }
    </style>
  </defs>
  <path class="cls-1" d="m53.62,18.89c1.95,0,3.54-1.59,3.54-3.54s-1.59-3.54-3.54-3.54-3.54,1.59-3.54,3.54,1.59,3.54,3.54,3.54Z"/>
  <g>
    <path class="cls-1" d="m7.43,23.48v.64h15.85s.12-1.03.12-2.23c0-6.64-4.45-10.57-10.49-10.57C5.48,11.32,0,17.6,0,26.1s4.93,13.67,12.04,13.67c7.59,0,11.28-5.17,11.28-5.17v-.79s-2.78,1.83-6.67,1.83c-6.36,0-10.65-3.38-10.65-12.63,0-7.43,2.78-10.05,6.04-10.05,2.78,0,5.09,1.79,5.09,6.64,0,.91-.16,1.51-.16,1.51l-9.54,2.38h0Z"/>
    <path class="cls-1" d="m38.26,22.97l-3.54-2.54c-2.19-1.59-2.42-2.98-2.42-4.29,0-1.83,1.35-3.3,4.05-3.3.48,0,.75.04.75.04l6.28,5.24h.4v-5.96s-2.78-.64-6.56-.64c-6.12,0-9.61,3.1-9.61,7.43,0,3.22,1.35,5.32,5.44,8.26l3.54,2.54c2.42,1.75,3.1,3.1,3.1,4.85,0,2.26-1.59,3.54-4.41,3.54-.75,0-1.07-.12-1.07-.12l-6.79-5.64h-.4v6.48s2.07.72,7.47.72c5.88,0,10.09-2.7,10.09-7.67.04-3.97-1.99-5.8-6.32-8.94Z"/>
    <path class="cls-1" d="m70.48,33.93v-14.38c0-4.93-2.94-8.14-8.5-8.14-4.41,0-6.95,1.47-6.95,1.47v.6s.99-.2,2.5-.2c4.45,0,6.56,2.22,6.56,7.23v3.58l-8.3,2.42c-4.65,1.35-7.27,3.26-7.27,6.95,0,3.42,2.62,6.2,6.83,6.2,4.89,0,7.55-3.69,7.55-3.69v-.64s-1.59,1.35-3.85,1.35c-2.82,0-4.29-1.67-4.33-4.17-.04-2.78,1.79-4.17,5.2-5.76l4.17-1.91v8.78c0,4.05,2.11,6.08,5.52,6.08,3.69,0,5.36-2.98,5.36-2.98v-.56s-.99.56-2.07.56c-1.83-.04-2.42-1.07-2.42-2.78h0Z"/>
    <path class="cls-1" d="m100.92,0h-.28l-9.81,2.34v.44l3.69,2.03v6.83s-1.15-.12-2.19-.12c-8.11,0-15.61,5.09-15.61,15.57,0,8.34,4.45,12.44,9.81,12.44,4.25,0,6.71-2.86,6.71-2.86v-.64s-.79.56-2.5.56c-5.24,0-7.83-3.89-7.83-11.92,0-7.59,2.7-11.16,6.64-11.16,3.22,0,4.89,2.03,4.89,2.03l-.04,23.72h9.38v-.44l-2.98-2.19S100.92,0,100.92,0Z"/>
    <path class="cls-1" d="m112.6,23.13c0-7.43,2.78-10.05,6.04-10.05,2.78,0,5.08,1.79,5.08,6.64,0,.91-.16,1.51-.16,1.51l-9.54,2.38v.64h15.85s.12-1.03.12-2.23c0-6.64-4.45-10.57-10.49-10.57-7.43,0-12.91,6.24-12.91,14.74s4.93,13.67,12.04,13.67c7.59,0,11.28-5.17,11.28-5.17v-.79s-2.78,1.83-6.68,1.83c-6.36.04-10.65-3.34-10.65-12.59h.02Z"/>
  </g>
</svg>