<svg xmlns="http://www.w3.org/2000/svg" width="130" height="40" viewBox="0 0 130 40" fill="none"><path d="M7.42971 23.4811V24.1168H23.2824C23.2824 24.1168 23.4016 23.0838 23.4016 21.8918C23.4016 15.2567 18.9517 11.3234 12.9126 11.3234C5.48289 11.3234 0 17.6009 0 26.1033C0 34.2482 4.92665 39.7708 12.0385 39.7708C19.6271 39.7708 23.3221 34.6058 23.3221 34.6058V33.8111C23.3221 33.8111 20.541 35.6388 16.6473 35.6388C10.2903 35.6388 5.99939 32.2616 5.99939 23.0043C5.99939 15.5746 8.78057 12.9523 12.0385 12.9523C14.8197 12.9523 17.1241 14.7402 17.1241 19.5874C17.1241 20.5012 16.9652 21.0972 16.9652 21.0972L7.42971 23.4811Z" fill="#000B3D"></path><path d="M38.261 22.9646L34.7249 20.4218C32.5397 18.8325 32.3013 17.442 32.3013 16.1308C32.3013 14.3032 33.6522 12.8332 36.3539 12.8332C36.8307 12.8332 37.1088 12.8729 37.1088 12.8729L43.3863 18.1174H43.7836V12.1577C43.7836 12.1577 41.0024 11.522 37.228 11.522C31.1094 11.522 27.613 14.621 27.613 18.9517C27.613 22.17 28.9639 24.2757 33.0562 27.2158L36.5923 29.7586C39.0159 31.5068 39.6913 32.8576 39.6913 34.6058C39.6913 36.8704 38.102 38.1418 35.2811 38.1418C34.5263 38.1418 34.2084 38.0226 34.2084 38.0226L27.4144 32.3808H27.0171V38.857C27.0171 38.857 29.0831 39.5722 34.4865 39.5722C40.3667 39.5722 44.5782 36.8704 44.5782 31.9041C44.6179 27.931 42.5917 26.1033 38.261 22.9646Z" fill="#000B3D"></path><path d="M70.483 33.9303V19.5477C70.483 14.621 67.5429 11.4028 61.9805 11.4028C57.5704 11.4028 55.0276 12.8729 55.0276 12.8729V13.4688C55.0276 13.4688 56.0209 13.2702 57.5306 13.2702C61.9805 13.2702 64.0863 15.4951 64.0863 20.5012V24.077L55.7825 26.5006C51.1339 27.8515 48.5117 29.7586 48.5117 33.4535C48.5117 36.8704 51.1339 39.6516 55.3454 39.6516C60.2324 39.6516 62.8943 35.9566 62.8943 35.9566V35.3209C62.8943 35.3209 61.3051 36.6718 59.0404 36.6718C56.2195 36.6718 54.7495 35.0031 54.7097 32.5C54.67 29.7188 56.4976 28.3282 59.9145 26.739L64.0863 24.8319V33.6125C64.0863 37.665 66.192 39.6913 69.6089 39.6913C73.3039 39.6913 74.9726 36.7115 74.9726 36.7115V36.1553C74.9726 36.1553 73.9793 36.7115 72.9066 36.7115C71.0789 36.6718 70.483 35.6388 70.483 33.9303Z" fill="#000B3D"></path><path d="M53.1602 21.3356C55.107 21.3356 56.6963 19.7463 56.6963 17.7995C56.6963 15.8527 55.107 14.2634 53.1602 14.2634C51.2134 14.2634 49.6241 15.8527 49.6241 17.7995C49.6241 19.7463 51.2134 21.3356 53.1602 21.3356Z" fill="#000B3D"></path><path d="M100.917 0H100.639L90.8252 2.34413V2.78117L94.5202 4.80746V11.6412C94.5202 11.6412 93.368 11.522 92.335 11.522C84.2299 11.522 76.7207 16.6076 76.7207 27.0966C76.7207 35.4401 81.1706 39.5324 86.5343 39.5324C90.7855 39.5324 93.2488 36.6718 93.2488 36.6718V36.0361C93.2488 36.0361 92.4542 36.5923 90.7457 36.5923C85.5012 36.5923 82.9187 32.6987 82.9187 24.673C82.9187 17.0844 85.6204 13.5086 89.5538 13.5086C92.772 13.5086 94.4407 15.5348 94.4407 15.5348L94.401 39.2543H103.778V38.8172L100.798 36.632L100.917 0Z" fill="#000B3D"></path><path d="M112.598 23.1235C112.598 15.6938 115.379 13.0715 118.637 13.0715C121.418 13.0715 123.722 14.8594 123.722 19.7066C123.722 20.6204 123.564 21.2164 123.564 21.2164L114.028 23.6003V24.236H129.881C129.881 24.236 130 23.203 130 22.011C130 15.3759 125.55 11.4426 119.511 11.4426C112.081 11.4426 106.598 17.6803 106.598 26.1828C106.598 34.3277 111.525 39.8503 118.637 39.8503C126.226 39.8503 129.921 34.6852 129.921 34.6852V33.8906C129.921 33.8906 127.139 35.7182 123.246 35.7182C116.889 35.758 112.598 32.3808 112.598 23.1235Z" fill="#000B3D"></path></svg>